<svg xmlns="http://www.w3.org/2000/svg" xmlns:xlink="http://www.w3.org/1999/xlink" id="body_11" preserveAspectRatio="xMinYMin meet" viewBox="0 0 793 1121"><defs><clipPath id="1"><path id="" clip-rule="evenodd" transform="matrix(1 0 0 1 0 0)" d="M0 841L0 -0.9199829L0 -0.9199829L595.2 -0.9199829L595.2 -0.9199829L595.2 841L595.2 841L0 841z" /></clipPath><clipPath id="2"><path id="" clip-rule="evenodd" transform="matrix(1 0 0 1 0 0)" d="M304.92 436.5L357.4703 436.5L357.4703 436.5L357.4703 417.7502L357.4703 417.7502L304.92 417.7502z" /></clipPath><clipPath id="3"><path id="" clip-rule="evenodd" transform="matrix(1 0 0 1 0 0)" d="M193.74 570.43L228.09 570.43L228.09 570.43L228.09 551.95L228.09 551.95L193.74 551.95z" /></clipPath><clipPath id="4"><path id="" clip-rule="evenodd" transform="matrix(1 0 0 1 0 0)" d="M193.75 570.42L228.094 570.42L228.094 570.42L228.094 551.94L228.094 551.94L193.75 551.94z" /></clipPath><clipPath id="5"><path id="" clip-rule="evenodd" transform="matrix(1 0 0 1 0 0)" d="M193.75 570.42L228.094 570.42L228.094 570.42L228.094 551.94L228.094 551.94L193.75 551.94z" /></clipPath><clipPath id="6"><path id="" clip-rule="evenodd" transform="matrix(1 0 0 1 0 0)" d="M228.81 570.43L271.29 570.43L271.29 570.43L271.29 551.95L271.29 551.95L228.81 551.95z" /></clipPath><clipPath id="7"><path id="" clip-rule="evenodd" transform="matrix(1 0 0 1 0 0)" d="M228.82 570.42L271.3 570.42L271.3 570.42L271.3 551.94L271.3 551.94L228.82 551.94z" /></clipPath><clipPath id="8"><path id="" clip-rule="evenodd" transform="matrix(1 0 0 1 0 0)" d="M228.82 570.42L271.3 570.42L271.3 570.42L271.3 551.94L271.3 551.94L228.82 551.94z" /></clipPath><clipPath id="9"><path id="" clip-rule="evenodd" transform="matrix(1 0 0 1 0 0)" d="M272.01 570.43L313.8 570.43L313.8 570.43L313.8 551.95L313.8 551.95L272.01 551.95z" /></clipPath><clipPath id="10"><path id="" clip-rule="evenodd" transform="matrix(1 0 0 1 0 0)" d="M272.02 570.42L313.804 570.42L313.804 570.42L313.804 551.94L313.804 551.94L272.02 551.94z" /></clipPath><clipPath id="11"><path id="" clip-rule="evenodd" transform="matrix(1 0 0 1 0 0)" d="M272.02 570.42L313.804 570.42L313.804 570.42L313.804 551.94L313.804 551.94L272.02 551.94z" /></clipPath><clipPath id="12"><path id="" clip-rule="evenodd" transform="matrix(1 0 0 1 0 0)" d="M314.52 570.43L359.19 570.43L359.19 570.43L359.19 551.95L359.19 551.95L314.52 551.95z" /></clipPath><clipPath id="13"><path id="" clip-rule="evenodd" transform="matrix(1 0 0 1 0 0)" d="M314.52 570.42L359.184 570.42L359.184 570.42L359.184 551.94L359.184 551.94L314.52 551.94z" /></clipPath><clipPath id="14"><path id="" clip-rule="evenodd" transform="matrix(1 0 0 1 0 0)" d="M314.52 570.42L359.184 570.42L359.184 570.42L359.184 551.94L359.184 551.94L314.52 551.94z" /></clipPath><clipPath id="15"><path id="" clip-rule="evenodd" transform="matrix(1 0 0 1 0 0)" d="M359.91 570.43L401.67 570.43L401.67 570.43L401.67 551.95L401.67 551.95L359.91 551.95z" /></clipPath><clipPath id="16"><path id="" clip-rule="evenodd" transform="matrix(1 0 0 1 0 0)" d="M359.9 570.42L401.66 570.42L401.66 570.42L401.66 551.94L401.66 551.94L359.9 551.94z" /></clipPath><clipPath id="17"><path id="" clip-rule="evenodd" transform="matrix(1 0 0 1 0 0)" d="M359.9 570.42L401.66 570.42L401.66 570.42L401.66 551.94L401.66 551.94L359.9 551.94z" /></clipPath><clipPath id="18"><path id="" clip-rule="evenodd" transform="matrix(1 0 0 1 0 0)" d="M402.39 570.43L444.18 570.43L444.18 570.43L444.18 551.95L444.18 551.95L402.39 551.95z" /></clipPath><clipPath id="19"><path id="" clip-rule="evenodd" transform="matrix(1 0 0 1 0 0)" d="M402.38 570.42L444.164 570.42L444.164 570.42L444.164 551.94L444.164 551.94L402.38 551.94z" /></clipPath><clipPath id="20"><path id="" clip-rule="evenodd" transform="matrix(1 0 0 1 0 0)" d="M402.38 570.42L444.164 570.42L444.164 570.42L444.164 551.94L444.164 551.94L402.38 551.94z" /></clipPath><clipPath id="21"><path id="" clip-rule="evenodd" transform="matrix(1 0 0 1 0 0)" d="M193.74 591.58L228.09 591.58L228.09 591.58L228.09 571.15L228.09 571.15L193.74 571.15z" /></clipPath><clipPath id="22"><path id="" clip-rule="evenodd" transform="matrix(1 0 0 1 0 0)" d="M193.75 591.57L228.094 591.57L228.094 591.57L228.094 571.146L228.094 571.146L193.75 571.146z" /></clipPath><clipPath id="23"><path id="" clip-rule="evenodd" transform="matrix(1 0 0 1 0 0)" d="M193.75 591.57L228.094 591.57L228.094 591.57L228.094 571.146L228.094 571.146L193.75 571.146z" /></clipPath><clipPath id="24"><path id="" clip-rule="evenodd" transform="matrix(1 0 0 1 0 0)" d="M228.81 591.58L271.29 591.58L271.29 591.58L271.29 571.15L271.29 571.15L228.81 571.15z" /></clipPath><clipPath id="25"><path id="" clip-rule="evenodd" transform="matrix(1 0 0 1 0 0)" d="M228.82 591.57L271.3 591.57L271.3 591.57L271.3 571.146L271.3 571.146L228.82 571.146z" /></clipPath><clipPath id="26"><path id="" clip-rule="evenodd" transform="matrix(1 0 0 1 0 0)" d="M228.82 591.57L271.3 591.57L271.3 591.57L271.3 571.146L271.3 571.146L228.82 571.146z" /></clipPath><clipPath id="27"><path id="" clip-rule="evenodd" transform="matrix(1 0 0 1 0 0)" d="M272.01 591.58L313.8 591.58L313.8 591.58L313.8 571.15L313.8 571.15L272.01 571.15z" /></clipPath><clipPath id="28"><path id="" clip-rule="evenodd" transform="matrix(1 0 0 1 0 0)" d="M272.02 591.57L313.804 591.57L313.804 591.57L313.804 571.146L313.804 571.146L272.02 571.146z" /></clipPath><clipPath id="29"><path id="" clip-rule="evenodd" transform="matrix(1 0 0 1 0 0)" d="M272.02 591.57L313.804 591.57L313.804 591.57L313.804 571.146L313.804 571.146L272.02 571.146z" /></clipPath><clipPath id="30"><path id="" clip-rule="evenodd" transform="matrix(1 0 0 1 0 0)" d="M314.52 591.58L359.19 591.58L359.19 591.58L359.19 571.15L359.19 571.15L314.52 571.15z" /></clipPath><clipPath id="31"><path id="" clip-rule="evenodd" transform="matrix(1 0 0 1 0 0)" d="M314.52 591.57L359.184 591.57L359.184 591.57L359.184 571.146L359.184 571.146L314.52 571.146z" /></clipPath><clipPath id="32"><path id="" clip-rule="evenodd" transform="matrix(1 0 0 1 0 0)" d="M314.52 591.57L359.184 591.57L359.184 591.57L359.184 571.146L359.184 571.146L314.52 571.146z" /></clipPath><clipPath id="33"><path id="" clip-rule="evenodd" transform="matrix(1 0 0 1 0 0)" d="M359.91 591.58L401.67 591.58L401.67 591.58L401.67 571.15L401.67 571.15L359.91 571.15z" /></clipPath><clipPath id="34"><path id="" clip-rule="evenodd" transform="matrix(1 0 0 1 0 0)" d="M359.9 591.57L401.66 591.57L401.66 591.57L401.66 571.146L401.66 571.146L359.9 571.146z" /></clipPath><clipPath id="35"><path id="" clip-rule="evenodd" transform="matrix(1 0 0 1 0 0)" d="M359.9 591.57L401.66 591.57L401.66 591.57L401.66 571.146L401.66 571.146L359.9 571.146z" /></clipPath><clipPath id="36"><path id="" clip-rule="evenodd" transform="matrix(1 0 0 1 0 0)" d="M402.39 591.58L444.18 591.58L444.18 591.58L444.18 571.15L444.18 571.15L402.39 571.15z" /></clipPath><clipPath id="37"><path id="" clip-rule="evenodd" transform="matrix(1 0 0 1 0 0)" d="M402.38 591.57L444.164 591.57L444.164 591.57L444.164 571.146L444.164 571.146L402.38 571.146z" /></clipPath><clipPath id="38"><path id="" clip-rule="evenodd" transform="matrix(1 0 0 1 0 0)" d="M402.38 591.57L444.164 591.57L444.164 591.57L444.164 571.146L444.164 571.146L402.38 571.146z" /></clipPath><clipPath id="39"><path id="" clip-rule="evenodd" transform="matrix(1 0 0 1 0 0)" d="M0 293.56L595.2 293.56L595.2 293.56L595.2 55.71997L595.2 55.71997L0 55.71997z" /></clipPath><clipPath id="40"><path id="" clip-rule="evenodd" transform="matrix(1 0 0 1 0 0)" d="M172.56 293.32L465.12 293.32L465.12 293.32L465.12 55.71997L465.12 55.71997L172.56 55.71997z" /></clipPath><clipPath id="41"><path id="" clip-rule="evenodd" transform="matrix(1 0 0 1 0 0)" d="M172.56 293.32L465.12 293.32L465.12 293.32L465.12 55.71997L465.12 55.71997L172.56 55.71997z" /></clipPath><clipPath id="42"><path id="" clip-rule="evenodd" transform="matrix(1 0 0 1 0 0)" d="M172.56 293.32L465.12 293.32L465.12 293.32L465.12 55.71997L465.12 55.71997L172.56 55.71997z" /></clipPath><clipPath id="43"><path id="" clip-rule="evenodd" transform="matrix(1 0 0 1 0 0)" d="M172.56 293.32L465.12 293.32L465.12 293.32L465.12 55.71997L465.12 55.71997L172.56 55.71997z" /></clipPath><clipPath id="44"><path id="" clip-rule="evenodd" transform="matrix(1 0 0 1 0 0)" d="M172.56 293.32L465.12 293.32L465.12 293.32L465.12 55.71997L465.12 55.71997L172.56 55.71997z" /></clipPath><clipPath id="45"><path id="" clip-rule="evenodd" transform="matrix(1 0 0 1 0 0)" d="M172.56 293.32L465.12 293.32L465.12 293.32L465.12 55.71997L465.12 55.71997L172.56 55.71997z" /></clipPath><clipPath id="46"><path id="" clip-rule="evenodd" transform="matrix(1 0 0 1 0 0)" d="M172.56 293.32L465.12 293.32L465.12 293.32L465.12 55.71997L465.12 55.71997L172.56 55.71997z" /></clipPath><clipPath id="47"><path id="" clip-rule="evenodd" transform="matrix(1 0 0 1 0 0)" d="M172.56 293.32L465.12 293.32L465.12 293.32L465.12 55.71997L465.12 55.71997L172.56 55.71997z" /></clipPath><clipPath id="48"><path id="" clip-rule="evenodd" transform="matrix(1 0 0 1 0 0)" d="M172.56 293.32L465.12 293.32L465.12 293.32L465.12 55.71997L465.12 55.71997L172.56 55.71997z" /></clipPath><clipPath id="49"><path id="" clip-rule="evenodd" transform="matrix(1 0 0 1 0 0)" d="M172.56 293.32L465.12 293.32L465.12 293.32L465.12 55.71997L465.12 55.71997L172.56 55.71997z" /></clipPath><clipPath id="50"><path id="" clip-rule="evenodd" transform="matrix(1 0 0 1 0 0)" d="M172.56 293.32L465.12 293.32L465.12 293.32L465.12 55.71997L465.12 55.71997L172.56 55.71997z" /></clipPath><clipPath id="51"><path id="" clip-rule="evenodd" transform="matrix(1 0 0 1 0 0)" d="M172.56 293.32L465.12 293.32L465.12 293.32L465.12 55.71997L465.12 55.71997L172.56 55.71997z" /></clipPath><clipPath id="52"><path id="" clip-rule="evenodd" transform="matrix(1 0 0 1 0 0)" d="M172.56 293.32L465.12 293.32L465.12 293.32L465.12 55.71997L465.12 55.71997L172.56 55.71997z" /></clipPath><clipPath id="53"><path id="" clip-rule="evenodd" transform="matrix(1 0 0 1 0 0)" d="M172.56 293.32L465.12 293.32L465.12 293.32L465.12 55.71997L465.12 55.71997L172.56 55.71997z" /></clipPath><clipPath id="54"><path id="" clip-rule="evenodd" transform="matrix(1 0 0 1 0 0)" d="M172.56 293.32L465.12 293.32L465.12 293.32L465.12 55.71997L465.12 55.71997L172.56 55.71997z" /></clipPath><clipPath id="55"><path id="" clip-rule="evenodd" transform="matrix(1 0 0 1 0 0)" d="M172.56 293.32L465.12 293.32L465.12 293.32L465.12 55.71997L465.12 55.71997L172.56 55.71997z" /></clipPath><clipPath id="56"><path id="" clip-rule="evenodd" transform="matrix(1 0 0 1 0 0)" d="M172.56 293.32L465.12 293.32L465.12 293.32L465.12 55.71997L465.12 55.71997L172.56 55.71997z" /></clipPath><clipPath id="57"><path id="" clip-rule="evenodd" transform="matrix(1 0 0 1 0 0)" d="M172.56 293.32L465.12 293.32L465.12 293.32L465.12 55.71997L465.12 55.71997L172.56 55.71997z" /></clipPath><clipPath id="58"><path id="" clip-rule="evenodd" transform="matrix(1 0 0 1 0 0)" d="M172.56 293.32L465.12 293.32L465.12 293.32L465.12 55.71997L465.12 55.71997L172.56 55.71997z" /></clipPath></defs><g transform="matrix(1.333333 0 0 1.333333 0 0)"><g clip-path="url(#1)"><g clip-path="url(#2)"></g><g clip-path="url(#3)"><g clip-path="url(#4)"></g><g clip-path="url(#5)"></g></g><g clip-path="url(#6)"><g clip-path="url(#7)"></g><g clip-path="url(#8)"></g></g><g clip-path="url(#9)"><g clip-path="url(#10)"></g><g clip-path="url(#11)"></g></g><g clip-path="url(#12)"><g clip-path="url(#13)"></g><g clip-path="url(#14)"></g></g><g clip-path="url(#15)"><g clip-path="url(#16)"></g><g clip-path="url(#17)"></g></g><g clip-path="url(#18)"><g clip-path="url(#19)"></g><g clip-path="url(#20)"></g></g><path id="496" transform="matrix(1 0 0 -1 0 841)" d="M192.79 289.06L193.51 289.06L193.51 289.06L193.51 289.78L193.51 289.78L192.79 289.78z" stroke="none" fill="#000000" fill-rule="evenodd" /><path id="497" transform="matrix(1 0 0 -1 0 841)" d="M192.79 289.06L193.51 289.06L193.51 289.06L193.51 289.78L193.51 289.78L192.79 289.78z" stroke="none" fill="#000000" fill-rule="evenodd" /><path id="498" transform="matrix(1 0 0 -1 0 841)" d="M193.51 289.06L227.854 289.06L227.854 289.06L227.854 289.78L227.854 289.78L193.51 289.78z" stroke="none" fill="#000000" fill-rule="evenodd" /><path id="499" transform="matrix(1 0 0 -1 0 841)" d="M227.86 289.06L228.58 289.06L228.58 289.06L228.58 289.78L228.58 289.78L227.86 289.78z" stroke="none" fill="#000000" fill-rule="evenodd" /><path id="500" transform="matrix(1 0 0 -1 0 841)" d="M228.58 289.06L271.06 289.06L271.06 289.06L271.06 289.78L271.06 289.78L228.58 289.78z" stroke="none" fill="#000000" fill-rule="evenodd" /><path id="501" transform="matrix(1 0 0 -1 0 841)" d="M271.06 289.06L271.78 289.06L271.78 289.06L271.78 289.78L271.78 289.78L271.06 289.78z" stroke="none" fill="#000000" fill-rule="evenodd" /><path id="502" transform="matrix(1 0 0 -1 0 841)" d="M271.78 289.06L313.564 289.06L313.564 289.06L313.564 289.78L313.564 289.78L271.78 289.78z" stroke="none" fill="#000000" fill-rule="evenodd" /><path id="503" transform="matrix(1 0 0 -1 0 841)" d="M313.56 289.06L314.28 289.06L314.28 289.06L314.28 289.78L314.28 289.78L313.56 289.78z" stroke="none" fill="#000000" fill-rule="evenodd" /><path id="504" transform="matrix(1 0 0 -1 0 841)" d="M314.28 289.06L358.944 289.06L358.944 289.06L358.944 289.78L358.944 289.78L314.28 289.78z" stroke="none" fill="#000000" fill-rule="evenodd" /><path id="505" transform="matrix(1 0 0 -1 0 841)" d="M358.94 289.06L359.66 289.06L359.66 289.06L359.66 289.78L359.66 289.78L358.94 289.78z" stroke="none" fill="#000000" fill-rule="evenodd" /><path id="506" transform="matrix(1 0 0 -1 0 841)" d="M359.66 289.06L401.42 289.06L401.42 289.06L401.42 289.78L401.42 289.78L359.66 289.78z" stroke="none" fill="#000000" fill-rule="evenodd" /><path id="507" transform="matrix(1 0 0 -1 0 841)" d="M401.42 289.06L402.14 289.06L402.14 289.06L402.14 289.78L402.14 289.78L401.42 289.78z" stroke="none" fill="#000000" fill-rule="evenodd" /><path id="508" transform="matrix(1 0 0 -1 0 841)" d="M402.14 289.06L444.164 289.06L444.164 289.06L444.164 289.78L444.164 289.78L402.14 289.78z" stroke="none" fill="#000000" fill-rule="evenodd" /><path id="509" transform="matrix(1 0 0 -1 0 841)" d="M444.17 289.06L444.89 289.06L444.89 289.06L444.89 289.78L444.89 289.78L444.17 289.78z" stroke="none" fill="#000000" fill-rule="evenodd" /><path id="510" transform="matrix(1 0 0 -1 0 841)" d="M444.17 289.06L444.89 289.06L444.89 289.06L444.89 289.78L444.89 289.78L444.17 289.78z" stroke="none" fill="#000000" fill-rule="evenodd" /><path id="511" transform="matrix(1 0 0 -1 0 841)" d="M192.79 270.58L193.51 270.58L193.51 270.58L193.51 289.06L193.51 289.06L192.79 289.06z" stroke="none" fill="#000000" fill-rule="evenodd" /><path id="512" transform="matrix(1 0 0 -1 0 841)" d="M227.86 270.58L228.58 270.58L228.58 270.58L228.58 289.06L228.58 289.06L227.86 289.06z" stroke="none" fill="#000000" fill-rule="evenodd" /><path id="513" transform="matrix(1 0 0 -1 0 841)" d="M271.06 270.58L271.78 270.58L271.78 270.58L271.78 289.06L271.78 289.06L271.06 289.06z" stroke="none" fill="#000000" fill-rule="evenodd" /><path id="514" transform="matrix(1 0 0 -1 0 841)" d="M313.56 270.58L314.28 270.58L314.28 270.58L314.28 289.06L314.28 289.06L313.56 289.06z" stroke="none" fill="#000000" fill-rule="evenodd" /><path id="515" transform="matrix(1 0 0 -1 0 841)" d="M358.94 270.58L359.66 270.58L359.66 270.58L359.66 289.06L359.66 289.06L358.94 289.06z" stroke="none" fill="#000000" fill-rule="evenodd" /><path id="516" transform="matrix(1 0 0 -1 0 841)" d="M401.42 270.58L402.14 270.58L402.14 270.58L402.14 289.06L402.14 289.06L401.42 289.06z" stroke="none" fill="#000000" fill-rule="evenodd" /><path id="517" transform="matrix(1 0 0 -1 0 841)" d="M444.17 270.58L444.89 270.58L444.89 270.58L444.89 289.06L444.89 289.06L444.17 289.06z" stroke="none" fill="#000000" fill-rule="evenodd" /><g clip-path="url(#21)"><g clip-path="url(#22)"></g><g clip-path="url(#23)"></g></g><g clip-path="url(#24)"><g clip-path="url(#25)"></g><g clip-path="url(#26)"></g></g><g clip-path="url(#27)"><g clip-path="url(#28)"></g><g clip-path="url(#29)"></g></g><g clip-path="url(#30)"><g clip-path="url(#31)"></g><g clip-path="url(#32)"></g></g><g clip-path="url(#33)"><g clip-path="url(#34)"></g><g clip-path="url(#35)"></g></g><g clip-path="url(#36)"><g clip-path="url(#37)"></g><g clip-path="url(#38)"></g></g><path id="530" transform="matrix(1 0 0 -1 0 841)" d="M192.79 269.86L193.51 269.86L193.51 269.86L193.51 270.58L193.51 270.58L192.79 270.58z" stroke="none" fill="#000000" fill-rule="evenodd" /><path id="531" transform="matrix(1 0 0 -1 0 841)" d="M193.51 269.86L227.854 269.86L227.854 269.86L227.854 270.58L227.854 270.58L193.51 270.58z" stroke="none" fill="#000000" fill-rule="evenodd" /><path id="532" transform="matrix(1 0 0 -1 0 841)" d="M227.86 269.86L228.58 269.86L228.58 269.86L228.58 270.58L228.58 270.58L227.86 270.58z" stroke="none" fill="#000000" fill-rule="evenodd" /><path id="533" transform="matrix(1 0 0 -1 0 841)" d="M228.58 269.86L271.06 269.86L271.06 269.86L271.06 270.58L271.06 270.58L228.58 270.58z" stroke="none" fill="#000000" fill-rule="evenodd" /><path id="534" transform="matrix(1 0 0 -1 0 841)" d="M271.06 269.86L271.78 269.86L271.78 269.86L271.78 270.58L271.78 270.58L271.06 270.58z" stroke="none" fill="#000000" fill-rule="evenodd" /><path id="535" transform="matrix(1 0 0 -1 0 841)" d="M271.78 269.86L313.564 269.86L313.564 269.86L313.564 270.58L313.564 270.58L271.78 270.58z" stroke="none" fill="#000000" fill-rule="evenodd" /><path id="536" transform="matrix(1 0 0 -1 0 841)" d="M313.56 269.86L314.28 269.86L314.28 269.86L314.28 270.58L314.28 270.58L313.56 270.58z" stroke="none" fill="#000000" fill-rule="evenodd" /><path id="537" transform="matrix(1 0 0 -1 0 841)" d="M314.28 269.86L358.944 269.86L358.944 269.86L358.944 270.58L358.944 270.58L314.28 270.58z" stroke="none" fill="#000000" fill-rule="evenodd" /><path id="538" transform="matrix(1 0 0 -1 0 841)" d="M358.94 269.86L359.66 269.86L359.66 269.86L359.66 270.58L359.66 270.58L358.94 270.58z" stroke="none" fill="#000000" fill-rule="evenodd" /><path id="539" transform="matrix(1 0 0 -1 0 841)" d="M359.66 269.86L401.42 269.86L401.42 269.86L401.42 270.58L401.42 270.58L359.66 270.58z" stroke="none" fill="#000000" fill-rule="evenodd" /><path id="540" transform="matrix(1 0 0 -1 0 841)" d="M401.42 269.86L402.14 269.86L402.14 269.86L402.14 270.58L402.14 270.58L401.42 270.58z" stroke="none" fill="#000000" fill-rule="evenodd" /><path id="541" transform="matrix(1 0 0 -1 0 841)" d="M402.14 269.86L444.164 269.86L444.164 269.86L444.164 270.58L444.164 270.58L402.14 270.58z" stroke="none" fill="#000000" fill-rule="evenodd" /><path id="542" transform="matrix(1 0 0 -1 0 841)" d="M444.17 269.86L444.89 269.86L444.89 269.86L444.89 270.58L444.89 270.58L444.17 270.58z" stroke="none" fill="#000000" fill-rule="evenodd" /><path id="543" transform="matrix(1 0 0 -1 0 841)" d="M192.79 249.43L193.51 249.43L193.51 249.43L193.51 269.854L193.51 269.854L192.79 269.854z" stroke="none" fill="#000000" fill-rule="evenodd" /><path id="544" transform="matrix(1 0 0 -1 0 841)" d="M192.79 248.71L193.51 248.71L193.51 248.71L193.51 249.43L193.51 249.43L192.79 249.43z" stroke="none" fill="#000000" fill-rule="evenodd" /><path id="545" transform="matrix(1 0 0 -1 0 841)" d="M192.79 248.71L193.51 248.71L193.51 248.71L193.51 249.43L193.51 249.43L192.79 249.43z" stroke="none" fill="#000000" fill-rule="evenodd" /><path id="546" transform="matrix(1 0 0 -1 0 841)" d="M193.51 248.71L227.854 248.71L227.854 248.71L227.854 249.43L227.854 249.43L193.51 249.43z" stroke="none" fill="#000000" fill-rule="evenodd" /><path id="547" transform="matrix(1 0 0 -1 0 841)" d="M227.86 249.43L228.58 249.43L228.58 249.43L228.58 269.854L228.58 269.854L227.86 269.854z" stroke="none" fill="#000000" fill-rule="evenodd" /><path id="548" transform="matrix(1 0 0 -1 0 841)" d="M227.86 248.71L228.58 248.71L228.58 248.71L228.58 249.43L228.58 249.43L227.86 249.43z" stroke="none" fill="#000000" fill-rule="evenodd" /><path id="549" transform="matrix(1 0 0 -1 0 841)" d="M228.58 248.71L271.06 248.71L271.06 248.71L271.06 249.43L271.06 249.43L228.58 249.43z" stroke="none" fill="#000000" fill-rule="evenodd" /><path id="550" transform="matrix(1 0 0 -1 0 841)" d="M271.06 249.43L271.78 249.43L271.78 249.43L271.78 269.854L271.78 269.854L271.06 269.854z" stroke="none" fill="#000000" fill-rule="evenodd" /><path id="551" transform="matrix(1 0 0 -1 0 841)" d="M271.06 248.71L271.78 248.71L271.78 248.71L271.78 249.43L271.78 249.43L271.06 249.43z" stroke="none" fill="#000000" fill-rule="evenodd" /><path id="552" transform="matrix(1 0 0 -1 0 841)" d="M271.78 248.71L313.564 248.71L313.564 248.71L313.564 249.43L313.564 249.43L271.78 249.43z" stroke="none" fill="#000000" fill-rule="evenodd" /><path id="553" transform="matrix(1 0 0 -1 0 841)" d="M313.56 249.43L314.28 249.43L314.28 249.43L314.28 269.854L314.28 269.854L313.56 269.854z" stroke="none" fill="#000000" fill-rule="evenodd" /><path id="554" transform="matrix(1 0 0 -1 0 841)" d="M313.56 248.71L314.28 248.71L314.28 248.71L314.28 249.43L314.28 249.43L313.56 249.43z" stroke="none" fill="#000000" fill-rule="evenodd" /><path id="555" transform="matrix(1 0 0 -1 0 841)" d="M314.28 248.71L358.944 248.71L358.944 248.71L358.944 249.43L358.944 249.43L314.28 249.43z" stroke="none" fill="#000000" fill-rule="evenodd" /><path id="556" transform="matrix(1 0 0 -1 0 841)" d="M358.94 249.43L359.66 249.43L359.66 249.43L359.66 269.854L359.66 269.854L358.94 269.854z" stroke="none" fill="#000000" fill-rule="evenodd" /><path id="557" transform="matrix(1 0 0 -1 0 841)" d="M358.94 248.71L359.66 248.71L359.66 248.71L359.66 249.43L359.66 249.43L358.94 249.43z" stroke="none" fill="#000000" fill-rule="evenodd" /><path id="558" transform="matrix(1 0 0 -1 0 841)" d="M359.66 248.71L401.42 248.71L401.42 248.71L401.42 249.43L401.42 249.43L359.66 249.43z" stroke="none" fill="#000000" fill-rule="evenodd" /><path id="559" transform="matrix(1 0 0 -1 0 841)" d="M401.42 249.43L402.14 249.43L402.14 249.43L402.14 269.854L402.14 269.854L401.42 269.854z" stroke="none" fill="#000000" fill-rule="evenodd" /><path id="560" transform="matrix(1 0 0 -1 0 841)" d="M401.42 248.71L402.14 248.71L402.14 248.71L402.14 249.43L402.14 249.43L401.42 249.43z" stroke="none" fill="#000000" fill-rule="evenodd" /><path id="561" transform="matrix(1 0 0 -1 0 841)" d="M402.14 248.71L444.164 248.71L444.164 248.71L444.164 249.43L444.164 249.43L402.14 249.43z" stroke="none" fill="#000000" fill-rule="evenodd" /><path id="562" transform="matrix(1 0 0 -1 0 841)" d="M444.17 249.43L444.89 249.43L444.89 249.43L444.89 269.854L444.89 269.854L444.17 269.854z" stroke="none" fill="#000000" fill-rule="evenodd" /><path id="563" transform="matrix(1 0 0 -1 0 841)" d="M444.17 248.71L444.89 248.71L444.89 248.71L444.89 249.43L444.89 249.43L444.17 249.43z" stroke="none" fill="#000000" fill-rule="evenodd" /><path id="564" transform="matrix(1 0 0 -1 0 841)" d="M444.17 248.71L444.89 248.71L444.89 248.71L444.89 249.43L444.89 249.43L444.17 249.43z" stroke="none" fill="#000000" fill-rule="evenodd" /><g clip-path="url(#39)"><path id="565" transform="matrix(1 0 0 -1 0 841)" d="M172.56 547.44L465.12 547.44L465.12 547.44L465.12 785.28L465.12 785.28L172.56 785.28z" stroke="none" fill="#FFFFFF" fill-rule="evenodd" /></g><path id="566" transform="matrix(1 0 0 -1 0 841)" d="M201.96 767.64L455.64 767.64M201.96 741.72L455.64 741.72M201.96 715.8L455.64 715.8M201.96 689.88L455.64 689.88M201.96 663.96L455.64 663.96M201.96 638.04L455.64 638.04M201.96 612.12L455.64 612.12" stroke="#000000" stroke-width="0.72" fill="none" /><path id="567" transform="matrix(1 0 0 -1 0 841)" d="M455.64 767.64L455.64 586.2M413.4 767.64L413.4 586.2M371.16 767.64L371.16 586.2M328.92 767.64L328.92 586.2M286.44 767.64L286.44 586.2M244.2 767.64L244.2 586.2" stroke="#000000" stroke-width="0.72" fill="none" /><path id="568" transform="matrix(1 0 0 -1 0 841)" d="M201.96 586.2L201.96 767.64" stroke="#000000" stroke-width="0.72" fill="none" /><path id="569" transform="matrix(1 0 0 -1 0 841)" d="M201.96 586.2L455.64 586.2" stroke="#000000" stroke-width="0.72" fill="none" /><path id="570" transform="matrix(1 0 0 -1 0 841)" d="M244.17 650.95C 251.22 657.43 272.38 685.53 286.49 689.85C 300.59 694.17 314.7 672.56 328.8 676.88C 342.91 681.2 357.01 704.97 371.12 715.78C 385.22 726.58 406.38 737.39 413.43 741.71" stroke="#000000" stroke-width="0.96" stroke-linecap="round" fill="none" /><path id="571" transform="matrix(1 0 0 -1 0 841)" d="M244.2 653.58L244.2 653.7L244.2 653.58L246.72 651.06L246.84 651.06L246.72 651.06L244.2 648.54L244.2 648.42L244.2 648.54L241.68 651.06L241.56 651.06L241.68 651.06z" stroke="none" fill="#000000" fill-rule="nonzero" /><path id="572" transform="matrix(1 0 0 -1 0 841)" d="M244.2 653.58L244.2 653.7L244.2 653.7L244.2 653.58L244.2 653.58L246.72 651.06L246.72 651.06L246.84 651.06L246.84 651.06L246.72 651.06L246.72 651.06L244.2 648.54L244.2 648.54L244.2 648.42L244.2 648.42L244.2 648.54L244.2 648.54L241.68 651.06L241.68 651.06L241.56 651.06L241.56 651.06L241.68 651.06z" stroke="#000000" stroke-width="0.75" fill="none" /><path id="573" transform="matrix(1 0 0 -1 0 841)" d="M286.44 692.46L286.44 692.58L286.44 692.46L288.96 689.94L289.08 689.94L288.96 689.94L286.44 687.42L286.44 687.3L286.44 687.42L283.92 689.94L283.8 689.94L283.92 689.94z" stroke="none" fill="#000000" fill-rule="nonzero" /><path id="574" transform="matrix(1 0 0 -1 0 841)" d="M286.44 692.46L286.44 692.58L286.44 692.58L286.44 692.46L286.44 692.46L288.96 689.94L288.96 689.94L289.08 689.94L289.08 689.94L288.96 689.94L288.96 689.94L286.44 687.42L286.44 687.42L286.44 687.3L286.44 687.3L286.44 687.42L286.44 687.42L283.92 689.94L283.92 689.94L283.8 689.94L283.8 689.94L283.92 689.94z" stroke="#000000" stroke-width="0.75" fill="none" /><path id="575" transform="matrix(1 0 0 -1 0 841)" d="M328.92 679.5L328.92 679.62L328.92 679.5L331.44 676.98L331.56 676.98L331.44 676.98L328.92 674.46L328.92 674.34L328.92 674.46L326.4 676.98L326.28 676.98L326.4 676.98z" stroke="none" fill="#000000" fill-rule="nonzero" /><path id="576" transform="matrix(1 0 0 -1 0 841)" d="M328.92 679.5L328.92 679.62L328.92 679.62L328.92 679.5L328.92 679.5L331.44 676.98L331.44 676.98L331.56 676.98L331.56 676.98L331.44 676.98L331.44 676.98L328.92 674.46L328.92 674.46L328.92 674.34L328.92 674.34L328.92 674.46L328.92 674.46L326.4 676.98L326.4 676.98L326.28 676.98L326.28 676.98L326.4 676.98z" stroke="#000000" stroke-width="0.75" fill="none" /><path id="577" transform="matrix(1 0 0 -1 0 841)" d="M371.16 718.38L371.16 718.5L371.16 718.38L373.68 715.86L373.8 715.86L373.68 715.86L371.16 713.34L371.16 713.22L371.16 713.34L368.64 715.86L368.52 715.86L368.64 715.86z" stroke="none" fill="#000000" fill-rule="nonzero" /><path id="578" transform="matrix(1 0 0 -1 0 841)" d="M371.16 718.38L371.16 718.5L371.16 718.5L371.16 718.38L371.16 718.38L373.68 715.86L373.68 715.86L373.8 715.86L373.8 715.86L373.68 715.86L373.68 715.86L371.16 713.34L371.16 713.34L371.16 713.22L371.16 713.22L371.16 713.34L371.16 713.34L368.64 715.86L368.64 715.86L368.52 715.86L368.52 715.86L368.64 715.86z" stroke="#000000" stroke-width="0.75" fill="none" /><path id="579" transform="matrix(1 0 0 -1 0 841)" d="M413.4 744.3L413.4 744.42L413.4 744.3L415.92 741.78L416.04 741.78L415.92 741.78L413.4 739.26L413.4 739.14L413.4 739.26L410.88 741.78L410.76 741.78L410.88 741.78z" stroke="none" fill="#000000" fill-rule="nonzero" /><path id="580" transform="matrix(1 0 0 -1 0 841)" d="M413.4 744.3L413.4 744.42L413.4 744.42L413.4 744.3L413.4 744.3L415.92 741.78L415.92 741.78L416.04 741.78L416.04 741.78L415.92 741.78L415.92 741.78L413.4 739.26L413.4 739.26L413.4 739.14L413.4 739.14L413.4 739.26L413.4 739.26L410.88 741.78L410.88 741.78L410.76 741.78L410.76 741.78L410.88 741.78z" stroke="#000000" stroke-width="0.75" fill="none" /><path id="581" transform="matrix(1 0 0 -1 0 841)" d="M222.96 651.12L223.68 651.12L223.68 651.12L224.16 651.36L224.16 651.36L224.64 651.6L224.64 651.6L225.36 651.6L225.36 651.6L225.84 651.84L225.84 651.84L226.32 652.08L226.32 652.08L227.04 652.08L227.04 652.08L227.52 652.32L227.52 652.32L228 652.56L228 652.56L228.72 652.56L228.72 652.56L229.2 652.8L229.2 652.8L229.68 653.04L229.68 653.04L230.4 653.04L230.4 653.04L230.88 653.28L230.88 653.28L231.36 653.52L231.36 653.52L232.08 653.52L232.08 653.52L232.56 653.76L232.56 653.76L233.04 654L233.04 654L233.76 654L233.76 654L234.24 654.24L234.24 654.24L234.96 654.48L234.96 654.48L235.44 654.48L235.44 654.48L235.92 654.72L235.92 654.72L236.64 654.96L236.64 654.96L237.12 654.96L237.12 654.96L237.6 655.2L237.6 655.2L238.32 655.44L238.32 655.44L238.8 655.68L238.8 655.68L239.28 655.68L239.28 655.68L240 655.92L240 655.92L240.48 656.16L240.48 656.16L240.96 656.16L240.96 656.16L241.68 656.4L241.68 656.4L242.16 656.64L242.16 656.64L242.64 656.88L242.64 656.88L243.36 656.88L243.36 656.88L243.84 657.12L243.84 657.12L244.32 657.36L244.32 657.36L245.04 657.6L245.04 657.6L245.52 657.6L245.52 657.6L246 657.84L246 657.84L246.72 658.08L246.72 658.08L247.2 658.32L247.2 658.32L247.92 658.32L247.92 658.32L248.4 658.56L248.4 658.56L248.88 658.8L248.88 658.8L249.6 659.04L249.6 659.04L250.08 659.04L250.08 659.04L250.56 659.28" stroke="#000000" stroke-width="0.96" stroke-linecap="round" stroke-dasharray="7.68,2.88" fill="none" /><path id="582" transform="matrix(1 0 0 -1 0 841)" d="M250.56 659.28L251.28 659.52L251.28 659.52L251.76 659.76L251.76 659.76L252.24 660L252.24 660L252.96 660L252.96 660L253.44 660.24L253.44 660.24L253.92 660.48L253.92 660.48L254.64 660.72L254.64 660.72L255.12 660.72L255.12 660.72L255.6 660.96L255.6 660.96L256.32 661.2L256.32 661.2L256.8 661.44L256.8 661.44L257.28 661.68L257.28 661.68L258 661.68L258 661.68L258.48 661.92L258.48 661.92L258.96 662.16L258.96 662.16L259.68 662.4L259.68 662.4L260.16 662.64L260.16 662.64L260.64 662.64L260.64 662.64L261.36 662.88L261.36 662.88L261.84 663.12L261.84 663.12L262.56 663.36L262.56 663.36L263.04 663.6L263.04 663.6L263.52 663.84L263.52 663.84L264.24 663.84L264.24 663.84L264.72 664.08L264.72 664.08L265.2 664.32L265.2 664.32L265.92 664.56L265.92 664.56L266.4 664.8L266.4 664.8L266.88 665.04L266.88 665.04L267.6 665.28L267.6 665.28L268.08 665.28L268.08 665.28L268.56 665.52L268.56 665.52L269.28 665.76L269.28 665.76L269.76 666L269.76 666L270.24 666.24L270.24 666.24L270.96 666.48L270.96 666.48L271.44 666.72L271.44 666.72L271.92 666.72L271.92 666.72L272.64 666.96L272.64 666.96L273.12 667.2L273.12 667.2L273.6 667.44L273.6 667.44L274.32 667.68L274.32 667.68L274.8 667.92L274.8 667.92L275.52 668.16L275.52 668.16L276 668.4L276 668.4L276.48 668.64L276.48 668.64L277.2 668.64L277.2 668.64L277.68 668.88L277.68 668.88L278.16 669.12" stroke="#000000" stroke-width="0.96" stroke-linecap="round" stroke-dasharray="7.68,2.88" fill="none" /><path id="583" transform="matrix(1 0 0 -1 0 841)" d="M278.16 669.12L278.88 669.36L278.88 669.36L279.36 669.6L279.36 669.6L279.84 669.84L279.84 669.84L280.56 670.08L280.56 670.08L281.04 670.32L281.04 670.32L281.52 670.56L281.52 670.56L282.24 670.8L282.24 670.8L282.72 671.04L282.72 671.04L283.2 671.28L283.2 671.28L283.92 671.28L283.92 671.28L284.4 671.52L284.4 671.52L284.88 671.76L284.88 671.76L285.6 672L285.6 672L286.08 672.24L286.08 672.24L286.56 672.48L286.56 672.48L287.28 672.72L287.28 672.72L287.76 672.96L287.76 672.96L288.48 673.2L288.48 673.2L288.96 673.44L288.96 673.44L289.44 673.68L289.44 673.68L290.16 673.92L290.16 673.92L290.64 674.16L290.64 674.16L291.12 674.4L291.12 674.4L291.84 674.64L291.84 674.64L292.32 674.88L292.32 674.88L292.8 675.12L292.8 675.12L293.52 675.36L293.52 675.36L294 675.6L294 675.6L294.48 675.84L294.48 675.84L295.2 676.08L295.2 676.08L295.68 676.32L295.68 676.32L296.16 676.56L296.16 676.56L296.88 676.8L296.88 676.8L297.36 677.04L297.36 677.04L297.84 677.28L297.84 677.28L298.56 677.52L298.56 677.52L299.04 677.76L299.04 677.76L299.52 678L299.52 678L300.24 678.24L300.24 678.24L300.72 678.48L300.72 678.48L301.44 678.72L301.44 678.72L301.92 678.96L301.92 678.96L302.4 679.2L302.4 679.2L303.12 679.44L303.12 679.44L303.6 679.68L303.6 679.68L304.08 679.92L304.08 679.92L304.8 680.16L304.8 680.16L305.28 680.4L305.28 680.4L305.76 680.64" stroke="#000000" stroke-width="0.96" stroke-linecap="round" stroke-dasharray="7.68,2.88" fill="none" /><path id="584" transform="matrix(1 0 0 -1 0 841)" d="M305.76 680.64L306.48 680.88L306.48 680.88L306.96 681.12L306.96 681.12L307.44 681.36L307.44 681.36L308.16 681.6L308.16 681.6L308.64 681.84L308.64 681.84L309.12 682.08L309.12 682.08L309.84 682.32L309.84 682.32L310.32 682.56L310.32 682.56L310.8 682.8L310.8 682.8L311.52 683.04L311.52 683.04L312 683.28L312 683.28L312.48 683.76L312.48 683.76L313.2 684L313.2 684L313.68 684.24L313.68 684.24L314.16 684.48L314.16 684.48L314.88 684.72L314.88 684.72L315.36 684.96L315.36 684.96L316.08 685.2L316.08 685.2L316.56 685.44L316.56 685.44L317.04 685.68L317.04 685.68L317.76 685.92L317.76 685.92L318.24 686.16L318.24 686.16L318.72 686.64L318.72 686.64L319.44 686.88L319.44 686.88L319.92 687.12L319.92 687.12L320.4 687.36L320.4 687.36L321.12 687.6L321.12 687.6L321.6 687.84L321.6 687.84L322.08 688.08L322.08 688.08L322.8 688.32L322.8 688.32L323.28 688.56L323.28 688.56L323.76 689.04L323.76 689.04L324.48 689.28L324.48 689.28L324.96 689.52L324.96 689.52L325.44 689.76L325.44 689.76L326.16 690L326.16 690L326.64 690.24L326.64 690.24L327.12 690.48L327.12 690.48L327.84 690.72L327.84 690.72L328.32 691.2L328.32 691.2L329.04 691.44L329.04 691.44L329.52 691.68L329.52 691.68L330 691.92L330 691.92L330.72 692.16L330.72 692.16L331.2 692.4L331.2 692.4L331.68 692.88L331.68 692.88L332.4 693.12L332.4 693.12L332.88 693.36L332.88 693.36L333.36 693.6" stroke="#000000" stroke-width="0.96" stroke-linecap="round" stroke-dasharray="7.68,2.88" fill="none" /><path id="585" transform="matrix(1 0 0 -1 0 841)" d="M333.36 693.6L334.08 693.84L334.08 693.84L334.56 694.08L334.56 694.08L335.04 694.56L335.04 694.56L335.76 694.8L335.76 694.8L336.24 695.04L336.24 695.04L336.72 695.28L336.72 695.28L337.44 695.52L337.44 695.52L337.92 696L337.92 696L338.4 696.24L338.4 696.24L339.12 696.48L339.12 696.48L339.6 696.72L339.6 696.72L340.08 696.96L340.08 696.96L340.8 697.44L340.8 697.44L341.28 697.68L341.28 697.68L342 697.92L342 697.92L342.48 698.16L342.48 698.16L342.96 698.4L342.96 698.4L343.68 698.88L343.68 698.88L344.16 699.12L344.16 699.12L344.64 699.36L344.64 699.36L345.36 699.6L345.36 699.6L345.84 700.08L345.84 700.08L346.32 700.32L346.32 700.32L347.04 700.56L347.04 700.56L347.52 700.8L347.52 700.8L348 701.28L348 701.28L348.72 701.52L348.72 701.52L349.2 701.76L349.2 701.76L349.68 702L349.68 702L350.4 702.48L350.4 702.48L350.88 702.72L350.88 702.72L351.36 702.96L351.36 702.96L352.08 703.2L352.08 703.2L352.56 703.68L352.56 703.68L353.04 703.92L353.04 703.92L353.76 704.16L353.76 704.16L354.24 704.4L354.24 704.4L354.96 704.88L354.96 704.88L355.44 705.12L355.44 705.12L355.92 705.36L355.92 705.36L356.64 705.6L356.64 705.6L357.12 706.08L357.12 706.08L357.6 706.32L357.6 706.32L358.32 706.56L358.32 706.56L358.8 707.04L358.8 707.04L359.28 707.28L359.28 707.28L360 707.52L360 707.52L360.48 708L360.48 708L360.96 708.24" stroke="#000000" stroke-width="0.96" stroke-linecap="round" stroke-dasharray="7.68,2.88" fill="none" /><path id="586" transform="matrix(1 0 0 -1 0 841)" d="M360.96 708.24L361.68 708.48L361.68 708.48L362.16 708.72L362.16 708.72L362.64 709.2L362.64 709.2L363.36 709.44L363.36 709.44L363.84 709.68L363.84 709.68L364.32 710.16L364.32 710.16L365.04 710.4L365.04 710.4L365.52 710.64L365.52 710.64L366 711.12L366 711.12L366.72 711.36L366.72 711.36L367.2 711.6L367.2 711.6L367.68 712.08L367.68 712.08L368.4 712.32L368.4 712.32L368.88 712.56L368.88 712.56L369.6 713.04L369.6 713.04L370.08 713.28L370.08 713.28L370.56 713.52L370.56 713.52L371.28 714L371.28 714L371.76 714.24L371.76 714.24L372.24 714.72L372.24 714.72L372.96 714.96L372.96 714.96L373.44 715.2L373.44 715.2L373.92 715.68L373.92 715.68L374.64 715.92L374.64 715.92L375.12 716.16L375.12 716.16L375.6 716.64L375.6 716.64L376.32 716.88L376.32 716.88L376.8 717.36L376.8 717.36L377.28 717.6L377.28 717.6L378 717.84L378 717.84L378.48 718.32L378.48 718.32L378.96 718.56L378.96 718.56L379.68 719.04L379.68 719.04L380.16 719.28L380.16 719.28L380.64 719.52L380.64 719.52L381.36 720L381.36 720L381.84 720.24L381.84 720.24L382.56 720.72L382.56 720.72L383.04 720.96L383.04 720.96L383.52 721.2L383.52 721.2L384.24 721.68L384.24 721.68L384.72 721.92L384.72 721.92L385.2 722.4L385.2 722.4L385.92 722.64L385.92 722.64L386.4 722.88L386.4 722.88L386.88 723.36L386.88 723.36L387.6 723.6L387.6 723.6L388.08 724.08L388.08 724.08L388.56 724.32" stroke="#000000" stroke-width="0.96" stroke-linecap="round" stroke-dasharray="7.68,2.88" fill="none" /><path id="587" transform="matrix(1 0 0 -1 0 841)" d="M388.56 724.32L389.28 724.8L389.28 724.8L389.76 725.04L389.76 725.04L390.24 725.52L390.24 725.52L390.96 725.76L390.96 725.76L391.44 726L391.44 726L391.92 726.48L391.92 726.48L392.64 726.72L392.64 726.72L393.12 727.2L393.12 727.2L393.6 727.44L393.6 727.44L394.32 727.92L394.32 727.92L394.8 728.16L394.8 728.16L395.52 728.64L395.52 728.64L396 728.88L396 728.88L396.48 729.36L396.48 729.36L397.2 729.6L397.2 729.6L397.68 730.08L397.68 730.08L398.16 730.32L398.16 730.32L398.88 730.8L398.88 730.8L399.36 731.04L399.36 731.04L399.84 731.52L399.84 731.52L400.56 731.76L400.56 731.76L401.04 732.24L401.04 732.24L401.52 732.48L401.52 732.48L402.24 732.96L402.24 732.96L402.72 733.2L402.72 733.2L403.2 733.68L403.2 733.68L403.92 733.92L403.92 733.92L404.4 734.4L404.4 734.4L404.88 734.64L404.88 734.64L405.6 735.12L405.6 735.12L406.08 735.36L406.08 735.36L406.56 735.84L406.56 735.84L407.28 736.08L407.28 736.08L407.76 736.56L407.76 736.56L408.48 736.8L408.48 736.8L408.96 737.28L408.96 737.28L409.44 737.52L409.44 737.52L410.16 738L410.16 738L410.64 738.48L410.64 738.48L411.12 738.72L411.12 738.72L411.84 739.2L411.84 739.2L412.32 739.44L412.32 739.44L412.8 739.92L412.8 739.92L413.52 740.16" stroke="#000000" stroke-width="0.96" stroke-linecap="round" stroke-dasharray="7.68,2.88" fill="none" /><g clip-path="url(#40)"></g><g clip-path="url(#41)"></g><g clip-path="url(#42)"></g><g clip-path="url(#43)"></g><g clip-path="url(#44)"></g><g clip-path="url(#45)"></g><g clip-path="url(#46)"></g><g clip-path="url(#47)"></g><g clip-path="url(#48)"></g><g clip-path="url(#49)"></g><g clip-path="url(#50)"></g><g clip-path="url(#51)"></g><g clip-path="url(#52)"></g><g clip-path="url(#53)"></g><g clip-path="url(#54)"></g><path id="603" transform="matrix(1 0 0 -1 0 841)" d="M179.7 760.78L191.915 760.78L191.915 760.78L191.915 779.88L191.915 779.88L179.7 779.88z" stroke="none" fill="#FFFFFF" fill-rule="evenodd" /><g clip-path="url(#55)"></g><g clip-path="url(#56)"></g><path id="605" transform="matrix(1 0 0 -1 0 841)" d="M448.84 560.37L461.055 560.37L461.055 560.37L461.055 579.47L461.055 579.47L448.84 579.47z" stroke="none" fill="#FFFFFF" fill-rule="evenodd" /><g clip-path="url(#57)"></g><g clip-path="url(#58)"></g><path id="607" transform="matrix(1 0 0 -1 0 841)" d="M210.4 525.57L221.65 525.57" stroke="#000000" stroke-width="0.75" stroke-dasharray="3,2.25" fill="none" /><path id="608" transform="matrix(1 0 0 -1 0 841)" d="M210.4 540.67L221.65 540.67" stroke="#000000" stroke-width="0.75" fill="none" /></g></g></svg>