<svg xmlns="http://www.w3.org/2000/svg" xmlns:xlink="http://www.w3.org/1999/xlink" id="body_4" preserveAspectRatio="xMinYMin meet" viewBox="0 0 793 1121"><defs><clipPath id="1"><path id="" clip-rule="evenodd" transform="matrix(1 0 0 1 0 0)" d="M0 841L0 -0.9199829L0 -0.9199829L595.2 -0.9199829L595.2 -0.9199829L595.2 841L595.2 841L0 841z" /></clipPath><clipPath id="2"><path id="" clip-rule="evenodd" transform="matrix(1 0 0 1 0 0)" d="M232.67 132.9L401.4209 132.9L401.4209 132.9L401.4209 93.74945L401.4209 93.74945L232.67 93.74945z" /></clipPath><clipPath id="3"><path id="" clip-rule="evenodd" transform="matrix(1 0 0 1 0 0)" d="M203.52 430.12L460.08 430.12L460.08 430.12L460.08 211.72L460.08 211.72L203.52 211.72z" /></clipPath><clipPath id="4"><path id="" clip-rule="evenodd" transform="matrix(1 0 0 1 0 0)" d="M170.4 459.4L465.12 459.4L465.12 459.4L465.12 199.24L465.12 199.24L170.4 199.24z" /></clipPath><clipPath id="5"><path id="" clip-rule="evenodd" transform="matrix(1 0 0 1 0 0)" d="M170.4 459.4L465.12 459.4L465.12 459.4L465.12 199.24L465.12 199.24L170.4 199.24z" /></clipPath><clipPath id="6"><path id="" clip-rule="evenodd" transform="matrix(1 0 0 1 0 0)" d="M170.4 459.4L465.12 459.4L465.12 459.4L465.12 199.24L465.12 199.24L170.4 199.24z" /></clipPath><clipPath id="7"><path id="" clip-rule="evenodd" transform="matrix(1 0 0 1 0 0)" d="M170.4 459.4L465.12 459.4L465.12 459.4L465.12 199.24L465.12 199.24L170.4 199.24z" /></clipPath><clipPath id="8"><path id="" clip-rule="evenodd" transform="matrix(1 0 0 1 0 0)" d="M170.4 459.4L465.12 459.4L465.12 459.4L465.12 199.24L465.12 199.24L170.4 199.24z" /></clipPath><clipPath id="9"><path id="" clip-rule="evenodd" transform="matrix(1 0 0 1 0 0)" d="M170.4 459.4L465.12 459.4L465.12 459.4L465.12 199.24L465.12 199.24L170.4 199.24z" /></clipPath><clipPath id="10"><path id="" clip-rule="evenodd" transform="matrix(1 0 0 1 0 0)" d="M170.4 459.4L465.12 459.4L465.12 459.4L465.12 199.24L465.12 199.24L170.4 199.24z" /></clipPath><clipPath id="11"><path id="" clip-rule="evenodd" transform="matrix(1 0 0 1 0 0)" d="M170.4 459.4L465.12 459.4L465.12 459.4L465.12 199.24L465.12 199.24L170.4 199.24z" /></clipPath><clipPath id="12"><path id="" clip-rule="evenodd" transform="matrix(1 0 0 1 0 0)" d="M170.4 459.4L465.12 459.4L465.12 459.4L465.12 199.24L465.12 199.24L170.4 199.24z" /></clipPath><clipPath id="13"><path id="" clip-rule="evenodd" transform="matrix(1 0 0 1 0 0)" d="M170.4 459.4L465.12 459.4L465.12 459.4L465.12 199.24L465.12 199.24L170.4 199.24z" /></clipPath><clipPath id="14"><path id="" clip-rule="evenodd" transform="matrix(1 0 0 1 0 0)" d="M170.4 459.4L465.12 459.4L465.12 459.4L465.12 199.24L465.12 199.24L170.4 199.24z" /></clipPath><clipPath id="15"><path id="" clip-rule="evenodd" transform="matrix(1 0 0 1 0 0)" d="M170.4 459.4L465.12 459.4L465.12 459.4L465.12 199.24L465.12 199.24L170.4 199.24z" /></clipPath><clipPath id="16"><path id="" clip-rule="evenodd" transform="matrix(1 0 0 1 0 0)" d="M170.4 459.4L465.12 459.4L465.12 459.4L465.12 199.24L465.12 199.24L170.4 199.24z" /></clipPath><clipPath id="17"><path id="" clip-rule="evenodd" transform="matrix(1 0 0 1 0 0)" d="M170.4 459.4L465.12 459.4L465.12 459.4L465.12 199.24L465.12 199.24L170.4 199.24z" /></clipPath><clipPath id="18"><path id="" clip-rule="evenodd" transform="matrix(1 0 0 1 0 0)" d="M170.4 459.4L465.12 459.4L465.12 459.4L465.12 199.24L465.12 199.24L170.4 199.24z" /></clipPath><clipPath id="19"><path id="" clip-rule="evenodd" transform="matrix(1 0 0 1 0 0)" d="M170.4 449.08L465.36 449.08L465.36 449.08L465.36 432.76L465.36 432.76L170.4 432.76z" /></clipPath><clipPath id="20"><path id="" clip-rule="evenodd" transform="matrix(1 0 0 1 0 0)" d="M170.4 449.08L465.36 449.08L465.36 449.08L465.36 432.76L465.36 432.76L170.4 432.76z" /></clipPath><clipPath id="21"><path id="" clip-rule="evenodd" transform="matrix(1 0 0 1 0 0)" d="M170.4 449.08L465.36 449.08L465.36 449.08L465.36 432.76L465.36 432.76L170.4 432.76z" /></clipPath><clipPath id="22"><path id="" clip-rule="evenodd" transform="matrix(1 0 0 1 0 0)" d="M170.4 449.08L465.36 449.08L465.36 449.08L465.36 432.76L465.36 432.76L170.4 432.76z" /></clipPath><clipPath id="23"><path id="" clip-rule="evenodd" transform="matrix(1 0 0 1 0 0)" d="M170.4 449.08L465.36 449.08L465.36 449.08L465.36 432.76L465.36 432.76L170.4 432.76z" /></clipPath><clipPath id="24"><path id="" clip-rule="evenodd" transform="matrix(1 0 0 1 0 0)" d="M170.4 449.08L465.36 449.08L465.36 449.08L465.36 432.76L465.36 432.76L170.4 432.76z" /></clipPath><clipPath id="25"><path id="" clip-rule="evenodd" transform="matrix(1 0 0 1 0 0)" d="M170.4 449.08L465.36 449.08L465.36 449.08L465.36 432.76L465.36 432.76L170.4 432.76z" /></clipPath><clipPath id="26"><path id="" clip-rule="evenodd" transform="matrix(1 0 0 1 0 0)" d="M170.4 227.8L281.52 227.8L281.52 227.8L281.52 214.6L281.52 214.6L170.4 214.6z" /></clipPath><clipPath id="27"><path id="" clip-rule="evenodd" transform="matrix(1 0 0 1 0 0)" d="M170.4 227.8L281.52 227.8L281.52 227.8L281.52 214.6L281.52 214.6L170.4 214.6z" /></clipPath></defs><g transform="matrix(1.333333 0 0 1.333333 0 0)"><g clip-path="url(#1)"><g clip-path="url(#2)"><path id="86" transform="matrix(1 0 0 -1 0 841)" d="M262.0092 728.5909L306.3344 728.5909" stroke="#000000" stroke-width="0.4889803" fill="none" /><path id="87" transform="matrix(1 0 0 -1 0 841)" d="M320.8326 728.5909L368.6044 728.5909" stroke="#000000" stroke-width="0.4889803" fill="none" /></g><path id="253" transform="matrix(1 0 0 -1 0 841)" d="M170.4 381.6L465.12 381.6L465.12 381.6L465.12 641.76L465.12 641.76L170.4 641.76z" stroke="none" fill="#FFFFFF" fill-rule="evenodd" /><path id="254" transform="matrix(1 0 0 -1 0 841)" d="M203.64 619.32L459.48 619.32M203.64 599.4L459.48 599.4M203.64 579.72L459.48 579.72M203.64 559.8L459.48 559.8M203.64 540.12L459.48 540.12M203.64 520.2L459.48 520.2M203.64 500.52L459.48 500.52M203.64 480.6L459.48 480.6M203.64 460.92L459.48 460.92M203.64 441.24L459.48 441.24M203.64 421.32L459.48 421.32" stroke="#B7B7B7" stroke-width="0.72" fill="none" /><path id="255" transform="matrix(1 0 0 -1 0 841)" d="M203.64 629.16L459.48 629.16M203.64 609.24L459.48 609.24M203.64 589.56L459.48 589.56M203.64 569.88L459.48 569.88M203.64 549.96L459.48 549.96M203.64 530.28L459.48 530.28M203.64 510.36L459.48 510.36M203.64 490.68L459.48 490.68M203.64 470.76L459.48 470.76M203.64 451.08L459.48 451.08M203.64 431.16L459.48 431.16M203.64 411.48L459.48 411.48" stroke="#000000" stroke-width="0.72" fill="none" /><path id="256" transform="matrix(1 0 0 -1 0 841)" d="M459.48 629.16L459.48 411.48M427.32 629.16L427.32 411.48M395.4 629.16L395.4 411.48M363.48 629.16L363.48 411.48M331.56 629.16L331.56 411.48M299.4 629.16L299.4 411.48M267.48 629.16L267.48 411.48M235.56 629.16L235.56 411.48" stroke="#000000" stroke-width="0.72" fill="none" /><path id="257" transform="matrix(1 0 0 -1 0 841)" d="M203.64 411.48L203.64 629.16" stroke="#000000" stroke-width="0.72" fill="none" /><g clip-path="url(#3)"><path id="258" transform="matrix(1 0 0 -1 0 841)" d="M203.52 431.28L331.44 550.08L331.44 550.08L395.52 579.6L395.52 579.6L427.44 609.36" stroke="#000000" stroke-width="1.44" stroke-linecap="round" fill="none" /></g><path id="259" transform="matrix(1 0 0 -1 0 841)" d="M206.19 431.13C 206.19 429.74 205.06 428.61 203.67 428.61C 202.27 428.61 201.15 429.74 201.15 431.13C 201.15 432.52 202.27 433.65 203.67 433.65C 205.06 433.65 206.19 432.52 206.19 431.13z" stroke="none" fill="#000000" fill-rule="nonzero" /><path id="260" transform="matrix(1 0 0 -1 0 841)" d="M206.19 431.13C 206.19 429.74 205.06 428.61 203.67 428.61C 202.27 428.61 201.15 429.74 201.15 431.13C 201.15 432.52 202.27 433.65 203.67 433.65C 205.06 433.65 206.19 432.52 206.19 431.13z" stroke="#000000" stroke-width="0.75" fill="none" /><path id="261" transform="matrix(1 0 0 -1 0 841)" d="M334.11 549.93C 334.11 548.54 332.98 547.41 331.59 547.41C 330.19 547.41 329.07 548.54 329.07 549.93C 329.07 551.32 330.19 552.45 331.59 552.45C 332.98 552.45 334.11 551.32 334.11 549.93z" stroke="none" fill="#000000" fill-rule="nonzero" /><path id="262" transform="matrix(1 0 0 -1 0 841)" d="M334.11 549.93C 334.11 548.54 332.98 547.41 331.59 547.41C 330.19 547.41 329.07 548.54 329.07 549.93C 329.07 551.32 330.19 552.45 331.59 552.45C 332.98 552.45 334.11 551.32 334.11 549.93z" stroke="#000000" stroke-width="0.75" fill="none" /><path id="263" transform="matrix(1 0 0 -1 0 841)" d="M397.95 579.69C 397.95 578.3 396.82 577.17 395.43 577.17C 394.03 577.17 392.91 578.3 392.91 579.69C 392.91 581.08 394.03 582.21 395.43 582.21C 396.82 582.21 397.95 581.08 397.95 579.69z" stroke="none" fill="#000000" fill-rule="nonzero" /><path id="264" transform="matrix(1 0 0 -1 0 841)" d="M397.95 579.69C 397.95 578.3 396.82 577.17 395.43 577.17C 394.03 577.17 392.91 578.3 392.91 579.69C 392.91 581.08 394.03 582.21 395.43 582.21C 396.82 582.21 397.95 581.08 397.95 579.69z" stroke="#000000" stroke-width="0.75" fill="none" /><path id="265" transform="matrix(1 0 0 -1 0 841)" d="M429.87 609.21C 429.87 607.82 428.74 606.69 427.35 606.69C 425.95 606.69 424.83 607.82 424.83 609.21C 424.83 610.6 425.95 611.73 427.35 611.73C 428.74 611.73 429.87 610.6 429.87 609.21z" stroke="none" fill="#000000" fill-rule="nonzero" /><path id="266" transform="matrix(1 0 0 -1 0 841)" d="M429.87 609.21C 429.87 607.82 428.74 606.69 427.35 606.69C 425.95 606.69 424.83 607.82 424.83 609.21C 424.83 610.6 425.95 611.73 427.35 611.73C 428.74 611.73 429.87 610.6 429.87 609.21z" stroke="#000000" stroke-width="0.75" fill="none" /><g clip-path="url(#4)"></g><g clip-path="url(#5)"></g><g clip-path="url(#6)"></g><g clip-path="url(#7)"></g><g clip-path="url(#8)"></g><g clip-path="url(#9)"></g><g clip-path="url(#10)"></g><g clip-path="url(#11)"></g><g clip-path="url(#12)"></g><g clip-path="url(#13)"></g><g clip-path="url(#14)"></g><g clip-path="url(#15)"></g><path id="303" transform="matrix(1 0 0 -1 0 841)" d="M175.49 621.68L198.205 621.68L198.205 621.68L198.205 640.78L198.205 640.78L175.49 640.78z" stroke="none" fill="#FFFFFF" fill-rule="evenodd" /><g clip-path="url(#16)"></g><g clip-path="url(#17)"></g><g clip-path="url(#18)"></g><g clip-path="url(#19)"></g><g clip-path="url(#20)"></g><g clip-path="url(#21)"></g><g clip-path="url(#22)"></g><g clip-path="url(#23)"></g><g clip-path="url(#24)"></g><g clip-path="url(#25)"></g><path id="313" transform="matrix(1 0 0 -1 0 841)" d="M411.4 411.68L411.05 592.62" stroke="#000000" stroke-width="0.5" fill="none" /><path id="314" transform="matrix(1 0 0 -1 0 841)" d="M413.36 593.67L206.64 593.74" stroke="#000000" stroke-width="0.5" fill="none" /><g clip-path="url(#26)"></g><g clip-path="url(#27)"></g><path id="318" transform="matrix(1 0 0 -1 0 841)" d="M204.05 594.85C 204.05 595.55 204.75 596.12 205.61 596.12C 206.47 596.12 207.17 595.55 207.17 594.85C 207.17 594.15 206.47 593.59 205.61 593.59C 204.75 593.59 204.05 594.15 204.05 594.85z" stroke="none" fill="#000000" fill-rule="evenodd" /><path id="319" transform="matrix(1 0 0 -1 0 841)" d="M204.05 594.85C 204.05 595.55 204.75 596.12 205.61 596.12C 206.47 596.12 207.17 595.55 207.17 594.85C 207.17 594.15 206.47 593.59 205.61 593.59C 204.75 593.59 204.05 594.15 204.05 594.85z" stroke="#000000" stroke-width="2" fill="none" /><path id="320" transform="matrix(1 0 0 -1 0 841)" d="M409.73 593.67C 409.73 594.37 410.43 594.94 411.29 594.94C 412.15 594.94 412.85 594.37 412.85 593.67C 412.85 592.98 412.15 592.41 411.29 592.41C 410.43 592.41 409.73 592.98 409.73 593.67z" stroke="none" fill="#000000" fill-rule="evenodd" /><path id="321" transform="matrix(1 0 0 -1 0 841)" d="M409.73 593.67C 409.73 594.37 410.43 594.94 411.29 594.94C 412.15 594.94 412.85 594.37 412.85 593.67C 412.85 592.98 412.15 592.41 411.29 592.41C 410.43 592.41 409.73 592.98 409.73 593.67z" stroke="#000000" stroke-width="2" fill="none" /><path id="322" transform="matrix(1 0 0 -1 0 841)" d="M266.17 490.34C 266.17 491.04 266.87 491.61 267.72 491.61C 268.58 491.61 269.28 491.04 269.28 490.34C 269.28 489.65 268.58 489.08 267.72 489.08C 266.87 489.08 266.17 489.65 266.17 490.34z" stroke="none" fill="#000000" fill-rule="evenodd" /><path id="323" transform="matrix(1 0 0 -1 0 841)" d="M266.17 490.34C 266.17 491.04 266.87 491.61 267.72 491.61C 268.58 491.61 269.28 491.04 269.28 490.34C 269.28 489.65 268.58 489.08 267.72 489.08C 266.87 489.08 266.17 489.65 266.17 490.34z" stroke="#000000" stroke-width="2" fill="none" /><path id="324" transform="matrix(1 0 0 -1 0 841)" d="M202.3 490.28C 202.3 490.98 203 491.54 203.86 491.54C 204.72 491.54 205.41 490.98 205.41 490.28C 205.41 489.58 204.72 489.01 203.86 489.01C 203 489.01 202.3 489.58 202.3 490.28z" stroke="none" fill="#000000" fill-rule="evenodd" /><path id="325" transform="matrix(1 0 0 -1 0 841)" d="M202.3 490.28C 202.3 490.98 203 491.54 203.86 491.54C 204.72 491.54 205.41 490.98 205.41 490.28C 205.41 489.58 204.72 489.01 203.86 489.01C 203 489.01 202.3 489.58 202.3 490.28z" stroke="#000000" stroke-width="2" fill="none" /><path id="326" transform="matrix(1 0 0 -1 0 841)" d="M191.4 594.43L206.65 612.73" stroke="#000000" stroke-width="0.75" fill="none" /></g></g></svg>