<svg xmlns="http://www.w3.org/2000/svg" xmlns:xlink="http://www.w3.org/1999/xlink" id="body_5" preserveAspectRatio="xMinYMin meet" viewBox="0 0 793 1121"><defs><clipPath id="1"><path id="" clip-rule="evenodd" transform="matrix(1 0 0 1 0 0)" d="M0 841L0 -0.9199829L0 -0.9199829L595.2 -0.9199829L595.2 -0.9199829L595.2 841L595.2 841L0 841z" /></clipPath><clipPath id="2"><path id="" clip-rule="evenodd" transform="matrix(1 0 0 1 0 0)" d="M288.82 139.85L406.6706 139.85L406.6706 139.85L406.6706 97.10162L406.6706 97.10162L288.82 97.10156z" /></clipPath><clipPath id="3"><path id="" clip-rule="evenodd" transform="matrix(1 0 0 1 0 0)" d="M137.42 228.65L496.6671 228.65L496.6671 228.65L496.6671 167.8979L496.6671 167.8979L137.42 167.8979z" /></clipPath><clipPath id="4"><path id="" clip-rule="evenodd" transform="matrix(1 0 0 1 0 0)" d="M242.02 328L395.6223 328L395.6223 328L395.6223 256.7015L395.6223 256.7015L242.02 256.7015z" /></clipPath><clipPath id="5"><path id="" clip-rule="evenodd" transform="matrix(1 0 0 1 0 0)" d="M218.02 567.5L488.0251 567.5L488.0251 567.5L488.0251 388.2516L488.0251 388.2516L218.02 388.2516z" /></clipPath><clipPath id="6"><path id="" clip-rule="evenodd" transform="matrix(1 0 0 1 0 0)" d="M215.17 697.85L227.1699 697.85L227.1699 697.85L227.1699 661.1012L227.1699 661.1012L215.17 661.1012z" /></clipPath><clipPath id="7"><path id="" clip-rule="evenodd" transform="matrix(1 0 0 1 0 0)" d="M252.82 696.9L265.5696 696.9L265.5696 696.9L265.5696 662.2996L265.5696 662.2996L252.82 662.2996z" /></clipPath><clipPath id="8"><path id="" clip-rule="evenodd" transform="matrix(1 0 0 1 0 0)" d="M445.57 733.6L458.27 733.6L458.27 733.6L458.2699 698.299L458.2699 698.299L445.57 698.299z" /></clipPath><clipPath id="9"><path id="" clip-rule="evenodd" transform="matrix(1 0 0 1 0 0)" d="M472.67 734.55L484.6699 734.55L484.6699 734.55L484.6699 697.8509L484.6699 697.8509L472.67 697.8509z" /></clipPath></defs><g transform="matrix(1.333333 0 0 1.333333 0 0)"><g clip-path="url(#1)"><g clip-path="url(#2)"></g><g clip-path="url(#3)"><path id="143" transform="matrix(1 0 0 -1 0 841)" d="M185.939 651.5754L412.5618 651.5754" stroke="#000000" stroke-width="0.4915808" fill="none" /><path id="148" transform="matrix(1 0 0 -1 0 841)" d="M445.8125 651.5754L494.3605 651.5754" stroke="#000000" stroke-width="0.4915808" fill="none" /></g><g clip-path="url(#4)"><path id="243" transform="matrix(1 0 0 -1 0 841)" d="M344.1703 548.5155L384.3185 548.5155" stroke="#000000" stroke-width="0.4881538" fill="none" /></g><g clip-path="url(#5)"><path id="417" transform="matrix(1 0 0 -1 0 841)" d="M295.1868 431.8551L463.7802 431.8551" stroke="#000000" stroke-width="0.5158177" fill="none" /><path id="430" transform="matrix(1 0 0 -1 0 841)" d="M274.631 363.7549L434.2546 363.7549" stroke="#000000" stroke-width="0.5158177" fill="none" /><path id="431" transform="matrix(1 0 0 -1 0 841)" d="M248.5818 295.6285L482.011 295.6285" stroke="#000000" stroke-width="0.5158177" fill="none" /></g><g clip-path="url(#6)"><path id="807" transform="matrix(1 0 0 -1 0 841)" d="M217.1931 160.8418L225.1704 160.8418" stroke="#000000" stroke-width="0.5057544" fill="none" /></g><g clip-path="url(#7)"><path id="814" transform="matrix(1 0 0 -1 0 841)" d="M254.7637 160.4453L262.6546 160.4453" stroke="#000000" stroke-width="0.4859293" fill="none" /></g><g clip-path="url(#8)"><path id="862" transform="matrix(1 0 0 -1 0 841)" d="M447.5061 124.0763L455.3663 124.0763" stroke="#000000" stroke-width="0.4840358" fill="none" /></g><g clip-path="url(#9)"><path id="866" transform="matrix(1 0 0 -1 0 841)" d="M474.6931 124.1179L482.0269 124.1179" stroke="#000000" stroke-width="0.5057544" fill="none" /></g></g></g></svg>