<svg xmlns="http://www.w3.org/2000/svg" xmlns:xlink="http://www.w3.org/1999/xlink" id="body_13" preserveAspectRatio="xMinYMin meet" viewBox="0 0 793 1121"><defs><clipPath id="1"><path id="" clip-rule="evenodd" transform="matrix(1 0 0 1 0 0)" d="M0 841L0 -0.9199829L0 -0.9199829L595.2 -0.9199829L595.2 -0.9199829L595.2 841L595.2 841L0 841z" /></clipPath><clipPath id="2"><path id="" clip-rule="evenodd" transform="matrix(1 0 0 1 0 0)" d="M253.32 231.05L434.7676 231.05L434.7676 231.05L434.7676 188.3016L434.7676 188.3016L253.32 188.3016z" /></clipPath><clipPath id="3"><path id="" clip-rule="evenodd" transform="matrix(1 0 0 1 0 0)" d="M246.37 330.4L446.5222 330.4L446.5222 330.4L446.5222 291.2998L446.5222 291.2998L246.37 291.2998z" /></clipPath><clipPath id="4"><path id="" clip-rule="evenodd" transform="matrix(1 0 0 1 0 0)" d="M289.32 533.9L348.6179 533.9L348.6179 533.9L348.6179 390.6452L348.6179 390.6452L289.32 390.6452z" /></clipPath><clipPath id="5"><path id="" clip-rule="evenodd" transform="matrix(1 0 0 1 0 0)" d="M242.77 775.85L418.2203 775.85L418.2203 775.85L418.2203 733.1016L418.2203 733.1016L242.77 733.1016z" /></clipPath></defs><g transform="matrix(1.333333 0 0 1.333333 0 0)"><g clip-path="url(#1)"><g clip-path="url(#2)"></g><g clip-path="url(#3)"></g><g clip-path="url(#4)"><path id="650" transform="matrix(1 0 0 -1 0 841)" d="M298.3998 431.2309L320.8682 431.2309" stroke="#000000" stroke-width="0.5111965" fill="none" /><path id="651" transform="matrix(1 0 0 -1 0 841)" d="M298.3998 390.1201L318.9695 390.1201" stroke="#000000" stroke-width="0.5111965" fill="none" /><path id="652" transform="matrix(1 0 0 -1 0 841)" d="M298.3998 328.1303L321.2083 328.1303" stroke="#000000" stroke-width="0.5111965" fill="none" /></g><g clip-path="url(#5)"></g></g></g></svg>