<svg xmlns="http://www.w3.org/2000/svg" xmlns:xlink="http://www.w3.org/1999/xlink" id="body_10" preserveAspectRatio="xMinYMin meet" viewBox="0 0 793 1121"><defs><clipPath id="1"><path id="" clip-rule="evenodd" transform="matrix(1 0 0 1 0 0)" d="M0 841L0 -0.9199829L0 -0.9199829L595.2 -0.9199829L595.2 -0.9199829L595.2 841L595.2 841L0 841z" /></clipPath><clipPath id="2"><path id="" clip-rule="evenodd" transform="matrix(1 0 0 1 0 0)" d="M175.57 222.9L509.1772 222.9L509.1772 222.9L509.1772 90.89905L509.1772 90.89905L175.57 90.89905z" /></clipPath><clipPath id="3"><path id="" clip-rule="evenodd" transform="matrix(1 0 0 1 0 0)" d="M121.82 411.5L516.1223 411.5L516.1223 411.5L516.1223 334.2516L516.1223 334.2516L121.82 334.2516z" /></clipPath><clipPath id="4"><path id="" clip-rule="evenodd" transform="matrix(1 0 0 1 0 0)" d="M192.82 513.05L473.4207 513.05L473.4207 513.05L473.4207 417.751L473.4207 417.751L192.82 417.751z" /></clipPath></defs><g transform="matrix(1.333333 0 0 1.333333 0 0)"><g clip-path="url(#1)"><g clip-path="url(#2)"><path id="104" transform="matrix(1 0 0 -1 0 841)" d="M254.3045 727.4167L288.5959 727.4167" stroke="#000000" stroke-width="0.4905561" fill="none" /><path id="105" transform="matrix(1 0 0 -1 0 841)" d="M350.106 727.4167L394.019 727.4167" stroke="#000000" stroke-width="0.4905561" fill="none" /><path id="106" transform="matrix(1 0 0 -1 0 841)" d="M235.418 682.7047L277.9539 682.7047" stroke="#000000" stroke-width="0.4905561" fill="none" /><path id="107" transform="matrix(1 0 0 -1 0 841)" d="M260.4117 637.9948L292.0037 637.9948" stroke="#000000" stroke-width="0.4905561" fill="none" /></g><g clip-path="url(#3)"><path id="425" transform="matrix(1 0 0 -1 0 841)" d="M250.3808 486.2936L272.7148 486.2936" stroke="#000000" stroke-width="0.6884309" fill="none" /><path id="426" transform="matrix(1 0 0 -1 0 841)" d="M330.9073 486.2936L358.6451 486.2936" stroke="#000000" stroke-width="0.6884309" fill="none" /><path id="427" transform="matrix(1 0 0 -1 0 841)" d="M133.3017 446.8755L159.0198 446.8755" stroke="#000000" stroke-width="0.6884309" fill="none" /><path id="428" transform="matrix(1 0 0 -1 0 841)" d="M302.4104 446.8755L332.2058 446.8755" stroke="#000000" stroke-width="0.6884309" fill="none" /></g><g clip-path="url(#4)"><path id="531" transform="matrix(1 0 0 -1 0 841)" d="M258.3362 404.292L322.9382 404.292" stroke="#000000" stroke-width="0.6893792" fill="none" /><path id="532" transform="matrix(1 0 0 -1 0 841)" d="M336.7011 404.292L440.9437 404.292" stroke="#000000" stroke-width="0.6893792" fill="none" /><path id="533" transform="matrix(1 0 0 -1 0 841)" d="M257.622 366.7215L406.7263 366.7215" stroke="#000000" stroke-width="0.6893792" fill="none" /></g></g></g></svg>