<svg xmlns="http://www.w3.org/2000/svg" xmlns:xlink="http://www.w3.org/1999/xlink" id="body_15" preserveAspectRatio="xMinYMin meet" viewBox="0 0 793 1121"><defs><clipPath id="1"><path id="" clip-rule="evenodd" transform="matrix(1 0 0 1 0 0)" d="M0 841L0 -0.9199829L0 -0.9199829L595.2 -0.9199829L595.2 -0.9199829L595.2 841L595.2 841L0 841z" /></clipPath><clipPath id="2"><path id="" clip-rule="evenodd" transform="matrix(1 0 0 1 0 0)" d="M175.57 144.4L465.0237 144.4L465.0237 144.4L465.0237 55.84778L465.0237 55.84778L175.57 55.84778z" /></clipPath><clipPath id="3"><path id="" clip-rule="evenodd" transform="matrix(1 0 0 1 0 0)" d="M85.233 314.53L128.463 314.53L128.463 314.53L128.463 291.7L128.463 291.7L85.233 291.7z" /></clipPath><clipPath id="4"><path id="" clip-rule="evenodd" transform="matrix(1 0 0 1 0 0)" d="M85.224 314.54L128.448 314.54L128.448 314.54L128.448 291.716L128.448 291.716L85.224 291.716z" /></clipPath><clipPath id="5"><path id="" clip-rule="evenodd" transform="matrix(1 0 0 1 0 0)" d="M85.224 314.54L128.448 314.54L128.448 314.54L128.448 291.716L128.448 291.716L85.224 291.716z" /></clipPath><clipPath id="6"><path id="" clip-rule="evenodd" transform="matrix(1 0 0 1 0 0)" d="M85.224 314.54L128.448 314.54L128.448 314.54L128.448 291.716L128.448 291.716L85.224 291.716z" /></clipPath><clipPath id="7"><path id="" clip-rule="evenodd" transform="matrix(1 0 0 1 0 0)" d="M129.18 314.53L191.1 314.53L191.1 314.53L191.1 291.7L191.1 291.7L129.18 291.7z" /></clipPath><clipPath id="8"><path id="" clip-rule="evenodd" transform="matrix(1 0 0 1 0 0)" d="M129.17 314.54L191.114 314.54L191.114 314.54L191.114 291.716L191.114 291.716L129.17 291.716z" /></clipPath><clipPath id="9"><path id="" clip-rule="evenodd" transform="matrix(1 0 0 1 0 0)" d="M129.17 314.54L191.114 314.54L191.114 314.54L191.114 291.716L191.114 291.716L129.17 291.716z" /></clipPath><clipPath id="10"><path id="" clip-rule="evenodd" transform="matrix(1 0 0 1 0 0)" d="M191.82 314.53L226.65 314.53L226.65 314.53L226.65 291.7L226.65 291.7L191.82 291.7z" /></clipPath><clipPath id="11"><path id="" clip-rule="evenodd" transform="matrix(1 0 0 1 0 0)" d="M191.83 314.54L226.654 314.54L226.654 314.54L226.654 291.716L226.654 291.716L191.83 291.716z" /></clipPath><clipPath id="12"><path id="" clip-rule="evenodd" transform="matrix(1 0 0 1 0 0)" d="M191.83 314.54L226.654 314.54L226.654 314.54L226.654 291.716L226.654 291.716L191.83 291.716z" /></clipPath><clipPath id="13"><path id="" clip-rule="evenodd" transform="matrix(1 0 0 1 0 0)" d="M227.13 314.53L262.17 314.53L262.17 314.53L262.17 291.7L262.17 291.7L227.13 291.7z" /></clipPath><clipPath id="14"><path id="" clip-rule="evenodd" transform="matrix(1 0 0 1 0 0)" d="M227.14 314.54L262.18 314.54L262.18 314.54L262.18 291.716L262.18 291.716L227.14 291.716z" /></clipPath><clipPath id="15"><path id="" clip-rule="evenodd" transform="matrix(1 0 0 1 0 0)" d="M227.14 314.54L262.18 314.54L262.18 314.54L262.18 291.716L262.18 291.716L227.14 291.716z" /></clipPath><clipPath id="16"><path id="" clip-rule="evenodd" transform="matrix(1 0 0 1 0 0)" d="M262.65 314.53L304.68 314.53L304.68 314.53L304.68 291.7L304.68 291.7L262.65 291.7z" /></clipPath><clipPath id="17"><path id="" clip-rule="evenodd" transform="matrix(1 0 0 1 0 0)" d="M262.66 314.54L304.684 314.54L304.684 314.54L304.684 291.716L304.684 291.716L262.66 291.716z" /></clipPath><clipPath id="18"><path id="" clip-rule="evenodd" transform="matrix(1 0 0 1 0 0)" d="M262.66 314.54L304.684 314.54L304.684 314.54L304.684 291.716L304.684 291.716L262.66 291.716z" /></clipPath><clipPath id="19"><path id="" clip-rule="evenodd" transform="matrix(1 0 0 1 0 0)" d="M305.16 314.53L339.96 314.53L339.96 314.53L339.96 291.7L339.96 291.7L305.16 291.7z" /></clipPath><clipPath id="20"><path id="" clip-rule="evenodd" transform="matrix(1 0 0 1 0 0)" d="M305.16 314.54L339.96 314.54L339.96 314.54L339.96 291.716L339.96 291.716L305.16 291.716z" /></clipPath><clipPath id="21"><path id="" clip-rule="evenodd" transform="matrix(1 0 0 1 0 0)" d="M305.16 314.54L339.96 314.54L339.96 314.54L339.96 291.716L339.96 291.716L305.16 291.716z" /></clipPath><clipPath id="22"><path id="" clip-rule="evenodd" transform="matrix(1 0 0 1 0 0)" d="M340.68 314.53L375.75 314.53L375.75 314.53L375.75 291.7L375.75 291.7L340.68 291.7z" /></clipPath><clipPath id="23"><path id="" clip-rule="evenodd" transform="matrix(1 0 0 1 0 0)" d="M340.68 314.54L375.744 314.54L375.744 314.54L375.744 291.716L375.744 291.716L340.68 291.716z" /></clipPath><clipPath id="24"><path id="" clip-rule="evenodd" transform="matrix(1 0 0 1 0 0)" d="M340.68 314.54L375.744 314.54L375.744 314.54L375.744 291.716L375.744 291.716L340.68 291.716z" /></clipPath><clipPath id="25"><path id="" clip-rule="evenodd" transform="matrix(1 0 0 1 0 0)" d="M376.23 314.53L413.46 314.53L413.46 314.53L413.46 291.7L413.46 291.7L376.23 291.7z" /></clipPath><clipPath id="26"><path id="" clip-rule="evenodd" transform="matrix(1 0 0 1 0 0)" d="M376.22 314.54L413.444 314.54L413.444 314.54L413.444 291.716L413.444 291.716L376.22 291.716z" /></clipPath><clipPath id="27"><path id="" clip-rule="evenodd" transform="matrix(1 0 0 1 0 0)" d="M376.22 314.54L413.444 314.54L413.444 314.54L413.444 291.716L413.444 291.716L376.22 291.716z" /></clipPath><clipPath id="28"><path id="" clip-rule="evenodd" transform="matrix(1 0 0 1 0 0)" d="M413.94 314.53L448.74 314.53L448.74 314.53L448.74 291.7L448.74 291.7L413.94 291.7z" /></clipPath><clipPath id="29"><path id="" clip-rule="evenodd" transform="matrix(1 0 0 1 0 0)" d="M413.93 314.54L448.73 314.54L448.73 314.54L448.73 291.716L448.73 291.716L413.93 291.716z" /></clipPath><clipPath id="30"><path id="" clip-rule="evenodd" transform="matrix(1 0 0 1 0 0)" d="M413.93 314.54L448.73 314.54L448.73 314.54L448.73 291.716L448.73 291.716L413.93 291.716z" /></clipPath><clipPath id="31"><path id="" clip-rule="evenodd" transform="matrix(1 0 0 1 0 0)" d="M449.22 314.53L484.26 314.53L484.26 314.53L484.26 291.7L484.26 291.7L449.22 291.7z" /></clipPath><clipPath id="32"><path id="" clip-rule="evenodd" transform="matrix(1 0 0 1 0 0)" d="M449.21 314.54L484.274 314.54L484.274 314.54L484.274 291.716L484.274 291.716L449.21 291.716z" /></clipPath><clipPath id="33"><path id="" clip-rule="evenodd" transform="matrix(1 0 0 1 0 0)" d="M449.21 314.54L484.274 314.54L484.274 314.54L484.274 291.716L484.274 291.716L449.21 291.716z" /></clipPath><clipPath id="34"><path id="" clip-rule="evenodd" transform="matrix(1 0 0 1 0 0)" d="M484.74 314.53L524.34 314.53L524.34 314.53L524.34 291.7L524.34 291.7L484.74 291.7z" /></clipPath><clipPath id="35"><path id="" clip-rule="evenodd" transform="matrix(1 0 0 1 0 0)" d="M484.75 314.54L524.35 314.54L524.35 314.54L524.35 291.716L524.35 291.716L484.75 291.716z" /></clipPath><clipPath id="36"><path id="" clip-rule="evenodd" transform="matrix(1 0 0 1 0 0)" d="M484.75 314.54L524.35 314.54L524.35 314.54L524.35 291.716L524.35 291.716L484.75 291.716z" /></clipPath><clipPath id="37"><path id="" clip-rule="evenodd" transform="matrix(1 0 0 1 0 0)" d="M85.233 326.53L128.463 326.53L128.463 326.53L128.463 315.01L128.463 315.01L85.233 315.01z" /></clipPath><clipPath id="38"><path id="" clip-rule="evenodd" transform="matrix(1 0 0 1 0 0)" d="M85.224 326.54L128.448 326.54L128.448 326.54L128.448 315.02L128.448 315.02L85.224 315.02z" /></clipPath><clipPath id="39"><path id="" clip-rule="evenodd" transform="matrix(1 0 0 1 0 0)" d="M85.224 326.54L128.448 326.54L128.448 326.54L128.448 315.02L128.448 315.02L85.224 315.02z" /></clipPath><clipPath id="40"><path id="" clip-rule="evenodd" transform="matrix(1 0 0 1 0 0)" d="M85.224 326.54L128.448 326.54L128.448 326.54L128.448 315.02L128.448 315.02L85.224 315.02z" /></clipPath><clipPath id="41"><path id="" clip-rule="evenodd" transform="matrix(1 0 0 1 0 0)" d="M129.18 326.53L191.1 326.53L191.1 326.53L191.1 315.01L191.1 315.01L129.18 315.01z" /></clipPath><clipPath id="42"><path id="" clip-rule="evenodd" transform="matrix(1 0 0 1 0 0)" d="M129.17 326.54L191.114 326.54L191.114 326.54L191.114 315.02L191.114 315.02L129.17 315.02z" /></clipPath><clipPath id="43"><path id="" clip-rule="evenodd" transform="matrix(1 0 0 1 0 0)" d="M129.17 326.54L191.114 326.54L191.114 326.54L191.114 315.02L191.114 315.02L129.17 315.02z" /></clipPath><clipPath id="44"><path id="" clip-rule="evenodd" transform="matrix(1 0 0 1 0 0)" d="M191.82 326.53L226.65 326.53L226.65 326.53L226.65 315.01L226.65 315.01L191.82 315.01z" /></clipPath><clipPath id="45"><path id="" clip-rule="evenodd" transform="matrix(1 0 0 1 0 0)" d="M191.83 326.54L226.654 326.54L226.654 326.54L226.654 315.02L226.654 315.02L191.83 315.02z" /></clipPath><clipPath id="46"><path id="" clip-rule="evenodd" transform="matrix(1 0 0 1 0 0)" d="M191.83 326.54L226.654 326.54L226.654 326.54L226.654 315.02L226.654 315.02L191.83 315.02z" /></clipPath><clipPath id="47"><path id="" clip-rule="evenodd" transform="matrix(1 0 0 1 0 0)" d="M227.13 326.53L262.17 326.53L262.17 326.53L262.17 315.01L262.17 315.01L227.13 315.01z" /></clipPath><clipPath id="48"><path id="" clip-rule="evenodd" transform="matrix(1 0 0 1 0 0)" d="M227.14 326.54L262.18 326.54L262.18 326.54L262.18 315.02L262.18 315.02L227.14 315.02z" /></clipPath><clipPath id="49"><path id="" clip-rule="evenodd" transform="matrix(1 0 0 1 0 0)" d="M227.14 326.54L262.18 326.54L262.18 326.54L262.18 315.02L262.18 315.02L227.14 315.02z" /></clipPath><clipPath id="50"><path id="" clip-rule="evenodd" transform="matrix(1 0 0 1 0 0)" d="M262.65 326.53L304.68 326.53L304.68 326.53L304.68 315.01L304.68 315.01L262.65 315.01z" /></clipPath><clipPath id="51"><path id="" clip-rule="evenodd" transform="matrix(1 0 0 1 0 0)" d="M262.66 326.54L304.684 326.54L304.684 326.54L304.684 315.02L304.684 315.02L262.66 315.02z" /></clipPath><clipPath id="52"><path id="" clip-rule="evenodd" transform="matrix(1 0 0 1 0 0)" d="M262.66 326.54L304.684 326.54L304.684 326.54L304.684 315.02L304.684 315.02L262.66 315.02z" /></clipPath><clipPath id="53"><path id="" clip-rule="evenodd" transform="matrix(1 0 0 1 0 0)" d="M305.16 326.53L339.96 326.53L339.96 326.53L339.96 315.01L339.96 315.01L305.16 315.01z" /></clipPath><clipPath id="54"><path id="" clip-rule="evenodd" transform="matrix(1 0 0 1 0 0)" d="M305.16 326.54L339.96 326.54L339.96 326.54L339.96 315.02L339.96 315.02L305.16 315.02z" /></clipPath><clipPath id="55"><path id="" clip-rule="evenodd" transform="matrix(1 0 0 1 0 0)" d="M305.16 326.54L339.96 326.54L339.96 326.54L339.96 315.02L339.96 315.02L305.16 315.02z" /></clipPath><clipPath id="56"><path id="" clip-rule="evenodd" transform="matrix(1 0 0 1 0 0)" d="M340.68 326.53L375.75 326.53L375.75 326.53L375.75 315.01L375.75 315.01L340.68 315.01z" /></clipPath><clipPath id="57"><path id="" clip-rule="evenodd" transform="matrix(1 0 0 1 0 0)" d="M340.68 326.54L375.744 326.54L375.744 326.54L375.744 315.02L375.744 315.02L340.68 315.02z" /></clipPath><clipPath id="58"><path id="" clip-rule="evenodd" transform="matrix(1 0 0 1 0 0)" d="M340.68 326.54L375.744 326.54L375.744 326.54L375.744 315.02L375.744 315.02L340.68 315.02z" /></clipPath><clipPath id="59"><path id="" clip-rule="evenodd" transform="matrix(1 0 0 1 0 0)" d="M376.23 326.53L413.46 326.53L413.46 326.53L413.46 315.01L413.46 315.01L376.23 315.01z" /></clipPath><clipPath id="60"><path id="" clip-rule="evenodd" transform="matrix(1 0 0 1 0 0)" d="M376.22 326.54L413.444 326.54L413.444 326.54L413.444 315.02L413.444 315.02L376.22 315.02z" /></clipPath><clipPath id="61"><path id="" clip-rule="evenodd" transform="matrix(1 0 0 1 0 0)" d="M376.22 326.54L413.444 326.54L413.444 326.54L413.444 315.02L413.444 315.02L376.22 315.02z" /></clipPath><clipPath id="62"><path id="" clip-rule="evenodd" transform="matrix(1 0 0 1 0 0)" d="M413.94 326.53L448.74 326.53L448.74 326.53L448.74 315.01L448.74 315.01L413.94 315.01z" /></clipPath><clipPath id="63"><path id="" clip-rule="evenodd" transform="matrix(1 0 0 1 0 0)" d="M413.93 326.54L448.73 326.54L448.73 326.54L448.73 315.02L448.73 315.02L413.93 315.02z" /></clipPath><clipPath id="64"><path id="" clip-rule="evenodd" transform="matrix(1 0 0 1 0 0)" d="M413.93 326.54L448.73 326.54L448.73 326.54L448.73 315.02L448.73 315.02L413.93 315.02z" /></clipPath><clipPath id="65"><path id="" clip-rule="evenodd" transform="matrix(1 0 0 1 0 0)" d="M449.22 326.53L484.26 326.53L484.26 326.53L484.26 315.01L484.26 315.01L449.22 315.01z" /></clipPath><clipPath id="66"><path id="" clip-rule="evenodd" transform="matrix(1 0 0 1 0 0)" d="M449.21 326.54L484.274 326.54L484.274 326.54L484.274 315.02L484.274 315.02L449.21 315.02z" /></clipPath><clipPath id="67"><path id="" clip-rule="evenodd" transform="matrix(1 0 0 1 0 0)" d="M449.21 326.54L484.274 326.54L484.274 326.54L484.274 315.02L484.274 315.02L449.21 315.02z" /></clipPath><clipPath id="68"><path id="" clip-rule="evenodd" transform="matrix(1 0 0 1 0 0)" d="M484.74 326.53L524.34 326.53L524.34 326.53L524.34 315.01L524.34 315.01L484.74 315.01z" /></clipPath><clipPath id="69"><path id="" clip-rule="evenodd" transform="matrix(1 0 0 1 0 0)" d="M484.75 326.54L524.35 326.54L524.35 326.54L524.35 315.02L524.35 315.02L484.75 315.02z" /></clipPath><clipPath id="70"><path id="" clip-rule="evenodd" transform="matrix(1 0 0 1 0 0)" d="M484.75 326.54L524.35 326.54L524.35 326.54L524.35 315.02L524.35 315.02L484.75 315.02z" /></clipPath><clipPath id="71"><path id="" clip-rule="evenodd" transform="matrix(1 0 0 1 0 0)" d="M85.233 338.53L128.463 338.53L128.463 338.53L128.463 327.01L128.463 327.01L85.233 327.01z" /></clipPath><clipPath id="72"><path id="" clip-rule="evenodd" transform="matrix(1 0 0 1 0 0)" d="M85.224 338.54L128.448 338.54L128.448 338.54L128.448 327.02L128.448 327.02L85.224 327.02z" /></clipPath><clipPath id="73"><path id="" clip-rule="evenodd" transform="matrix(1 0 0 1 0 0)" d="M85.224 338.54L128.448 338.54L128.448 338.54L128.448 327.02L128.448 327.02L85.224 327.02z" /></clipPath><clipPath id="74"><path id="" clip-rule="evenodd" transform="matrix(1 0 0 1 0 0)" d="M85.224 338.54L128.448 338.54L128.448 338.54L128.448 327.02L128.448 327.02L85.224 327.02z" /></clipPath><clipPath id="75"><path id="" clip-rule="evenodd" transform="matrix(1 0 0 1 0 0)" d="M129.18 338.53L191.1 338.53L191.1 338.53L191.1 327.01L191.1 327.01L129.18 327.01z" /></clipPath><clipPath id="76"><path id="" clip-rule="evenodd" transform="matrix(1 0 0 1 0 0)" d="M129.17 338.54L191.114 338.54L191.114 338.54L191.114 327.02L191.114 327.02L129.17 327.02z" /></clipPath><clipPath id="77"><path id="" clip-rule="evenodd" transform="matrix(1 0 0 1 0 0)" d="M129.17 338.54L191.114 338.54L191.114 338.54L191.114 327.02L191.114 327.02L129.17 327.02z" /></clipPath><clipPath id="78"><path id="" clip-rule="evenodd" transform="matrix(1 0 0 1 0 0)" d="M191.82 338.53L226.65 338.53L226.65 338.53L226.65 327.01L226.65 327.01L191.82 327.01z" /></clipPath><clipPath id="79"><path id="" clip-rule="evenodd" transform="matrix(1 0 0 1 0 0)" d="M191.83 338.54L226.654 338.54L226.654 338.54L226.654 327.02L226.654 327.02L191.83 327.02z" /></clipPath><clipPath id="80"><path id="" clip-rule="evenodd" transform="matrix(1 0 0 1 0 0)" d="M191.83 338.54L226.654 338.54L226.654 338.54L226.654 327.02L226.654 327.02L191.83 327.02z" /></clipPath><clipPath id="81"><path id="" clip-rule="evenodd" transform="matrix(1 0 0 1 0 0)" d="M227.13 338.53L262.17 338.53L262.17 338.53L262.17 327.01L262.17 327.01L227.13 327.01z" /></clipPath><clipPath id="82"><path id="" clip-rule="evenodd" transform="matrix(1 0 0 1 0 0)" d="M227.14 338.54L262.18 338.54L262.18 338.54L262.18 327.02L262.18 327.02L227.14 327.02z" /></clipPath><clipPath id="83"><path id="" clip-rule="evenodd" transform="matrix(1 0 0 1 0 0)" d="M227.14 338.54L262.18 338.54L262.18 338.54L262.18 327.02L262.18 327.02L227.14 327.02z" /></clipPath><clipPath id="84"><path id="" clip-rule="evenodd" transform="matrix(1 0 0 1 0 0)" d="M262.65 338.53L304.68 338.53L304.68 338.53L304.68 327.01L304.68 327.01L262.65 327.01z" /></clipPath><clipPath id="85"><path id="" clip-rule="evenodd" transform="matrix(1 0 0 1 0 0)" d="M262.66 338.54L304.684 338.54L304.684 338.54L304.684 327.02L304.684 327.02L262.66 327.02z" /></clipPath><clipPath id="86"><path id="" clip-rule="evenodd" transform="matrix(1 0 0 1 0 0)" d="M262.66 338.54L304.684 338.54L304.684 338.54L304.684 327.02L304.684 327.02L262.66 327.02z" /></clipPath><clipPath id="87"><path id="" clip-rule="evenodd" transform="matrix(1 0 0 1 0 0)" d="M305.16 338.53L339.96 338.53L339.96 338.53L339.96 327.01L339.96 327.01L305.16 327.01z" /></clipPath><clipPath id="88"><path id="" clip-rule="evenodd" transform="matrix(1 0 0 1 0 0)" d="M305.16 338.54L339.96 338.54L339.96 338.54L339.96 327.02L339.96 327.02L305.16 327.02z" /></clipPath><clipPath id="89"><path id="" clip-rule="evenodd" transform="matrix(1 0 0 1 0 0)" d="M305.16 338.54L339.96 338.54L339.96 338.54L339.96 327.02L339.96 327.02L305.16 327.02z" /></clipPath><clipPath id="90"><path id="" clip-rule="evenodd" transform="matrix(1 0 0 1 0 0)" d="M340.68 338.53L375.75 338.53L375.75 338.53L375.75 327.01L375.75 327.01L340.68 327.01z" /></clipPath><clipPath id="91"><path id="" clip-rule="evenodd" transform="matrix(1 0 0 1 0 0)" d="M340.68 338.54L375.744 338.54L375.744 338.54L375.744 327.02L375.744 327.02L340.68 327.02z" /></clipPath><clipPath id="92"><path id="" clip-rule="evenodd" transform="matrix(1 0 0 1 0 0)" d="M340.68 338.54L375.744 338.54L375.744 338.54L375.744 327.02L375.744 327.02L340.68 327.02z" /></clipPath><clipPath id="93"><path id="" clip-rule="evenodd" transform="matrix(1 0 0 1 0 0)" d="M376.23 338.53L413.46 338.53L413.46 338.53L413.46 327.01L413.46 327.01L376.23 327.01z" /></clipPath><clipPath id="94"><path id="" clip-rule="evenodd" transform="matrix(1 0 0 1 0 0)" d="M376.22 338.54L413.444 338.54L413.444 338.54L413.444 327.02L413.444 327.02L376.22 327.02z" /></clipPath><clipPath id="95"><path id="" clip-rule="evenodd" transform="matrix(1 0 0 1 0 0)" d="M376.22 338.54L413.444 338.54L413.444 338.54L413.444 327.02L413.444 327.02L376.22 327.02z" /></clipPath><clipPath id="96"><path id="" clip-rule="evenodd" transform="matrix(1 0 0 1 0 0)" d="M413.94 338.53L448.74 338.53L448.74 338.53L448.74 327.01L448.74 327.01L413.94 327.01z" /></clipPath><clipPath id="97"><path id="" clip-rule="evenodd" transform="matrix(1 0 0 1 0 0)" d="M413.93 338.54L448.73 338.54L448.73 338.54L448.73 327.02L448.73 327.02L413.93 327.02z" /></clipPath><clipPath id="98"><path id="" clip-rule="evenodd" transform="matrix(1 0 0 1 0 0)" d="M413.93 338.54L448.73 338.54L448.73 338.54L448.73 327.02L448.73 327.02L413.93 327.02z" /></clipPath><clipPath id="99"><path id="" clip-rule="evenodd" transform="matrix(1 0 0 1 0 0)" d="M449.22 338.53L484.26 338.53L484.26 338.53L484.26 327.01L484.26 327.01L449.22 327.01z" /></clipPath><clipPath id="100"><path id="" clip-rule="evenodd" transform="matrix(1 0 0 1 0 0)" d="M449.21 338.54L484.274 338.54L484.274 338.54L484.274 327.02L484.274 327.02L449.21 327.02z" /></clipPath><clipPath id="101"><path id="" clip-rule="evenodd" transform="matrix(1 0 0 1 0 0)" d="M449.21 338.54L484.274 338.54L484.274 338.54L484.274 327.02L484.274 327.02L449.21 327.02z" /></clipPath><clipPath id="102"><path id="" clip-rule="evenodd" transform="matrix(1 0 0 1 0 0)" d="M484.74 338.53L524.34 338.53L524.34 338.53L524.34 327.01L524.34 327.01L484.74 327.01z" /></clipPath><clipPath id="103"><path id="" clip-rule="evenodd" transform="matrix(1 0 0 1 0 0)" d="M484.75 338.54L524.35 338.54L524.35 338.54L524.35 327.02L524.35 327.02L484.75 327.02z" /></clipPath><clipPath id="104"><path id="" clip-rule="evenodd" transform="matrix(1 0 0 1 0 0)" d="M484.75 338.54L524.35 338.54L524.35 338.54L524.35 327.02L524.35 327.02L484.75 327.02z" /></clipPath><clipPath id="105"><path id="" clip-rule="evenodd" transform="matrix(1 0 0 1 0 0)" d="M0 663.88L595.2 663.88L595.2 663.88L595.2 393.4L595.2 393.4L0 393.4z" /></clipPath><clipPath id="106"><path id="" clip-rule="evenodd" transform="matrix(1 0 0 1 0 0)" d="M84.96 663.64L521.28 663.64L521.28 663.64L521.28 399.16L521.28 399.16L84.96 399.16z" /></clipPath><clipPath id="107"><path id="" clip-rule="evenodd" transform="matrix(1 0 0 1 0 0)" d="M84.96 663.64L521.28 663.64L521.28 663.64L521.28 399.16L521.28 399.16L84.96 399.16z" /></clipPath><clipPath id="108"><path id="" clip-rule="evenodd" transform="matrix(1 0 0 1 0 0)" d="M84.96 663.64L521.28 663.64L521.28 663.64L521.28 399.16L521.28 399.16L84.96 399.16z" /></clipPath><clipPath id="109"><path id="" clip-rule="evenodd" transform="matrix(1 0 0 1 0 0)" d="M84.96 663.64L521.28 663.64L521.28 663.64L521.28 399.16L521.28 399.16L84.96 399.16z" /></clipPath><clipPath id="110"><path id="" clip-rule="evenodd" transform="matrix(1 0 0 1 0 0)" d="M84.96 663.64L521.28 663.64L521.28 663.64L521.28 399.16L521.28 399.16L84.96 399.16z" /></clipPath><clipPath id="111"><path id="" clip-rule="evenodd" transform="matrix(1 0 0 1 0 0)" d="M84.96 663.64L521.28 663.64L521.28 663.64L521.28 399.16L521.28 399.16L84.96 399.16z" /></clipPath><clipPath id="112"><path id="" clip-rule="evenodd" transform="matrix(1 0 0 1 0 0)" d="M84.96 663.64L521.28 663.64L521.28 663.64L521.28 399.16L521.28 399.16L84.96 399.16z" /></clipPath><clipPath id="113"><path id="" clip-rule="evenodd" transform="matrix(1 0 0 1 0 0)" d="M84.96 663.64L521.28 663.64L521.28 663.64L521.28 399.16L521.28 399.16L84.96 399.16z" /></clipPath><clipPath id="114"><path id="" clip-rule="evenodd" transform="matrix(1 0 0 1 0 0)" d="M84.96 663.64L521.28 663.64L521.28 663.64L521.28 399.16L521.28 399.16L84.96 399.16z" /></clipPath><clipPath id="115"><path id="" clip-rule="evenodd" transform="matrix(1 0 0 1 0 0)" d="M84.96 663.64L521.28 663.64L521.28 663.64L521.28 399.16L521.28 399.16L84.96 399.16z" /></clipPath><clipPath id="116"><path id="" clip-rule="evenodd" transform="matrix(1 0 0 1 0 0)" d="M84.96 663.64L521.28 663.64L521.28 663.64L521.28 399.16L521.28 399.16L84.96 399.16z" /></clipPath><clipPath id="117"><path id="" clip-rule="evenodd" transform="matrix(1 0 0 1 0 0)" d="M84.96 663.64L521.28 663.64L521.28 663.64L521.28 399.16L521.28 399.16L84.96 399.16z" /></clipPath><clipPath id="118"><path id="" clip-rule="evenodd" transform="matrix(1 0 0 1 0 0)" d="M84.96 663.64L521.28 663.64L521.28 663.64L521.28 399.16L521.28 399.16L84.96 399.16z" /></clipPath><clipPath id="119"><path id="" clip-rule="evenodd" transform="matrix(1 0 0 1 0 0)" d="M84.96 663.64L521.28 663.64L521.28 663.64L521.28 399.16L521.28 399.16L84.96 399.16z" /></clipPath><clipPath id="120"><path id="" clip-rule="evenodd" transform="matrix(1 0 0 1 0 0)" d="M84.96 663.64L521.28 663.64L521.28 663.64L521.28 399.16L521.28 399.16L84.96 399.16z" /></clipPath><clipPath id="121"><path id="" clip-rule="evenodd" transform="matrix(1 0 0 1 0 0)" d="M84.96 663.64L521.28 663.64L521.28 663.64L521.28 399.16L521.28 399.16L84.96 399.16z" /></clipPath><clipPath id="122"><path id="" clip-rule="evenodd" transform="matrix(1 0 0 1 0 0)" d="M84.96 663.64L521.28 663.64L521.28 663.64L521.28 399.16L521.28 399.16L84.96 399.16z" /></clipPath><clipPath id="123"><path id="" clip-rule="evenodd" transform="matrix(1 0 0 1 0 0)" d="M84.96 663.64L521.28 663.64L521.28 663.64L521.28 399.16L521.28 399.16L84.96 399.16z" /></clipPath><clipPath id="124"><path id="" clip-rule="evenodd" transform="matrix(1 0 0 1 0 0)" d="M84.96 663.64L521.28 663.64L521.28 663.64L521.28 399.16L521.28 399.16L84.96 399.16z" /></clipPath><clipPath id="125"><path id="" clip-rule="evenodd" transform="matrix(1 0 0 1 0 0)" d="M84.96 663.64L521.28 663.64L521.28 663.64L521.28 399.16L521.28 399.16L84.96 399.16z" /></clipPath><clipPath id="126"><path id="" clip-rule="evenodd" transform="matrix(1 0 0 1 0 0)" d="M84.96 663.64L521.28 663.64L521.28 663.64L521.28 399.16L521.28 399.16L84.96 399.16z" /></clipPath><clipPath id="127"><path id="" clip-rule="evenodd" transform="matrix(1 0 0 1 0 0)" d="M84.96 663.64L521.28 663.64L521.28 663.64L521.28 399.16L521.28 399.16L84.96 399.16z" /></clipPath><clipPath id="128"><path id="" clip-rule="evenodd" transform="matrix(1 0 0 1 0 0)" d="M84.96 663.64L521.28 663.64L521.28 663.64L521.28 399.16L521.28 399.16L84.96 399.16z" /></clipPath></defs><g transform="matrix(1.333333 0 0 1.333333 0 0)"><g clip-path="url(#1)"><g clip-path="url(#2)"><path id="1" transform="matrix(1 0 0 -1 0 841)" d="M197.9112 743.8329L274.964 743.8329" stroke="#000000" stroke-width="0.4904693" fill="none" /><path id="2" transform="matrix(1 0 0 -1 0 841)" d="M289.4128 743.8329L462.4932 743.8329" stroke="#000000" stroke-width="0.4904693" fill="none" /></g><g clip-path="url(#3)"><g clip-path="url(#4)"></g><g clip-path="url(#5)"></g><g clip-path="url(#6)"></g></g><g clip-path="url(#7)"><g clip-path="url(#8)"></g><g clip-path="url(#9)"></g></g><g clip-path="url(#10)"><g clip-path="url(#11)"></g><g clip-path="url(#12)"></g></g><g clip-path="url(#13)"><g clip-path="url(#14)"></g><g clip-path="url(#15)"></g></g><g clip-path="url(#16)"><g clip-path="url(#17)"></g><g clip-path="url(#18)"></g></g><g clip-path="url(#19)"><g clip-path="url(#20)"></g><g clip-path="url(#21)"></g></g><g clip-path="url(#22)"><g clip-path="url(#23)"></g><g clip-path="url(#24)"></g></g><g clip-path="url(#25)"><g clip-path="url(#26)"></g><g clip-path="url(#27)"></g></g><g clip-path="url(#28)"><g clip-path="url(#29)"></g><g clip-path="url(#30)"></g></g><g clip-path="url(#31)"><g clip-path="url(#32)"></g><g clip-path="url(#33)"></g></g><g clip-path="url(#34)"><g clip-path="url(#35)"></g><g clip-path="url(#36)"></g></g><path id="432" transform="matrix(1 0 0 -1 0 841)" d="M84.744 549.53L85.22401 549.53L85.22401 549.53L85.22401 550.01L85.22401 550.01L84.744 550.01z" stroke="none" fill="#000000" fill-rule="evenodd" /><path id="433" transform="matrix(1 0 0 -1 0 841)" d="M84.744 549.53L85.22401 549.53L85.22401 549.53L85.22401 550.01L85.22401 550.01L84.744 550.01z" stroke="none" fill="#000000" fill-rule="evenodd" /><path id="434" transform="matrix(1 0 0 -1 0 841)" d="M85.224 549.53L128.448 549.53L128.448 549.53L128.448 550.01L128.448 550.01L85.224 550.01z" stroke="none" fill="#000000" fill-rule="evenodd" /><path id="435" transform="matrix(1 0 0 -1 0 841)" d="M128.45 549.53L128.93 549.53L128.93 549.53L128.93 550.01L128.93 550.01L128.45 550.01z" stroke="none" fill="#000000" fill-rule="evenodd" /><path id="436" transform="matrix(1 0 0 -1 0 841)" d="M128.93 549.53L191.114 549.53L191.114 549.53L191.114 550.01L191.114 550.01L128.93 550.01z" stroke="none" fill="#000000" fill-rule="evenodd" /><path id="437" transform="matrix(1 0 0 -1 0 841)" d="M191.11 549.53L191.59 549.53L191.59 549.53L191.59 550.01L191.59 550.01L191.11 550.01z" stroke="none" fill="#000000" fill-rule="evenodd" /><path id="438" transform="matrix(1 0 0 -1 0 841)" d="M191.59 549.53L226.654 549.53L226.654 549.53L226.654 550.01L226.654 550.01L191.59 550.01z" stroke="none" fill="#000000" fill-rule="evenodd" /><path id="439" transform="matrix(1 0 0 -1 0 841)" d="M226.66 549.53L227.14 549.53L227.14 549.53L227.14 550.01L227.14 550.01L226.66 550.01z" stroke="none" fill="#000000" fill-rule="evenodd" /><path id="440" transform="matrix(1 0 0 -1 0 841)" d="M227.14 549.53L261.94 549.53L261.94 549.53L261.94 550.01L261.94 550.01L227.14 550.01z" stroke="none" fill="#000000" fill-rule="evenodd" /><path id="441" transform="matrix(1 0 0 -1 0 841)" d="M261.94 549.53L262.42 549.53L262.42 549.53L262.42 550.01L262.42 550.01L261.94 550.01z" stroke="none" fill="#000000" fill-rule="evenodd" /><path id="442" transform="matrix(1 0 0 -1 0 841)" d="M262.42 549.53L304.684 549.53L304.684 549.53L304.684 550.01L304.684 550.01L262.42 550.01z" stroke="none" fill="#000000" fill-rule="evenodd" /><path id="443" transform="matrix(1 0 0 -1 0 841)" d="M304.68 549.53L305.16 549.53L305.16 549.53L305.16 550.01L305.16 550.01L304.68 550.01z" stroke="none" fill="#000000" fill-rule="evenodd" /><path id="444" transform="matrix(1 0 0 -1 0 841)" d="M305.16 549.53L339.96 549.53L339.96 549.53L339.96 550.01L339.96 550.01L305.16 550.01z" stroke="none" fill="#000000" fill-rule="evenodd" /><path id="445" transform="matrix(1 0 0 -1 0 841)" d="M339.96 549.53L340.44 549.53L340.44 549.53L340.44 550.01L340.44 550.01L339.96 550.01z" stroke="none" fill="#000000" fill-rule="evenodd" /><path id="446" transform="matrix(1 0 0 -1 0 841)" d="M340.44 549.53L375.744 549.53L375.744 549.53L375.744 550.01L375.744 550.01L340.44 550.01z" stroke="none" fill="#000000" fill-rule="evenodd" /><path id="447" transform="matrix(1 0 0 -1 0 841)" d="M375.74 549.53L376.22 549.53L376.22 549.53L376.22 550.01L376.22 550.01L375.74 550.01z" stroke="none" fill="#000000" fill-rule="evenodd" /><path id="448" transform="matrix(1 0 0 -1 0 841)" d="M376.22 549.53L413.204 549.53L413.204 549.53L413.204 550.01L413.204 550.01L376.22 550.01z" stroke="none" fill="#000000" fill-rule="evenodd" /><path id="449" transform="matrix(1 0 0 -1 0 841)" d="M413.21 549.53L413.69 549.53L413.69 549.53L413.69 550.01L413.69 550.01L413.21 550.01z" stroke="none" fill="#000000" fill-rule="evenodd" /><path id="450" transform="matrix(1 0 0 -1 0 841)" d="M413.69 549.53L448.73 549.53L448.73 549.53L448.73 550.01L448.73 550.01L413.69 550.01z" stroke="none" fill="#000000" fill-rule="evenodd" /><path id="451" transform="matrix(1 0 0 -1 0 841)" d="M448.73 549.53L449.21 549.53L449.21 549.53L449.21 550.01L449.21 550.01L448.73 550.01z" stroke="none" fill="#000000" fill-rule="evenodd" /><path id="452" transform="matrix(1 0 0 -1 0 841)" d="M449.21 549.53L484.274 549.53L484.274 549.53L484.274 550.01L484.274 550.01L449.21 550.01z" stroke="none" fill="#000000" fill-rule="evenodd" /><path id="453" transform="matrix(1 0 0 -1 0 841)" d="M484.27 549.53L484.75 549.53L484.75 549.53L484.75 550.01L484.75 550.01L484.27 550.01z" stroke="none" fill="#000000" fill-rule="evenodd" /><path id="454" transform="matrix(1 0 0 -1 0 841)" d="M484.75 549.53L524.35 549.53L524.35 549.53L524.35 550.01L524.35 550.01L484.75 550.01z" stroke="none" fill="#000000" fill-rule="evenodd" /><path id="455" transform="matrix(1 0 0 -1 0 841)" d="M524.35 549.53L524.83 549.53L524.83 549.53L524.83 550.01L524.83 550.01L524.35 550.01z" stroke="none" fill="#000000" fill-rule="evenodd" /><path id="456" transform="matrix(1 0 0 -1 0 841)" d="M524.35 549.53L524.83 549.53L524.83 549.53L524.83 550.01L524.83 550.01L524.35 550.01z" stroke="none" fill="#000000" fill-rule="evenodd" /><path id="457" transform="matrix(1 0 0 -1 0 841)" d="M84.744 526.46L85.22401 526.46L85.22401 526.46L85.22401 549.524L85.22401 549.524L84.744 549.524z" stroke="none" fill="#000000" fill-rule="evenodd" /><path id="458" transform="matrix(1 0 0 -1 0 841)" d="M128.45 526.46L128.93 526.46L128.93 526.46L128.93 549.524L128.93 549.524L128.45 549.524z" stroke="none" fill="#000000" fill-rule="evenodd" /><path id="459" transform="matrix(1 0 0 -1 0 841)" d="M191.11 526.46L191.59 526.46L191.59 526.46L191.59 549.524L191.59 549.524L191.11 549.524z" stroke="none" fill="#000000" fill-rule="evenodd" /><path id="460" transform="matrix(1 0 0 -1 0 841)" d="M226.66 526.46L227.14 526.46L227.14 526.46L227.14 549.524L227.14 549.524L226.66 549.524z" stroke="none" fill="#000000" fill-rule="evenodd" /><path id="461" transform="matrix(1 0 0 -1 0 841)" d="M261.94 526.46L262.42 526.46L262.42 526.46L262.42 549.524L262.42 549.524L261.94 549.524z" stroke="none" fill="#000000" fill-rule="evenodd" /><path id="462" transform="matrix(1 0 0 -1 0 841)" d="M304.68 526.46L305.16 526.46L305.16 526.46L305.16 549.524L305.16 549.524L304.68 549.524z" stroke="none" fill="#000000" fill-rule="evenodd" /><path id="463" transform="matrix(1 0 0 -1 0 841)" d="M339.96 526.46L340.44 526.46L340.44 526.46L340.44 549.524L340.44 549.524L339.96 549.524z" stroke="none" fill="#000000" fill-rule="evenodd" /><path id="464" transform="matrix(1 0 0 -1 0 841)" d="M375.74 526.46L376.22 526.46L376.22 526.46L376.22 549.524L376.22 549.524L375.74 549.524z" stroke="none" fill="#000000" fill-rule="evenodd" /><path id="465" transform="matrix(1 0 0 -1 0 841)" d="M413.21 526.46L413.69 526.46L413.69 526.46L413.69 549.524L413.69 549.524L413.21 549.524z" stroke="none" fill="#000000" fill-rule="evenodd" /><path id="466" transform="matrix(1 0 0 -1 0 841)" d="M448.73 526.46L449.21 526.46L449.21 526.46L449.21 549.524L449.21 549.524L448.73 549.524z" stroke="none" fill="#000000" fill-rule="evenodd" /><path id="467" transform="matrix(1 0 0 -1 0 841)" d="M484.27 526.46L484.75 526.46L484.75 526.46L484.75 549.524L484.75 549.524L484.27 549.524z" stroke="none" fill="#000000" fill-rule="evenodd" /><path id="468" transform="matrix(1 0 0 -1 0 841)" d="M524.35 526.46L524.83 526.46L524.83 526.46L524.83 549.524L524.83 549.524L524.35 549.524z" stroke="none" fill="#000000" fill-rule="evenodd" /><g clip-path="url(#37)"><g clip-path="url(#38)"></g><g clip-path="url(#39)"></g><g clip-path="url(#40)"></g></g><g clip-path="url(#41)"><g clip-path="url(#42)"></g><g clip-path="url(#43)"></g></g><g clip-path="url(#44)"><g clip-path="url(#45)"></g><g clip-path="url(#46)"></g></g><g clip-path="url(#47)"><g clip-path="url(#48)"></g><g clip-path="url(#49)"></g></g><g clip-path="url(#50)"><g clip-path="url(#51)"></g><g clip-path="url(#52)"></g></g><g clip-path="url(#53)"><g clip-path="url(#54)"></g><g clip-path="url(#55)"></g></g><g clip-path="url(#56)"><g clip-path="url(#57)"></g><g clip-path="url(#58)"></g></g><g clip-path="url(#59)"><g clip-path="url(#60)"></g><g clip-path="url(#61)"></g></g><g clip-path="url(#62)"><g clip-path="url(#63)"></g><g clip-path="url(#64)"></g></g><g clip-path="url(#65)"><g clip-path="url(#66)"></g><g clip-path="url(#67)"></g></g><g clip-path="url(#68)"><g clip-path="url(#69)"></g><g clip-path="url(#70)"></g></g><path id="507" transform="matrix(1 0 0 -1 0 841)" d="M84.744 525.98L85.22401 525.98L85.22401 525.98L85.22401 526.46L85.22401 526.46L84.744 526.46z" stroke="none" fill="#000000" fill-rule="evenodd" /><path id="508" transform="matrix(1 0 0 -1 0 841)" d="M85.224 525.98L128.448 525.98L128.448 525.98L128.448 526.46L128.448 526.46L85.224 526.46z" stroke="none" fill="#000000" fill-rule="evenodd" /><path id="509" transform="matrix(1 0 0 -1 0 841)" d="M128.45 525.98L128.93 525.98L128.93 525.98L128.93 526.46L128.93 526.46L128.45 526.46z" stroke="none" fill="#000000" fill-rule="evenodd" /><path id="510" transform="matrix(1 0 0 -1 0 841)" d="M128.93 525.98L191.114 525.98L191.114 525.98L191.114 526.46L191.114 526.46L128.93 526.46z" stroke="none" fill="#000000" fill-rule="evenodd" /><path id="511" transform="matrix(1 0 0 -1 0 841)" d="M191.11 525.98L191.59 525.98L191.59 525.98L191.59 526.46L191.59 526.46L191.11 526.46z" stroke="none" fill="#000000" fill-rule="evenodd" /><path id="512" transform="matrix(1 0 0 -1 0 841)" d="M191.59 525.98L226.654 525.98L226.654 525.98L226.654 526.46L226.654 526.46L191.59 526.46z" stroke="none" fill="#000000" fill-rule="evenodd" /><path id="513" transform="matrix(1 0 0 -1 0 841)" d="M226.66 525.98L227.14 525.98L227.14 525.98L227.14 526.46L227.14 526.46L226.66 526.46z" stroke="none" fill="#000000" fill-rule="evenodd" /><path id="514" transform="matrix(1 0 0 -1 0 841)" d="M227.14 525.98L261.94 525.98L261.94 525.98L261.94 526.46L261.94 526.46L227.14 526.46z" stroke="none" fill="#000000" fill-rule="evenodd" /><path id="515" transform="matrix(1 0 0 -1 0 841)" d="M261.94 525.98L262.42 525.98L262.42 525.98L262.42 526.46L262.42 526.46L261.94 526.46z" stroke="none" fill="#000000" fill-rule="evenodd" /><path id="516" transform="matrix(1 0 0 -1 0 841)" d="M262.42 525.98L304.684 525.98L304.684 525.98L304.684 526.46L304.684 526.46L262.42 526.46z" stroke="none" fill="#000000" fill-rule="evenodd" /><path id="517" transform="matrix(1 0 0 -1 0 841)" d="M304.68 525.98L305.16 525.98L305.16 525.98L305.16 526.46L305.16 526.46L304.68 526.46z" stroke="none" fill="#000000" fill-rule="evenodd" /><path id="518" transform="matrix(1 0 0 -1 0 841)" d="M305.16 525.98L339.96 525.98L339.96 525.98L339.96 526.46L339.96 526.46L305.16 526.46z" stroke="none" fill="#000000" fill-rule="evenodd" /><path id="519" transform="matrix(1 0 0 -1 0 841)" d="M339.96 525.98L340.44 525.98L340.44 525.98L340.44 526.46L340.44 526.46L339.96 526.46z" stroke="none" fill="#000000" fill-rule="evenodd" /><path id="520" transform="matrix(1 0 0 -1 0 841)" d="M340.44 525.98L375.744 525.98L375.744 525.98L375.744 526.46L375.744 526.46L340.44 526.46z" stroke="none" fill="#000000" fill-rule="evenodd" /><path id="521" transform="matrix(1 0 0 -1 0 841)" d="M375.74 525.98L376.22 525.98L376.22 525.98L376.22 526.46L376.22 526.46L375.74 526.46z" stroke="none" fill="#000000" fill-rule="evenodd" /><path id="522" transform="matrix(1 0 0 -1 0 841)" d="M376.22 525.98L413.204 525.98L413.204 525.98L413.204 526.46L413.204 526.46L376.22 526.46z" stroke="none" fill="#000000" fill-rule="evenodd" /><path id="523" transform="matrix(1 0 0 -1 0 841)" d="M413.21 525.98L413.69 525.98L413.69 525.98L413.69 526.46L413.69 526.46L413.21 526.46z" stroke="none" fill="#000000" fill-rule="evenodd" /><path id="524" transform="matrix(1 0 0 -1 0 841)" d="M413.69 525.98L448.73 525.98L448.73 525.98L448.73 526.46L448.73 526.46L413.69 526.46z" stroke="none" fill="#000000" fill-rule="evenodd" /><path id="525" transform="matrix(1 0 0 -1 0 841)" d="M448.73 525.98L449.21 525.98L449.21 525.98L449.21 526.46L449.21 526.46L448.73 526.46z" stroke="none" fill="#000000" fill-rule="evenodd" /><path id="526" transform="matrix(1 0 0 -1 0 841)" d="M449.21 525.98L484.274 525.98L484.274 525.98L484.274 526.46L484.274 526.46L449.21 526.46z" stroke="none" fill="#000000" fill-rule="evenodd" /><path id="527" transform="matrix(1 0 0 -1 0 841)" d="M484.27 525.98L484.75 525.98L484.75 525.98L484.75 526.46L484.75 526.46L484.27 526.46z" stroke="none" fill="#000000" fill-rule="evenodd" /><path id="528" transform="matrix(1 0 0 -1 0 841)" d="M484.75 525.98L524.35 525.98L524.35 525.98L524.35 526.46L524.35 526.46L484.75 526.46z" stroke="none" fill="#000000" fill-rule="evenodd" /><path id="529" transform="matrix(1 0 0 -1 0 841)" d="M524.35 525.98L524.83 525.98L524.83 525.98L524.83 526.46L524.83 526.46L524.35 526.46z" stroke="none" fill="#000000" fill-rule="evenodd" /><path id="530" transform="matrix(1 0 0 -1 0 841)" d="M84.744 514.46L85.22401 514.46L85.22401 514.46L85.22401 525.98L85.22401 525.98L84.744 525.98z" stroke="none" fill="#000000" fill-rule="evenodd" /><path id="531" transform="matrix(1 0 0 -1 0 841)" d="M128.45 514.46L128.93 514.46L128.93 514.46L128.93 525.98L128.93 525.98L128.45 525.98z" stroke="none" fill="#000000" fill-rule="evenodd" /><path id="532" transform="matrix(1 0 0 -1 0 841)" d="M191.11 514.46L191.59 514.46L191.59 514.46L191.59 525.98L191.59 525.98L191.11 525.98z" stroke="none" fill="#000000" fill-rule="evenodd" /><path id="533" transform="matrix(1 0 0 -1 0 841)" d="M226.66 514.46L227.14 514.46L227.14 514.46L227.14 525.98L227.14 525.98L226.66 525.98z" stroke="none" fill="#000000" fill-rule="evenodd" /><path id="534" transform="matrix(1 0 0 -1 0 841)" d="M261.94 514.46L262.42 514.46L262.42 514.46L262.42 525.98L262.42 525.98L261.94 525.98z" stroke="none" fill="#000000" fill-rule="evenodd" /><path id="535" transform="matrix(1 0 0 -1 0 841)" d="M304.68 514.46L305.16 514.46L305.16 514.46L305.16 525.98L305.16 525.98L304.68 525.98z" stroke="none" fill="#000000" fill-rule="evenodd" /><path id="536" transform="matrix(1 0 0 -1 0 841)" d="M339.96 514.46L340.44 514.46L340.44 514.46L340.44 525.98L340.44 525.98L339.96 525.98z" stroke="none" fill="#000000" fill-rule="evenodd" /><path id="537" transform="matrix(1 0 0 -1 0 841)" d="M375.74 514.46L376.22 514.46L376.22 514.46L376.22 525.98L376.22 525.98L375.74 525.98z" stroke="none" fill="#000000" fill-rule="evenodd" /><path id="538" transform="matrix(1 0 0 -1 0 841)" d="M413.21 514.46L413.69 514.46L413.69 514.46L413.69 525.98L413.69 525.98L413.21 525.98z" stroke="none" fill="#000000" fill-rule="evenodd" /><path id="539" transform="matrix(1 0 0 -1 0 841)" d="M448.73 514.46L449.21 514.46L449.21 514.46L449.21 525.98L449.21 525.98L448.73 525.98z" stroke="none" fill="#000000" fill-rule="evenodd" /><path id="540" transform="matrix(1 0 0 -1 0 841)" d="M484.27 514.46L484.75 514.46L484.75 514.46L484.75 525.98L484.75 525.98L484.27 525.98z" stroke="none" fill="#000000" fill-rule="evenodd" /><path id="541" transform="matrix(1 0 0 -1 0 841)" d="M524.35 514.46L524.83 514.46L524.83 514.46L524.83 525.98L524.83 525.98L524.35 525.98z" stroke="none" fill="#000000" fill-rule="evenodd" /><g clip-path="url(#71)"><g clip-path="url(#72)"></g><g clip-path="url(#73)"></g><g clip-path="url(#74)"></g></g><g clip-path="url(#75)"><g clip-path="url(#76)"></g><g clip-path="url(#77)"></g></g><g clip-path="url(#78)"><g clip-path="url(#79)"></g><g clip-path="url(#80)"></g></g><g clip-path="url(#81)"><g clip-path="url(#82)"></g><g clip-path="url(#83)"></g></g><g clip-path="url(#84)"><g clip-path="url(#85)"></g><g clip-path="url(#86)"></g></g><g clip-path="url(#87)"><g clip-path="url(#88)"></g><g clip-path="url(#89)"></g></g><g clip-path="url(#90)"><g clip-path="url(#91)"></g><g clip-path="url(#92)"></g></g><g clip-path="url(#93)"><g clip-path="url(#94)"></g><g clip-path="url(#95)"></g></g><g clip-path="url(#96)"><g clip-path="url(#97)"></g><g clip-path="url(#98)"></g></g><g clip-path="url(#99)"><g clip-path="url(#100)"></g><g clip-path="url(#101)"></g></g><g clip-path="url(#102)"><g clip-path="url(#103)"></g><g clip-path="url(#104)"></g></g><path id="571" transform="matrix(1 0 0 -1 0 841)" d="M84.744 513.98L85.22401 513.98L85.22401 513.98L85.22401 514.46L85.22401 514.46L84.744 514.46z" stroke="none" fill="#000000" fill-rule="evenodd" /><path id="572" transform="matrix(1 0 0 -1 0 841)" d="M85.224 513.98L128.448 513.98L128.448 513.98L128.448 514.46L128.448 514.46L85.224 514.46z" stroke="none" fill="#000000" fill-rule="evenodd" /><path id="573" transform="matrix(1 0 0 -1 0 841)" d="M128.45 513.98L128.93 513.98L128.93 513.98L128.93 514.46L128.93 514.46L128.45 514.46z" stroke="none" fill="#000000" fill-rule="evenodd" /><path id="574" transform="matrix(1 0 0 -1 0 841)" d="M128.93 513.98L191.114 513.98L191.114 513.98L191.114 514.46L191.114 514.46L128.93 514.46z" stroke="none" fill="#000000" fill-rule="evenodd" /><path id="575" transform="matrix(1 0 0 -1 0 841)" d="M191.11 513.98L191.59 513.98L191.59 513.98L191.59 514.46L191.59 514.46L191.11 514.46z" stroke="none" fill="#000000" fill-rule="evenodd" /><path id="576" transform="matrix(1 0 0 -1 0 841)" d="M191.59 513.98L226.654 513.98L226.654 513.98L226.654 514.46L226.654 514.46L191.59 514.46z" stroke="none" fill="#000000" fill-rule="evenodd" /><path id="577" transform="matrix(1 0 0 -1 0 841)" d="M226.66 513.98L227.14 513.98L227.14 513.98L227.14 514.46L227.14 514.46L226.66 514.46z" stroke="none" fill="#000000" fill-rule="evenodd" /><path id="578" transform="matrix(1 0 0 -1 0 841)" d="M227.14 513.98L261.94 513.98L261.94 513.98L261.94 514.46L261.94 514.46L227.14 514.46z" stroke="none" fill="#000000" fill-rule="evenodd" /><path id="579" transform="matrix(1 0 0 -1 0 841)" d="M261.94 513.98L262.42 513.98L262.42 513.98L262.42 514.46L262.42 514.46L261.94 514.46z" stroke="none" fill="#000000" fill-rule="evenodd" /><path id="580" transform="matrix(1 0 0 -1 0 841)" d="M262.42 513.98L304.684 513.98L304.684 513.98L304.684 514.46L304.684 514.46L262.42 514.46z" stroke="none" fill="#000000" fill-rule="evenodd" /><path id="581" transform="matrix(1 0 0 -1 0 841)" d="M304.68 513.98L305.16 513.98L305.16 513.98L305.16 514.46L305.16 514.46L304.68 514.46z" stroke="none" fill="#000000" fill-rule="evenodd" /><path id="582" transform="matrix(1 0 0 -1 0 841)" d="M305.16 513.98L339.96 513.98L339.96 513.98L339.96 514.46L339.96 514.46L305.16 514.46z" stroke="none" fill="#000000" fill-rule="evenodd" /><path id="583" transform="matrix(1 0 0 -1 0 841)" d="M339.96 513.98L340.44 513.98L340.44 513.98L340.44 514.46L340.44 514.46L339.96 514.46z" stroke="none" fill="#000000" fill-rule="evenodd" /><path id="584" transform="matrix(1 0 0 -1 0 841)" d="M340.44 513.98L375.744 513.98L375.744 513.98L375.744 514.46L375.744 514.46L340.44 514.46z" stroke="none" fill="#000000" fill-rule="evenodd" /><path id="585" transform="matrix(1 0 0 -1 0 841)" d="M375.74 513.98L376.22 513.98L376.22 513.98L376.22 514.46L376.22 514.46L375.74 514.46z" stroke="none" fill="#000000" fill-rule="evenodd" /><path id="586" transform="matrix(1 0 0 -1 0 841)" d="M376.22 513.98L413.204 513.98L413.204 513.98L413.204 514.46L413.204 514.46L376.22 514.46z" stroke="none" fill="#000000" fill-rule="evenodd" /><path id="587" transform="matrix(1 0 0 -1 0 841)" d="M413.21 513.98L413.69 513.98L413.69 513.98L413.69 514.46L413.69 514.46L413.21 514.46z" stroke="none" fill="#000000" fill-rule="evenodd" /><path id="588" transform="matrix(1 0 0 -1 0 841)" d="M413.69 513.98L448.73 513.98L448.73 513.98L448.73 514.46L448.73 514.46L413.69 514.46z" stroke="none" fill="#000000" fill-rule="evenodd" /><path id="589" transform="matrix(1 0 0 -1 0 841)" d="M448.73 513.98L449.21 513.98L449.21 513.98L449.21 514.46L449.21 514.46L448.73 514.46z" stroke="none" fill="#000000" fill-rule="evenodd" /><path id="590" transform="matrix(1 0 0 -1 0 841)" d="M449.21 513.98L484.274 513.98L484.274 513.98L484.274 514.46L484.274 514.46L449.21 514.46z" stroke="none" fill="#000000" fill-rule="evenodd" /><path id="591" transform="matrix(1 0 0 -1 0 841)" d="M484.27 513.98L484.75 513.98L484.75 513.98L484.75 514.46L484.75 514.46L484.27 514.46z" stroke="none" fill="#000000" fill-rule="evenodd" /><path id="592" transform="matrix(1 0 0 -1 0 841)" d="M484.75 513.98L524.35 513.98L524.35 513.98L524.35 514.46L524.35 514.46L484.75 514.46z" stroke="none" fill="#000000" fill-rule="evenodd" /><path id="593" transform="matrix(1 0 0 -1 0 841)" d="M524.35 513.98L524.83 513.98L524.83 513.98L524.83 514.46L524.83 514.46L524.35 514.46z" stroke="none" fill="#000000" fill-rule="evenodd" /><path id="594" transform="matrix(1 0 0 -1 0 841)" d="M84.744 502.46L85.22401 502.46L85.22401 502.46L85.22401 513.98L85.22401 513.98L84.744 513.98z" stroke="none" fill="#000000" fill-rule="evenodd" /><path id="595" transform="matrix(1 0 0 -1 0 841)" d="M84.744 501.98L85.22401 501.98L85.22401 501.98L85.22401 502.46L85.22401 502.46L84.744 502.46z" stroke="none" fill="#000000" fill-rule="evenodd" /><path id="596" transform="matrix(1 0 0 -1 0 841)" d="M84.744 501.98L85.22401 501.98L85.22401 501.98L85.22401 502.46L85.22401 502.46L84.744 502.46z" stroke="none" fill="#000000" fill-rule="evenodd" /><path id="597" transform="matrix(1 0 0 -1 0 841)" d="M85.224 501.98L128.448 501.98L128.448 501.98L128.448 502.46L128.448 502.46L85.224 502.46z" stroke="none" fill="#000000" fill-rule="evenodd" /><path id="598" transform="matrix(1 0 0 -1 0 841)" d="M128.45 502.46L128.93 502.46L128.93 502.46L128.93 513.98L128.93 513.98L128.45 513.98z" stroke="none" fill="#000000" fill-rule="evenodd" /><path id="599" transform="matrix(1 0 0 -1 0 841)" d="M128.45 501.98L128.93 501.98L128.93 501.98L128.93 502.46L128.93 502.46L128.45 502.46z" stroke="none" fill="#000000" fill-rule="evenodd" /><path id="600" transform="matrix(1 0 0 -1 0 841)" d="M128.93 501.98L191.114 501.98L191.114 501.98L191.114 502.46L191.114 502.46L128.93 502.46z" stroke="none" fill="#000000" fill-rule="evenodd" /><path id="601" transform="matrix(1 0 0 -1 0 841)" d="M191.11 502.46L191.59 502.46L191.59 502.46L191.59 513.98L191.59 513.98L191.11 513.98z" stroke="none" fill="#000000" fill-rule="evenodd" /><path id="602" transform="matrix(1 0 0 -1 0 841)" d="M191.11 501.98L191.59 501.98L191.59 501.98L191.59 502.46L191.59 502.46L191.11 502.46z" stroke="none" fill="#000000" fill-rule="evenodd" /><path id="603" transform="matrix(1 0 0 -1 0 841)" d="M191.59 501.98L226.654 501.98L226.654 501.98L226.654 502.46L226.654 502.46L191.59 502.46z" stroke="none" fill="#000000" fill-rule="evenodd" /><path id="604" transform="matrix(1 0 0 -1 0 841)" d="M226.66 502.46L227.14 502.46L227.14 502.46L227.14 513.98L227.14 513.98L226.66 513.98z" stroke="none" fill="#000000" fill-rule="evenodd" /><path id="605" transform="matrix(1 0 0 -1 0 841)" d="M226.66 501.98L227.14 501.98L227.14 501.98L227.14 502.46L227.14 502.46L226.66 502.46z" stroke="none" fill="#000000" fill-rule="evenodd" /><path id="606" transform="matrix(1 0 0 -1 0 841)" d="M227.14 501.98L261.94 501.98L261.94 501.98L261.94 502.46L261.94 502.46L227.14 502.46z" stroke="none" fill="#000000" fill-rule="evenodd" /><path id="607" transform="matrix(1 0 0 -1 0 841)" d="M261.94 502.46L262.42 502.46L262.42 502.46L262.42 513.98L262.42 513.98L261.94 513.98z" stroke="none" fill="#000000" fill-rule="evenodd" /><path id="608" transform="matrix(1 0 0 -1 0 841)" d="M261.94 501.98L262.42 501.98L262.42 501.98L262.42 502.46L262.42 502.46L261.94 502.46z" stroke="none" fill="#000000" fill-rule="evenodd" /><path id="609" transform="matrix(1 0 0 -1 0 841)" d="M262.42 501.98L304.684 501.98L304.684 501.98L304.684 502.46L304.684 502.46L262.42 502.46z" stroke="none" fill="#000000" fill-rule="evenodd" /><path id="610" transform="matrix(1 0 0 -1 0 841)" d="M304.68 502.46L305.16 502.46L305.16 502.46L305.16 513.98L305.16 513.98L304.68 513.98z" stroke="none" fill="#000000" fill-rule="evenodd" /><path id="611" transform="matrix(1 0 0 -1 0 841)" d="M304.68 501.98L305.16 501.98L305.16 501.98L305.16 502.46L305.16 502.46L304.68 502.46z" stroke="none" fill="#000000" fill-rule="evenodd" /><path id="612" transform="matrix(1 0 0 -1 0 841)" d="M305.16 501.98L339.96 501.98L339.96 501.98L339.96 502.46L339.96 502.46L305.16 502.46z" stroke="none" fill="#000000" fill-rule="evenodd" /><path id="613" transform="matrix(1 0 0 -1 0 841)" d="M339.96 502.46L340.44 502.46L340.44 502.46L340.44 513.98L340.44 513.98L339.96 513.98z" stroke="none" fill="#000000" fill-rule="evenodd" /><path id="614" transform="matrix(1 0 0 -1 0 841)" d="M339.96 501.98L340.44 501.98L340.44 501.98L340.44 502.46L340.44 502.46L339.96 502.46z" stroke="none" fill="#000000" fill-rule="evenodd" /><path id="615" transform="matrix(1 0 0 -1 0 841)" d="M340.44 501.98L375.744 501.98L375.744 501.98L375.744 502.46L375.744 502.46L340.44 502.46z" stroke="none" fill="#000000" fill-rule="evenodd" /><path id="616" transform="matrix(1 0 0 -1 0 841)" d="M375.74 502.46L376.22 502.46L376.22 502.46L376.22 513.98L376.22 513.98L375.74 513.98z" stroke="none" fill="#000000" fill-rule="evenodd" /><path id="617" transform="matrix(1 0 0 -1 0 841)" d="M375.74 501.98L376.22 501.98L376.22 501.98L376.22 502.46L376.22 502.46L375.74 502.46z" stroke="none" fill="#000000" fill-rule="evenodd" /><path id="618" transform="matrix(1 0 0 -1 0 841)" d="M376.22 501.98L413.204 501.98L413.204 501.98L413.204 502.46L413.204 502.46L376.22 502.46z" stroke="none" fill="#000000" fill-rule="evenodd" /><path id="619" transform="matrix(1 0 0 -1 0 841)" d="M413.21 502.46L413.69 502.46L413.69 502.46L413.69 513.98L413.69 513.98L413.21 513.98z" stroke="none" fill="#000000" fill-rule="evenodd" /><path id="620" transform="matrix(1 0 0 -1 0 841)" d="M413.21 501.98L413.69 501.98L413.69 501.98L413.69 502.46L413.69 502.46L413.21 502.46z" stroke="none" fill="#000000" fill-rule="evenodd" /><path id="621" transform="matrix(1 0 0 -1 0 841)" d="M413.69 501.98L448.73 501.98L448.73 501.98L448.73 502.46L448.73 502.46L413.69 502.46z" stroke="none" fill="#000000" fill-rule="evenodd" /><path id="622" transform="matrix(1 0 0 -1 0 841)" d="M448.73 502.46L449.21 502.46L449.21 502.46L449.21 513.98L449.21 513.98L448.73 513.98z" stroke="none" fill="#000000" fill-rule="evenodd" /><path id="623" transform="matrix(1 0 0 -1 0 841)" d="M448.73 501.98L449.21 501.98L449.21 501.98L449.21 502.46L449.21 502.46L448.73 502.46z" stroke="none" fill="#000000" fill-rule="evenodd" /><path id="624" transform="matrix(1 0 0 -1 0 841)" d="M449.21 501.98L484.274 501.98L484.274 501.98L484.274 502.46L484.274 502.46L449.21 502.46z" stroke="none" fill="#000000" fill-rule="evenodd" /><path id="625" transform="matrix(1 0 0 -1 0 841)" d="M484.27 502.46L484.75 502.46L484.75 502.46L484.75 513.98L484.75 513.98L484.27 513.98z" stroke="none" fill="#000000" fill-rule="evenodd" /><path id="626" transform="matrix(1 0 0 -1 0 841)" d="M484.27 501.98L484.75 501.98L484.75 501.98L484.75 502.46L484.75 502.46L484.27 502.46z" stroke="none" fill="#000000" fill-rule="evenodd" /><path id="627" transform="matrix(1 0 0 -1 0 841)" d="M484.75 501.98L524.35 501.98L524.35 501.98L524.35 502.46L524.35 502.46L484.75 502.46z" stroke="none" fill="#000000" fill-rule="evenodd" /><path id="628" transform="matrix(1 0 0 -1 0 841)" d="M524.35 502.46L524.83 502.46L524.83 502.46L524.83 513.98L524.83 513.98L524.35 513.98z" stroke="none" fill="#000000" fill-rule="evenodd" /><path id="629" transform="matrix(1 0 0 -1 0 841)" d="M524.35 501.98L524.83 501.98L524.83 501.98L524.83 502.46L524.83 502.46L524.35 502.46z" stroke="none" fill="#000000" fill-rule="evenodd" /><path id="630" transform="matrix(1 0 0 -1 0 841)" d="M524.35 501.98L524.83 501.98L524.83 501.98L524.83 502.46L524.83 502.46L524.35 502.46z" stroke="none" fill="#000000" fill-rule="evenodd" /><g clip-path="url(#105)"><path id="1097" transform="matrix(1 0 0 -1 0 841)" d="M84.96 177.12L521.28 177.12L521.28 177.12L521.28 441.6L521.28 441.6L84.96 441.6z" stroke="none" fill="#FFFFFF" fill-rule="evenodd" /></g><path id="1098" transform="matrix(1 0 0 -1 0 841)" d="M129.96 410.76L494.76 410.76M129.96 403.56L494.76 403.56M129.96 396.36L494.76 396.36M129.96 389.16L494.76 389.16M129.96 374.52L494.76 374.52M129.96 367.32L494.76 367.32M129.96 360.12L494.76 360.12M129.96 352.92L494.76 352.92M129.96 338.28L494.76 338.28M129.96 331.08L494.76 331.08M129.96 323.88L494.76 323.88M129.96 316.68L494.76 316.68M129.96 302.04L494.76 302.04M129.96 294.84L494.76 294.84M129.96 287.64L494.76 287.64M129.96 280.44L494.76 280.44M129.96 265.8L494.76 265.8M129.96 258.6L494.76 258.6M129.96 251.4L494.76 251.4M129.96 244.2L494.76 244.2M129.96 229.56L494.76 229.56M129.96 222.36L494.76 222.36M129.96 215.16L494.76 215.16M129.96 207.96L494.76 207.96" stroke="#7F7F7F" stroke-width="0.72" fill="none" /><path id="1099" transform="matrix(1 0 0 -1 0 841)" d="M129.96 417.96L494.76 417.96M129.96 381.72L494.76 381.72M129.96 345.48L494.76 345.48M129.96 309.24L494.76 309.24M129.96 273.24L494.76 273.24M129.96 237L494.76 237" stroke="#000000" stroke-width="0.72" fill="none" /><path id="1100" transform="matrix(1 0 0 -1 0 841)" d="M474.6 417.96L474.6 200.76M434.04 417.96L434.04 200.76M393.48 417.96L393.48 200.76M352.92 417.96L352.92 200.76M312.36 417.96L312.36 200.76M271.8 417.96L271.8 200.76M231.24 417.96L231.24 200.76M190.92 417.96L190.92 200.76M150.36 417.96L150.36 200.76" stroke="#000000" stroke-width="0.72" fill="none" /><path id="1101" transform="matrix(1 0 0 -1 0 841)" d="M494.76 417.96L494.76 200.76M454.2 417.96L454.2 200.76M413.64 417.96L413.64 200.76M373.08 417.96L373.08 200.76M332.76 417.96L332.76 200.76M292.2 417.96L292.2 200.76M251.64 417.96L251.64 200.76M211.08 417.96L211.08 200.76M170.52 417.96L170.52 200.76" stroke="#000000" stroke-width="0.72" fill="none" /><path id="1102" transform="matrix(1 0 0 -1 0 841)" d="M129.96 200.76L129.96 417.96" stroke="#000000" stroke-width="0.72" fill="none" /><path id="1103" transform="matrix(1 0 0 -1 0 841)" d="M129.96 200.76L494.76 200.76" stroke="#000000" stroke-width="0.72" fill="none" /><path id="1104" transform="matrix(1 0 0 -1 0 841)" d="M181.29 211.63C 181.29 210.24 180.16 209.11 178.77 209.11C 177.38 209.11 176.25 210.24 176.25 211.63C 176.25 213.02 177.38 214.15 178.77 214.15C 180.16 214.15 181.29 213.02 181.29 211.63z" stroke="none" fill="#000000" fill-rule="nonzero" /><path id="1105" transform="matrix(1 0 0 -1 0 841)" d="M181.29 211.63C 181.29 210.24 180.16 209.11 178.77 209.11C 177.38 209.11 176.25 210.24 176.25 211.63C 176.25 213.02 177.38 214.15 178.77 214.15C 180.16 214.15 181.29 213.02 181.29 211.63z" stroke="#000000" stroke-width="0.75" fill="none" /><path id="1106" transform="matrix(1 0 0 -1 0 841)" d="M213.69 227.95C 213.69 226.56 212.56 225.43 211.17 225.43C 209.78 225.43 208.65 226.56 208.65 227.95C 208.65 229.34 209.78 230.47 211.17 230.47C 212.56 230.47 213.69 229.34 213.69 227.95z" stroke="none" fill="#000000" fill-rule="nonzero" /><path id="1107" transform="matrix(1 0 0 -1 0 841)" d="M213.69 227.95C 213.69 226.56 212.56 225.43 211.17 225.43C 209.78 225.43 208.65 226.56 208.65 227.95C 208.65 229.34 209.78 230.47 211.17 230.47C 212.56 230.47 213.69 229.34 213.69 227.95z" stroke="#000000" stroke-width="0.75" fill="none" /><path id="1108" transform="matrix(1 0 0 -1 0 841)" d="M222.81 231.07C 222.81 229.68 221.68 228.55 220.29 228.55C 218.9 228.55 217.77 229.68 217.77 231.07C 217.77 232.46 218.9 233.59 220.29 233.59C 221.68 233.59 222.81 232.46 222.81 231.07z" stroke="none" fill="#000000" fill-rule="nonzero" /><path id="1109" transform="matrix(1 0 0 -1 0 841)" d="M222.81 231.07C 222.81 229.68 221.68 228.55 220.29 228.55C 218.9 228.55 217.77 229.68 217.77 231.07C 217.77 232.46 218.9 233.59 220.29 233.59C 221.68 233.59 222.81 232.46 222.81 231.07z" stroke="#000000" stroke-width="0.75" fill="none" /><path id="1110" transform="matrix(1 0 0 -1 0 841)" d="M233.85 240.67C 233.85 239.28 232.72 238.15 231.33 238.15C 229.94 238.15 228.81 239.28 228.81 240.67C 228.81 242.06 229.94 243.19 231.33 243.19C 232.72 243.19 233.85 242.06 233.85 240.67z" stroke="none" fill="#000000" fill-rule="nonzero" /><path id="1111" transform="matrix(1 0 0 -1 0 841)" d="M233.85 240.67C 233.85 239.28 232.72 238.15 231.33 238.15C 229.94 238.15 228.81 239.28 228.81 240.67C 228.81 242.06 229.94 243.19 231.33 243.19C 232.72 243.19 233.85 242.06 233.85 240.67z" stroke="#000000" stroke-width="0.75" fill="none" /><path id="1112" transform="matrix(1 0 0 -1 0 841)" d="M260.25 255.07C 260.25 253.68 259.12 252.55 257.73 252.55C 256.34 252.55 255.21 253.68 255.21 255.07C 255.21 256.46 256.34 257.59 257.73 257.59C 259.12 257.59 260.25 256.46 260.25 255.07z" stroke="none" fill="#000000" fill-rule="nonzero" /><path id="1113" transform="matrix(1 0 0 -1 0 841)" d="M260.25 255.07C 260.25 253.68 259.12 252.55 257.73 252.55C 256.34 252.55 255.21 253.68 255.21 255.07C 255.21 256.46 256.34 257.59 257.73 257.59C 259.12 257.59 260.25 256.46 260.25 255.07z" stroke="#000000" stroke-width="0.75" fill="none" /><path id="1114" transform="matrix(1 0 0 -1 0 841)" d="M294.81 267.79C 294.81 266.4 293.68 265.27 292.29 265.27C 290.9 265.27 289.77 266.4 289.77 267.79C 289.77 269.18 290.9 270.31 292.29 270.31C 293.68 270.31 294.81 269.18 294.81 267.79z" stroke="none" fill="#000000" fill-rule="nonzero" /><path id="1115" transform="matrix(1 0 0 -1 0 841)" d="M294.81 267.79C 294.81 266.4 293.68 265.27 292.29 265.27C 290.9 265.27 289.77 266.4 289.77 267.79C 289.77 269.18 290.9 270.31 292.29 270.31C 293.68 270.31 294.81 269.18 294.81 267.79z" stroke="#000000" stroke-width="0.75" fill="none" /><path id="1116" transform="matrix(1 0 0 -1 0 841)" d="M335.37 280.51C 335.37 279.12 334.24 277.99 332.85 277.99C 331.46 277.99 330.33 279.12 330.33 280.51C 330.33 281.9 331.46 283.03 332.85 283.03C 334.24 283.03 335.37 281.9 335.37 280.51z" stroke="none" fill="#000000" fill-rule="nonzero" /><path id="1117" transform="matrix(1 0 0 -1 0 841)" d="M335.37 280.51C 335.37 279.12 334.24 277.99 332.85 277.99C 331.46 277.99 330.33 279.12 330.33 280.51C 330.33 281.9 331.46 283.03 332.85 283.03C 334.24 283.03 335.37 281.9 335.37 280.51z" stroke="#000000" stroke-width="0.75" fill="none" /><path id="1118" transform="matrix(1 0 0 -1 0 841)" d="M351.45 280.51C 351.45 279.12 350.32 277.99 348.93 277.99C 347.54 277.99 346.41 279.12 346.41 280.51C 346.41 281.9 347.54 283.03 348.93 283.03C 350.32 283.03 351.45 281.9 351.45 280.51z" stroke="none" fill="#000000" fill-rule="nonzero" /><path id="1119" transform="matrix(1 0 0 -1 0 841)" d="M351.45 280.51C 351.45 279.12 350.32 277.99 348.93 277.99C 347.54 277.99 346.41 279.12 346.41 280.51C 346.41 281.9 347.54 283.03 348.93 283.03C 350.32 283.03 351.45 281.9 351.45 280.51z" stroke="#000000" stroke-width="0.75" fill="none" /><path id="1120" transform="matrix(1 0 0 -1 0 841)" d="M400.17 309.31C 400.17 307.92 399.04 306.79 397.65 306.79C 396.26 306.79 395.13 307.92 395.13 309.31C 395.13 310.7 396.26 311.83 397.65 311.83C 399.04 311.83 400.17 310.7 400.17 309.31z" stroke="none" fill="#000000" fill-rule="nonzero" /><path id="1121" transform="matrix(1 0 0 -1 0 841)" d="M400.17 309.31C 400.17 307.92 399.04 306.79 397.65 306.79C 396.26 306.79 395.13 307.92 395.13 309.31C 395.13 310.7 396.26 311.83 397.65 311.83C 399.04 311.83 400.17 310.7 400.17 309.31z" stroke="#000000" stroke-width="0.75" fill="none" /><path id="1122" transform="matrix(1 0 0 -1 0 841)" d="M456.81 400.03C 456.81 398.64 455.68 397.51 454.29 397.51C 452.9 397.51 451.77 398.64 451.77 400.03C 451.77 401.42 452.9 402.55 454.29 402.55C 455.68 402.55 456.81 401.42 456.81 400.03z" stroke="none" fill="#000000" fill-rule="nonzero" /><path id="1123" transform="matrix(1 0 0 -1 0 841)" d="M456.81 400.03C 456.81 398.64 455.68 397.51 454.29 397.51C 452.9 397.51 451.77 398.64 451.77 400.03C 451.77 401.42 452.9 402.55 454.29 402.55C 455.68 402.55 456.81 401.42 456.81 400.03z" stroke="#000000" stroke-width="0.75" fill="none" /><g clip-path="url(#106)"></g><g clip-path="url(#107)"></g><g clip-path="url(#108)"></g><g clip-path="url(#109)"></g><g clip-path="url(#110)"></g><g clip-path="url(#111)"></g><g clip-path="url(#112)"></g><g clip-path="url(#113)"></g><g clip-path="url(#114)"></g><g clip-path="url(#115)"></g><g clip-path="url(#116)"></g><g clip-path="url(#117)"></g><g clip-path="url(#118)"></g><g clip-path="url(#119)"></g><g clip-path="url(#120)"></g><g clip-path="url(#121)"></g><g clip-path="url(#122)"></g><path id="1170" transform="matrix(1 0 0 -1 0 841)" d="M85.529 412.47L127.364 412.47L127.364 412.47L127.364 430.415L127.364 430.415L85.529 430.415z" stroke="none" fill="#FFFFFF" fill-rule="evenodd" /><g clip-path="url(#123)"></g><g clip-path="url(#124)"></g><g clip-path="url(#125)"></g><path id="1176" transform="matrix(1 0 0 -1 0 841)" d="M477.91 179L513.36 179L513.36 179L513.36 196.945L513.36 196.945L477.91 196.945z" stroke="none" fill="#FFFFFF" fill-rule="evenodd" /><g clip-path="url(#126)"></g><g clip-path="url(#127)"></g><g clip-path="url(#128)"></g></g></g></svg>