<svg xmlns="http://www.w3.org/2000/svg" xmlns:xlink="http://www.w3.org/1999/xlink" id="body_19" preserveAspectRatio="xMinYMin meet" viewBox="0 0 793 1121"><defs><clipPath id="1"><path id="" clip-rule="evenodd" transform="matrix(1 0 0 1 0 0)" d="M0 841L0 -0.9199829L0 -0.9199829L595.2 -0.9199829L595.2 -0.9199829L595.2 841L595.2 841L0 841z" /></clipPath><clipPath id="2"><path id="" clip-rule="evenodd" transform="matrix(1 0 0 1 0 0)" d="M220.67 181.1L413.4211 181.1L413.4211 181.1L413.4211 138.402L413.4211 138.402L220.67 138.402z" /></clipPath><clipPath id="3"><path id="" clip-rule="evenodd" transform="matrix(1 0 0 1 0 0)" d="M166.22 315.3L352.2171 315.3L352.2171 315.3L352.2171 225.3003L352.2171 225.3003L166.22 225.3003z" /></clipPath><clipPath id="4"><path id="" clip-rule="evenodd" transform="matrix(1 0 0 1 0 0)" d="M359.17 284.1L471.7214 284.1L471.7214 284.1L471.7214 229.3516L471.7214 229.3516L359.17 229.3516z" /></clipPath><clipPath id="5"><path id="" clip-rule="evenodd" transform="matrix(1 0 0 1 0 0)" d="M85.07 373.6L129.9692 373.6L129.9692 373.6L129.9692 353.4503L129.9692 353.4503L85.07 353.4503z" /></clipPath><clipPath id="6"><path id="" clip-rule="evenodd" transform="matrix(1 0 0 1 0 0)" d="M136.92 373.6L172.2191 373.6L172.2191 373.6L172.2191 358.4998L172.2191 358.4998L136.92 358.4998z" /></clipPath><clipPath id="7"><path id="" clip-rule="evenodd" transform="matrix(1 0 0 1 0 0)" d="M179.17 376.5L230.0195 376.5L230.0195 376.5L230.0195 353.8998L230.0195 353.8998L179.17 353.8998z" /></clipPath><clipPath id="8"><path id="" clip-rule="evenodd" transform="matrix(1 0 0 1 0 0)" d="M237.02 376.5L292.4196 376.5L292.4196 376.5L292.4196 353.8998L292.4196 353.8998L237.02 353.8998z" /></clipPath></defs><g transform="matrix(1.333333 0 0 1.333333 0 0)"><g clip-path="url(#1)"><g clip-path="url(#2)"></g><g clip-path="url(#3)"><path id="228" transform="matrix(1 0 0 -1 0 841)" d="M192.2947 574.3046L349.2608 574.3046" stroke="#000000" stroke-width="0.4933633" fill="none" /></g><g clip-path="url(#4)"><path id="289" transform="matrix(1 0 0 -1 0 841)" d="M384.3476 574.4233L465.9436 574.4233" stroke="#000000" stroke-width="0.6877719" fill="none" /></g><g clip-path="url(#5)"></g><g clip-path="url(#6)"></g><g clip-path="url(#7)"></g><g clip-path="url(#8)"></g></g></g></svg>