<svg xmlns="http://www.w3.org/2000/svg" xmlns:xlink="http://www.w3.org/1999/xlink" id="body_1" preserveAspectRatio="xMinYMin meet" viewBox="0 0 793 1121"><defs><clipPath id="1"><path id="" clip-rule="evenodd" transform="matrix(1 0 0 1 0 0)" d="M0 841L0 -0.9199829L0 -0.9199829L595.2 -0.9199829L595.2 -0.9199829L595.2 841L595.2 841L0 841z" /></clipPath><clipPath id="2"><path id="" clip-rule="evenodd" transform="matrix(1 0 0 1 0 0)" d="M175.26 248.74L222.81 248.74L222.81 248.74L222.81 232.66L222.81 232.66L175.26 232.66z" /></clipPath><clipPath id="3"><path id="" clip-rule="evenodd" transform="matrix(1 0 0 1 0 0)" d="M175.27 248.75L222.814 248.75L222.814 248.75L222.814 232.67L222.814 232.67L175.27 232.67z" /></clipPath><clipPath id="4"><path id="" clip-rule="evenodd" transform="matrix(1 0 0 1 0 0)" d="M175.27 248.75L222.814 248.75L222.814 248.75L222.814 232.67L222.814 232.67L175.27 232.67z" /></clipPath><clipPath id="5"><path id="" clip-rule="evenodd" transform="matrix(1 0 0 1 0 0)" d="M175.27 248.75L222.814 248.75L222.814 248.75L222.814 232.67L222.814 232.67L175.27 232.67z" /></clipPath><clipPath id="6"><path id="" clip-rule="evenodd" transform="matrix(1 0 0 1 0 0)" d="M223.29 248.74L270.81 248.74L270.81 248.74L270.81 232.66L270.81 232.66L223.29 232.66z" /></clipPath><clipPath id="7"><path id="" clip-rule="evenodd" transform="matrix(1 0 0 1 0 0)" d="M223.3 248.75L270.82 248.75L270.82 248.75L270.82 232.67L270.82 232.67L223.3 232.67z" /></clipPath><clipPath id="8"><path id="" clip-rule="evenodd" transform="matrix(1 0 0 1 0 0)" d="M223.3 248.75L270.82 248.75L270.82 248.75L270.82 232.67L270.82 232.67L223.3 232.67z" /></clipPath><clipPath id="9"><path id="" clip-rule="evenodd" transform="matrix(1 0 0 1 0 0)" d="M223.3 248.75L270.82 248.75L270.82 248.75L270.82 232.67L270.82 232.67L223.3 232.67z" /></clipPath><clipPath id="10"><path id="" clip-rule="evenodd" transform="matrix(1 0 0 1 0 0)" d="M271.29 248.74L318.84 248.74L318.84 248.74L318.84 232.66L318.84 232.66L271.29 232.66z" /></clipPath><clipPath id="11"><path id="" clip-rule="evenodd" transform="matrix(1 0 0 1 0 0)" d="M271.3 248.75L318.844 248.75L318.844 248.75L318.844 232.67L318.844 232.67L271.3 232.67z" /></clipPath><clipPath id="12"><path id="" clip-rule="evenodd" transform="matrix(1 0 0 1 0 0)" d="M271.3 248.75L318.844 248.75L318.844 248.75L318.844 232.67L318.844 232.67L271.3 232.67z" /></clipPath><clipPath id="13"><path id="" clip-rule="evenodd" transform="matrix(1 0 0 1 0 0)" d="M271.3 248.75L318.844 248.75L318.844 248.75L318.844 232.67L318.844 232.67L271.3 232.67z" /></clipPath><clipPath id="14"><path id="" clip-rule="evenodd" transform="matrix(1 0 0 1 0 0)" d="M319.32 248.74L366.87 248.74L366.87 248.74L366.87 232.66L366.87 232.66L319.32 232.66z" /></clipPath><clipPath id="15"><path id="" clip-rule="evenodd" transform="matrix(1 0 0 1 0 0)" d="M319.32 248.75L366.864 248.75L366.864 248.75L366.864 232.67L366.864 232.67L319.32 232.67z" /></clipPath><clipPath id="16"><path id="" clip-rule="evenodd" transform="matrix(1 0 0 1 0 0)" d="M319.32 248.75L366.864 248.75L366.864 248.75L366.864 232.67L366.864 232.67L319.32 232.67z" /></clipPath><clipPath id="17"><path id="" clip-rule="evenodd" transform="matrix(1 0 0 1 0 0)" d="M367.35 248.74L414.9 248.74L414.9 248.74L414.9 232.66L414.9 232.66L367.35 232.66z" /></clipPath><clipPath id="18"><path id="" clip-rule="evenodd" transform="matrix(1 0 0 1 0 0)" d="M367.34 248.75L414.884 248.75L414.884 248.75L414.884 232.67L414.884 232.67L367.34 232.67z" /></clipPath><clipPath id="19"><path id="" clip-rule="evenodd" transform="matrix(1 0 0 1 0 0)" d="M367.34 248.75L414.884 248.75L414.884 248.75L414.884 232.67L414.884 232.67L367.34 232.67z" /></clipPath><clipPath id="20"><path id="" clip-rule="evenodd" transform="matrix(1 0 0 1 0 0)" d="M367.34 248.75L414.884 248.75L414.884 248.75L414.884 232.67L414.884 232.67L367.34 232.67z" /></clipPath><clipPath id="21"><path id="" clip-rule="evenodd" transform="matrix(1 0 0 1 0 0)" d="M367.34 248.75L414.884 248.75L414.884 248.75L414.884 232.67L414.884 232.67L367.34 232.67z" /></clipPath><clipPath id="22"><path id="" clip-rule="evenodd" transform="matrix(1 0 0 1 0 0)" d="M367.34 248.75L414.884 248.75L414.884 248.75L414.884 232.67L414.884 232.67L367.34 232.67z" /></clipPath><clipPath id="23"><path id="" clip-rule="evenodd" transform="matrix(1 0 0 1 0 0)" d="M415.38 248.74L462.9 248.74L462.9 248.74L462.9 232.66L462.9 232.66L415.38 232.66z" /></clipPath><clipPath id="24"><path id="" clip-rule="evenodd" transform="matrix(1 0 0 1 0 0)" d="M415.37 248.75L462.89 248.75L462.89 248.75L462.89 232.67L462.89 232.67L415.37 232.67z" /></clipPath><clipPath id="25"><path id="" clip-rule="evenodd" transform="matrix(1 0 0 1 0 0)" d="M415.37 248.75L462.89 248.75L462.89 248.75L462.89 232.67L462.89 232.67L415.37 232.67z" /></clipPath><clipPath id="26"><path id="" clip-rule="evenodd" transform="matrix(1 0 0 1 0 0)" d="M415.37 248.75L462.89 248.75L462.89 248.75L462.89 232.67L462.89 232.67L415.37 232.67z" /></clipPath><clipPath id="27"><path id="" clip-rule="evenodd" transform="matrix(1 0 0 1 0 0)" d="M175.26 265.3L222.81 265.3L222.81 265.3L222.81 249.22L222.81 249.22L175.26 249.22z" /></clipPath><clipPath id="28"><path id="" clip-rule="evenodd" transform="matrix(1 0 0 1 0 0)" d="M175.27 265.31L222.814 265.31L222.814 265.31L222.814 249.23L222.814 249.23L175.27 249.23z" /></clipPath><clipPath id="29"><path id="" clip-rule="evenodd" transform="matrix(1 0 0 1 0 0)" d="M175.27 265.31L222.814 265.31L222.814 265.31L222.814 249.23L222.814 249.23L175.27 249.23z" /></clipPath><clipPath id="30"><path id="" clip-rule="evenodd" transform="matrix(1 0 0 1 0 0)" d="M175.27 265.31L222.814 265.31L222.814 265.31L222.814 249.23L222.814 249.23L175.27 249.23z" /></clipPath><clipPath id="31"><path id="" clip-rule="evenodd" transform="matrix(1 0 0 1 0 0)" d="M223.29 265.3L270.81 265.3L270.81 265.3L270.81 249.22L270.81 249.22L223.29 249.22z" /></clipPath><clipPath id="32"><path id="" clip-rule="evenodd" transform="matrix(1 0 0 1 0 0)" d="M223.3 265.31L270.82 265.31L270.82 265.31L270.82 249.23L270.82 249.23L223.3 249.23z" /></clipPath><clipPath id="33"><path id="" clip-rule="evenodd" transform="matrix(1 0 0 1 0 0)" d="M223.3 265.31L270.82 265.31L270.82 265.31L270.82 249.23L270.82 249.23L223.3 249.23z" /></clipPath><clipPath id="34"><path id="" clip-rule="evenodd" transform="matrix(1 0 0 1 0 0)" d="M223.3 265.31L270.82 265.31L270.82 265.31L270.82 249.23L270.82 249.23L223.3 249.23z" /></clipPath><clipPath id="35"><path id="" clip-rule="evenodd" transform="matrix(1 0 0 1 0 0)" d="M271.29 265.3L318.84 265.3L318.84 265.3L318.84 249.22L318.84 249.22L271.29 249.22z" /></clipPath><clipPath id="36"><path id="" clip-rule="evenodd" transform="matrix(1 0 0 1 0 0)" d="M271.3 265.31L318.844 265.31L318.844 265.31L318.844 249.23L318.844 249.23L271.3 249.23z" /></clipPath><clipPath id="37"><path id="" clip-rule="evenodd" transform="matrix(1 0 0 1 0 0)" d="M271.3 265.31L318.844 265.31L318.844 265.31L318.844 249.23L318.844 249.23L271.3 249.23z" /></clipPath><clipPath id="38"><path id="" clip-rule="evenodd" transform="matrix(1 0 0 1 0 0)" d="M271.3 265.31L318.844 265.31L318.844 265.31L318.844 249.23L318.844 249.23L271.3 249.23z" /></clipPath><clipPath id="39"><path id="" clip-rule="evenodd" transform="matrix(1 0 0 1 0 0)" d="M319.32 265.3L366.87 265.3L366.87 265.3L366.87 249.22L366.87 249.22L319.32 249.22z" /></clipPath><clipPath id="40"><path id="" clip-rule="evenodd" transform="matrix(1 0 0 1 0 0)" d="M319.32 265.31L366.864 265.31L366.864 265.31L366.864 249.23L366.864 249.23L319.32 249.23z" /></clipPath><clipPath id="41"><path id="" clip-rule="evenodd" transform="matrix(1 0 0 1 0 0)" d="M319.32 265.31L366.864 265.31L366.864 265.31L366.864 249.23L366.864 249.23L319.32 249.23z" /></clipPath><clipPath id="42"><path id="" clip-rule="evenodd" transform="matrix(1 0 0 1 0 0)" d="M367.35 265.3L414.9 265.3L414.9 265.3L414.9 249.22L414.9 249.22L367.35 249.22z" /></clipPath><clipPath id="43"><path id="" clip-rule="evenodd" transform="matrix(1 0 0 1 0 0)" d="M367.34 265.31L414.884 265.31L414.884 265.31L414.884 249.23L414.884 249.23L367.34 249.23z" /></clipPath><clipPath id="44"><path id="" clip-rule="evenodd" transform="matrix(1 0 0 1 0 0)" d="M367.34 265.31L414.884 265.31L414.884 265.31L414.884 249.23L414.884 249.23L367.34 249.23z" /></clipPath><clipPath id="45"><path id="" clip-rule="evenodd" transform="matrix(1 0 0 1 0 0)" d="M367.34 265.31L414.884 265.31L414.884 265.31L414.884 249.23L414.884 249.23L367.34 249.23z" /></clipPath><clipPath id="46"><path id="" clip-rule="evenodd" transform="matrix(1 0 0 1 0 0)" d="M367.34 265.31L414.884 265.31L414.884 265.31L414.884 249.23L414.884 249.23L367.34 249.23z" /></clipPath><clipPath id="47"><path id="" clip-rule="evenodd" transform="matrix(1 0 0 1 0 0)" d="M367.34 265.31L414.884 265.31L414.884 265.31L414.884 249.23L414.884 249.23L367.34 249.23z" /></clipPath><clipPath id="48"><path id="" clip-rule="evenodd" transform="matrix(1 0 0 1 0 0)" d="M415.38 265.3L462.9 265.3L462.9 265.3L462.9 249.22L462.9 249.22L415.38 249.22z" /></clipPath><clipPath id="49"><path id="" clip-rule="evenodd" transform="matrix(1 0 0 1 0 0)" d="M415.37 265.31L462.89 265.31L462.89 265.31L462.89 249.23L462.89 249.23L415.37 249.23z" /></clipPath><clipPath id="50"><path id="" clip-rule="evenodd" transform="matrix(1 0 0 1 0 0)" d="M415.37 265.31L462.89 265.31L462.89 265.31L462.89 249.23L462.89 249.23L415.37 249.23z" /></clipPath><clipPath id="51"><path id="" clip-rule="evenodd" transform="matrix(1 0 0 1 0 0)" d="M415.37 265.31L462.89 265.31L462.89 265.31L462.89 249.23L462.89 249.23L415.37 249.23z" /></clipPath></defs><g transform="matrix(1.333333 0 0 1.333333 0 0)"><g clip-path="url(#1)"><g clip-path="url(#2)"><g clip-path="url(#3)"></g><g clip-path="url(#4)"></g><g clip-path="url(#5)"></g></g><g clip-path="url(#6)"><g clip-path="url(#7)"></g><g clip-path="url(#8)"></g><g clip-path="url(#9)"></g></g><g clip-path="url(#10)"><g clip-path="url(#11)"></g><g clip-path="url(#12)"></g><g clip-path="url(#13)"></g></g><g clip-path="url(#14)"><g clip-path="url(#15)"></g><g clip-path="url(#16)"></g></g><g clip-path="url(#17)"><g clip-path="url(#18)"></g><g clip-path="url(#19)"></g><g clip-path="url(#20)"></g><g clip-path="url(#21)"></g><g clip-path="url(#22)"></g></g><g clip-path="url(#23)"><g clip-path="url(#24)"></g><g clip-path="url(#25)"></g><g clip-path="url(#26)"></g></g><path id="328" transform="matrix(1 0 0 -1 0 841)" d="M174.55 608.57L175.03 608.57L175.03 608.57L175.03 609.05L175.03 609.05L174.55 609.05z" stroke="none" fill="#000000" fill-rule="evenodd" /><path id="329" transform="matrix(1 0 0 -1 0 841)" d="M174.55 608.57L175.03 608.57L175.03 608.57L175.03 609.05L175.03 609.05L174.55 609.05z" stroke="none" fill="#000000" fill-rule="evenodd" /><path id="330" transform="matrix(1 0 0 -1 0 841)" d="M175.03 608.57L222.574 608.57L222.574 608.57L222.574 609.05L222.574 609.05L175.03 609.05z" stroke="none" fill="#000000" fill-rule="evenodd" /><path id="331" transform="matrix(1 0 0 -1 0 841)" d="M222.58 608.57L223.06 608.57L223.06 608.57L223.06 609.05L223.06 609.05L222.58 609.05z" stroke="none" fill="#000000" fill-rule="evenodd" /><path id="332" transform="matrix(1 0 0 -1 0 841)" d="M223.06 608.57L270.58 608.57L270.58 608.57L270.58 609.05L270.58 609.05L223.06 609.05z" stroke="none" fill="#000000" fill-rule="evenodd" /><path id="333" transform="matrix(1 0 0 -1 0 841)" d="M270.58 608.57L271.06 608.57L271.06 608.57L271.06 609.05L271.06 609.05L270.58 609.05z" stroke="none" fill="#000000" fill-rule="evenodd" /><path id="334" transform="matrix(1 0 0 -1 0 841)" d="M271.06 608.57L318.604 608.57L318.604 608.57L318.604 609.05L318.604 609.05L271.06 609.05z" stroke="none" fill="#000000" fill-rule="evenodd" /><path id="335" transform="matrix(1 0 0 -1 0 841)" d="M318.6 608.57L319.08 608.57L319.08 608.57L319.08 609.05L319.08 609.05L318.6 609.05z" stroke="none" fill="#000000" fill-rule="evenodd" /><path id="336" transform="matrix(1 0 0 -1 0 841)" d="M319.08 608.57L366.624 608.57L366.624 608.57L366.624 609.05L366.624 609.05L319.08 609.05z" stroke="none" fill="#000000" fill-rule="evenodd" /><path id="337" transform="matrix(1 0 0 -1 0 841)" d="M366.62 608.57L367.1 608.57L367.1 608.57L367.1 609.05L367.1 609.05L366.62 609.05z" stroke="none" fill="#000000" fill-rule="evenodd" /><path id="338" transform="matrix(1 0 0 -1 0 841)" d="M367.1 608.57L414.644 608.57L414.644 608.57L414.644 609.05L414.644 609.05L367.1 609.05z" stroke="none" fill="#000000" fill-rule="evenodd" /><path id="339" transform="matrix(1 0 0 -1 0 841)" d="M414.65 608.57L415.13 608.57L415.13 608.57L415.13 609.05L415.13 609.05L414.65 609.05z" stroke="none" fill="#000000" fill-rule="evenodd" /><path id="340" transform="matrix(1 0 0 -1 0 841)" d="M415.13 608.57L462.65 608.57L462.65 608.57L462.65 609.05L462.65 609.05L415.13 609.05z" stroke="none" fill="#000000" fill-rule="evenodd" /><path id="341" transform="matrix(1 0 0 -1 0 841)" d="M462.65 608.57L463.13 608.57L463.13 608.57L463.13 609.05L463.13 609.05L462.65 609.05z" stroke="none" fill="#000000" fill-rule="evenodd" /><path id="342" transform="matrix(1 0 0 -1 0 841)" d="M462.65 608.57L463.13 608.57L463.13 608.57L463.13 609.05L463.13 609.05L462.65 609.05z" stroke="none" fill="#000000" fill-rule="evenodd" /><path id="343" transform="matrix(1 0 0 -1 0 841)" d="M174.55 592.25L175.03 592.25L175.03 592.25L175.03 608.57L175.03 608.57L174.55 608.57z" stroke="none" fill="#000000" fill-rule="evenodd" /><path id="344" transform="matrix(1 0 0 -1 0 841)" d="M222.58 592.25L223.06 592.25L223.06 592.25L223.06 608.57L223.06 608.57L222.58 608.57z" stroke="none" fill="#000000" fill-rule="evenodd" /><path id="345" transform="matrix(1 0 0 -1 0 841)" d="M270.58 592.25L271.06 592.25L271.06 592.25L271.06 608.57L271.06 608.57L270.58 608.57z" stroke="none" fill="#000000" fill-rule="evenodd" /><path id="346" transform="matrix(1 0 0 -1 0 841)" d="M318.6 592.25L319.08 592.25L319.08 592.25L319.08 608.57L319.08 608.57L318.6 608.57z" stroke="none" fill="#000000" fill-rule="evenodd" /><path id="347" transform="matrix(1 0 0 -1 0 841)" d="M366.62 592.25L367.1 592.25L367.1 592.25L367.1 608.57L367.1 608.57L366.62 608.57z" stroke="none" fill="#000000" fill-rule="evenodd" /><path id="348" transform="matrix(1 0 0 -1 0 841)" d="M414.65 592.25L415.13 592.25L415.13 592.25L415.13 608.57L415.13 608.57L414.65 608.57z" stroke="none" fill="#000000" fill-rule="evenodd" /><path id="349" transform="matrix(1 0 0 -1 0 841)" d="M462.65 592.25L463.13 592.25L463.13 592.25L463.13 608.57L463.13 608.57L462.65 608.57z" stroke="none" fill="#000000" fill-rule="evenodd" /><g clip-path="url(#27)"><g clip-path="url(#28)"></g><g clip-path="url(#29)"></g><g clip-path="url(#30)"></g></g><g clip-path="url(#31)"><g clip-path="url(#32)"></g><g clip-path="url(#33)"></g><g clip-path="url(#34)"></g></g><g clip-path="url(#35)"><g clip-path="url(#36)"></g><g clip-path="url(#37)"></g><g clip-path="url(#38)"></g></g><g clip-path="url(#39)"><g clip-path="url(#40)"></g><g clip-path="url(#41)"></g></g><g clip-path="url(#42)"><g clip-path="url(#43)"></g><g clip-path="url(#44)"></g><g clip-path="url(#45)"></g><g clip-path="url(#46)"></g><g clip-path="url(#47)"></g></g><g clip-path="url(#48)"><g clip-path="url(#49)"></g><g clip-path="url(#50)"></g><g clip-path="url(#51)"></g></g><path id="365" transform="matrix(1 0 0 -1 0 841)" d="M174.55 591.77L175.03 591.77L175.03 591.77L175.03 592.25L175.03 592.25L174.55 592.25z" stroke="none" fill="#000000" fill-rule="evenodd" /><path id="366" transform="matrix(1 0 0 -1 0 841)" d="M175.03 591.77L222.574 591.77L222.574 591.77L222.574 592.25L222.574 592.25L175.03 592.25z" stroke="none" fill="#000000" fill-rule="evenodd" /><path id="367" transform="matrix(1 0 0 -1 0 841)" d="M222.58 591.77L223.06 591.77L223.06 591.77L223.06 592.25L223.06 592.25L222.58 592.25z" stroke="none" fill="#000000" fill-rule="evenodd" /><path id="368" transform="matrix(1 0 0 -1 0 841)" d="M223.06 591.77L270.58 591.77L270.58 591.77L270.58 592.25L270.58 592.25L223.06 592.25z" stroke="none" fill="#000000" fill-rule="evenodd" /><path id="369" transform="matrix(1 0 0 -1 0 841)" d="M270.58 591.77L271.06 591.77L271.06 591.77L271.06 592.25L271.06 592.25L270.58 592.25z" stroke="none" fill="#000000" fill-rule="evenodd" /><path id="370" transform="matrix(1 0 0 -1 0 841)" d="M271.06 591.77L318.604 591.77L318.604 591.77L318.604 592.25L318.604 592.25L271.06 592.25z" stroke="none" fill="#000000" fill-rule="evenodd" /><path id="371" transform="matrix(1 0 0 -1 0 841)" d="M318.6 591.77L319.08 591.77L319.08 591.77L319.08 592.25L319.08 592.25L318.6 592.25z" stroke="none" fill="#000000" fill-rule="evenodd" /><path id="372" transform="matrix(1 0 0 -1 0 841)" d="M319.08 591.77L366.624 591.77L366.624 591.77L366.624 592.25L366.624 592.25L319.08 592.25z" stroke="none" fill="#000000" fill-rule="evenodd" /><path id="373" transform="matrix(1 0 0 -1 0 841)" d="M366.62 591.77L367.1 591.77L367.1 591.77L367.1 592.25L367.1 592.25L366.62 592.25z" stroke="none" fill="#000000" fill-rule="evenodd" /><path id="374" transform="matrix(1 0 0 -1 0 841)" d="M367.1 591.77L414.644 591.77L414.644 591.77L414.644 592.25L414.644 592.25L367.1 592.25z" stroke="none" fill="#000000" fill-rule="evenodd" /><path id="375" transform="matrix(1 0 0 -1 0 841)" d="M414.65 591.77L415.13 591.77L415.13 591.77L415.13 592.25L415.13 592.25L414.65 592.25z" stroke="none" fill="#000000" fill-rule="evenodd" /><path id="376" transform="matrix(1 0 0 -1 0 841)" d="M415.13 591.77L462.65 591.77L462.65 591.77L462.65 592.25L462.65 592.25L415.13 592.25z" stroke="none" fill="#000000" fill-rule="evenodd" /><path id="377" transform="matrix(1 0 0 -1 0 841)" d="M462.65 591.77L463.13 591.77L463.13 591.77L463.13 592.25L463.13 592.25L462.65 592.25z" stroke="none" fill="#000000" fill-rule="evenodd" /><path id="378" transform="matrix(1 0 0 -1 0 841)" d="M174.55 575.69L175.03 575.69L175.03 575.69L175.03 591.77L175.03 591.77L174.55 591.77z" stroke="none" fill="#000000" fill-rule="evenodd" /><path id="379" transform="matrix(1 0 0 -1 0 841)" d="M174.55 575.21L175.03 575.21L175.03 575.21L175.03 575.69L175.03 575.69L174.55 575.69z" stroke="none" fill="#000000" fill-rule="evenodd" /><path id="380" transform="matrix(1 0 0 -1 0 841)" d="M174.55 575.21L175.03 575.21L175.03 575.21L175.03 575.69L175.03 575.69L174.55 575.69z" stroke="none" fill="#000000" fill-rule="evenodd" /><path id="381" transform="matrix(1 0 0 -1 0 841)" d="M175.03 575.21L222.574 575.21L222.574 575.21L222.574 575.69L222.574 575.69L175.03 575.69z" stroke="none" fill="#000000" fill-rule="evenodd" /><path id="382" transform="matrix(1 0 0 -1 0 841)" d="M222.58 575.69L223.06 575.69L223.06 575.69L223.06 591.77L223.06 591.77L222.58 591.77z" stroke="none" fill="#000000" fill-rule="evenodd" /><path id="383" transform="matrix(1 0 0 -1 0 841)" d="M222.58 575.21L223.06 575.21L223.06 575.21L223.06 575.69L223.06 575.69L222.58 575.69z" stroke="none" fill="#000000" fill-rule="evenodd" /><path id="384" transform="matrix(1 0 0 -1 0 841)" d="M223.06 575.21L270.58 575.21L270.58 575.21L270.58 575.69L270.58 575.69L223.06 575.69z" stroke="none" fill="#000000" fill-rule="evenodd" /><path id="385" transform="matrix(1 0 0 -1 0 841)" d="M270.58 575.69L271.06 575.69L271.06 575.69L271.06 591.77L271.06 591.77L270.58 591.77z" stroke="none" fill="#000000" fill-rule="evenodd" /><path id="386" transform="matrix(1 0 0 -1 0 841)" d="M270.58 575.21L271.06 575.21L271.06 575.21L271.06 575.69L271.06 575.69L270.58 575.69z" stroke="none" fill="#000000" fill-rule="evenodd" /><path id="387" transform="matrix(1 0 0 -1 0 841)" d="M271.06 575.21L318.604 575.21L318.604 575.21L318.604 575.69L318.604 575.69L271.06 575.69z" stroke="none" fill="#000000" fill-rule="evenodd" /><path id="388" transform="matrix(1 0 0 -1 0 841)" d="M318.6 575.69L319.08 575.69L319.08 575.69L319.08 591.77L319.08 591.77L318.6 591.77z" stroke="none" fill="#000000" fill-rule="evenodd" /><path id="389" transform="matrix(1 0 0 -1 0 841)" d="M318.6 575.21L319.08 575.21L319.08 575.21L319.08 575.69L319.08 575.69L318.6 575.69z" stroke="none" fill="#000000" fill-rule="evenodd" /><path id="390" transform="matrix(1 0 0 -1 0 841)" d="M319.08 575.21L366.624 575.21L366.624 575.21L366.624 575.69L366.624 575.69L319.08 575.69z" stroke="none" fill="#000000" fill-rule="evenodd" /><path id="391" transform="matrix(1 0 0 -1 0 841)" d="M366.62 575.69L367.1 575.69L367.1 575.69L367.1 591.77L367.1 591.77L366.62 591.77z" stroke="none" fill="#000000" fill-rule="evenodd" /><path id="392" transform="matrix(1 0 0 -1 0 841)" d="M366.62 575.21L367.1 575.21L367.1 575.21L367.1 575.69L367.1 575.69L366.62 575.69z" stroke="none" fill="#000000" fill-rule="evenodd" /><path id="393" transform="matrix(1 0 0 -1 0 841)" d="M367.1 575.21L414.644 575.21L414.644 575.21L414.644 575.69L414.644 575.69L367.1 575.69z" stroke="none" fill="#000000" fill-rule="evenodd" /><path id="394" transform="matrix(1 0 0 -1 0 841)" d="M414.65 575.69L415.13 575.69L415.13 575.69L415.13 591.77L415.13 591.77L414.65 591.77z" stroke="none" fill="#000000" fill-rule="evenodd" /><path id="395" transform="matrix(1 0 0 -1 0 841)" d="M414.65 575.21L415.13 575.21L415.13 575.21L415.13 575.69L415.13 575.69L414.65 575.69z" stroke="none" fill="#000000" fill-rule="evenodd" /><path id="396" transform="matrix(1 0 0 -1 0 841)" d="M415.13 575.21L462.65 575.21L462.65 575.21L462.65 575.69L462.65 575.69L415.13 575.69z" stroke="none" fill="#000000" fill-rule="evenodd" /><path id="397" transform="matrix(1 0 0 -1 0 841)" d="M462.65 575.69L463.13 575.69L463.13 575.69L463.13 591.77L463.13 591.77L462.65 591.77z" stroke="none" fill="#000000" fill-rule="evenodd" /><path id="398" transform="matrix(1 0 0 -1 0 841)" d="M462.65 575.21L463.13 575.21L463.13 575.21L463.13 575.69L463.13 575.69L462.65 575.69z" stroke="none" fill="#000000" fill-rule="evenodd" /><path id="399" transform="matrix(1 0 0 -1 0 841)" d="M462.65 575.21L463.13 575.21L463.13 575.21L463.13 575.69L463.13 575.69L462.65 575.69z" stroke="none" fill="#000000" fill-rule="evenodd" /></g></g></svg>