<svg xmlns="http://www.w3.org/2000/svg" xmlns:xlink="http://www.w3.org/1999/xlink" id="body_12" preserveAspectRatio="xMinYMin meet" viewBox="0 0 793 1121"><defs><clipPath id="1"><path id="" clip-rule="evenodd" transform="matrix(1 0 0 1 0 0)" d="M0 841L0 -0.9199829L0 -0.9199829L595.2 -0.9199829L595.2 -0.9199829L595.2 841L595.2 841L0 841z" /></clipPath><clipPath id="2"><path id="" clip-rule="evenodd" transform="matrix(1 0 0 1 0 0)" d="M172.56 255.88L465.12 255.88L465.12 255.88L465.12 55.71997L465.12 55.71997L172.56 55.71997z" /></clipPath><clipPath id="3"><path id="" clip-rule="evenodd" transform="matrix(1 0 0 1 0 0)" d="M172.56 255.88L465.12 255.88L465.12 255.88L465.12 55.71997L465.12 55.71997L172.56 55.71997z" /></clipPath><clipPath id="4"><path id="" clip-rule="evenodd" transform="matrix(1 0 0 1 0 0)" d="M172.56 255.88L465.12 255.88L465.12 255.88L465.12 55.71997L465.12 55.71997L172.56 55.71997z" /></clipPath><clipPath id="5"><path id="" clip-rule="evenodd" transform="matrix(1 0 0 1 0 0)" d="M172.56 255.88L465.12 255.88L465.12 255.88L465.12 55.71997L465.12 55.71997L172.56 55.71997z" /></clipPath><clipPath id="6"><path id="" clip-rule="evenodd" transform="matrix(1 0 0 1 0 0)" d="M172.56 255.88L465.12 255.88L465.12 255.88L465.12 55.71997L465.12 55.71997L172.56 55.71997z" /></clipPath><clipPath id="7"><path id="" clip-rule="evenodd" transform="matrix(1 0 0 1 0 0)" d="M172.56 255.88L465.12 255.88L465.12 255.88L465.12 55.71997L465.12 55.71997L172.56 55.71997z" /></clipPath><clipPath id="8"><path id="" clip-rule="evenodd" transform="matrix(1 0 0 1 0 0)" d="M172.56 255.88L465.12 255.88L465.12 255.88L465.12 55.71997L465.12 55.71997L172.56 55.71997z" /></clipPath><clipPath id="9"><path id="" clip-rule="evenodd" transform="matrix(1 0 0 1 0 0)" d="M172.56 255.88L465.12 255.88L465.12 255.88L465.12 55.71997L465.12 55.71997L172.56 55.71997z" /></clipPath><clipPath id="10"><path id="" clip-rule="evenodd" transform="matrix(1 0 0 1 0 0)" d="M172.56 255.88L465.12 255.88L465.12 255.88L465.12 55.71997L465.12 55.71997L172.56 55.71997z" /></clipPath><clipPath id="11"><path id="" clip-rule="evenodd" transform="matrix(1 0 0 1 0 0)" d="M172.56 255.88L465.12 255.88L465.12 255.88L465.12 55.71997L465.12 55.71997L172.56 55.71997z" /></clipPath><clipPath id="12"><path id="" clip-rule="evenodd" transform="matrix(1 0 0 1 0 0)" d="M172.56 255.88L465.12 255.88L465.12 255.88L465.12 55.71997L465.12 55.71997L172.56 55.71997z" /></clipPath><clipPath id="13"><path id="" clip-rule="evenodd" transform="matrix(1 0 0 1 0 0)" d="M172.56 255.88L465.12 255.88L465.12 255.88L465.12 55.71997L465.12 55.71997L172.56 55.71997z" /></clipPath><clipPath id="14"><path id="" clip-rule="evenodd" transform="matrix(1 0 0 1 0 0)" d="M172.56 255.88L465.12 255.88L465.12 255.88L465.12 55.71997L465.12 55.71997L172.56 55.71997z" /></clipPath><clipPath id="15"><path id="" clip-rule="evenodd" transform="matrix(1 0 0 1 0 0)" d="M172.56 255.88L465.12 255.88L465.12 255.88L465.12 55.71997L465.12 55.71997L172.56 55.71997z" /></clipPath><clipPath id="16"><path id="" clip-rule="evenodd" transform="matrix(1 0 0 1 0 0)" d="M172.56 255.88L465.12 255.88L465.12 255.88L465.12 55.71997L465.12 55.71997L172.56 55.71997z" /></clipPath><clipPath id="17"><path id="" clip-rule="evenodd" transform="matrix(1 0 0 1 0 0)" d="M172.56 255.88L465.12 255.88L465.12 255.88L465.12 55.71997L465.12 55.71997L172.56 55.71997z" /></clipPath><clipPath id="18"><path id="" clip-rule="evenodd" transform="matrix(1 0 0 1 0 0)" d="M172.56 255.88L465.12 255.88L465.12 255.88L465.12 55.71997L465.12 55.71997L172.56 55.71997z" /></clipPath><clipPath id="19"><path id="" clip-rule="evenodd" transform="matrix(1 0 0 1 0 0)" d="M172.56 255.88L465.12 255.88L465.12 255.88L465.12 55.71997L465.12 55.71997L172.56 55.71997z" /></clipPath><clipPath id="20"><path id="" clip-rule="evenodd" transform="matrix(1 0 0 1 0 0)" d="M172.56 705.16L465.12 705.16L465.12 705.16L465.12 486.28L465.12 486.28L172.56 486.28z" /></clipPath><clipPath id="21"><path id="" clip-rule="evenodd" transform="matrix(1 0 0 1 0 0)" d="M172.56 705.16L465.12 705.16L465.12 705.16L465.12 486.28L465.12 486.28L172.56 486.28z" /></clipPath><clipPath id="22"><path id="" clip-rule="evenodd" transform="matrix(1 0 0 1 0 0)" d="M172.56 705.16L465.12 705.16L465.12 705.16L465.12 486.28L465.12 486.28L172.56 486.28z" /></clipPath><clipPath id="23"><path id="" clip-rule="evenodd" transform="matrix(1 0 0 1 0 0)" d="M172.56 705.16L465.12 705.16L465.12 705.16L465.12 486.28L465.12 486.28L172.56 486.28z" /></clipPath><clipPath id="24"><path id="" clip-rule="evenodd" transform="matrix(1 0 0 1 0 0)" d="M172.56 705.16L465.12 705.16L465.12 705.16L465.12 486.28L465.12 486.28L172.56 486.28z" /></clipPath><clipPath id="25"><path id="" clip-rule="evenodd" transform="matrix(1 0 0 1 0 0)" d="M172.56 705.16L465.12 705.16L465.12 705.16L465.12 486.28L465.12 486.28L172.56 486.28z" /></clipPath><clipPath id="26"><path id="" clip-rule="evenodd" transform="matrix(1 0 0 1 0 0)" d="M172.56 705.16L465.12 705.16L465.12 705.16L465.12 486.28L465.12 486.28L172.56 486.28z" /></clipPath><clipPath id="27"><path id="" clip-rule="evenodd" transform="matrix(1 0 0 1 0 0)" d="M172.56 705.16L465.12 705.16L465.12 705.16L465.12 486.28L465.12 486.28L172.56 486.28z" /></clipPath><clipPath id="28"><path id="" clip-rule="evenodd" transform="matrix(1 0 0 1 0 0)" d="M172.56 705.16L465.12 705.16L465.12 705.16L465.12 486.28L465.12 486.28L172.56 486.28z" /></clipPath><clipPath id="29"><path id="" clip-rule="evenodd" transform="matrix(1 0 0 1 0 0)" d="M172.56 705.16L465.12 705.16L465.12 705.16L465.12 486.28L465.12 486.28L172.56 486.28z" /></clipPath><clipPath id="30"><path id="" clip-rule="evenodd" transform="matrix(1 0 0 1 0 0)" d="M172.56 705.16L465.12 705.16L465.12 705.16L465.12 486.28L465.12 486.28L172.56 486.28z" /></clipPath><clipPath id="31"><path id="" clip-rule="evenodd" transform="matrix(1 0 0 1 0 0)" d="M172.56 705.16L465.12 705.16L465.12 705.16L465.12 486.28L465.12 486.28L172.56 486.28z" /></clipPath><clipPath id="32"><path id="" clip-rule="evenodd" transform="matrix(1 0 0 1 0 0)" d="M172.56 705.16L465.12 705.16L465.12 705.16L465.12 486.28L465.12 486.28L172.56 486.28z" /></clipPath><clipPath id="33"><path id="" clip-rule="evenodd" transform="matrix(1 0 0 1 0 0)" d="M172.56 705.16L465.12 705.16L465.12 705.16L465.12 486.28L465.12 486.28L172.56 486.28z" /></clipPath><clipPath id="34"><path id="" clip-rule="evenodd" transform="matrix(1 0 0 1 0 0)" d="M172.56 705.16L465.12 705.16L465.12 705.16L465.12 486.28L465.12 486.28L172.56 486.28z" /></clipPath><clipPath id="35"><path id="" clip-rule="evenodd" transform="matrix(1 0 0 1 0 0)" d="M172.56 705.16L465.12 705.16L465.12 705.16L465.12 486.28L465.12 486.28L172.56 486.28z" /></clipPath><clipPath id="36"><path id="" clip-rule="evenodd" transform="matrix(1 0 0 1 0 0)" d="M172.56 705.16L465.12 705.16L465.12 705.16L465.12 486.28L465.12 486.28L172.56 486.28z" /></clipPath></defs><g transform="matrix(1.333333 0 0 1.333333 0 0)"><g clip-path="url(#1)"><path id="852" transform="matrix(1 0 0 -1 0 841)" d="M172.56 585.12L465.12 585.12L465.12 585.12L465.12 785.28L465.12 785.28L172.56 785.28z" stroke="none" fill="#FFFFFF" fill-rule="evenodd" /><path id="853" transform="matrix(1 0 0 -1 0 841)" d="M201.96 770.52L455.64 770.52M201.96 744.6L455.64 744.6M201.96 718.68L455.64 718.68M201.96 692.76L455.64 692.76M201.96 666.84L455.64 666.84M201.96 640.92L455.64 640.92" stroke="#000000" stroke-width="0.72" fill="none" /><path id="854" transform="matrix(1 0 0 -1 0 841)" d="M455.64 770.52L455.64 615M413.4 770.52L413.4 615M371.16 770.52L371.16 615M328.92 770.52L328.92 615M286.44 770.52L286.44 615M244.2 770.52L244.2 615" stroke="#000000" stroke-width="0.72" fill="none" /><path id="855" transform="matrix(1 0 0 -1 0 841)" d="M201.96 615L201.96 770.52" stroke="#000000" stroke-width="0.72" fill="none" /><path id="856" transform="matrix(1 0 0 -1 0 841)" d="M201.96 615L455.64 615" stroke="#000000" stroke-width="0.72" fill="none" /><path id="857" transform="matrix(1 0 0 -1 0 841)" d="M246.84 679.74C 246.84 678.35 245.71 677.22 244.32 677.22C 242.92 677.22 241.8 678.35 241.8 679.74C 241.8 681.13 242.92 682.26 244.32 682.26C 245.71 682.26 246.84 681.13 246.84 679.74z" stroke="none" fill="#000000" fill-rule="nonzero" /><path id="858" transform="matrix(1 0 0 -1 0 841)" d="M246.84 679.74C 246.84 678.35 245.71 677.22 244.32 677.22C 242.92 677.22 241.8 678.35 241.8 679.74C 241.8 681.13 242.92 682.26 244.32 682.26C 245.71 682.26 246.84 681.13 246.84 679.74z" stroke="#000000" stroke-width="0.75" fill="none" /><path id="859" transform="matrix(1 0 0 -1 0 841)" d="M289.08 718.62C 289.08 717.23 287.95 716.1 286.56 716.1C 285.16 716.1 284.04 717.23 284.04 718.62C 284.04 720.01 285.16 721.14 286.56 721.14C 287.95 721.14 289.08 720.01 289.08 718.62z" stroke="none" fill="#000000" fill-rule="nonzero" /><path id="860" transform="matrix(1 0 0 -1 0 841)" d="M289.08 718.62C 289.08 717.23 287.95 716.1 286.56 716.1C 285.16 716.1 284.04 717.23 284.04 718.62C 284.04 720.01 285.16 721.14 286.56 721.14C 287.95 721.14 289.08 720.01 289.08 718.62z" stroke="#000000" stroke-width="0.75" fill="none" /><path id="861" transform="matrix(1 0 0 -1 0 841)" d="M331.56 705.66C 331.56 704.27 330.43 703.14 329.04 703.14C 327.64 703.14 326.52 704.27 326.52 705.66C 326.52 707.05 327.64 708.18 329.04 708.18C 330.43 708.18 331.56 707.05 331.56 705.66z" stroke="none" fill="#000000" fill-rule="nonzero" /><path id="862" transform="matrix(1 0 0 -1 0 841)" d="M331.56 705.66C 331.56 704.27 330.43 703.14 329.04 703.14C 327.64 703.14 326.52 704.27 326.52 705.66C 326.52 707.05 327.64 708.18 329.04 708.18C 330.43 708.18 331.56 707.05 331.56 705.66z" stroke="#000000" stroke-width="0.75" fill="none" /><path id="863" transform="matrix(1 0 0 -1 0 841)" d="M373.8 744.54C 373.8 743.15 372.67 742.02 371.28 742.02C 369.88 742.02 368.76 743.15 368.76 744.54C 368.76 745.93 369.88 747.06 371.28 747.06C 372.67 747.06 373.8 745.93 373.8 744.54z" stroke="none" fill="#000000" fill-rule="nonzero" /><path id="864" transform="matrix(1 0 0 -1 0 841)" d="M373.8 744.54C 373.8 743.15 372.67 742.02 371.28 742.02C 369.88 742.02 368.76 743.15 368.76 744.54C 368.76 745.93 369.88 747.06 371.28 747.06C 372.67 747.06 373.8 745.93 373.8 744.54z" stroke="#000000" stroke-width="0.75" fill="none" /><path id="865" transform="matrix(1 0 0 -1 0 841)" d="M416.04 757.5C 416.04 756.11 414.91 754.98 413.52 754.98C 412.12 754.98 411 756.11 411 757.5C 411 758.89 412.12 760.02 413.52 760.02C 414.91 760.02 416.04 758.89 416.04 757.5z" stroke="none" fill="#000000" fill-rule="nonzero" /><path id="866" transform="matrix(1 0 0 -1 0 841)" d="M416.04 757.5C 416.04 756.11 414.91 754.98 413.52 754.98C 412.12 754.98 411 756.11 411 757.5C 411 758.89 412.12 760.02 413.52 760.02C 414.91 760.02 416.04 758.89 416.04 757.5z" stroke="#000000" stroke-width="0.75" fill="none" /><path id="867" transform="matrix(1 0 0 -1 0 841)" d="M244.08 678.72L244.56 679.2L244.56 679.2L245.28 679.68L245.28 679.68L245.76 680.16L245.76 680.16L246.24 680.64L246.24 680.64L246.72 681.12L246.72 681.12L247.2 681.84L247.2 681.84L247.68 682.32L247.68 682.32L248.16 682.8L248.16 682.8L248.64 683.28L248.64 683.28L249.12 683.76L249.12 683.76L249.6 684L249.6 684L250.08 684.48L250.08 684.48L250.8 684.96L250.8 684.96L251.28 685.44L251.28 685.44L251.76 685.92L251.76 685.92L252.24 686.4L252.24 686.4L252.72 686.88L252.72 686.88L253.2 687.36L253.2 687.36L253.68 687.6L253.68 687.6L254.16 688.08L254.16 688.08L254.64 688.56L254.64 688.56L255.12 689.04L255.12 689.04L255.6 689.28L255.6 689.28L256.08 689.76L256.08 689.76L256.8 690.24L256.8 690.24L257.28 690.48L257.28 690.48L257.76 690.96L257.76 690.96L258.24 691.44L258.24 691.44L258.72 691.68L258.72 691.68L259.2 692.16L259.2 692.16L259.68 692.64L259.68 692.64L260.16 692.88L260.16 692.88L260.64 693.36L260.64 693.36L261.12 693.6L261.12 693.6L261.6 694.08L261.6 694.08L262.08 694.56L262.08 694.56L262.8 694.8L262.8 694.8L263.28 695.28L263.28 695.28L263.76 695.52L263.76 695.52L264.24 696L264.24 696L264.72 696.24L264.72 696.24L265.2 696.72L265.2 696.72L265.68 696.96L265.68 696.96L266.16 697.2L266.16 697.2L266.64 697.68L266.64 697.68L267.12 697.92L267.12 697.92L267.6 698.4L267.6 698.4L268.32 698.64L268.32 698.64L268.8 698.88" stroke="#000000" stroke-width="0.96" stroke-linecap="round" fill="none" /><path id="868" transform="matrix(1 0 0 -1 0 841)" d="M268.8 698.88L269.28 699.36L269.28 699.36L269.76 699.6L269.76 699.6L270.24 700.08L270.24 700.08L270.72 700.32L270.72 700.32L271.2 700.56L271.2 700.56L271.68 701.04L271.68 701.04L272.16 701.28L272.16 701.28L272.64 701.52L272.64 701.52L273.12 702L273.12 702L273.6 702.24L273.6 702.24L274.32 702.48L274.32 702.48L274.8 702.72L274.8 702.72L275.28 703.2L275.28 703.2L275.76 703.44L275.76 703.44L276.24 703.68L276.24 703.68L276.72 703.92L276.72 703.92L277.2 704.4L277.2 704.4L277.68 704.64L277.68 704.64L278.16 704.88L278.16 704.88L278.64 705.12L278.64 705.12L279.12 705.6L279.12 705.6L279.84 705.84L279.84 705.84L280.32 706.08L280.32 706.08L280.8 706.32L280.8 706.32L281.28 706.56L281.28 706.56L281.76 706.8L281.76 706.8L282.24 707.28L282.24 707.28L282.72 707.52L282.72 707.52L283.2 707.76L283.2 707.76L283.68 708L283.68 708L284.16 708.24L284.16 708.24L284.64 708.48L284.64 708.48L285.12 708.72L285.12 708.72L285.84 709.2L285.84 709.2L286.32 709.44L286.32 709.44L286.8 709.68L286.8 709.68L287.28 709.92L287.28 709.92L287.76 710.16L287.76 710.16L288.24 710.4L288.24 710.4L288.72 710.64L288.72 710.64L289.2 710.88L289.2 710.88L289.68 711.12L289.68 711.12L290.16 711.36L290.16 711.36L290.64 711.6L290.64 711.6L291.36 711.84L291.36 711.84L291.84 712.08L291.84 712.08L292.32 712.32L292.32 712.32L292.8 712.56L292.8 712.56L293.28 712.8" stroke="#000000" stroke-width="0.96" stroke-linecap="round" fill="none" /><path id="869" transform="matrix(1 0 0 -1 0 841)" d="M293.28 712.8L293.76 713.04L293.76 713.04L294.24 713.28L294.24 713.28L294.72 713.52L294.72 713.52L295.2 713.76L295.2 713.76L295.68 714L295.68 714L296.16 714.24L296.16 714.24L296.64 714.48L296.64 714.48L297.36 714.72L297.36 714.72L297.84 714.96L297.84 714.96L298.32 715.2L298.32 715.2L298.8 715.44L298.8 715.44L299.28 715.68L299.28 715.68L299.76 715.92L299.76 715.92L300.24 716.16L300.24 716.16L300.72 716.4L300.72 716.4L301.2 716.64L301.2 716.64L301.68 716.88L301.68 716.88L302.16 717.12L302.16 717.12L302.88 717.36L302.88 717.36L303.36 717.6L303.36 717.6L303.84 717.84L303.84 717.84L304.32 717.84L304.32 717.84L304.8 718.08L304.8 718.08L305.28 718.32L305.28 718.32L305.76 718.56L305.76 718.56L306.24 718.8L306.24 718.8L306.72 719.04L306.72 719.04L307.2 719.28L307.2 719.28L307.68 719.52L307.68 719.52L308.16 719.76L308.16 719.76L308.88 719.76L308.88 719.76L309.36 720L309.36 720L309.84 720.24L309.84 720.24L310.32 720.48L310.32 720.48L310.8 720.72L310.8 720.72L311.28 720.96L311.28 720.96L311.76 721.2L311.76 721.2L312.24 721.2L312.24 721.2L312.72 721.44L312.72 721.44L313.2 721.68L313.2 721.68L313.68 721.92L313.68 721.92L314.16 722.16L314.16 722.16L314.88 722.4L314.88 722.4L315.36 722.4L315.36 722.4L315.84 722.64L315.84 722.64L316.32 722.88L316.32 722.88L316.8 723.12L316.8 723.12L317.28 723.36L317.28 723.36L317.76 723.36" stroke="#000000" stroke-width="0.96" stroke-linecap="round" fill="none" /><path id="870" transform="matrix(1 0 0 -1 0 841)" d="M317.76 723.36L318.24 723.6L318.24 723.6L318.72 723.84L318.72 723.84L319.2 724.08L319.2 724.08L319.68 724.32L319.68 724.32L320.4 724.32L320.4 724.32L320.88 724.56L320.88 724.56L321.36 724.8L321.36 724.8L321.84 725.04L321.84 725.04L322.32 725.04L322.32 725.04L322.8 725.28L322.8 725.28L323.28 725.52L323.28 725.52L323.76 725.76L323.76 725.76L324.24 726L324.24 726L324.72 726L324.72 726L325.2 726.24L325.2 726.24L325.68 726.48L325.68 726.48L326.4 726.72L326.4 726.72L326.88 726.72L326.88 726.72L327.36 726.96L327.36 726.96L327.84 727.2L327.84 727.2L328.32 727.2L328.32 727.2L328.8 727.44L328.8 727.44L329.28 727.68L329.28 727.68L329.76 727.92L329.76 727.92L330.24 727.92L330.24 727.92L330.72 728.16L330.72 728.16L331.2 728.4L331.2 728.4L331.92 728.64L331.92 728.64L332.4 728.64L332.4 728.64L332.88 728.88L332.88 728.88L333.36 729.12L333.36 729.12L333.84 729.12L333.84 729.12L334.32 729.36L334.32 729.36L334.8 729.6L334.8 729.6L335.28 729.6L335.28 729.6L335.76 729.84L335.76 729.84L336.24 730.08L336.24 730.08L336.72 730.32L336.72 730.32L337.2 730.32L337.2 730.32L337.92 730.56L337.92 730.56L338.4 730.8L338.4 730.8L338.88 730.8L338.88 730.8L339.36 731.04L339.36 731.04L339.84 731.28L339.84 731.28L340.32 731.28L340.32 731.28L340.8 731.52L340.8 731.52L341.28 731.76L341.28 731.76L341.76 731.76L341.76 731.76L342.24 732" stroke="#000000" stroke-width="0.96" stroke-linecap="round" fill="none" /><path id="871" transform="matrix(1 0 0 -1 0 841)" d="M342.24 732L342.72 732.24L342.72 732.24L343.44 732.24L343.44 732.24L343.92 732.48L343.92 732.48L344.4 732.72L344.4 732.72L344.88 732.72L344.88 732.72L345.36 732.96L345.36 732.96L345.84 733.2L345.84 733.2L346.32 733.2L346.32 733.2L346.8 733.44L346.8 733.44L347.28 733.44L347.28 733.44L347.76 733.68L347.76 733.68L348.24 733.92L348.24 733.92L348.72 733.92L348.72 733.92L349.44 734.16L349.44 734.16L349.92 734.4L349.92 734.4L350.4 734.4L350.4 734.4L350.88 734.64L350.88 734.64L351.36 734.64L351.36 734.64L351.84 734.88L351.84 734.88L352.32 735.12L352.32 735.12L352.8 735.12L352.8 735.12L353.28 735.36L353.28 735.36L353.76 735.6L353.76 735.6L354.24 735.6L354.24 735.6L354.96 735.84L354.96 735.84L355.44 735.84L355.44 735.84L355.92 736.08L355.92 736.08L356.4 736.32L356.4 736.32L356.88 736.32L356.88 736.32L357.36 736.56L357.36 736.56L357.84 736.56L357.84 736.56L358.32 736.8L358.32 736.8L358.8 737.04L358.8 737.04L359.28 737.04L359.28 737.04L359.76 737.28L359.76 737.28L360.24 737.28L360.24 737.28L360.96 737.52L360.96 737.52L361.44 737.52L361.44 737.52L361.92 737.76L361.92 737.76L362.4 738L362.4 738L362.88 738L362.88 738L363.36 738.24L363.36 738.24L363.84 738.24L363.84 738.24L364.32 738.48L364.32 738.48L364.8 738.72L364.8 738.72L365.28 738.72L365.28 738.72L365.76 738.96L365.76 738.96L366.24 738.96L366.24 738.96L366.96 739.2" stroke="#000000" stroke-width="0.96" stroke-linecap="round" fill="none" /><path id="872" transform="matrix(1 0 0 -1 0 841)" d="M366.96 739.2L367.44 739.2L367.44 739.2L367.92 739.44L367.92 739.44L368.4 739.44L368.4 739.44L368.88 739.68L368.88 739.68L369.36 739.92L369.36 739.92L369.84 739.92L369.84 739.92L370.32 740.16L370.32 740.16L370.8 740.16L370.8 740.16L371.28 740.4L371.28 740.4L371.76 740.4L371.76 740.4L372.48 740.64L372.48 740.64L372.96 740.64L372.96 740.64L373.44 740.88L373.44 740.88L373.92 740.88L373.92 740.88L374.4 741.12L374.4 741.12L374.88 741.36L374.88 741.36L375.36 741.36L375.36 741.36L375.84 741.6L375.84 741.6L376.32 741.6L376.32 741.6L376.8 741.84L376.8 741.84L377.28 741.84L377.28 741.84L377.76 742.08L377.76 742.08L378.48 742.08L378.48 742.08L378.96 742.32L378.96 742.32L379.44 742.32L379.44 742.32L379.92 742.56L379.92 742.56L380.4 742.56L380.4 742.56L380.88 742.8L380.88 742.8L381.36 742.8L381.36 742.8L381.84 743.04L381.84 743.04L382.32 743.04L382.32 743.04L382.8 743.28L382.8 743.28L383.28 743.28L383.28 743.28L384 743.52L384 743.52L384.48 743.52L384.48 743.52L384.96 743.76L384.96 743.76L385.44 743.76L385.44 743.76L385.92 744L385.92 744L386.4 744L386.4 744L386.88 744.24L386.88 744.24L387.36 744.24L387.36 744.24L387.84 744.48L387.84 744.48L388.32 744.48L388.32 744.48L388.8 744.72L388.8 744.72L389.28 744.72L389.28 744.72L390 744.96L390 744.96L390.48 744.96L390.48 744.96L390.96 745.2L390.96 745.2L391.44 745.2" stroke="#000000" stroke-width="0.96" stroke-linecap="round" fill="none" /><path id="873" transform="matrix(1 0 0 -1 0 841)" d="M391.44 745.2L391.92 745.44L391.92 745.44L392.4 745.44L392.4 745.44L392.88 745.68L392.88 745.68L393.36 745.68L393.36 745.68L393.84 745.92L393.84 745.92L394.32 745.92L394.32 745.92L394.8 746.16L394.8 746.16L395.52 746.16L395.52 746.16L396 746.4L396 746.4L396.48 746.4L396.48 746.4L396.96 746.64L396.96 746.64L397.44 746.64L397.44 746.64L397.92 746.88L397.92 746.88L398.4 746.88L398.4 746.88L398.88 747.12L398.88 747.12L399.36 747.12L399.36 747.12L399.84 747.36L399.84 747.36L400.32 747.36L400.32 747.36L400.8 747.6L400.8 747.6L401.52 747.6L401.52 747.6L402 747.6L402 747.6L402.48 747.84L402.48 747.84L402.96 747.84L402.96 747.84L403.44 748.08L403.44 748.08L403.92 748.08L403.92 748.08L404.4 748.32L404.4 748.32L404.88 748.32L404.88 748.32L405.36 748.56L405.36 748.56L405.84 748.56L405.84 748.56L406.32 748.8L406.32 748.8L407.04 748.8L407.04 748.8L407.52 748.8L407.52 748.8L408 749.04L408 749.04L408.48 749.04L408.48 749.04L408.96 749.28L408.96 749.28L409.44 749.28L409.44 749.28L409.92 749.52L409.92 749.52L410.4 749.52L410.4 749.52L410.88 749.76L410.88 749.76L411.36 749.76L411.36 749.76L411.84 749.76L411.84 749.76L412.32 750L412.32 750L413.04 750L413.04 750L413.52 750.24" stroke="#000000" stroke-width="0.96" stroke-linecap="round" fill="none" /><g clip-path="url(#2)"></g><g clip-path="url(#3)"></g><g clip-path="url(#4)"></g><g clip-path="url(#5)"></g><g clip-path="url(#6)"></g><g clip-path="url(#7)"></g><g clip-path="url(#8)"></g><g clip-path="url(#9)"></g><g clip-path="url(#10)"></g><g clip-path="url(#11)"></g><g clip-path="url(#12)"></g><g clip-path="url(#13)"></g><g clip-path="url(#14)"></g><g clip-path="url(#15)"></g><path id="888" transform="matrix(1 0 0 -1 0 841)" d="M179.7 762.78L191.47 762.78L191.47 762.78L191.47 780.725L191.47 780.725L179.7 780.725z" stroke="none" fill="#FFFFFF" fill-rule="evenodd" /><g clip-path="url(#16)"></g><g clip-path="url(#17)"></g><path id="890" transform="matrix(1 0 0 -1 0 841)" d="M447.84 593.71L459.61 593.71L459.61 593.71L459.61 611.655L459.61 611.655L447.84 611.655z" stroke="none" fill="#FFFFFF" fill-rule="evenodd" /><g clip-path="url(#18)"></g><g clip-path="url(#19)"></g><path id="892" transform="matrix(1 0 0 -1 0 841)" d="M172.56 135.84L465.12 135.84L465.12 135.84L465.12 354.72L465.12 354.72L172.56 354.72z" stroke="none" fill="#FFFFFF" fill-rule="evenodd" /><path id="893" transform="matrix(1 0 0 -1 0 841)" d="M201.96 338.52L455.64 338.52M201.96 306.6L455.64 306.6M201.96 274.92L455.64 274.92M201.96 243.24L455.64 243.24M201.96 211.32L455.64 211.32" stroke="#000000" stroke-width="0.72" fill="none" /><path id="894" transform="matrix(1 0 0 -1 0 841)" d="M455.64 338.52L455.64 179.64M413.4 338.52L413.4 179.64M371.16 338.52L371.16 179.64M328.92 338.52L328.92 179.64M286.44 338.52L286.44 179.64M244.2 338.52L244.2 179.64" stroke="#000000" stroke-width="0.72" fill="none" /><path id="895" transform="matrix(1 0 0 -1 0 841)" d="M201.96 179.64L201.96 338.52" stroke="#000000" stroke-width="0.72" fill="none" /><path id="896" transform="matrix(1 0 0 -1 0 841)" d="M201.96 179.64L455.64 179.64" stroke="#000000" stroke-width="0.72" fill="none" /><path id="897" transform="matrix(1 0 0 -1 0 841)" d="M246.36 243.26C 246.36 242.13 245.44 241.22 244.32 241.22C 243.19 241.22 242.28 242.13 242.28 243.26C 242.28 244.39 243.19 245.3 244.32 245.3C 245.44 245.3 246.36 244.39 246.36 243.26z" stroke="none" fill="#000000" fill-rule="nonzero" /><path id="898" transform="matrix(1 0 0 -1 0 841)" d="M246.36 243.26C 246.36 242.13 245.44 241.22 244.32 241.22C 243.19 241.22 242.28 242.13 242.28 243.26C 242.28 244.39 243.19 245.3 244.32 245.3C 245.44 245.3 246.36 244.39 246.36 243.26z" stroke="#000000" stroke-width="0.75" fill="none" /><path id="899" transform="matrix(1 0 0 -1 0 841)" d="M267.48 239.9C 267.48 238.77 266.56 237.86 265.44 237.86C 264.31 237.86 263.4 238.77 263.4 239.9C 263.4 241.03 264.31 241.94 265.44 241.94C 266.56 241.94 267.48 241.03 267.48 239.9z" stroke="none" fill="#000000" fill-rule="nonzero" /><path id="900" transform="matrix(1 0 0 -1 0 841)" d="M267.48 239.9C 267.48 238.77 266.56 237.86 265.44 237.86C 264.31 237.86 263.4 238.77 263.4 239.9C 263.4 241.03 264.31 241.94 265.44 241.94C 266.56 241.94 267.48 241.03 267.48 239.9z" stroke="#000000" stroke-width="0.75" fill="none" /><path id="901" transform="matrix(1 0 0 -1 0 841)" d="M288.6 259.1C 288.6 257.97 287.68 257.06 286.56 257.06C 285.43 257.06 284.52 257.97 284.52 259.1C 284.52 260.23 285.43 261.14 286.56 261.14C 287.68 261.14 288.6 260.23 288.6 259.1z" stroke="none" fill="#000000" fill-rule="nonzero" /><path id="902" transform="matrix(1 0 0 -1 0 841)" d="M288.6 259.1C 288.6 257.97 287.68 257.06 286.56 257.06C 285.43 257.06 284.52 257.97 284.52 259.1C 284.52 260.23 285.43 261.14 286.56 261.14C 287.68 261.14 288.6 260.23 288.6 259.1z" stroke="#000000" stroke-width="0.75" fill="none" /><path id="903" transform="matrix(1 0 0 -1 0 841)" d="M309.72 255.74C 309.72 254.61 308.8 253.7 307.68 253.7C 306.55 253.7 305.64 254.61 305.64 255.74C 305.64 256.87 306.55 257.78 307.68 257.78C 308.8 257.78 309.72 256.87 309.72 255.74z" stroke="none" fill="#000000" fill-rule="nonzero" /><path id="904" transform="matrix(1 0 0 -1 0 841)" d="M309.72 255.74C 309.72 254.61 308.8 253.7 307.68 253.7C 306.55 253.7 305.64 254.61 305.64 255.74C 305.64 256.87 306.55 257.78 307.68 257.78C 308.8 257.78 309.72 256.87 309.72 255.74z" stroke="#000000" stroke-width="0.75" fill="none" /><path id="905" transform="matrix(1 0 0 -1 0 841)" d="M331.08 274.94C 331.08 273.81 330.16 272.9 329.04 272.9C 327.91 272.9 327 273.81 327 274.94C 327 276.07 327.91 276.98 329.04 276.98C 330.16 276.98 331.08 276.07 331.08 274.94z" stroke="none" fill="#000000" fill-rule="nonzero" /><path id="906" transform="matrix(1 0 0 -1 0 841)" d="M331.08 274.94C 331.08 273.81 330.16 272.9 329.04 272.9C 327.91 272.9 327 273.81 327 274.94C 327 276.07 327.91 276.98 329.04 276.98C 330.16 276.98 331.08 276.07 331.08 274.94z" stroke="#000000" stroke-width="0.75" fill="none" /><path id="907" transform="matrix(1 0 0 -1 0 841)" d="M352.2 271.82C 352.2 270.69 351.28 269.78 350.16 269.78C 349.03 269.78 348.12 270.69 348.12 271.82C 348.12 272.95 349.03 273.86 350.16 273.86C 351.28 273.86 352.2 272.95 352.2 271.82z" stroke="none" fill="#000000" fill-rule="nonzero" /><path id="908" transform="matrix(1 0 0 -1 0 841)" d="M352.2 271.82C 352.2 270.69 351.28 269.78 350.16 269.78C 349.03 269.78 348.12 270.69 348.12 271.82C 348.12 272.95 349.03 273.86 350.16 273.86C 351.28 273.86 352.2 272.95 352.2 271.82z" stroke="#000000" stroke-width="0.75" fill="none" /><path id="909" transform="matrix(1 0 0 -1 0 841)" d="M373.32 290.78C 373.32 289.65 372.4 288.74 371.28 288.74C 370.15 288.74 369.24 289.65 369.24 290.78C 369.24 291.91 370.15 292.82 371.28 292.82C 372.4 292.82 373.32 291.91 373.32 290.78z" stroke="none" fill="#000000" fill-rule="nonzero" /><path id="910" transform="matrix(1 0 0 -1 0 841)" d="M373.32 290.78C 373.32 289.65 372.4 288.74 371.28 288.74C 370.15 288.74 369.24 289.65 369.24 290.78C 369.24 291.91 370.15 292.82 371.28 292.82C 372.4 292.82 373.32 291.91 373.32 290.78z" stroke="#000000" stroke-width="0.75" fill="none" /><path id="911" transform="matrix(1 0 0 -1 0 841)" d="M394.44 287.66C 394.44 286.53 393.52 285.62 392.4 285.62C 391.27 285.62 390.36 286.53 390.36 287.66C 390.36 288.79 391.27 289.7 392.4 289.7C 393.52 289.7 394.44 288.79 394.44 287.66z" stroke="none" fill="#000000" fill-rule="nonzero" /><path id="912" transform="matrix(1 0 0 -1 0 841)" d="M394.44 287.66C 394.44 286.53 393.52 285.62 392.4 285.62C 391.27 285.62 390.36 286.53 390.36 287.66C 390.36 288.79 391.27 289.7 392.4 289.7C 393.52 289.7 394.44 288.79 394.44 287.66z" stroke="#000000" stroke-width="0.75" fill="none" /><path id="913" transform="matrix(1 0 0 -1 0 841)" d="M415.56 306.62C 415.56 305.49 414.64 304.58 413.52 304.58C 412.39 304.58 411.48 305.49 411.48 306.62C 411.48 307.75 412.39 308.66 413.52 308.66C 414.64 308.66 415.56 307.75 415.56 306.62z" stroke="none" fill="#000000" fill-rule="nonzero" /><path id="914" transform="matrix(1 0 0 -1 0 841)" d="M415.56 306.62C 415.56 305.49 414.64 304.58 413.52 304.58C 412.39 304.58 411.48 305.49 411.48 306.62C 411.48 307.75 412.39 308.66 413.52 308.66C 414.64 308.66 415.56 307.75 415.56 306.62z" stroke="#000000" stroke-width="0.75" fill="none" /><path id="915" transform="matrix(1 0 0 -1 0 841)" d="M436.68 313.1C 436.68 311.97 435.76 311.06 434.64 311.06C 433.51 311.06 432.6 311.97 432.6 313.1C 432.6 314.23 433.51 315.14 434.64 315.14C 435.76 315.14 436.68 314.23 436.68 313.1z" stroke="none" fill="#000000" fill-rule="nonzero" /><path id="916" transform="matrix(1 0 0 -1 0 841)" d="M436.68 313.1C 436.68 311.97 435.76 311.06 434.64 311.06C 433.51 311.06 432.6 311.97 432.6 313.1C 432.6 314.23 433.51 315.14 434.64 315.14C 435.76 315.14 436.68 314.23 436.68 313.1z" stroke="#000000" stroke-width="0.75" fill="none" /><path id="917" transform="matrix(1 0 0 -1 0 841)" d="M222.96 234.24L223.68 234.48L223.68 234.48L224.16 234.72L224.16 234.72L224.88 234.96L224.88 234.96L225.6 234.96L225.6 234.96L226.08 235.2L226.08 235.2L226.8 235.44L226.8 235.44L227.28 235.44L227.28 235.44L228 235.68L228 235.68L228.72 235.92L228.72 235.92L229.2 236.16L229.2 236.16L229.92 236.16L229.92 236.16L230.64 236.4L230.64 236.4L231.12 236.64L231.12 236.64L231.84 236.64L231.84 236.64L232.32 236.88L232.32 236.88L233.04 237.12L233.04 237.12L233.76 237.36L233.76 237.36L234.24 237.36L234.24 237.36L234.96 237.6L234.96 237.6L235.44 237.84L235.44 237.84L236.16 238.08L236.16 238.08L236.88 238.08L236.88 238.08L237.36 238.32L237.36 238.32L238.08 238.56L238.08 238.56L238.56 238.8L238.56 238.8L239.28 238.8L239.28 238.8L240 239.04L240 239.04L240.48 239.28L240.48 239.28L241.2 239.52L241.2 239.52L241.68 239.52L241.68 239.52L242.4 239.76L242.4 239.76L243.12 240L243.12 240L243.6 240.24L243.6 240.24L244.32 240.24L244.32 240.24L245.04 240.48L245.04 240.48L245.52 240.72L245.52 240.72L246.24 240.96L246.24 240.96L246.72 240.96L246.72 240.96L247.44 241.2L247.44 241.2L248.16 241.44L248.16 241.44L248.64 241.68L248.64 241.68L249.36 241.92L249.36 241.92L249.84 241.92L249.84 241.92L250.56 242.16L250.56 242.16L251.28 242.4L251.28 242.4L251.76 242.64L251.76 242.64L252.48 242.64L252.48 242.64L252.96 242.88L252.96 242.88L253.68 243.12" stroke="#000000" stroke-width="0.96" stroke-linecap="round" stroke-dasharray="7.68,2.88" fill="none" /><path id="918" transform="matrix(1 0 0 -1 0 841)" d="M253.68 243.12L254.4 243.36L254.4 243.36L254.88 243.6L254.88 243.6L255.6 243.6L255.6 243.6L256.08 243.84L256.08 243.84L256.8 244.08L256.8 244.08L257.52 244.32L257.52 244.32L258 244.56L258 244.56L258.72 244.56L258.72 244.56L259.2 244.8L259.2 244.8L259.92 245.04L259.92 245.04L260.64 245.28L260.64 245.28L261.12 245.52L261.12 245.52L261.84 245.52L261.84 245.52L262.56 245.76L262.56 245.76L263.04 246L263.04 246L263.76 246.24L263.76 246.24L264.24 246.48L264.24 246.48L264.96 246.48L264.96 246.48L265.68 246.72L265.68 246.72L266.16 246.96L266.16 246.96L266.88 247.2L266.88 247.2L267.36 247.44L267.36 247.44L268.08 247.44L268.08 247.44L268.8 247.68L268.8 247.68L269.28 247.92L269.28 247.92L270 248.16L270 248.16L270.48 248.4L270.48 248.4L271.2 248.64L271.2 248.64L271.92 248.64L271.92 248.64L272.4 248.88L272.4 248.88L273.12 249.12L273.12 249.12L273.6 249.36L273.6 249.36L274.32 249.6L274.32 249.6L275.04 249.84L275.04 249.84L275.52 249.84L275.52 249.84L276.24 250.08L276.24 250.08L276.96 250.32L276.96 250.32L277.44 250.56L277.44 250.56L278.16 250.8L278.16 250.8L278.64 251.04L278.64 251.04L279.36 251.28L279.36 251.28L280.08 251.28L280.08 251.28L280.56 251.52L280.56 251.52L281.28 251.76L281.28 251.76L281.76 252L281.76 252L282.48 252.24L282.48 252.24L283.2 252.48L283.2 252.48L283.68 252.72L283.68 252.72L284.4 252.72" stroke="#000000" stroke-width="0.96" stroke-linecap="round" stroke-dasharray="7.68,2.88" fill="none" /><path id="919" transform="matrix(1 0 0 -1 0 841)" d="M284.4 252.72L284.88 252.96L284.88 252.96L285.6 253.2L285.6 253.2L286.32 253.44L286.32 253.44L286.8 253.68L286.8 253.68L287.52 253.92L287.52 253.92L288 254.16L288 254.16L288.72 254.16L288.72 254.16L289.44 254.4L289.44 254.4L289.92 254.64L289.92 254.64L290.64 254.88L290.64 254.88L291.36 255.12L291.36 255.12L291.84 255.36L291.84 255.36L292.56 255.6L292.56 255.6L293.04 255.84L293.04 255.84L293.76 255.84L293.76 255.84L294.48 256.08L294.48 256.08L294.96 256.32L294.96 256.32L295.68 256.56L295.68 256.56L296.16 256.8L296.16 256.8L296.88 257.04L296.88 257.04L297.6 257.28L297.6 257.28L298.08 257.52L298.08 257.52L298.8 257.76L298.8 257.76L299.28 258L299.28 258L300 258L300 258L300.72 258.24L300.72 258.24L301.2 258.48L301.2 258.48L301.92 258.72L301.92 258.72L302.4 258.96L302.4 258.96L303.12 259.2L303.12 259.2L303.84 259.44L303.84 259.44L304.32 259.68L304.32 259.68L305.04 259.92L305.04 259.92L305.52 260.16L305.52 260.16L306.24 260.4L306.24 260.4L306.96 260.4L306.96 260.4L307.44 260.64L307.44 260.64L308.16 260.88L308.16 260.88L308.88 261.12L308.88 261.12L309.36 261.36L309.36 261.36L310.08 261.6L310.08 261.6L310.56 261.84L310.56 261.84L311.28 262.08L311.28 262.08L312 262.32L312 262.32L312.48 262.56L312.48 262.56L313.2 262.8L313.2 262.8L313.68 263.04L313.68 263.04L314.4 263.28L314.4 263.28L315.12 263.52" stroke="#000000" stroke-width="0.96" stroke-linecap="round" stroke-dasharray="7.68,2.88" fill="none" /><path id="920" transform="matrix(1 0 0 -1 0 841)" d="M315.12 263.52L315.6 263.76L315.6 263.76L316.32 263.76L316.32 263.76L316.8 264L316.8 264L317.52 264.24L317.52 264.24L318.24 264.48L318.24 264.48L318.72 264.72L318.72 264.72L319.44 264.96L319.44 264.96L319.92 265.2L319.92 265.2L320.64 265.44L320.64 265.44L321.36 265.68L321.36 265.68L321.84 265.92L321.84 265.92L322.56 266.16L322.56 266.16L323.28 266.4L323.28 266.4L323.76 266.64L323.76 266.64L324.48 266.88L324.48 266.88L324.96 267.12L324.96 267.12L325.68 267.36L325.68 267.36L326.4 267.6L326.4 267.6L326.88 267.84L326.88 267.84L327.6 268.08L327.6 268.08L328.08 268.32L328.08 268.32L328.8 268.56L328.8 268.56L329.52 268.8L329.52 268.8L330 269.04L330 269.04L330.72 269.28L330.72 269.28L331.2 269.52L331.2 269.52L331.92 269.76L331.92 269.76L332.64 270L332.64 270L333.12 270.24L333.12 270.24L333.84 270.24L333.84 270.24L334.32 270.48L334.32 270.48L335.04 270.72L335.04 270.72L335.76 270.96L335.76 270.96L336.24 271.2L336.24 271.2L336.96 271.44L336.96 271.44L337.68 271.68L337.68 271.68L338.16 271.92L338.16 271.92L338.88 272.16L338.88 272.16L339.36 272.4L339.36 272.4L340.08 272.64L340.08 272.64L340.8 272.88L340.8 272.88L341.28 273.12L341.28 273.12L342 273.36L342 273.36L342.48 273.6L342.48 273.6L343.2 273.84L343.2 273.84L343.92 274.32L343.92 274.32L344.4 274.56L344.4 274.56L345.12 274.8L345.12 274.8L345.6 275.04" stroke="#000000" stroke-width="0.96" stroke-linecap="round" stroke-dasharray="7.68,2.88" fill="none" /><path id="921" transform="matrix(1 0 0 -1 0 841)" d="M345.6 275.04L346.32 275.28L346.32 275.28L347.04 275.52L347.04 275.52L347.52 275.76L347.52 275.76L348.24 276L348.24 276L348.72 276.24L348.72 276.24L349.44 276.48L349.44 276.48L350.16 276.72L350.16 276.72L350.64 276.96L350.64 276.96L351.36 277.2L351.36 277.2L352.08 277.44L352.08 277.44L352.56 277.68L352.56 277.68L353.28 277.92L353.28 277.92L353.76 278.16L353.76 278.16L354.48 278.4L354.48 278.4L355.2 278.64L355.2 278.64L355.68 278.88L355.68 278.88L356.4 279.12L356.4 279.12L356.88 279.36L356.88 279.36L357.6 279.6L357.6 279.6L358.32 279.84L358.32 279.84L358.8 280.08L358.8 280.08L359.52 280.32L359.52 280.32L360 280.56L360 280.56L360.72 280.8L360.72 280.8L361.44 281.04L361.44 281.04L361.92 281.52L361.92 281.52L362.64 281.76L362.64 281.76L363.12 282L363.12 282L363.84 282.24L363.84 282.24L364.56 282.48L364.56 282.48L365.04 282.72L365.04 282.72L365.76 282.96L365.76 282.96L366.24 283.2L366.24 283.2L366.96 283.44L366.96 283.44L367.68 283.68L367.68 283.68L368.16 283.92L368.16 283.92L368.88 284.16L368.88 284.16L369.6 284.4L369.6 284.4L370.08 284.64L370.08 284.64L370.8 285.12L370.8 285.12L371.28 285.36L371.28 285.36L372 285.6L372 285.6L372.72 285.84L372.72 285.84L373.2 286.08L373.2 286.08L373.92 286.32L373.92 286.32L374.4 286.56L374.4 286.56L375.12 286.8L375.12 286.8L375.84 287.04L375.84 287.04L376.32 287.28" stroke="#000000" stroke-width="0.96" stroke-linecap="round" stroke-dasharray="7.68,2.88" fill="none" /><path id="922" transform="matrix(1 0 0 -1 0 841)" d="M376.32 287.28L377.04 287.52L377.04 287.52L377.52 288L377.52 288L378.24 288.24L378.24 288.24L378.96 288.48L378.96 288.48L379.44 288.72L379.44 288.72L380.16 288.96L380.16 288.96L380.64 289.2L380.64 289.2L381.36 289.44L381.36 289.44L382.08 289.68L382.08 289.68L382.56 289.92L382.56 289.92L383.28 290.16L383.28 290.16L384 290.64L384 290.64L384.48 290.88L384.48 290.88L385.2 291.12L385.2 291.12L385.68 291.36L385.68 291.36L386.4 291.6L386.4 291.6L387.12 291.84L387.12 291.84L387.6 292.08L387.6 292.08L388.32 292.32L388.32 292.32L388.8 292.8L388.8 292.8L389.52 293.04L389.52 293.04L390.24 293.28L390.24 293.28L390.72 293.52L390.72 293.52L391.44 293.76L391.44 293.76L391.92 294L391.92 294L392.64 294.24L392.64 294.24L393.36 294.48L393.36 294.48L393.84 294.96L393.84 294.96L394.56 295.2L394.56 295.2L395.04 295.44L395.04 295.44L395.76 295.68L395.76 295.68L396.48 295.92L396.48 295.92L396.96 296.16L396.96 296.16L397.68 296.4L397.68 296.4L398.4 296.88L398.4 296.88L398.88 297.12L398.88 297.12L399.6 297.36L399.6 297.36L400.08 297.6L400.08 297.6L400.8 297.84L400.8 297.84L401.52 298.08L401.52 298.08L402 298.56L402 298.56L402.72 298.8L402.72 298.8L403.2 299.04L403.2 299.04L403.92 299.28L403.92 299.28L404.64 299.52L404.64 299.52L405.12 299.76L405.12 299.76L405.84 300.24L405.84 300.24L406.32 300.48L406.32 300.48L407.04 300.72" stroke="#000000" stroke-width="0.96" stroke-linecap="round" stroke-dasharray="7.68,2.88" fill="none" /><path id="923" transform="matrix(1 0 0 -1 0 841)" d="M407.04 300.72L407.76 300.96L407.76 300.96L408.24 301.2L408.24 301.2L408.96 301.44L408.96 301.44L409.44 301.92L409.44 301.92L410.16 302.16L410.16 302.16L410.88 302.4L410.88 302.4L411.36 302.64L411.36 302.64L412.08 302.88L412.08 302.88L412.56 303.36L412.56 303.36L413.28 303.6L413.28 303.6L414 303.84L414 303.84L414.48 304.08L414.48 304.08L415.2 304.32L415.2 304.32L415.92 304.56L415.92 304.56L416.4 305.04L416.4 305.04L417.12 305.28L417.12 305.28L417.6 305.52L417.6 305.52L418.32 305.76L418.32 305.76L419.04 306L419.04 306L419.52 306.48L419.52 306.48L420.24 306.72L420.24 306.72L420.72 306.96L420.72 306.96L421.44 307.2L421.44 307.2L422.16 307.68L422.16 307.68L422.64 307.92L422.64 307.92L423.36 308.16L423.36 308.16L423.84 308.4L423.84 308.4L424.56 308.64L424.56 308.64L425.28 309.12L425.28 309.12L425.76 309.36L425.76 309.36L426.48 309.6L426.48 309.6L426.96 309.84L426.96 309.84L427.68 310.08L427.68 310.08L428.4 310.56L428.4 310.56L428.88 310.8L428.88 310.8L429.6 311.04L429.6 311.04L430.32 311.28L430.32 311.28L430.8 311.76L430.8 311.76L431.52 312L431.52 312L432 312.24L432 312.24L432.72 312.48L432.72 312.48L433.44 312.96L433.44 312.96L433.92 313.2L433.92 313.2L434.64 313.44" stroke="#000000" stroke-width="0.96" stroke-linecap="round" stroke-dasharray="7.68,2.88" fill="none" /><g clip-path="url(#20)"></g><g clip-path="url(#21)"></g><g clip-path="url(#22)"></g><g clip-path="url(#23)"></g><g clip-path="url(#24)"></g><g clip-path="url(#25)"></g><g clip-path="url(#26)"></g><g clip-path="url(#27)"></g><g clip-path="url(#28)"></g><g clip-path="url(#29)"></g><g clip-path="url(#30)"></g><g clip-path="url(#31)"></g><g clip-path="url(#32)"></g><path id="937" transform="matrix(1 0 0 -1 0 841)" d="M179.7 330.72L191.915 330.72L191.915 330.72L191.915 349.82L191.915 349.82L179.7 349.82z" stroke="none" fill="#FFFFFF" fill-rule="evenodd" /><g clip-path="url(#33)"></g><g clip-path="url(#34)"></g><path id="939" transform="matrix(1 0 0 -1 0 841)" d="M446.84 153.48L459.055 153.48L459.055 153.48L459.055 172.58L459.055 172.58L446.84 172.58z" stroke="none" fill="#FFFFFF" fill-rule="evenodd" /><g clip-path="url(#35)"></g><g clip-path="url(#36)"></g></g></g></svg>