<svg xmlns="http://www.w3.org/2000/svg" xmlns:xlink="http://www.w3.org/1999/xlink" id="body_8" preserveAspectRatio="xMinYMin meet" viewBox="0 0 793 1121"><defs><clipPath id="1"><path id="" clip-rule="evenodd" transform="matrix(1 0 0 1 0 0)" d="M0 841L0 -0.9199829L0 -0.9199829L595.2 -0.9199829L595.2 -0.9199829L595.2 841L595.2 841L0 841z" /></clipPath><clipPath id="2"><path id="" clip-rule="evenodd" transform="matrix(1 0 0 1 0 0)" d="M260.52 132.9L373.8172 132.9L373.8172 132.9L373.8172 93.74945L373.8172 93.74945L260.52 93.74945z" /></clipPath><clipPath id="3"><path id="" clip-rule="evenodd" transform="matrix(1 0 0 1 0 0)" d="M223.82 191.7L251.6195 191.7L251.6195 191.7L251.6195 154.9504L251.6195 154.9504L223.82 154.9504z" /></clipPath><clipPath id="4"><path id="" clip-rule="evenodd" transform="matrix(1 0 0 1 0 0)" d="M167.42 233.2L257.4206 233.2L257.4206 233.2L257.4206 195.0508L257.4206 195.0508L167.42 195.0508z" /></clipPath><clipPath id="5"><path id="" clip-rule="evenodd" transform="matrix(1 0 0 1 0 0)" d="M272.27 233.2L391.5707 233.2L391.5707 233.2L391.5707 195.0508L391.5707 195.0508L272.27 195.0508z" /></clipPath><clipPath id="6"><path id="" clip-rule="evenodd" transform="matrix(1 0 0 1 0 0)" d="M402.82 233.2L483.9713 233.2L483.9713 233.2L483.9713 195.0508L483.9713 195.0508L402.82 195.0508z" /></clipPath><clipPath id="7"><path id="" clip-rule="evenodd" transform="matrix(1 0 0 1 0 0)" d="M201.47 278.1L322.9165 278.1L322.9165 278.1L322.9165 239.9011L322.9165 239.9011L201.47 239.9011z" /></clipPath><clipPath id="8"><path id="" clip-rule="evenodd" transform="matrix(1 0 0 1 0 0)" d="M337.82 278.1L398.523 278.1L398.523 278.1L398.523 239.9011L398.523 239.9011L337.82 239.9011z" /></clipPath><clipPath id="9"><path id="" clip-rule="evenodd" transform="matrix(1 0 0 1 0 0)" d="M406.42 278.1L441.0186 278.1L441.0186 278.1L441.0186 236.0994L441.0186 236.0994L406.42 236.0994z" /></clipPath><clipPath id="10"><path id="" clip-rule="evenodd" transform="matrix(1 0 0 1 0 0)" d="M287.17 342.15L347.1692 342.15L347.1692 342.15L347.1692 300.1494L347.1692 300.1494L287.17 300.1494z" /></clipPath><clipPath id="11"><path id="" clip-rule="evenodd" transform="matrix(1 0 0 1 0 0)" d="M182.52 465.75L498.1243 465.75L498.1243 465.75L498.1243 377.1978L498.1243 377.1978L182.52 377.1978z" /></clipPath><clipPath id="12"><path id="" clip-rule="evenodd" transform="matrix(1 0 0 1 0 0)" d="M86.913 600.46L157.263 600.46L157.263 600.46L157.263 584.38L157.263 584.38L86.913 584.38z" /></clipPath><clipPath id="13"><path id="" clip-rule="evenodd" transform="matrix(1 0 0 1 0 0)" d="M86.904 600.45L157.272 600.45L157.272 600.45L157.272 584.37L157.272 584.37L86.904 584.37z" /></clipPath><clipPath id="14"><path id="" clip-rule="evenodd" transform="matrix(1 0 0 1 0 0)" d="M86.904 600.45L157.272 600.45L157.272 600.45L157.272 584.37L157.272 584.37L86.904 584.37z" /></clipPath><clipPath id="15"><path id="" clip-rule="evenodd" transform="matrix(1 0 0 1 0 0)" d="M86.904 600.45L157.272 600.45L157.272 600.45L157.272 584.37L157.272 584.37L86.904 584.37z" /></clipPath><clipPath id="16"><path id="" clip-rule="evenodd" transform="matrix(1 0 0 1 0 0)" d="M157.98 600.46L228.09 600.46L228.09 600.46L228.09 584.38L228.09 584.38L157.98 584.38z" /></clipPath><clipPath id="17"><path id="" clip-rule="evenodd" transform="matrix(1 0 0 1 0 0)" d="M157.99 600.45L228.094 600.45L228.094 600.45L228.094 584.37L228.094 584.37L157.99 584.37z" /></clipPath><clipPath id="18"><path id="" clip-rule="evenodd" transform="matrix(1 0 0 1 0 0)" d="M157.99 600.45L228.094 600.45L228.094 600.45L228.094 584.37L228.094 584.37L157.99 584.37z" /></clipPath><clipPath id="19"><path id="" clip-rule="evenodd" transform="matrix(1 0 0 1 0 0)" d="M228.81 600.46L299.16 600.46L299.16 600.46L299.16 584.38L299.16 584.38L228.81 584.38z" /></clipPath><clipPath id="20"><path id="" clip-rule="evenodd" transform="matrix(1 0 0 1 0 0)" d="M228.82 600.45L299.164 600.45L299.164 600.45L299.164 584.37L299.164 584.37L228.82 584.37z" /></clipPath><clipPath id="21"><path id="" clip-rule="evenodd" transform="matrix(1 0 0 1 0 0)" d="M228.82 600.45L299.164 600.45L299.164 600.45L299.164 584.37L299.164 584.37L228.82 584.37z" /></clipPath><clipPath id="22"><path id="" clip-rule="evenodd" transform="matrix(1 0 0 1 0 0)" d="M299.88 600.46L377.19 600.46L377.19 600.46L377.19 584.38L377.19 584.38L299.88 584.38z" /></clipPath><clipPath id="23"><path id="" clip-rule="evenodd" transform="matrix(1 0 0 1 0 0)" d="M299.88 600.45L377.184 600.45L377.184 600.45L377.184 584.37L377.184 584.37L299.88 584.37z" /></clipPath><clipPath id="24"><path id="" clip-rule="evenodd" transform="matrix(1 0 0 1 0 0)" d="M299.88 600.45L377.184 600.45L377.184 600.45L377.184 584.37L377.184 584.37L299.88 584.37z" /></clipPath><clipPath id="25"><path id="" clip-rule="evenodd" transform="matrix(1 0 0 1 0 0)" d="M377.91 600.46L454.98 600.46L454.98 600.46L454.98 584.38L454.98 584.38L377.91 584.38z" /></clipPath><clipPath id="26"><path id="" clip-rule="evenodd" transform="matrix(1 0 0 1 0 0)" d="M377.9 600.45L454.964 600.45L454.964 600.45L454.964 584.37L454.964 584.37L377.9 584.37z" /></clipPath><clipPath id="27"><path id="" clip-rule="evenodd" transform="matrix(1 0 0 1 0 0)" d="M377.9 600.45L454.964 600.45L454.964 600.45L454.964 584.37L454.964 584.37L377.9 584.37z" /></clipPath><clipPath id="28"><path id="" clip-rule="evenodd" transform="matrix(1 0 0 1 0 0)" d="M455.7 600.46L518.58 600.46L518.58 600.46L518.58 584.38L518.58 584.38L455.7 584.38z" /></clipPath><clipPath id="29"><path id="" clip-rule="evenodd" transform="matrix(1 0 0 1 0 0)" d="M455.69 600.45L518.594 600.45L518.594 600.45L518.594 584.37L518.594 584.37L455.69 584.37z" /></clipPath><clipPath id="30"><path id="" clip-rule="evenodd" transform="matrix(1 0 0 1 0 0)" d="M455.69 600.45L518.594 600.45L518.594 600.45L518.594 584.37L518.594 584.37L455.69 584.37z" /></clipPath><clipPath id="31"><path id="" clip-rule="evenodd" transform="matrix(1 0 0 1 0 0)" d="M86.913 622.78L157.263 622.78L157.263 622.78L157.263 601.18L157.263 601.18L86.913 601.18z" /></clipPath><clipPath id="32"><path id="" clip-rule="evenodd" transform="matrix(1 0 0 1 0 0)" d="M86.904 622.77L157.272 622.77L157.272 622.77L157.272 601.17L157.272 601.17L86.904 601.17z" /></clipPath><clipPath id="33"><path id="" clip-rule="evenodd" transform="matrix(1 0 0 1 0 0)" d="M86.904 622.77L157.272 622.77L157.272 622.77L157.272 601.17L157.272 601.17L86.904 601.17z" /></clipPath><clipPath id="34"><path id="" clip-rule="evenodd" transform="matrix(1 0 0 1 0 0)" d="M86.904 622.77L157.272 622.77L157.272 622.77L157.272 601.17L157.272 601.17L86.904 601.17z" /></clipPath><clipPath id="35"><path id="" clip-rule="evenodd" transform="matrix(1 0 0 1 0 0)" d="M157.98 622.78L228.09 622.78L228.09 622.78L228.09 601.18L228.09 601.18L157.98 601.18z" /></clipPath><clipPath id="36"><path id="" clip-rule="evenodd" transform="matrix(1 0 0 1 0 0)" d="M157.99 622.77L228.094 622.77L228.094 622.77L228.094 601.17L228.094 601.17L157.99 601.17z" /></clipPath><clipPath id="37"><path id="" clip-rule="evenodd" transform="matrix(1 0 0 1 0 0)" d="M157.99 622.77L228.094 622.77L228.094 622.77L228.094 601.17L228.094 601.17L157.99 601.17z" /></clipPath><clipPath id="38"><path id="" clip-rule="evenodd" transform="matrix(1 0 0 1 0 0)" d="M228.81 622.78L299.16 622.78L299.16 622.78L299.16 601.18L299.16 601.18L228.81 601.18z" /></clipPath><clipPath id="39"><path id="" clip-rule="evenodd" transform="matrix(1 0 0 1 0 0)" d="M228.82 622.77L299.164 622.77L299.164 622.77L299.164 601.17L299.164 601.17L228.82 601.17z" /></clipPath><clipPath id="40"><path id="" clip-rule="evenodd" transform="matrix(1 0 0 1 0 0)" d="M228.82 622.77L299.164 622.77L299.164 622.77L299.164 601.17L299.164 601.17L228.82 601.17z" /></clipPath><clipPath id="41"><path id="" clip-rule="evenodd" transform="matrix(1 0 0 1 0 0)" d="M299.88 622.78L377.19 622.78L377.19 622.78L377.19 601.18L377.19 601.18L299.88 601.18z" /></clipPath><clipPath id="42"><path id="" clip-rule="evenodd" transform="matrix(1 0 0 1 0 0)" d="M299.88 622.77L377.184 622.77L377.184 622.77L377.184 601.17L377.184 601.17L299.88 601.17z" /></clipPath><clipPath id="43"><path id="" clip-rule="evenodd" transform="matrix(1 0 0 1 0 0)" d="M299.88 622.77L377.184 622.77L377.184 622.77L377.184 601.17L377.184 601.17L299.88 601.17z" /></clipPath><clipPath id="44"><path id="" clip-rule="evenodd" transform="matrix(1 0 0 1 0 0)" d="M377.91 622.78L454.98 622.78L454.98 622.78L454.98 601.18L454.98 601.18L377.91 601.18z" /></clipPath><clipPath id="45"><path id="" clip-rule="evenodd" transform="matrix(1 0 0 1 0 0)" d="M377.9 622.77L454.964 622.77L454.964 622.77L454.964 601.17L454.964 601.17L377.9 601.17z" /></clipPath><clipPath id="46"><path id="" clip-rule="evenodd" transform="matrix(1 0 0 1 0 0)" d="M377.9 622.77L454.964 622.77L454.964 622.77L454.964 601.17L454.964 601.17L377.9 601.17z" /></clipPath><clipPath id="47"><path id="" clip-rule="evenodd" transform="matrix(1 0 0 1 0 0)" d="M455.7 622.78L518.58 622.78L518.58 622.78L518.58 601.18L518.58 601.18L455.7 601.18z" /></clipPath><clipPath id="48"><path id="" clip-rule="evenodd" transform="matrix(1 0 0 1 0 0)" d="M455.69 622.77L518.594 622.77L518.594 622.77L518.594 601.17L518.594 601.17L455.69 601.17z" /></clipPath><clipPath id="49"><path id="" clip-rule="evenodd" transform="matrix(1 0 0 1 0 0)" d="M455.69 622.77L518.594 622.77L518.594 622.77L518.594 601.17L518.594 601.17L455.69 601.17z" /></clipPath><clipPath id="50"><path id="" clip-rule="evenodd" transform="matrix(1 0 0 1 0 0)" d="M86.913 756.013L157.023 756.013L157.023 756.013L157.023 738.943L157.023 738.943L86.913 738.943z" /></clipPath><clipPath id="51"><path id="" clip-rule="evenodd" transform="matrix(1 0 0 1 0 0)" d="M86.904 756.016L157.032 756.016L157.032 756.016L157.032 738.952L157.032 738.952L86.904 738.952z" /></clipPath><clipPath id="52"><path id="" clip-rule="evenodd" transform="matrix(1 0 0 1 0 0)" d="M86.904 756.016L157.032 756.016L157.032 756.016L157.032 738.952L157.032 738.952L86.904 738.952z" /></clipPath><clipPath id="53"><path id="" clip-rule="evenodd" transform="matrix(1 0 0 1 0 0)" d="M157.74 756.013L212.46 756.013L212.46 756.013L212.46 738.943L212.46 738.943L157.74 738.943z" /></clipPath><clipPath id="54"><path id="" clip-rule="evenodd" transform="matrix(1 0 0 1 0 0)" d="M157.75 756.016L212.47 756.016L212.47 756.016L212.47 738.952L212.47 738.952L157.75 738.952z" /></clipPath><clipPath id="55"><path id="" clip-rule="evenodd" transform="matrix(1 0 0 1 0 0)" d="M157.75 756.016L212.47 756.016L212.47 756.016L212.47 738.952L212.47 738.952L157.75 738.952z" /></clipPath><clipPath id="56"><path id="" clip-rule="evenodd" transform="matrix(1 0 0 1 0 0)" d="M213.18 756.013L276.09 756.013L276.09 756.013L276.09 738.943L276.09 738.943L213.18 738.943z" /></clipPath><clipPath id="57"><path id="" clip-rule="evenodd" transform="matrix(1 0 0 1 0 0)" d="M213.19 756.016L276.094 756.016L276.094 756.016L276.094 738.952L276.094 738.952L213.19 738.952z" /></clipPath><clipPath id="58"><path id="" clip-rule="evenodd" transform="matrix(1 0 0 1 0 0)" d="M213.19 756.016L276.094 756.016L276.094 756.016L276.094 738.952L276.094 738.952L213.19 738.952z" /></clipPath><clipPath id="59"><path id="" clip-rule="evenodd" transform="matrix(1 0 0 1 0 0)" d="M276.81 756.013L339.96 756.013L339.96 756.013L339.96 738.943L339.96 738.943L276.81 738.943z" /></clipPath><clipPath id="60"><path id="" clip-rule="evenodd" transform="matrix(1 0 0 1 0 0)" d="M276.82 756.016L339.964 756.016L339.964 756.016L339.964 738.952L339.964 738.952L276.82 738.952z" /></clipPath><clipPath id="61"><path id="" clip-rule="evenodd" transform="matrix(1 0 0 1 0 0)" d="M276.82 756.016L339.964 756.016L339.964 756.016L339.964 738.952L339.964 738.952L276.82 738.952z" /></clipPath><clipPath id="62"><path id="" clip-rule="evenodd" transform="matrix(1 0 0 1 0 0)" d="M276.82 756.016L339.964 756.016L339.964 756.016L339.964 738.952L339.964 738.952L276.82 738.952z" /></clipPath><clipPath id="63"><path id="" clip-rule="evenodd" transform="matrix(1 0 0 1 0 0)" d="M340.68 756.013L403.83 756.013L403.83 756.013L403.83 738.943L403.83 738.943L340.68 738.943z" /></clipPath><clipPath id="64"><path id="" clip-rule="evenodd" transform="matrix(1 0 0 1 0 0)" d="M340.68 756.016L403.824 756.016L403.824 756.016L403.824 738.952L403.824 738.952L340.68 738.952z" /></clipPath><clipPath id="65"><path id="" clip-rule="evenodd" transform="matrix(1 0 0 1 0 0)" d="M340.68 756.016L403.824 756.016L403.824 756.016L403.824 738.952L403.824 738.952L340.68 738.952z" /></clipPath><clipPath id="66"><path id="" clip-rule="evenodd" transform="matrix(1 0 0 1 0 0)" d="M340.68 756.016L403.824 756.016L403.824 756.016L403.824 738.952L403.824 738.952L340.68 738.952z" /></clipPath><clipPath id="67"><path id="" clip-rule="evenodd" transform="matrix(1 0 0 1 0 0)" d="M340.68 756.016L403.824 756.016L403.824 756.016L403.824 738.952L403.824 738.952L340.68 738.952z" /></clipPath><clipPath id="68"><path id="" clip-rule="evenodd" transform="matrix(1 0 0 1 0 0)" d="M404.55 756.013L467.7 756.013L467.7 756.013L467.7 738.943L467.7 738.943L404.55 738.943z" /></clipPath><clipPath id="69"><path id="" clip-rule="evenodd" transform="matrix(1 0 0 1 0 0)" d="M404.54 756.016L467.684 756.016L467.684 756.016L467.684 738.952L467.684 738.952L404.54 738.952z" /></clipPath><clipPath id="70"><path id="" clip-rule="evenodd" transform="matrix(1 0 0 1 0 0)" d="M404.54 756.016L467.684 756.016L467.684 756.016L467.684 738.952L467.684 738.952L404.54 738.952z" /></clipPath><clipPath id="71"><path id="" clip-rule="evenodd" transform="matrix(1 0 0 1 0 0)" d="M404.54 756.016L467.684 756.016L467.684 756.016L467.684 738.952L467.684 738.952L404.54 738.952z" /></clipPath><clipPath id="72"><path id="" clip-rule="evenodd" transform="matrix(1 0 0 1 0 0)" d="M404.54 756.016L467.684 756.016L467.684 756.016L467.684 738.952L467.684 738.952L404.54 738.952z" /></clipPath><clipPath id="73"><path id="" clip-rule="evenodd" transform="matrix(1 0 0 1 0 0)" d="M468.42 756.013L524.34 756.013L524.34 756.013L524.34 738.943L524.34 738.943L468.42 738.943z" /></clipPath><clipPath id="74"><path id="" clip-rule="evenodd" transform="matrix(1 0 0 1 0 0)" d="M468.41 756.016L524.354 756.016L524.354 756.016L524.354 738.952L524.354 738.952L468.41 738.952z" /></clipPath><clipPath id="75"><path id="" clip-rule="evenodd" transform="matrix(1 0 0 1 0 0)" d="M468.41 756.016L524.354 756.016L524.354 756.016L524.354 738.952L524.354 738.952L468.41 738.952z" /></clipPath><clipPath id="76"><path id="" clip-rule="evenodd" transform="matrix(1 0 0 1 0 0)" d="M468.41 756.016L524.354 756.016L524.354 756.016L524.354 738.952L524.354 738.952L468.41 738.952z" /></clipPath><clipPath id="77"><path id="" clip-rule="evenodd" transform="matrix(1 0 0 1 0 0)" d="M468.41 756.016L524.354 756.016L524.354 756.016L524.354 738.952L524.354 738.952L468.41 738.952z" /></clipPath><clipPath id="78"><path id="" clip-rule="evenodd" transform="matrix(1 0 0 1 0 0)" d="M86.913 772.813L157.023 772.813L157.023 772.813L157.023 756.733L157.023 756.733L86.913 756.733z" /></clipPath><clipPath id="79"><path id="" clip-rule="evenodd" transform="matrix(1 0 0 1 0 0)" d="M86.904 772.816L157.032 772.816L157.032 772.816L157.032 756.736L157.032 756.736L86.904 756.736z" /></clipPath><clipPath id="80"><path id="" clip-rule="evenodd" transform="matrix(1 0 0 1 0 0)" d="M86.904 772.816L157.032 772.816L157.032 772.816L157.032 756.736L157.032 756.736L86.904 756.736z" /></clipPath><clipPath id="81"><path id="" clip-rule="evenodd" transform="matrix(1 0 0 1 0 0)" d="M157.74 772.813L212.46 772.813L212.46 772.813L212.46 756.733L212.46 756.733L157.74 756.733z" /></clipPath><clipPath id="82"><path id="" clip-rule="evenodd" transform="matrix(1 0 0 1 0 0)" d="M157.75 772.816L212.47 772.816L212.47 772.816L212.47 756.736L212.47 756.736L157.75 756.736z" /></clipPath><clipPath id="83"><path id="" clip-rule="evenodd" transform="matrix(1 0 0 1 0 0)" d="M157.75 772.816L212.47 772.816L212.47 772.816L212.47 756.736L212.47 756.736L157.75 756.736z" /></clipPath><clipPath id="84"><path id="" clip-rule="evenodd" transform="matrix(1 0 0 1 0 0)" d="M213.18 772.813L276.09 772.813L276.09 772.813L276.09 756.733L276.09 756.733L213.18 756.733z" /></clipPath><clipPath id="85"><path id="" clip-rule="evenodd" transform="matrix(1 0 0 1 0 0)" d="M213.19 772.816L276.094 772.816L276.094 772.816L276.094 756.736L276.094 756.736L213.19 756.736z" /></clipPath><clipPath id="86"><path id="" clip-rule="evenodd" transform="matrix(1 0 0 1 0 0)" d="M213.19 772.816L276.094 772.816L276.094 772.816L276.094 756.736L276.094 756.736L213.19 756.736z" /></clipPath><clipPath id="87"><path id="" clip-rule="evenodd" transform="matrix(1 0 0 1 0 0)" d="M213.19 772.816L276.094 772.816L276.094 772.816L276.094 756.736L276.094 756.736L213.19 756.736z" /></clipPath><clipPath id="88"><path id="" clip-rule="evenodd" transform="matrix(1 0 0 1 0 0)" d="M276.81 772.813L339.96 772.813L339.96 772.813L339.96 756.733L339.96 756.733L276.81 756.733z" /></clipPath><clipPath id="89"><path id="" clip-rule="evenodd" transform="matrix(1 0 0 1 0 0)" d="M276.82 772.816L339.964 772.816L339.964 772.816L339.964 756.736L339.964 756.736L276.82 756.736z" /></clipPath><clipPath id="90"><path id="" clip-rule="evenodd" transform="matrix(1 0 0 1 0 0)" d="M276.82 772.816L339.964 772.816L339.964 772.816L339.964 756.736L339.964 756.736L276.82 756.736z" /></clipPath><clipPath id="91"><path id="" clip-rule="evenodd" transform="matrix(1 0 0 1 0 0)" d="M276.82 772.816L339.964 772.816L339.964 772.816L339.964 756.736L339.964 756.736L276.82 756.736z" /></clipPath><clipPath id="92"><path id="" clip-rule="evenodd" transform="matrix(1 0 0 1 0 0)" d="M340.68 772.813L403.83 772.813L403.83 772.813L403.83 756.733L403.83 756.733L340.68 756.733z" /></clipPath><clipPath id="93"><path id="" clip-rule="evenodd" transform="matrix(1 0 0 1 0 0)" d="M340.68 772.816L403.824 772.816L403.824 772.816L403.824 756.736L403.824 756.736L340.68 756.736z" /></clipPath><clipPath id="94"><path id="" clip-rule="evenodd" transform="matrix(1 0 0 1 0 0)" d="M340.68 772.816L403.824 772.816L403.824 772.816L403.824 756.736L403.824 756.736L340.68 756.736z" /></clipPath><clipPath id="95"><path id="" clip-rule="evenodd" transform="matrix(1 0 0 1 0 0)" d="M340.68 772.816L403.824 772.816L403.824 772.816L403.824 756.736L403.824 756.736L340.68 756.736z" /></clipPath><clipPath id="96"><path id="" clip-rule="evenodd" transform="matrix(1 0 0 1 0 0)" d="M404.55 772.813L467.7 772.813L467.7 772.813L467.7 756.733L467.7 756.733L404.55 756.733z" /></clipPath><clipPath id="97"><path id="" clip-rule="evenodd" transform="matrix(1 0 0 1 0 0)" d="M404.54 772.816L467.684 772.816L467.684 772.816L467.684 756.736L467.684 756.736L404.54 756.736z" /></clipPath><clipPath id="98"><path id="" clip-rule="evenodd" transform="matrix(1 0 0 1 0 0)" d="M404.54 772.816L467.684 772.816L467.684 772.816L467.684 756.736L467.684 756.736L404.54 756.736z" /></clipPath><clipPath id="99"><path id="" clip-rule="evenodd" transform="matrix(1 0 0 1 0 0)" d="M468.42 772.813L524.34 772.813L524.34 772.813L524.34 756.733L524.34 756.733L468.42 756.733z" /></clipPath><clipPath id="100"><path id="" clip-rule="evenodd" transform="matrix(1 0 0 1 0 0)" d="M468.41 772.816L524.354 772.816L524.354 772.816L524.354 756.736L524.354 756.736L468.41 756.736z" /></clipPath><clipPath id="101"><path id="" clip-rule="evenodd" transform="matrix(1 0 0 1 0 0)" d="M468.41 772.816L524.354 772.816L524.354 772.816L524.354 756.736L524.354 756.736L468.41 756.736z" /></clipPath></defs><g transform="matrix(1.333333 0 0 1.333333 0 0)"><g clip-path="url(#1)"><g clip-path="url(#2)"><path id="60" transform="matrix(1 0 0 -1 0 841)" d="M289.8335 728.5909L332.588 728.5909" stroke="#000000" stroke-width="0.4914303" fill="none" /><path id="61" transform="matrix(1 0 0 -1 0 841)" d="M348.0193 728.5909L371.681 728.5909" stroke="#000000" stroke-width="0.4914303" fill="none" /></g><g clip-path="url(#3)"><path id="130" transform="matrix(1 0 0 -1 0 841)" d="M225.7852 667.339L249.1749 667.339" stroke="#000000" stroke-width="0.5032709" fill="none" /></g><g clip-path="url(#4)"><path id="177" transform="matrix(1 0 0 -1 0 841)" d="M169.4238 627.484L255.0013 627.484" stroke="#000000" stroke-width="0.4887346" fill="none" /></g><g clip-path="url(#5)"><path id="192" transform="matrix(1 0 0 -1 0 841)" d="M274.2779 627.484L389.4818 627.484" stroke="#000000" stroke-width="0.5142177" fill="none" /></g><g clip-path="url(#6)"><path id="210" transform="matrix(1 0 0 -1 0 841)" d="M404.8083 627.484L481.4673 627.484" stroke="#000000" stroke-width="0.4909323" fill="none" /></g><g clip-path="url(#7)"><path id="225" transform="matrix(1 0 0 -1 0 841)" d="M203.4666 582.6097L320.4833 582.6097" stroke="#000000" stroke-width="0.4869632" fill="none" /></g><g clip-path="url(#8)"><path id="245" transform="matrix(1 0 0 -1 0 841)" d="M339.7943 582.6097L395.9062 582.6097" stroke="#000000" stroke-width="0.4995174" fill="none" /></g><g clip-path="url(#9)"><path id="257" transform="matrix(1 0 0 -1 0 841)" d="M408.4005 582.3796L438.2753 582.3796" stroke="#000000" stroke-width="0.501094" fill="none" /></g><g clip-path="url(#10)"><path id="317" transform="matrix(1 0 0 -1 0 841)" d="M316.1348 518.3297L344.711 518.3296" stroke="#000000" stroke-width="0.5111555" fill="none" /></g><g clip-path="url(#11)"><path id="362" transform="matrix(1 0 0 -1 0 841)" d="M260.6857 440.2465L285.0528 440.2465" stroke="#000000" stroke-width="0.4902198" fill="none" /><path id="363" transform="matrix(1 0 0 -1 0 841)" d="M347.6758 440.2465L381.6011 440.2465" stroke="#000000" stroke-width="0.4902198" fill="none" /><path id="364" transform="matrix(1 0 0 -1 0 841)" d="M270.3923 395.3399L304.4899 395.3399" stroke="#000000" stroke-width="0.4902198" fill="none" /></g><g clip-path="url(#12)"><g clip-path="url(#13)"></g><g clip-path="url(#14)"></g><g clip-path="url(#15)"></g></g><g clip-path="url(#16)"><g clip-path="url(#17)"></g><g clip-path="url(#18)"></g></g><g clip-path="url(#19)"><g clip-path="url(#20)"></g><g clip-path="url(#21)"></g></g><g clip-path="url(#22)"><g clip-path="url(#23)"></g><g clip-path="url(#24)"></g></g><g clip-path="url(#25)"><g clip-path="url(#26)"></g><g clip-path="url(#27)"></g></g><g clip-path="url(#28)"><g clip-path="url(#29)"></g><g clip-path="url(#30)"></g></g><path id="624" transform="matrix(1 0 0 -1 0 841)" d="M85.944 256.63L86.664 256.63L86.664 256.63L86.664 257.35L86.664 257.35L85.944 257.35z" stroke="none" fill="#000000" fill-rule="evenodd" /><path id="625" transform="matrix(1 0 0 -1 0 841)" d="M85.944 256.63L86.664 256.63L86.664 256.63L86.664 257.35L86.664 257.35L85.944 257.35z" stroke="none" fill="#000000" fill-rule="evenodd" /><path id="626" transform="matrix(1 0 0 -1 0 841)" d="M86.664 256.63L157.032 256.63L157.032 256.63L157.032 257.35L157.032 257.35L86.664 257.35z" stroke="none" fill="#000000" fill-rule="evenodd" /><path id="627" transform="matrix(1 0 0 -1 0 841)" d="M157.03 256.63L157.75 256.63L157.75 256.63L157.75 257.35L157.75 257.35L157.03 257.35z" stroke="none" fill="#000000" fill-rule="evenodd" /><path id="628" transform="matrix(1 0 0 -1 0 841)" d="M157.75 256.63L228.094 256.63L228.094 256.63L228.094 257.35L228.094 257.35L157.75 257.35z" stroke="none" fill="#000000" fill-rule="evenodd" /><path id="629" transform="matrix(1 0 0 -1 0 841)" d="M228.1 256.63L228.82 256.63L228.82 256.63L228.82 257.35L228.82 257.35L228.1 257.35z" stroke="none" fill="#000000" fill-rule="evenodd" /><path id="630" transform="matrix(1 0 0 -1 0 841)" d="M228.82 256.63L298.924 256.63L298.924 256.63L298.924 257.35L298.924 257.35L228.82 257.35z" stroke="none" fill="#000000" fill-rule="evenodd" /><path id="631" transform="matrix(1 0 0 -1 0 841)" d="M298.92 256.63L299.64 256.63L299.64 256.63L299.64 257.35L299.64 257.35L298.92 257.35z" stroke="none" fill="#000000" fill-rule="evenodd" /><path id="632" transform="matrix(1 0 0 -1 0 841)" d="M299.64 256.63L376.944 256.63L376.944 256.63L376.944 257.35L376.944 257.35L299.64 257.35z" stroke="none" fill="#000000" fill-rule="evenodd" /><path id="633" transform="matrix(1 0 0 -1 0 841)" d="M376.94 256.63L377.66 256.63L377.66 256.63L377.66 257.35L377.66 257.35L376.94 257.35z" stroke="none" fill="#000000" fill-rule="evenodd" /><path id="634" transform="matrix(1 0 0 -1 0 841)" d="M377.66 256.63L454.964 256.63L454.964 256.63L454.964 257.35L454.964 257.35L377.66 257.35z" stroke="none" fill="#000000" fill-rule="evenodd" /><path id="635" transform="matrix(1 0 0 -1 0 841)" d="M454.97 256.63L455.69 256.63L455.69 256.63L455.69 257.35L455.69 257.35L454.97 257.35z" stroke="none" fill="#000000" fill-rule="evenodd" /><path id="636" transform="matrix(1 0 0 -1 0 841)" d="M455.69 256.63L518.594 256.63L518.594 256.63L518.594 257.35L518.594 257.35L455.69 257.35z" stroke="none" fill="#000000" fill-rule="evenodd" /><path id="637" transform="matrix(1 0 0 -1 0 841)" d="M518.59 256.63L519.3101 256.63L519.3101 256.63L519.3101 257.35L519.3101 257.35L518.59 257.35z" stroke="none" fill="#000000" fill-rule="evenodd" /><path id="638" transform="matrix(1 0 0 -1 0 841)" d="M518.59 256.63L519.3101 256.63L519.3101 256.63L519.3101 257.35L519.3101 257.35L518.59 257.35z" stroke="none" fill="#000000" fill-rule="evenodd" /><path id="639" transform="matrix(1 0 0 -1 0 841)" d="M85.944 240.55L86.664 240.55L86.664 240.55L86.664 256.63L86.664 256.63L85.944 256.63z" stroke="none" fill="#000000" fill-rule="evenodd" /><path id="640" transform="matrix(1 0 0 -1 0 841)" d="M157.03 240.55L157.75 240.55L157.75 240.55L157.75 256.63L157.75 256.63L157.03 256.63z" stroke="none" fill="#000000" fill-rule="evenodd" /><path id="641" transform="matrix(1 0 0 -1 0 841)" d="M228.1 240.55L228.82 240.55L228.82 240.55L228.82 256.63L228.82 256.63L228.1 256.63z" stroke="none" fill="#000000" fill-rule="evenodd" /><path id="642" transform="matrix(1 0 0 -1 0 841)" d="M298.92 240.55L299.64 240.55L299.64 240.55L299.64 256.63L299.64 256.63L298.92 256.63z" stroke="none" fill="#000000" fill-rule="evenodd" /><path id="643" transform="matrix(1 0 0 -1 0 841)" d="M376.94 240.55L377.66 240.55L377.66 240.55L377.66 256.63L377.66 256.63L376.94 256.63z" stroke="none" fill="#000000" fill-rule="evenodd" /><path id="644" transform="matrix(1 0 0 -1 0 841)" d="M454.97 240.55L455.69 240.55L455.69 240.55L455.69 256.63L455.69 256.63L454.97 256.63z" stroke="none" fill="#000000" fill-rule="evenodd" /><path id="645" transform="matrix(1 0 0 -1 0 841)" d="M518.59 240.55L519.3101 240.55L519.3101 240.55L519.3101 256.63L519.3101 256.63L518.59 256.63z" stroke="none" fill="#000000" fill-rule="evenodd" /><g clip-path="url(#31)"><g clip-path="url(#32)"></g><g clip-path="url(#33)"></g><g clip-path="url(#34)"></g></g><g clip-path="url(#35)"><g clip-path="url(#36)"></g><g clip-path="url(#37)"></g></g><g clip-path="url(#38)"><g clip-path="url(#39)"></g><g clip-path="url(#40)"></g></g><g clip-path="url(#41)"><g clip-path="url(#42)"></g><g clip-path="url(#43)"></g></g><g clip-path="url(#44)"><g clip-path="url(#45)"></g><g clip-path="url(#46)"></g></g><g clip-path="url(#47)"><g clip-path="url(#48)"></g><g clip-path="url(#49)"></g></g><path id="669" transform="matrix(1 0 0 -1 0 841)" d="M85.944 239.83L86.664 239.83L86.664 239.83L86.664 240.55L86.664 240.55L85.944 240.55z" stroke="none" fill="#000000" fill-rule="evenodd" /><path id="670" transform="matrix(1 0 0 -1 0 841)" d="M86.664 239.83L157.032 239.83L157.032 239.83L157.032 240.55L157.032 240.55L86.664 240.55z" stroke="none" fill="#000000" fill-rule="evenodd" /><path id="671" transform="matrix(1 0 0 -1 0 841)" d="M157.03 239.83L157.75 239.83L157.75 239.83L157.75 240.55L157.75 240.55L157.03 240.55z" stroke="none" fill="#000000" fill-rule="evenodd" /><path id="672" transform="matrix(1 0 0 -1 0 841)" d="M157.75 239.83L228.094 239.83L228.094 239.83L228.094 240.55L228.094 240.55L157.75 240.55z" stroke="none" fill="#000000" fill-rule="evenodd" /><path id="673" transform="matrix(1 0 0 -1 0 841)" d="M228.1 239.83L228.82 239.83L228.82 239.83L228.82 240.55L228.82 240.55L228.1 240.55z" stroke="none" fill="#000000" fill-rule="evenodd" /><path id="674" transform="matrix(1 0 0 -1 0 841)" d="M228.82 239.83L298.924 239.83L298.924 239.83L298.924 240.55L298.924 240.55L228.82 240.55z" stroke="none" fill="#000000" fill-rule="evenodd" /><path id="675" transform="matrix(1 0 0 -1 0 841)" d="M298.92 239.83L299.64 239.83L299.64 239.83L299.64 240.55L299.64 240.55L298.92 240.55z" stroke="none" fill="#000000" fill-rule="evenodd" /><path id="676" transform="matrix(1 0 0 -1 0 841)" d="M299.64 239.83L376.944 239.83L376.944 239.83L376.944 240.55L376.944 240.55L299.64 240.55z" stroke="none" fill="#000000" fill-rule="evenodd" /><path id="677" transform="matrix(1 0 0 -1 0 841)" d="M376.94 239.83L377.66 239.83L377.66 239.83L377.66 240.55L377.66 240.55L376.94 240.55z" stroke="none" fill="#000000" fill-rule="evenodd" /><path id="678" transform="matrix(1 0 0 -1 0 841)" d="M377.66 239.83L454.964 239.83L454.964 239.83L454.964 240.55L454.964 240.55L377.66 240.55z" stroke="none" fill="#000000" fill-rule="evenodd" /><path id="679" transform="matrix(1 0 0 -1 0 841)" d="M454.97 239.83L455.69 239.83L455.69 239.83L455.69 240.55L455.69 240.55L454.97 240.55z" stroke="none" fill="#000000" fill-rule="evenodd" /><path id="680" transform="matrix(1 0 0 -1 0 841)" d="M455.69 239.83L518.594 239.83L518.594 239.83L518.594 240.55L518.594 240.55L455.69 240.55z" stroke="none" fill="#000000" fill-rule="evenodd" /><path id="681" transform="matrix(1 0 0 -1 0 841)" d="M518.59 239.83L519.3101 239.83L519.3101 239.83L519.3101 240.55L519.3101 240.55L518.59 240.55z" stroke="none" fill="#000000" fill-rule="evenodd" /><path id="682" transform="matrix(1 0 0 -1 0 841)" d="M85.944 218.23L86.664 218.23L86.664 218.23L86.664 239.83L86.664 239.83L85.944 239.83z" stroke="none" fill="#000000" fill-rule="evenodd" /><path id="683" transform="matrix(1 0 0 -1 0 841)" d="M85.944 217.51L86.664 217.51L86.664 217.51L86.664 218.23L86.664 218.23L85.944 218.23z" stroke="none" fill="#000000" fill-rule="evenodd" /><path id="684" transform="matrix(1 0 0 -1 0 841)" d="M85.944 217.51L86.664 217.51L86.664 217.51L86.664 218.23L86.664 218.23L85.944 218.23z" stroke="none" fill="#000000" fill-rule="evenodd" /><path id="685" transform="matrix(1 0 0 -1 0 841)" d="M86.664 217.51L157.032 217.51L157.032 217.51L157.032 218.23L157.032 218.23L86.664 218.23z" stroke="none" fill="#000000" fill-rule="evenodd" /><path id="686" transform="matrix(1 0 0 -1 0 841)" d="M157.03 218.23L157.75 218.23L157.75 218.23L157.75 239.83L157.75 239.83L157.03 239.83z" stroke="none" fill="#000000" fill-rule="evenodd" /><path id="687" transform="matrix(1 0 0 -1 0 841)" d="M157.03 217.51L157.75 217.51L157.75 217.51L157.75 218.23L157.75 218.23L157.03 218.23z" stroke="none" fill="#000000" fill-rule="evenodd" /><path id="688" transform="matrix(1 0 0 -1 0 841)" d="M157.75 217.51L228.094 217.51L228.094 217.51L228.094 218.23L228.094 218.23L157.75 218.23z" stroke="none" fill="#000000" fill-rule="evenodd" /><path id="689" transform="matrix(1 0 0 -1 0 841)" d="M228.1 218.23L228.82 218.23L228.82 218.23L228.82 239.83L228.82 239.83L228.1 239.83z" stroke="none" fill="#000000" fill-rule="evenodd" /><path id="690" transform="matrix(1 0 0 -1 0 841)" d="M228.1 217.51L228.82 217.51L228.82 217.51L228.82 218.23L228.82 218.23L228.1 218.23z" stroke="none" fill="#000000" fill-rule="evenodd" /><path id="691" transform="matrix(1 0 0 -1 0 841)" d="M228.82 217.51L298.924 217.51L298.924 217.51L298.924 218.23L298.924 218.23L228.82 218.23z" stroke="none" fill="#000000" fill-rule="evenodd" /><path id="692" transform="matrix(1 0 0 -1 0 841)" d="M298.92 218.23L299.64 218.23L299.64 218.23L299.64 239.83L299.64 239.83L298.92 239.83z" stroke="none" fill="#000000" fill-rule="evenodd" /><path id="693" transform="matrix(1 0 0 -1 0 841)" d="M298.92 217.51L299.64 217.51L299.64 217.51L299.64 218.23L299.64 218.23L298.92 218.23z" stroke="none" fill="#000000" fill-rule="evenodd" /><path id="694" transform="matrix(1 0 0 -1 0 841)" d="M299.64 217.51L376.944 217.51L376.944 217.51L376.944 218.23L376.944 218.23L299.64 218.23z" stroke="none" fill="#000000" fill-rule="evenodd" /><path id="695" transform="matrix(1 0 0 -1 0 841)" d="M376.94 218.23L377.66 218.23L377.66 218.23L377.66 239.83L377.66 239.83L376.94 239.83z" stroke="none" fill="#000000" fill-rule="evenodd" /><path id="696" transform="matrix(1 0 0 -1 0 841)" d="M376.94 217.51L377.66 217.51L377.66 217.51L377.66 218.23L377.66 218.23L376.94 218.23z" stroke="none" fill="#000000" fill-rule="evenodd" /><path id="697" transform="matrix(1 0 0 -1 0 841)" d="M377.66 217.51L454.964 217.51L454.964 217.51L454.964 218.23L454.964 218.23L377.66 218.23z" stroke="none" fill="#000000" fill-rule="evenodd" /><path id="698" transform="matrix(1 0 0 -1 0 841)" d="M454.97 218.23L455.69 218.23L455.69 218.23L455.69 239.83L455.69 239.83L454.97 239.83z" stroke="none" fill="#000000" fill-rule="evenodd" /><path id="699" transform="matrix(1 0 0 -1 0 841)" d="M454.97 217.51L455.69 217.51L455.69 217.51L455.69 218.23L455.69 218.23L454.97 218.23z" stroke="none" fill="#000000" fill-rule="evenodd" /><path id="700" transform="matrix(1 0 0 -1 0 841)" d="M455.69 217.51L518.594 217.51L518.594 217.51L518.594 218.23L518.594 218.23L455.69 218.23z" stroke="none" fill="#000000" fill-rule="evenodd" /><path id="701" transform="matrix(1 0 0 -1 0 841)" d="M518.59 218.23L519.3101 218.23L519.3101 218.23L519.3101 239.83L519.3101 239.83L518.59 239.83z" stroke="none" fill="#000000" fill-rule="evenodd" /><path id="702" transform="matrix(1 0 0 -1 0 841)" d="M518.59 217.51L519.3101 217.51L519.3101 217.51L519.3101 218.23L519.3101 218.23L518.59 218.23z" stroke="none" fill="#000000" fill-rule="evenodd" /><path id="703" transform="matrix(1 0 0 -1 0 841)" d="M518.59 217.51L519.3101 217.51L519.3101 217.51L519.3101 218.23L519.3101 218.23L518.59 218.23z" stroke="none" fill="#000000" fill-rule="evenodd" /><g clip-path="url(#50)"><g clip-path="url(#51)"></g><g clip-path="url(#52)"></g></g><g clip-path="url(#53)"><g clip-path="url(#54)"></g><g clip-path="url(#55)"></g></g><g clip-path="url(#56)"><g clip-path="url(#57)"></g><g clip-path="url(#58)"></g></g><g clip-path="url(#59)"><g clip-path="url(#60)"></g><g clip-path="url(#61)"></g><g clip-path="url(#62)"></g></g><g clip-path="url(#63)"><g clip-path="url(#64)"></g><g clip-path="url(#65)"></g><g clip-path="url(#66)"></g><g clip-path="url(#67)"></g></g><g clip-path="url(#68)"><g clip-path="url(#69)"></g><g clip-path="url(#70)"></g><g clip-path="url(#71)"></g><g clip-path="url(#72)"></g></g><g clip-path="url(#73)"><g clip-path="url(#74)"></g><g clip-path="url(#75)"></g><g clip-path="url(#76)"></g><g clip-path="url(#77)"></g></g><path id="909" transform="matrix(1 0 0 -1 0 841)" d="M85.944 102.29L86.664 102.29L86.664 102.29L86.664 103.01L86.664 103.01L85.944 103.01z" stroke="none" fill="#000000" fill-rule="evenodd" /><path id="910" transform="matrix(1 0 0 -1 0 841)" d="M85.944 102.29L86.664 102.29L86.664 102.29L86.664 103.01L86.664 103.01L85.944 103.01z" stroke="none" fill="#000000" fill-rule="evenodd" /><path id="911" transform="matrix(1 0 0 -1 0 841)" d="M86.664 102.29L156.792 102.29L156.792 102.29L156.792 103.01L156.792 103.01L86.664 103.01z" stroke="none" fill="#000000" fill-rule="evenodd" /><path id="912" transform="matrix(1 0 0 -1 0 841)" d="M156.79 102.29L157.51 102.29L157.51 102.29L157.51 103.01L157.51 103.01L156.79 103.01z" stroke="none" fill="#000000" fill-rule="evenodd" /><path id="913" transform="matrix(1 0 0 -1 0 841)" d="M157.51 102.29L212.23 102.29L212.23 102.29L212.23 103.01L212.23 103.01L157.51 103.01z" stroke="none" fill="#000000" fill-rule="evenodd" /><path id="914" transform="matrix(1 0 0 -1 0 841)" d="M212.23 102.29L212.95 102.29L212.95 102.29L212.95 103.01L212.95 103.01L212.23 103.01z" stroke="none" fill="#000000" fill-rule="evenodd" /><path id="915" transform="matrix(1 0 0 -1 0 841)" d="M212.95 102.29L276.094 102.29L276.094 102.29L276.094 103.01L276.094 103.01L212.95 103.01z" stroke="none" fill="#000000" fill-rule="evenodd" /><path id="916" transform="matrix(1 0 0 -1 0 841)" d="M276.1 102.29L276.82 102.29L276.82 102.29L276.82 103.01L276.82 103.01L276.1 103.01z" stroke="none" fill="#000000" fill-rule="evenodd" /><path id="917" transform="matrix(1 0 0 -1 0 841)" d="M276.82 102.29L339.724 102.29L339.724 102.29L339.724 103.01L339.724 103.01L276.82 103.01z" stroke="none" fill="#000000" fill-rule="evenodd" /><path id="918" transform="matrix(1 0 0 -1 0 841)" d="M339.72 102.29L340.44 102.29L340.44 102.29L340.44 103.01L340.44 103.01L339.72 103.01z" stroke="none" fill="#000000" fill-rule="evenodd" /><path id="919" transform="matrix(1 0 0 -1 0 841)" d="M340.44 102.29L403.584 102.29L403.584 102.29L403.584 103.01L403.584 103.01L340.44 103.01z" stroke="none" fill="#000000" fill-rule="evenodd" /><path id="920" transform="matrix(1 0 0 -1 0 841)" d="M403.58 102.29L404.3 102.29L404.3 102.29L404.3 103.01L404.3 103.01L403.58 103.01z" stroke="none" fill="#000000" fill-rule="evenodd" /><path id="921" transform="matrix(1 0 0 -1 0 841)" d="M404.3 102.29L467.444 102.29L467.444 102.29L467.444 103.01L467.444 103.01L404.3 103.01z" stroke="none" fill="#000000" fill-rule="evenodd" /><path id="922" transform="matrix(1 0 0 -1 0 841)" d="M467.45 102.29L468.17 102.29L468.17 102.29L468.17 103.01L468.17 103.01L467.45 103.01z" stroke="none" fill="#000000" fill-rule="evenodd" /><path id="923" transform="matrix(1 0 0 -1 0 841)" d="M468.17 102.29L524.114 102.29L524.114 102.29L524.114 103.01L524.114 103.01L468.17 103.01z" stroke="none" fill="#000000" fill-rule="evenodd" /><path id="924" transform="matrix(1 0 0 -1 0 841)" d="M524.11 102.29L524.83 102.29L524.83 102.29L524.83 103.01L524.83 103.01L524.11 103.01z" stroke="none" fill="#000000" fill-rule="evenodd" /><path id="925" transform="matrix(1 0 0 -1 0 841)" d="M524.11 102.29L524.83 102.29L524.83 102.29L524.83 103.01L524.83 103.01L524.11 103.01z" stroke="none" fill="#000000" fill-rule="evenodd" /><path id="926" transform="matrix(1 0 0 -1 0 841)" d="M85.944 84.984L86.664 84.984L86.664 84.984L86.664 102.288L86.664 102.288L85.944 102.288z" stroke="none" fill="#000000" fill-rule="evenodd" /><path id="927" transform="matrix(1 0 0 -1 0 841)" d="M156.79 84.984L157.51 84.984L157.51 84.984L157.51 102.288L157.51 102.288L156.79 102.288z" stroke="none" fill="#000000" fill-rule="evenodd" /><path id="928" transform="matrix(1 0 0 -1 0 841)" d="M212.23 84.984L212.95 84.984L212.95 84.984L212.95 102.288L212.95 102.288L212.23 102.288z" stroke="none" fill="#000000" fill-rule="evenodd" /><path id="929" transform="matrix(1 0 0 -1 0 841)" d="M276.1 84.984L276.82 84.984L276.82 84.984L276.82 102.288L276.82 102.288L276.1 102.288z" stroke="none" fill="#000000" fill-rule="evenodd" /><path id="930" transform="matrix(1 0 0 -1 0 841)" d="M339.72 84.984L340.44 84.984L340.44 84.984L340.44 102.288L340.44 102.288L339.72 102.288z" stroke="none" fill="#000000" fill-rule="evenodd" /><path id="931" transform="matrix(1 0 0 -1 0 841)" d="M403.58 84.984L404.3 84.984L404.3 84.984L404.3 102.288L404.3 102.288L403.58 102.288z" stroke="none" fill="#000000" fill-rule="evenodd" /><path id="932" transform="matrix(1 0 0 -1 0 841)" d="M467.45 84.984L468.17 84.984L468.17 84.984L468.17 102.288L468.17 102.288L467.45 102.288z" stroke="none" fill="#000000" fill-rule="evenodd" /><path id="933" transform="matrix(1 0 0 -1 0 841)" d="M524.11 84.984L524.83 84.984L524.83 84.984L524.83 102.288L524.83 102.288L524.11 102.288z" stroke="none" fill="#000000" fill-rule="evenodd" /><g clip-path="url(#78)"><g clip-path="url(#79)"></g><g clip-path="url(#80)"></g></g><g clip-path="url(#81)"><g clip-path="url(#82)"></g><g clip-path="url(#83)"></g></g><g clip-path="url(#84)"><g clip-path="url(#85)"></g><g clip-path="url(#86)"></g><g clip-path="url(#87)"></g></g><g clip-path="url(#88)"><g clip-path="url(#89)"></g><g clip-path="url(#90)"></g><g clip-path="url(#91)"></g></g><g clip-path="url(#92)"><g clip-path="url(#93)"></g><g clip-path="url(#94)"></g><g clip-path="url(#95)"></g></g><g clip-path="url(#96)"><g clip-path="url(#97)"></g><g clip-path="url(#98)"></g></g><g clip-path="url(#99)"><g clip-path="url(#100)"></g><g clip-path="url(#101)"></g></g><path id="946" transform="matrix(1 0 0 -1 0 841)" d="M85.944 84.264L86.664 84.264L86.664 84.264L86.664 84.98397L86.664 84.98397L85.944 84.98397z" stroke="none" fill="#000000" fill-rule="evenodd" /><path id="947" transform="matrix(1 0 0 -1 0 841)" d="M86.664 84.264L156.792 84.264L156.792 84.264L156.792 84.98397L156.792 84.98397L86.664 84.98397z" stroke="none" fill="#000000" fill-rule="evenodd" /><path id="948" transform="matrix(1 0 0 -1 0 841)" d="M156.79 84.264L157.51 84.264L157.51 84.264L157.51 84.98397L157.51 84.98397L156.79 84.98397z" stroke="none" fill="#000000" fill-rule="evenodd" /><path id="949" transform="matrix(1 0 0 -1 0 841)" d="M157.51 84.264L212.23 84.264L212.23 84.264L212.23 84.98397L212.23 84.98397L157.51 84.98397z" stroke="none" fill="#000000" fill-rule="evenodd" /><path id="950" transform="matrix(1 0 0 -1 0 841)" d="M212.23 84.264L212.95 84.264L212.95 84.264L212.95 84.98397L212.95 84.98397L212.23 84.98397z" stroke="none" fill="#000000" fill-rule="evenodd" /><path id="951" transform="matrix(1 0 0 -1 0 841)" d="M212.95 84.264L276.094 84.264L276.094 84.264L276.094 84.98397L276.094 84.98397L212.95 84.98397z" stroke="none" fill="#000000" fill-rule="evenodd" /><path id="952" transform="matrix(1 0 0 -1 0 841)" d="M276.1 84.264L276.82 84.264L276.82 84.264L276.82 84.98397L276.82 84.98397L276.1 84.98397z" stroke="none" fill="#000000" fill-rule="evenodd" /><path id="953" transform="matrix(1 0 0 -1 0 841)" d="M276.82 84.264L339.724 84.264L339.724 84.264L339.724 84.98397L339.724 84.98397L276.82 84.98397z" stroke="none" fill="#000000" fill-rule="evenodd" /><path id="954" transform="matrix(1 0 0 -1 0 841)" d="M339.72 84.264L340.44 84.264L340.44 84.264L340.44 84.98397L340.44 84.98397L339.72 84.98397z" stroke="none" fill="#000000" fill-rule="evenodd" /><path id="955" transform="matrix(1 0 0 -1 0 841)" d="M340.44 84.264L403.584 84.264L403.584 84.264L403.584 84.98397L403.584 84.98397L340.44 84.98397z" stroke="none" fill="#000000" fill-rule="evenodd" /><path id="956" transform="matrix(1 0 0 -1 0 841)" d="M403.58 84.264L404.3 84.264L404.3 84.264L404.3 84.98397L404.3 84.98397L403.58 84.98397z" stroke="none" fill="#000000" fill-rule="evenodd" /><path id="957" transform="matrix(1 0 0 -1 0 841)" d="M404.3 84.264L467.444 84.264L467.444 84.264L467.444 84.98397L467.444 84.98397L404.3 84.98397z" stroke="none" fill="#000000" fill-rule="evenodd" /><path id="958" transform="matrix(1 0 0 -1 0 841)" d="M467.45 84.264L468.17 84.264L468.17 84.264L468.17 84.98397L468.17 84.98397L467.45 84.98397z" stroke="none" fill="#000000" fill-rule="evenodd" /><path id="959" transform="matrix(1 0 0 -1 0 841)" d="M468.17 84.264L524.114 84.264L524.114 84.264L524.114 84.98397L524.114 84.98397L468.17 84.98397z" stroke="none" fill="#000000" fill-rule="evenodd" /><path id="960" transform="matrix(1 0 0 -1 0 841)" d="M524.11 84.264L524.83 84.264L524.83 84.264L524.83 84.98397L524.83 84.98397L524.11 84.98397z" stroke="none" fill="#000000" fill-rule="evenodd" /><path id="961" transform="matrix(1 0 0 -1 0 841)" d="M85.944 68.184L86.664 68.184L86.664 68.184L86.664 84.264L86.664 84.264L85.944 84.264z" stroke="none" fill="#000000" fill-rule="evenodd" /><path id="962" transform="matrix(1 0 0 -1 0 841)" d="M85.944 67.464L86.664 67.464L86.664 67.464L86.664 68.18397L86.664 68.18397L85.944 68.18397z" stroke="none" fill="#000000" fill-rule="evenodd" /><path id="963" transform="matrix(1 0 0 -1 0 841)" d="M85.944 67.464L86.664 67.464L86.664 67.464L86.664 68.18397L86.664 68.18397L85.944 68.18397z" stroke="none" fill="#000000" fill-rule="evenodd" /><path id="964" transform="matrix(1 0 0 -1 0 841)" d="M86.664 67.464L156.792 67.464L156.792 67.464L156.792 68.18397L156.792 68.18397L86.664 68.18397z" stroke="none" fill="#000000" fill-rule="evenodd" /><path id="965" transform="matrix(1 0 0 -1 0 841)" d="M156.79 68.184L157.51 68.184L157.51 68.184L157.51 84.264L157.51 84.264L156.79 84.264z" stroke="none" fill="#000000" fill-rule="evenodd" /><path id="966" transform="matrix(1 0 0 -1 0 841)" d="M156.79 67.464L157.51 67.464L157.51 67.464L157.51 68.18397L157.51 68.18397L156.79 68.18397z" stroke="none" fill="#000000" fill-rule="evenodd" /><path id="967" transform="matrix(1 0 0 -1 0 841)" d="M157.51 67.464L212.23 67.464L212.23 67.464L212.23 68.18397L212.23 68.18397L157.51 68.18397z" stroke="none" fill="#000000" fill-rule="evenodd" /><path id="968" transform="matrix(1 0 0 -1 0 841)" d="M212.23 68.184L212.95 68.184L212.95 68.184L212.95 84.264L212.95 84.264L212.23 84.264z" stroke="none" fill="#000000" fill-rule="evenodd" /><path id="969" transform="matrix(1 0 0 -1 0 841)" d="M212.23 67.464L212.95 67.464L212.95 67.464L212.95 68.18397L212.95 68.18397L212.23 68.18397z" stroke="none" fill="#000000" fill-rule="evenodd" /><path id="970" transform="matrix(1 0 0 -1 0 841)" d="M212.95 67.464L276.094 67.464L276.094 67.464L276.094 68.18397L276.094 68.18397L212.95 68.18397z" stroke="none" fill="#000000" fill-rule="evenodd" /><path id="971" transform="matrix(1 0 0 -1 0 841)" d="M276.1 68.184L276.82 68.184L276.82 68.184L276.82 84.264L276.82 84.264L276.1 84.264z" stroke="none" fill="#000000" fill-rule="evenodd" /><path id="972" transform="matrix(1 0 0 -1 0 841)" d="M276.1 67.464L276.82 67.464L276.82 67.464L276.82 68.18397L276.82 68.18397L276.1 68.18397z" stroke="none" fill="#000000" fill-rule="evenodd" /><path id="973" transform="matrix(1 0 0 -1 0 841)" d="M276.82 67.464L339.724 67.464L339.724 67.464L339.724 68.18397L339.724 68.18397L276.82 68.18397z" stroke="none" fill="#000000" fill-rule="evenodd" /><path id="974" transform="matrix(1 0 0 -1 0 841)" d="M339.72 68.184L340.44 68.184L340.44 68.184L340.44 84.264L340.44 84.264L339.72 84.264z" stroke="none" fill="#000000" fill-rule="evenodd" /><path id="975" transform="matrix(1 0 0 -1 0 841)" d="M339.72 67.464L340.44 67.464L340.44 67.464L340.44 68.18397L340.44 68.18397L339.72 68.18397z" stroke="none" fill="#000000" fill-rule="evenodd" /><path id="976" transform="matrix(1 0 0 -1 0 841)" d="M340.44 67.464L403.584 67.464L403.584 67.464L403.584 68.18397L403.584 68.18397L340.44 68.18397z" stroke="none" fill="#000000" fill-rule="evenodd" /><path id="977" transform="matrix(1 0 0 -1 0 841)" d="M403.58 68.184L404.3 68.184L404.3 68.184L404.3 84.264L404.3 84.264L403.58 84.264z" stroke="none" fill="#000000" fill-rule="evenodd" /><path id="978" transform="matrix(1 0 0 -1 0 841)" d="M403.58 67.464L404.3 67.464L404.3 67.464L404.3 68.18397L404.3 68.18397L403.58 68.18397z" stroke="none" fill="#000000" fill-rule="evenodd" /><path id="979" transform="matrix(1 0 0 -1 0 841)" d="M404.3 67.464L467.444 67.464L467.444 67.464L467.444 68.18397L467.444 68.18397L404.3 68.18397z" stroke="none" fill="#000000" fill-rule="evenodd" /><path id="980" transform="matrix(1 0 0 -1 0 841)" d="M467.45 68.184L468.17 68.184L468.17 68.184L468.17 84.264L468.17 84.264L467.45 84.264z" stroke="none" fill="#000000" fill-rule="evenodd" /><path id="981" transform="matrix(1 0 0 -1 0 841)" d="M467.45 67.464L468.17 67.464L468.17 67.464L468.17 68.18397L468.17 68.18397L467.45 68.18397z" stroke="none" fill="#000000" fill-rule="evenodd" /><path id="982" transform="matrix(1 0 0 -1 0 841)" d="M468.17 67.464L524.114 67.464L524.114 67.464L524.114 68.18397L524.114 68.18397L468.17 68.18397z" stroke="none" fill="#000000" fill-rule="evenodd" /><path id="983" transform="matrix(1 0 0 -1 0 841)" d="M524.11 68.184L524.83 68.184L524.83 68.184L524.83 84.264L524.83 84.264L524.11 84.264z" stroke="none" fill="#000000" fill-rule="evenodd" /><path id="984" transform="matrix(1 0 0 -1 0 841)" d="M524.11 67.464L524.83 67.464L524.83 67.464L524.83 68.18397L524.83 68.18397L524.11 68.18397z" stroke="none" fill="#000000" fill-rule="evenodd" /><path id="985" transform="matrix(1 0 0 -1 0 841)" d="M524.11 67.464L524.83 67.464L524.83 67.464L524.83 68.18397L524.83 68.18397L524.11 68.18397z" stroke="none" fill="#000000" fill-rule="evenodd" /></g></g></svg>