<svg xmlns="http://www.w3.org/2000/svg" xmlns:xlink="http://www.w3.org/1999/xlink" id="body_7" preserveAspectRatio="xMinYMin meet" viewBox="0 0 793 1121"><defs><clipPath id="1"><path id="" clip-rule="evenodd" transform="matrix(1 0 0 1 0 0)" d="M0 841L0 -0.9199829L0 -0.9199829L595.2 -0.9199829L595.2 -0.9199829L595.2 841L595.2 841L0 841z" /></clipPath><clipPath id="2"><path id="" clip-rule="evenodd" transform="matrix(1 0 0 1 0 0)" d="M169.32 132.15L468.6242 132.15L468.6242 132.15L468.6242 55.6001L468.6242 55.6001L169.32 55.6001z" /></clipPath><clipPath id="3"><path id="" clip-rule="evenodd" transform="matrix(1 0 0 1 0 0)" d="M129.22 348.9L525.9598 348.9L525.9598 348.9L525.9598 329.4496L525.9598 329.4496L129.22 329.4496z" /></clipPath></defs><g transform="matrix(1.333333 0 0 1.333333 0 0)"><g clip-path="url(#1)"><g clip-path="url(#2)"><path id="1" transform="matrix(1 0 0 -1 0 841)" d="M211.5123 767.3583L236.7488 767.3583" stroke="#000000" stroke-width="0.491463" fill="none" /><path id="2" transform="matrix(1 0 0 -1 0 841)" d="M379.5677 767.3583L404.8241 767.3583" stroke="#000000" stroke-width="0.491463" fill="none" /><path id="3" transform="matrix(1 0 0 -1 0 841)" d="M211.6351 727.7878L236.8716 727.7878" stroke="#000000" stroke-width="0.491463" fill="none" /><path id="4" transform="matrix(1 0 0 -1 0 841)" d="M372.4399 727.7878L397.7064 727.7878" stroke="#000000" stroke-width="0.491463" fill="none" /></g><path id="135" transform="matrix(1 0 0 -1 0 841)" d="M83.544 667.39L554.374 667.39L554.374 667.39L554.374 683.47L554.374 683.47L83.544 683.47z" stroke="none" fill="#FFFFFF" fill-rule="evenodd" /><path id="187" transform="matrix(1 0 0 -1 0 841)" d="M83.544 639.31L554.374 639.31L554.374 639.31L554.374 667.39L554.374 667.39L83.544 667.39z" stroke="none" fill="#FFFFFF" fill-rule="evenodd" /><path id="203" transform="matrix(1 0 0 -1 0 841)" d="M83.544 623.23L554.374 623.23L554.374 623.23L554.374 639.31L554.374 639.31L83.544 639.31z" stroke="none" fill="#FFFFFF" fill-rule="evenodd" /><path id="265" transform="matrix(1 0 0 -1 0 841)" d="M83.544 607.13L554.374 607.13L554.374 607.13L554.374 623.234L554.374 623.234L83.544 623.234z" stroke="none" fill="#FFFFFF" fill-rule="evenodd" /><path id="307" transform="matrix(1 0 0 -1 0 841)" d="M83.544 591.05L554.374 591.05L554.374 591.05L554.374 607.13L554.374 607.13L83.544 607.13z" stroke="none" fill="#FFFFFF" fill-rule="evenodd" /><path id="362" transform="matrix(1 0 0 -1 0 841)" d="M83.544 574.97L554.374 574.97L554.374 574.97L554.374 591.05L554.374 591.05L83.544 591.05z" stroke="none" fill="#FFFFFF" fill-rule="evenodd" /><path id="414" transform="matrix(1 0 0 -1 0 841)" d="M83.544 558.89L554.374 558.89L554.374 558.89L554.374 574.97L554.374 574.97L83.544 574.97z" stroke="none" fill="#FFFFFF" fill-rule="evenodd" /><g clip-path="url(#3)"></g></g></g></svg>