<svg xmlns="http://www.w3.org/2000/svg" xmlns:xlink="http://www.w3.org/1999/xlink" id="body_17" preserveAspectRatio="xMinYMin meet" viewBox="0 0 793 1121"><defs><clipPath id="1"><path id="" clip-rule="evenodd" transform="matrix(1 0 0 1 0 0)" d="M0 841L0 -0.9199829L0 -0.9199829L595.2 -0.9199829L595.2 -0.9199829L595.2 841L595.2 841L0 841z" /></clipPath><clipPath id="2"><path id="" clip-rule="evenodd" transform="matrix(1 0 0 1 0 0)" d="M281.87 78.15002L443.8646 78.15002L443.8646 78.15002L443.8646 55.60028L443.8646 55.60028L281.87 55.60022z" /></clipPath><clipPath id="3"><path id="" clip-rule="evenodd" transform="matrix(1 0 0 1 0 0)" d="M246.37 171.3L486.3652 171.3L486.3652 171.3L486.3652 128.5516L486.3652 128.5516L246.37 128.5516z" /></clipPath><clipPath id="4"><path id="" clip-rule="evenodd" transform="matrix(1 0 0 1 0 0)" d="M188.27 325.1L449.4211 325.1L449.4211 325.1L449.4211 199.1003L449.4211 199.1003L188.27 199.1003z" /></clipPath><clipPath id="5"><path id="" clip-rule="evenodd" transform="matrix(1 0 0 1 0 0)" d="M211.07 501.5L482.522 501.5L482.522 501.5L482.522 369.5035L482.522 369.5035L211.07 369.5035z" /></clipPath><clipPath id="6"><path id="" clip-rule="evenodd" transform="matrix(1 0 0 1 0 0)" d="M180.12 573.3L238.6677 573.3L238.6677 573.3L238.6677 530.5516L238.6677 530.5516L180.12 530.5516z" /></clipPath><clipPath id="7"><path id="" clip-rule="evenodd" transform="matrix(1 0 0 1 0 0)" d="M246.12 573.3L311.4182 573.3L311.4182 573.3L311.4182 529.8518L311.4182 529.8518L246.12 529.8518z" /></clipPath><clipPath id="8"><path id="" clip-rule="evenodd" transform="matrix(1 0 0 1 0 0)" d="M318.82 573.3L381.7227 573.3L381.7227 573.3L381.7227 530.5516L381.7227 530.5516L318.82 530.5516z" /></clipPath><clipPath id="9"><path id="" clip-rule="evenodd" transform="matrix(1 0 0 1 0 0)" d="M388.92 573.3L454.2183 573.3L454.2183 573.3L454.2183 530.5516L454.2183 530.5516L388.92 530.5516z" /></clipPath><clipPath id="10"><path id="" clip-rule="evenodd" transform="matrix(1 0 0 1 0 0)" d="M187.07 622.7L249.2224 622.7L249.2224 622.7L249.2224 580.002L249.2224 580.002L187.07 580.002z" /></clipPath><clipPath id="11"><path id="" clip-rule="evenodd" transform="matrix(1 0 0 1 0 0)" d="M253.07 622.7L345.2229 622.7L345.2229 622.7L345.2229 579.3015L345.2229 579.3015L253.07 579.3015z" /></clipPath><clipPath id="12"><path id="" clip-rule="evenodd" transform="matrix(1 0 0 1 0 0)" d="M352.67 622.7L447.2208 622.7L447.2208 622.7L447.2208 580.002L447.2208 580.002L352.67 580.002z" /></clipPath><clipPath id="13"><path id="" clip-rule="evenodd" transform="matrix(1 0 0 1 0 0)" d="M230.02 713.7L407.6254 713.7L407.6254 713.7L407.6254 650.5483L407.6254 650.5483L230.02 650.5483z" /></clipPath></defs><g transform="matrix(1.333333 0 0 1.333333 0 0)"><g clip-path="url(#1)"><g clip-path="url(#2)"></g><g clip-path="url(#3)"></g><g clip-path="url(#4)"><path id="174" transform="matrix(1 0 0 -1 0 841)" d="M201.6924 620.6148L222.3279 620.6148" stroke="#000000" stroke-width="0.6870492" fill="none" /><path id="175" transform="matrix(1 0 0 -1 0 841)" d="M199.3857 578.9858L218.6227 578.9858" stroke="#000000" stroke-width="0.6870492" fill="none" /><path id="176" transform="matrix(1 0 0 -1 0 841)" d="M197.5698 537.5031L218.3286 537.5031" stroke="#000000" stroke-width="0.6870492" fill="none" /></g><g clip-path="url(#5)"></g><g clip-path="url(#6)"></g><g clip-path="url(#7)"></g><g clip-path="url(#8)"></g><g clip-path="url(#9)"></g><g clip-path="url(#10)"></g><g clip-path="url(#11)"></g><g clip-path="url(#12)"></g><g clip-path="url(#13)"></g></g></g></svg>