<svg xmlns="http://www.w3.org/2000/svg" xmlns:xlink="http://www.w3.org/1999/xlink" id="body_16" preserveAspectRatio="xMinYMin meet" viewBox="0 0 793 1121"><defs><clipPath id="1"><path id="" clip-rule="evenodd" transform="matrix(1 0 0 1 0 0)" d="M0 841L0 -0.9199829L0 -0.9199829L595.2 -0.9199829L595.2 -0.9199829L595.2 841L595.2 841L0 841z" /></clipPath><clipPath id="2"><path id="" clip-rule="evenodd" transform="matrix(1 0 0 1 0 0)" d="M165.72 166.25L357.0133 166.25L357.0133 166.25L357.0133 77.69775L357.0133 77.69775L165.72 77.69775z" /></clipPath><clipPath id="3"><path id="" clip-rule="evenodd" transform="matrix(1 0 0 1 0 0)" d="M363.97 136.25L471.9743 136.25L471.9743 136.25L471.9743 81.50085L471.9743 81.50085L363.97 81.50085z" /></clipPath><clipPath id="4"><path id="" clip-rule="evenodd" transform="matrix(1 0 0 1 0 0)" d="M84.96 628.84L521.28 628.84L521.28 628.84L521.28 364.36L521.28 364.36L84.96 364.36z" /></clipPath><clipPath id="5"><path id="" clip-rule="evenodd" transform="matrix(1 0 0 1 0 0)" d="M84.96 628.84L521.28 628.84L521.28 628.84L521.28 364.36L521.28 364.36L84.96 364.36z" /></clipPath><clipPath id="6"><path id="" clip-rule="evenodd" transform="matrix(1 0 0 1 0 0)" d="M84.96 628.84L521.28 628.84L521.28 628.84L521.28 364.36L521.28 364.36L84.96 364.36z" /></clipPath><clipPath id="7"><path id="" clip-rule="evenodd" transform="matrix(1 0 0 1 0 0)" d="M84.96 628.84L521.28 628.84L521.28 628.84L521.28 364.36L521.28 364.36L84.96 364.36z" /></clipPath><clipPath id="8"><path id="" clip-rule="evenodd" transform="matrix(1 0 0 1 0 0)" d="M84.96 628.84L521.28 628.84L521.28 628.84L521.28 364.36L521.28 364.36L84.96 364.36z" /></clipPath><clipPath id="9"><path id="" clip-rule="evenodd" transform="matrix(1 0 0 1 0 0)" d="M84.96 628.84L521.28 628.84L521.28 628.84L521.28 364.36L521.28 364.36L84.96 364.36z" /></clipPath><clipPath id="10"><path id="" clip-rule="evenodd" transform="matrix(1 0 0 1 0 0)" d="M84.96 628.84L521.28 628.84L521.28 628.84L521.28 364.36L521.28 364.36L84.96 364.36z" /></clipPath><clipPath id="11"><path id="" clip-rule="evenodd" transform="matrix(1 0 0 1 0 0)" d="M84.96 628.84L521.28 628.84L521.28 628.84L521.28 364.36L521.28 364.36L84.96 364.36z" /></clipPath><clipPath id="12"><path id="" clip-rule="evenodd" transform="matrix(1 0 0 1 0 0)" d="M84.96 628.84L521.28 628.84L521.28 628.84L521.28 364.36L521.28 364.36L84.96 364.36z" /></clipPath><clipPath id="13"><path id="" clip-rule="evenodd" transform="matrix(1 0 0 1 0 0)" d="M84.96 628.84L521.28 628.84L521.28 628.84L521.28 364.36L521.28 364.36L84.96 364.36z" /></clipPath><clipPath id="14"><path id="" clip-rule="evenodd" transform="matrix(1 0 0 1 0 0)" d="M84.96 628.84L521.28 628.84L521.28 628.84L521.28 364.36L521.28 364.36L84.96 364.36z" /></clipPath><clipPath id="15"><path id="" clip-rule="evenodd" transform="matrix(1 0 0 1 0 0)" d="M84.96 628.84L521.28 628.84L521.28 628.84L521.28 364.36L521.28 364.36L84.96 364.36z" /></clipPath><clipPath id="16"><path id="" clip-rule="evenodd" transform="matrix(1 0 0 1 0 0)" d="M84.96 628.84L521.28 628.84L521.28 628.84L521.28 364.36L521.28 364.36L84.96 364.36z" /></clipPath><clipPath id="17"><path id="" clip-rule="evenodd" transform="matrix(1 0 0 1 0 0)" d="M84.96 628.84L521.28 628.84L521.28 628.84L521.28 364.36L521.28 364.36L84.96 364.36z" /></clipPath><clipPath id="18"><path id="" clip-rule="evenodd" transform="matrix(1 0 0 1 0 0)" d="M84.96 628.84L521.28 628.84L521.28 628.84L521.28 364.36L521.28 364.36L84.96 364.36z" /></clipPath><clipPath id="19"><path id="" clip-rule="evenodd" transform="matrix(1 0 0 1 0 0)" d="M84.96 628.84L521.28 628.84L521.28 628.84L521.28 364.36L521.28 364.36L84.96 364.36z" /></clipPath><clipPath id="20"><path id="" clip-rule="evenodd" transform="matrix(1 0 0 1 0 0)" d="M84.96 628.84L521.28 628.84L521.28 628.84L521.28 364.36L521.28 364.36L84.96 364.36z" /></clipPath><clipPath id="21"><path id="" clip-rule="evenodd" transform="matrix(1 0 0 1 0 0)" d="M84.96 628.84L521.28 628.84L521.28 628.84L521.28 364.36L521.28 364.36L84.96 364.36z" /></clipPath><clipPath id="22"><path id="" clip-rule="evenodd" transform="matrix(1 0 0 1 0 0)" d="M84.96 628.84L521.28 628.84L521.28 628.84L521.28 364.36L521.28 364.36L84.96 364.36z" /></clipPath><clipPath id="23"><path id="" clip-rule="evenodd" transform="matrix(1 0 0 1 0 0)" d="M84.96 628.84L521.28 628.84L521.28 628.84L521.28 364.36L521.28 364.36L84.96 364.36z" /></clipPath><clipPath id="24"><path id="" clip-rule="evenodd" transform="matrix(1 0 0 1 0 0)" d="M84.96 628.84L521.28 628.84L521.28 628.84L521.28 364.36L521.28 364.36L84.96 364.36z" /></clipPath><clipPath id="25"><path id="" clip-rule="evenodd" transform="matrix(1 0 0 1 0 0)" d="M84.96 628.84L521.28 628.84L521.28 628.84L521.28 364.36L521.28 364.36L84.96 364.36z" /></clipPath><clipPath id="26"><path id="" clip-rule="evenodd" transform="matrix(1 0 0 1 0 0)" d="M84.96 628.84L521.28 628.84L521.28 628.84L521.28 364.36L521.28 364.36L84.96 364.36z" /></clipPath></defs><g transform="matrix(1.333333 0 0 1.333333 0 0)"><g clip-path="url(#1)"><g clip-path="url(#2)"><path id="51" transform="matrix(1 0 0 -1 0 841)" d="M189.0806 721.9829L354.938 721.9829" stroke="#000000" stroke-width="0.4959744" fill="none" /></g><g clip-path="url(#3)"><path id="119" transform="matrix(1 0 0 -1 0 841)" d="M386.3393 722.2735L466.4104 722.2735" stroke="#000000" stroke-width="0.6860182" fill="none" /></g><path id="888" transform="matrix(1 0 0 -1 0 841)" d="M84.96 212.16L521.28 212.16L521.28 212.16L521.28 476.64L521.28 476.64L84.96 476.64z" stroke="none" fill="#FFFFFF" fill-rule="evenodd" /><path id="889" transform="matrix(1 0 0 -1 0 841)" d="M129.96 445.8L494.76 445.8M129.96 438.6L494.76 438.6M129.96 431.4L494.76 431.4M129.96 424.2L494.76 424.2M129.96 409.56L494.76 409.56M129.96 402.36L494.76 402.36M129.96 395.16L494.76 395.16M129.96 387.96L494.76 387.96M129.96 373.32L494.76 373.32M129.96 366.12L494.76 366.12M129.96 358.92L494.76 358.92M129.96 351.72L494.76 351.72M129.96 337.08L494.76 337.08M129.96 329.88L494.76 329.88M129.96 322.68L494.76 322.68M129.96 315.48L494.76 315.48M129.96 300.84L494.76 300.84M129.96 293.64L494.76 293.64M129.96 286.44L494.76 286.44M129.96 279.24L494.76 279.24M129.96 264.6L494.76 264.6M129.96 257.4L494.76 257.4M129.96 250.2L494.76 250.2M129.96 243L494.76 243" stroke="#7F7F7F" stroke-width="0.72" fill="none" /><path id="890" transform="matrix(1 0 0 -1 0 841)" d="M129.96 453L494.76 453M129.96 416.76L494.76 416.76M129.96 380.52L494.76 380.52M129.96 344.28L494.76 344.28M129.96 308.28L494.76 308.28M129.96 272.04L494.76 272.04" stroke="#000000" stroke-width="0.72" fill="none" /><path id="891" transform="matrix(1 0 0 -1 0 841)" d="M474.6 453L474.6 235.8M434.04 453L434.04 235.8M393.48 453L393.48 235.8M352.92 453L352.92 235.8M312.36 453L312.36 235.8M271.8 453L271.8 235.8M231.24 453L231.24 235.8M190.92 453L190.92 235.8M150.36 453L150.36 235.8" stroke="#000000" stroke-width="0.72" fill="none" /><path id="892" transform="matrix(1 0 0 -1 0 841)" d="M494.76 453L494.76 235.8M454.2 453L454.2 235.8M413.64 453L413.64 235.8M373.08 453L373.08 235.8M332.76 453L332.76 235.8M292.2 453L292.2 235.8M251.64 453L251.64 235.8M211.08 453L211.08 235.8M170.52 453L170.52 235.8" stroke="#000000" stroke-width="0.72" fill="none" /><path id="893" transform="matrix(1 0 0 -1 0 841)" d="M129.96 235.8L129.96 453" stroke="#000000" stroke-width="0.72" fill="none" /><path id="894" transform="matrix(1 0 0 -1 0 841)" d="M129.96 235.8L494.76 235.8" stroke="#000000" stroke-width="0.72" fill="none" /><path id="895" transform="matrix(1 0 0 -1 0 841)" d="M181.29 246.58C 181.29 245.18 180.16 244.06 178.77 244.06C 177.38 244.06 176.25 245.18 176.25 246.58C 176.25 247.97 177.38 249.1 178.77 249.1C 180.16 249.1 181.29 247.97 181.29 246.58z" stroke="none" fill="#000000" fill-rule="nonzero" /><path id="896" transform="matrix(1 0 0 -1 0 841)" d="M181.29 246.58C 181.29 245.18 180.16 244.06 178.77 244.06C 177.38 244.06 176.25 245.18 176.25 246.58C 176.25 247.97 177.38 249.1 178.77 249.1C 180.16 249.1 181.29 247.97 181.29 246.58z" stroke="#000000" stroke-width="0.75" fill="none" /><path id="897" transform="matrix(1 0 0 -1 0 841)" d="M213.69 262.9C 213.69 261.5 212.56 260.38 211.17 260.38C 209.78 260.38 208.65 261.5 208.65 262.9C 208.65 264.29 209.78 265.42 211.17 265.42C 212.56 265.42 213.69 264.29 213.69 262.9z" stroke="none" fill="#000000" fill-rule="nonzero" /><path id="898" transform="matrix(1 0 0 -1 0 841)" d="M213.69 262.9C 213.69 261.5 212.56 260.38 211.17 260.38C 209.78 260.38 208.65 261.5 208.65 262.9C 208.65 264.29 209.78 265.42 211.17 265.42C 212.56 265.42 213.69 264.29 213.69 262.9z" stroke="#000000" stroke-width="0.75" fill="none" /><path id="899" transform="matrix(1 0 0 -1 0 841)" d="M222.81 266.02C 222.81 264.62 221.68 263.5 220.29 263.5C 218.9 263.5 217.77 264.62 217.77 266.02C 217.77 267.41 218.9 268.54 220.29 268.54C 221.68 268.54 222.81 267.41 222.81 266.02z" stroke="none" fill="#000000" fill-rule="nonzero" /><path id="900" transform="matrix(1 0 0 -1 0 841)" d="M222.81 266.02C 222.81 264.62 221.68 263.5 220.29 263.5C 218.9 263.5 217.77 264.62 217.77 266.02C 217.77 267.41 218.9 268.54 220.29 268.54C 221.68 268.54 222.81 267.41 222.81 266.02z" stroke="#000000" stroke-width="0.75" fill="none" /><path id="901" transform="matrix(1 0 0 -1 0 841)" d="M233.85 275.62C 233.85 274.22 232.72 273.1 231.33 273.1C 229.94 273.1 228.81 274.22 228.81 275.62C 228.81 277.01 229.94 278.14 231.33 278.14C 232.72 278.14 233.85 277.01 233.85 275.62z" stroke="none" fill="#000000" fill-rule="nonzero" /><path id="902" transform="matrix(1 0 0 -1 0 841)" d="M233.85 275.62C 233.85 274.22 232.72 273.1 231.33 273.1C 229.94 273.1 228.81 274.22 228.81 275.62C 228.81 277.01 229.94 278.14 231.33 278.14C 232.72 278.14 233.85 277.01 233.85 275.62z" stroke="#000000" stroke-width="0.75" fill="none" /><path id="903" transform="matrix(1 0 0 -1 0 841)" d="M260.25 290.02C 260.25 288.62 259.12 287.5 257.73 287.5C 256.34 287.5 255.21 288.62 255.21 290.02C 255.21 291.41 256.34 292.54 257.73 292.54C 259.12 292.54 260.25 291.41 260.25 290.02z" stroke="none" fill="#000000" fill-rule="nonzero" /><path id="904" transform="matrix(1 0 0 -1 0 841)" d="M260.25 290.02C 260.25 288.62 259.12 287.5 257.73 287.5C 256.34 287.5 255.21 288.62 255.21 290.02C 255.21 291.41 256.34 292.54 257.73 292.54C 259.12 292.54 260.25 291.41 260.25 290.02z" stroke="#000000" stroke-width="0.75" fill="none" /><path id="905" transform="matrix(1 0 0 -1 0 841)" d="M294.81 302.74C 294.81 301.34 293.68 300.22 292.29 300.22C 290.9 300.22 289.77 301.34 289.77 302.74C 289.77 304.13 290.9 305.26 292.29 305.26C 293.68 305.26 294.81 304.13 294.81 302.74z" stroke="none" fill="#000000" fill-rule="nonzero" /><path id="906" transform="matrix(1 0 0 -1 0 841)" d="M294.81 302.74C 294.81 301.34 293.68 300.22 292.29 300.22C 290.9 300.22 289.77 301.34 289.77 302.74C 289.77 304.13 290.9 305.26 292.29 305.26C 293.68 305.26 294.81 304.13 294.81 302.74z" stroke="#000000" stroke-width="0.75" fill="none" /><path id="907" transform="matrix(1 0 0 -1 0 841)" d="M335.37 315.46C 335.37 314.06 334.24 312.94 332.85 312.94C 331.46 312.94 330.33 314.06 330.33 315.46C 330.33 316.85 331.46 317.98 332.85 317.98C 334.24 317.98 335.37 316.85 335.37 315.46z" stroke="none" fill="#000000" fill-rule="nonzero" /><path id="908" transform="matrix(1 0 0 -1 0 841)" d="M335.37 315.46C 335.37 314.06 334.24 312.94 332.85 312.94C 331.46 312.94 330.33 314.06 330.33 315.46C 330.33 316.85 331.46 317.98 332.85 317.98C 334.24 317.98 335.37 316.85 335.37 315.46z" stroke="#000000" stroke-width="0.75" fill="none" /><path id="909" transform="matrix(1 0 0 -1 0 841)" d="M351.45 315.46C 351.45 314.06 350.32 312.94 348.93 312.94C 347.54 312.94 346.41 314.06 346.41 315.46C 346.41 316.85 347.54 317.98 348.93 317.98C 350.32 317.98 351.45 316.85 351.45 315.46z" stroke="none" fill="#000000" fill-rule="nonzero" /><path id="910" transform="matrix(1 0 0 -1 0 841)" d="M351.45 315.46C 351.45 314.06 350.32 312.94 348.93 312.94C 347.54 312.94 346.41 314.06 346.41 315.46C 346.41 316.85 347.54 317.98 348.93 317.98C 350.32 317.98 351.45 316.85 351.45 315.46z" stroke="#000000" stroke-width="0.75" fill="none" /><path id="911" transform="matrix(1 0 0 -1 0 841)" d="M400.17 344.26C 400.17 342.86 399.04 341.74 397.65 341.74C 396.26 341.74 395.13 342.86 395.13 344.26C 395.13 345.65 396.26 346.78 397.65 346.78C 399.04 346.78 400.17 345.65 400.17 344.26z" stroke="none" fill="#000000" fill-rule="nonzero" /><path id="912" transform="matrix(1 0 0 -1 0 841)" d="M400.17 344.26C 400.17 342.86 399.04 341.74 397.65 341.74C 396.26 341.74 395.13 342.86 395.13 344.26C 395.13 345.65 396.26 346.78 397.65 346.78C 399.04 346.78 400.17 345.65 400.17 344.26z" stroke="#000000" stroke-width="0.75" fill="none" /><path id="913" transform="matrix(1 0 0 -1 0 841)" d="M456.81 434.98C 456.81 433.58 455.68 432.46 454.29 432.46C 452.9 432.46 451.77 433.58 451.77 434.98C 451.77 436.37 452.9 437.5 454.29 437.5C 455.68 437.5 456.81 436.37 456.81 434.98z" stroke="none" fill="#000000" fill-rule="nonzero" /><path id="914" transform="matrix(1 0 0 -1 0 841)" d="M456.81 434.98C 456.81 433.58 455.68 432.46 454.29 432.46C 452.9 432.46 451.77 433.58 451.77 434.98C 451.77 436.37 452.9 437.5 454.29 437.5C 455.68 437.5 456.81 436.37 456.81 434.98z" stroke="#000000" stroke-width="0.75" fill="none" /><path id="915" transform="matrix(1 0 0 -1 0 841)" d="M178.68 239.88L454.2 398.76" stroke="#000000" stroke-width="0.72" stroke-linecap="round" fill="none" /><g clip-path="url(#4)"></g><g clip-path="url(#5)"></g><g clip-path="url(#6)"></g><g clip-path="url(#7)"></g><g clip-path="url(#8)"></g><g clip-path="url(#9)"></g><g clip-path="url(#10)"></g><g clip-path="url(#11)"></g><g clip-path="url(#12)"></g><g clip-path="url(#13)"></g><g clip-path="url(#14)"></g><g clip-path="url(#15)"></g><g clip-path="url(#16)"></g><g clip-path="url(#17)"></g><g clip-path="url(#18)"></g><g clip-path="url(#19)"></g><g clip-path="url(#20)"></g><path id="962" transform="matrix(1 0 0 -1 0 841)" d="M85.529 447.42L127.364 447.42L127.364 447.42L127.364 465.365L127.364 465.365L85.529 465.365z" stroke="none" fill="#FFFFFF" fill-rule="evenodd" /><g clip-path="url(#21)"></g><g clip-path="url(#22)"></g><g clip-path="url(#23)"></g><path id="968" transform="matrix(1 0 0 -1 0 841)" d="M477.91 213.95L513.36 213.95L513.36 213.95L513.36 231.895L513.36 231.895L477.91 231.895z" stroke="none" fill="#FFFFFF" fill-rule="evenodd" /><g clip-path="url(#24)"></g><g clip-path="url(#25)"></g><g clip-path="url(#26)"></g></g></g></svg>