<svg xmlns="http://www.w3.org/2000/svg" xmlns:xlink="http://www.w3.org/1999/xlink" id="body_3" preserveAspectRatio="xMinYMin meet" viewBox="0 0 793 1121"><defs><clipPath id="1"><path id="" clip-rule="evenodd" transform="matrix(1 0 0 1 0 0)" d="M0 841L0 -0.9199829L0 -0.9199829L595.2 -0.9199829L595.2 -0.9199829L595.2 841L595.2 841L0 841z" /></clipPath><clipPath id="2"><path id="" clip-rule="evenodd" transform="matrix(1 0 0 1 0 0)" d="M253.32 94.95001L334.4209 94.95001L334.4209 94.95001L334.4209 55.84985L334.4209 55.84985L253.32 55.84985z" /></clipPath><clipPath id="3"><path id="" clip-rule="evenodd" transform="matrix(1 0 0 1 0 0)" d="M171.9 236.02L226.17 236.02L226.17 236.02L226.17 219.94L226.17 219.94L171.9 219.94z" /></clipPath><clipPath id="4"><path id="" clip-rule="evenodd" transform="matrix(1 0 0 1 0 0)" d="M171.91 236.03L226.174 236.03L226.174 236.03L226.174 219.95L226.174 219.95L171.91 219.95z" /></clipPath><clipPath id="5"><path id="" clip-rule="evenodd" transform="matrix(1 0 0 1 0 0)" d="M171.91 236.03L226.174 236.03L226.174 236.03L226.174 219.95L226.174 219.95L171.91 219.95z" /></clipPath><clipPath id="6"><path id="" clip-rule="evenodd" transform="matrix(1 0 0 1 0 0)" d="M226.65 236.02L274.17 236.02L274.17 236.02L274.17 219.94L274.17 219.94L226.65 219.94z" /></clipPath><clipPath id="7"><path id="" clip-rule="evenodd" transform="matrix(1 0 0 1 0 0)" d="M226.66 236.03L274.18 236.03L274.18 236.03L274.18 219.95L274.18 219.95L226.66 219.95z" /></clipPath><clipPath id="8"><path id="" clip-rule="evenodd" transform="matrix(1 0 0 1 0 0)" d="M226.66 236.03L274.18 236.03L274.18 236.03L274.18 219.95L274.18 219.95L226.66 219.95z" /></clipPath><clipPath id="9"><path id="" clip-rule="evenodd" transform="matrix(1 0 0 1 0 0)" d="M274.65 236.02L322.2 236.02L322.2 236.02L322.2 219.94L322.2 219.94L274.65 219.94z" /></clipPath><clipPath id="10"><path id="" clip-rule="evenodd" transform="matrix(1 0 0 1 0 0)" d="M274.66 236.03L322.204 236.03L322.204 236.03L322.204 219.95L322.204 219.95L274.66 219.95z" /></clipPath><clipPath id="11"><path id="" clip-rule="evenodd" transform="matrix(1 0 0 1 0 0)" d="M274.66 236.03L322.204 236.03L322.204 236.03L322.204 219.95L322.204 219.95L274.66 219.95z" /></clipPath><clipPath id="12"><path id="" clip-rule="evenodd" transform="matrix(1 0 0 1 0 0)" d="M322.68 236.02L370.23 236.02L370.23 236.02L370.23 219.94L370.23 219.94L322.68 219.94z" /></clipPath><clipPath id="13"><path id="" clip-rule="evenodd" transform="matrix(1 0 0 1 0 0)" d="M322.68 236.03L370.224 236.03L370.224 236.03L370.224 219.95L370.224 219.95L322.68 219.95z" /></clipPath><clipPath id="14"><path id="" clip-rule="evenodd" transform="matrix(1 0 0 1 0 0)" d="M322.68 236.03L370.224 236.03L370.224 236.03L370.224 219.95L370.224 219.95L322.68 219.95z" /></clipPath><clipPath id="15"><path id="" clip-rule="evenodd" transform="matrix(1 0 0 1 0 0)" d="M370.71 236.02L418.26 236.02L418.26 236.02L418.26 219.94L418.26 219.94L370.71 219.94z" /></clipPath><clipPath id="16"><path id="" clip-rule="evenodd" transform="matrix(1 0 0 1 0 0)" d="M370.7 236.03L418.244 236.03L418.244 236.03L418.244 219.95L418.244 219.95L370.7 219.95z" /></clipPath><clipPath id="17"><path id="" clip-rule="evenodd" transform="matrix(1 0 0 1 0 0)" d="M370.7 236.03L418.244 236.03L418.244 236.03L418.244 219.95L418.244 219.95L370.7 219.95z" /></clipPath><clipPath id="18"><path id="" clip-rule="evenodd" transform="matrix(1 0 0 1 0 0)" d="M418.74 236.02L466.26 236.02L466.26 236.02L466.26 219.94L466.26 219.94L418.74 219.94z" /></clipPath><clipPath id="19"><path id="" clip-rule="evenodd" transform="matrix(1 0 0 1 0 0)" d="M418.73 236.03L466.25 236.03L466.25 236.03L466.25 219.95L466.25 219.95L418.73 219.95z" /></clipPath><clipPath id="20"><path id="" clip-rule="evenodd" transform="matrix(1 0 0 1 0 0)" d="M418.73 236.03L466.25 236.03L466.25 236.03L466.25 219.95L466.25 219.95L418.73 219.95z" /></clipPath><clipPath id="21"><path id="" clip-rule="evenodd" transform="matrix(1 0 0 1 0 0)" d="M171.9 252.82L226.17 252.82L226.17 252.82L226.17 236.74L226.17 236.74L171.9 236.74z" /></clipPath><clipPath id="22"><path id="" clip-rule="evenodd" transform="matrix(1 0 0 1 0 0)" d="M171.91 252.83L226.174 252.83L226.174 252.83L226.174 236.75L226.174 236.75L171.91 236.75z" /></clipPath><clipPath id="23"><path id="" clip-rule="evenodd" transform="matrix(1 0 0 1 0 0)" d="M171.91 252.83L226.174 252.83L226.174 252.83L226.174 236.75L226.174 236.75L171.91 236.75z" /></clipPath><clipPath id="24"><path id="" clip-rule="evenodd" transform="matrix(1 0 0 1 0 0)" d="M226.65 252.82L274.17 252.82L274.17 252.82L274.17 236.74L274.17 236.74L226.65 236.74z" /></clipPath><clipPath id="25"><path id="" clip-rule="evenodd" transform="matrix(1 0 0 1 0 0)" d="M226.66 252.83L274.18 252.83L274.18 252.83L274.18 236.75L274.18 236.75L226.66 236.75z" /></clipPath><clipPath id="26"><path id="" clip-rule="evenodd" transform="matrix(1 0 0 1 0 0)" d="M226.66 252.83L274.18 252.83L274.18 252.83L274.18 236.75L274.18 236.75L226.66 236.75z" /></clipPath><clipPath id="27"><path id="" clip-rule="evenodd" transform="matrix(1 0 0 1 0 0)" d="M274.65 252.82L322.2 252.82L322.2 252.82L322.2 236.74L322.2 236.74L274.65 236.74z" /></clipPath><clipPath id="28"><path id="" clip-rule="evenodd" transform="matrix(1 0 0 1 0 0)" d="M274.66 252.83L322.204 252.83L322.204 252.83L322.204 236.75L322.204 236.75L274.66 236.75z" /></clipPath><clipPath id="29"><path id="" clip-rule="evenodd" transform="matrix(1 0 0 1 0 0)" d="M274.66 252.83L322.204 252.83L322.204 252.83L322.204 236.75L322.204 236.75L274.66 236.75z" /></clipPath><clipPath id="30"><path id="" clip-rule="evenodd" transform="matrix(1 0 0 1 0 0)" d="M322.68 252.82L370.23 252.82L370.23 252.82L370.23 236.74L370.23 236.74L322.68 236.74z" /></clipPath><clipPath id="31"><path id="" clip-rule="evenodd" transform="matrix(1 0 0 1 0 0)" d="M322.68 252.83L370.224 252.83L370.224 252.83L370.224 236.75L370.224 236.75L322.68 236.75z" /></clipPath><clipPath id="32"><path id="" clip-rule="evenodd" transform="matrix(1 0 0 1 0 0)" d="M322.68 252.83L370.224 252.83L370.224 252.83L370.224 236.75L370.224 236.75L322.68 236.75z" /></clipPath><clipPath id="33"><path id="" clip-rule="evenodd" transform="matrix(1 0 0 1 0 0)" d="M370.71 252.82L418.26 252.82L418.26 252.82L418.26 236.74L418.26 236.74L370.71 236.74z" /></clipPath><clipPath id="34"><path id="" clip-rule="evenodd" transform="matrix(1 0 0 1 0 0)" d="M370.7 252.83L418.244 252.83L418.244 252.83L418.244 236.75L418.244 236.75L370.7 236.75z" /></clipPath><clipPath id="35"><path id="" clip-rule="evenodd" transform="matrix(1 0 0 1 0 0)" d="M370.7 252.83L418.244 252.83L418.244 252.83L418.244 236.75L418.244 236.75L370.7 236.75z" /></clipPath><clipPath id="36"><path id="" clip-rule="evenodd" transform="matrix(1 0 0 1 0 0)" d="M418.74 252.82L466.26 252.82L466.26 252.82L466.26 236.74L466.26 236.74L418.74 236.74z" /></clipPath><clipPath id="37"><path id="" clip-rule="evenodd" transform="matrix(1 0 0 1 0 0)" d="M418.73 252.83L466.25 252.83L466.25 252.83L466.25 236.75L466.25 236.75L418.73 236.75z" /></clipPath><clipPath id="38"><path id="" clip-rule="evenodd" transform="matrix(1 0 0 1 0 0)" d="M418.73 252.83L466.25 252.83L466.25 252.83L466.25 236.75L466.25 236.75L418.73 236.75z" /></clipPath><clipPath id="39"><path id="" clip-rule="evenodd" transform="matrix(1 0 0 1 0 0)" d="M171.9 269.38L226.17 269.38L226.17 269.38L226.17 253.3L226.17 253.3L171.9 253.3z" /></clipPath><clipPath id="40"><path id="" clip-rule="evenodd" transform="matrix(1 0 0 1 0 0)" d="M171.91 269.39L226.174 269.39L226.174 269.39L226.174 253.31L226.174 253.31L171.91 253.31z" /></clipPath><clipPath id="41"><path id="" clip-rule="evenodd" transform="matrix(1 0 0 1 0 0)" d="M171.91 269.39L226.174 269.39L226.174 269.39L226.174 253.31L226.174 253.31L171.91 253.31z" /></clipPath><clipPath id="42"><path id="" clip-rule="evenodd" transform="matrix(1 0 0 1 0 0)" d="M226.65 269.38L274.17 269.38L274.17 269.38L274.17 253.3L274.17 253.3L226.65 253.3z" /></clipPath><clipPath id="43"><path id="" clip-rule="evenodd" transform="matrix(1 0 0 1 0 0)" d="M226.66 269.39L274.18 269.39L274.18 269.39L274.18 253.31L274.18 253.31L226.66 253.31z" /></clipPath><clipPath id="44"><path id="" clip-rule="evenodd" transform="matrix(1 0 0 1 0 0)" d="M226.66 269.39L274.18 269.39L274.18 269.39L274.18 253.31L274.18 253.31L226.66 253.31z" /></clipPath><clipPath id="45"><path id="" clip-rule="evenodd" transform="matrix(1 0 0 1 0 0)" d="M274.65 269.38L322.2 269.38L322.2 269.38L322.2 253.3L322.2 253.3L274.65 253.3z" /></clipPath><clipPath id="46"><path id="" clip-rule="evenodd" transform="matrix(1 0 0 1 0 0)" d="M274.66 269.39L322.204 269.39L322.204 269.39L322.204 253.31L322.204 253.31L274.66 253.31z" /></clipPath><clipPath id="47"><path id="" clip-rule="evenodd" transform="matrix(1 0 0 1 0 0)" d="M274.66 269.39L322.204 269.39L322.204 269.39L322.204 253.31L322.204 253.31L274.66 253.31z" /></clipPath><clipPath id="48"><path id="" clip-rule="evenodd" transform="matrix(1 0 0 1 0 0)" d="M322.68 269.38L370.23 269.38L370.23 269.38L370.23 253.3L370.23 253.3L322.68 253.3z" /></clipPath><clipPath id="49"><path id="" clip-rule="evenodd" transform="matrix(1 0 0 1 0 0)" d="M322.68 269.39L370.224 269.39L370.224 269.39L370.224 253.31L370.224 253.31L322.68 253.31z" /></clipPath><clipPath id="50"><path id="" clip-rule="evenodd" transform="matrix(1 0 0 1 0 0)" d="M322.68 269.39L370.224 269.39L370.224 269.39L370.224 253.31L370.224 253.31L322.68 253.31z" /></clipPath><clipPath id="51"><path id="" clip-rule="evenodd" transform="matrix(1 0 0 1 0 0)" d="M370.71 269.38L418.26 269.38L418.26 269.38L418.26 253.3L418.26 253.3L370.71 253.3z" /></clipPath><clipPath id="52"><path id="" clip-rule="evenodd" transform="matrix(1 0 0 1 0 0)" d="M370.7 269.39L418.244 269.39L418.244 269.39L418.244 253.31L418.244 253.31L370.7 253.31z" /></clipPath><clipPath id="53"><path id="" clip-rule="evenodd" transform="matrix(1 0 0 1 0 0)" d="M370.7 269.39L418.244 269.39L418.244 269.39L418.244 253.31L418.244 253.31L370.7 253.31z" /></clipPath><clipPath id="54"><path id="" clip-rule="evenodd" transform="matrix(1 0 0 1 0 0)" d="M418.74 269.38L466.26 269.38L466.26 269.38L466.26 253.3L466.26 253.3L418.74 253.3z" /></clipPath><clipPath id="55"><path id="" clip-rule="evenodd" transform="matrix(1 0 0 1 0 0)" d="M418.73 269.39L466.25 269.39L466.25 269.39L466.25 253.31L466.25 253.31L418.73 253.31z" /></clipPath><clipPath id="56"><path id="" clip-rule="evenodd" transform="matrix(1 0 0 1 0 0)" d="M418.73 269.39L466.25 269.39L466.25 269.39L466.25 253.31L466.25 253.31L418.73 253.31z" /></clipPath><clipPath id="57"><path id="" clip-rule="evenodd" transform="matrix(1 0 0 1 0 0)" d="M218.97 554.11L260.97 554.11L260.97 554.11L260.97 538.03L260.97 538.03L218.97 538.03z" /></clipPath><clipPath id="58"><path id="" clip-rule="evenodd" transform="matrix(1 0 0 1 0 0)" d="M218.98 554.1L260.98 554.1L260.98 554.1L260.98 538.02L260.98 538.02L218.98 538.02z" /></clipPath><clipPath id="59"><path id="" clip-rule="evenodd" transform="matrix(1 0 0 1 0 0)" d="M218.98 554.1L260.98 554.1L260.98 554.1L260.98 538.02L260.98 538.02L218.98 538.02z" /></clipPath><clipPath id="60"><path id="" clip-rule="evenodd" transform="matrix(1 0 0 1 0 0)" d="M261.45 554.11L299.4 554.11L299.4 554.11L299.4 538.03L299.4 538.03L261.45 538.03z" /></clipPath><clipPath id="61"><path id="" clip-rule="evenodd" transform="matrix(1 0 0 1 0 0)" d="M261.46 554.1L299.404 554.1L299.404 554.1L299.404 538.02L299.404 538.02L261.46 538.02z" /></clipPath><clipPath id="62"><path id="" clip-rule="evenodd" transform="matrix(1 0 0 1 0 0)" d="M261.46 554.1L299.404 554.1L299.404 554.1L299.404 538.02L299.404 538.02L261.46 538.02z" /></clipPath><clipPath id="63"><path id="" clip-rule="evenodd" transform="matrix(1 0 0 1 0 0)" d="M299.88 554.11L341.16 554.11L341.16 554.11L341.16 538.03L341.16 538.03L299.88 538.03z" /></clipPath><clipPath id="64"><path id="" clip-rule="evenodd" transform="matrix(1 0 0 1 0 0)" d="M299.88 554.1L341.16 554.1L341.16 554.1L341.16 538.02L341.16 538.02L299.88 538.02z" /></clipPath><clipPath id="65"><path id="" clip-rule="evenodd" transform="matrix(1 0 0 1 0 0)" d="M299.88 554.1L341.16 554.1L341.16 554.1L341.16 538.02L341.16 538.02L299.88 538.02z" /></clipPath><clipPath id="66"><path id="" clip-rule="evenodd" transform="matrix(1 0 0 1 0 0)" d="M341.64 554.11L383.67 554.11L383.67 554.11L383.67 538.03L383.67 538.03L341.64 538.03z" /></clipPath><clipPath id="67"><path id="" clip-rule="evenodd" transform="matrix(1 0 0 1 0 0)" d="M341.64 554.1L383.664 554.1L383.664 554.1L383.664 538.02L383.664 538.02L341.64 538.02z" /></clipPath><clipPath id="68"><path id="" clip-rule="evenodd" transform="matrix(1 0 0 1 0 0)" d="M341.64 554.1L383.664 554.1L383.664 554.1L383.664 538.02L383.664 538.02L341.64 538.02z" /></clipPath><clipPath id="69"><path id="" clip-rule="evenodd" transform="matrix(1 0 0 1 0 0)" d="M384.15 554.11L419.22 554.11L419.22 554.11L419.22 538.03L419.22 538.03L384.15 538.03z" /></clipPath><clipPath id="70"><path id="" clip-rule="evenodd" transform="matrix(1 0 0 1 0 0)" d="M384.14 554.1L419.204 554.1L419.204 554.1L419.204 538.02L419.204 538.02L384.14 538.02z" /></clipPath><clipPath id="71"><path id="" clip-rule="evenodd" transform="matrix(1 0 0 1 0 0)" d="M384.14 554.1L419.204 554.1L419.204 554.1L419.204 538.02L419.204 538.02L384.14 538.02z" /></clipPath><clipPath id="72"><path id="" clip-rule="evenodd" transform="matrix(1 0 0 1 0 0)" d="M384.14 554.1L419.204 554.1L419.204 554.1L419.204 538.02L419.204 538.02L384.14 538.02z" /></clipPath><clipPath id="73"><path id="" clip-rule="evenodd" transform="matrix(1 0 0 1 0 0)" d="M218.97 570.67L260.97 570.67L260.97 570.67L260.97 554.59L260.97 554.59L218.97 554.59z" /></clipPath><clipPath id="74"><path id="" clip-rule="evenodd" transform="matrix(1 0 0 1 0 0)" d="M218.98 570.66L260.98 570.66L260.98 570.66L260.98 554.58L260.98 554.58L218.98 554.58z" /></clipPath><clipPath id="75"><path id="" clip-rule="evenodd" transform="matrix(1 0 0 1 0 0)" d="M218.98 570.66L260.98 570.66L260.98 570.66L260.98 554.58L260.98 554.58L218.98 554.58z" /></clipPath><clipPath id="76"><path id="" clip-rule="evenodd" transform="matrix(1 0 0 1 0 0)" d="M261.45 570.67L299.4 570.67L299.4 570.67L299.4 554.59L299.4 554.59L261.45 554.59z" /></clipPath><clipPath id="77"><path id="" clip-rule="evenodd" transform="matrix(1 0 0 1 0 0)" d="M261.46 570.66L299.404 570.66L299.404 570.66L299.404 554.58L299.404 554.58L261.46 554.58z" /></clipPath><clipPath id="78"><path id="" clip-rule="evenodd" transform="matrix(1 0 0 1 0 0)" d="M261.46 570.66L299.404 570.66L299.404 570.66L299.404 554.58L299.404 554.58L261.46 554.58z" /></clipPath><clipPath id="79"><path id="" clip-rule="evenodd" transform="matrix(1 0 0 1 0 0)" d="M261.46 570.66L299.404 570.66L299.404 570.66L299.404 554.58L299.404 554.58L261.46 554.58z" /></clipPath><clipPath id="80"><path id="" clip-rule="evenodd" transform="matrix(1 0 0 1 0 0)" d="M299.88 570.67L341.16 570.67L341.16 570.67L341.16 554.59L341.16 554.59L299.88 554.59z" /></clipPath><clipPath id="81"><path id="" clip-rule="evenodd" transform="matrix(1 0 0 1 0 0)" d="M299.88 570.66L341.16 570.66L341.16 570.66L341.16 554.58L341.16 554.58L299.88 554.58z" /></clipPath><clipPath id="82"><path id="" clip-rule="evenodd" transform="matrix(1 0 0 1 0 0)" d="M299.88 570.66L341.16 570.66L341.16 570.66L341.16 554.58L341.16 554.58L299.88 554.58z" /></clipPath><clipPath id="83"><path id="" clip-rule="evenodd" transform="matrix(1 0 0 1 0 0)" d="M299.88 570.66L341.16 570.66L341.16 570.66L341.16 554.58L341.16 554.58L299.88 554.58z" /></clipPath><clipPath id="84"><path id="" clip-rule="evenodd" transform="matrix(1 0 0 1 0 0)" d="M341.64 570.67L383.67 570.67L383.67 570.67L383.67 554.59L383.67 554.59L341.64 554.59z" /></clipPath><clipPath id="85"><path id="" clip-rule="evenodd" transform="matrix(1 0 0 1 0 0)" d="M341.64 570.66L383.664 570.66L383.664 570.66L383.664 554.58L383.664 554.58L341.64 554.58z" /></clipPath><clipPath id="86"><path id="" clip-rule="evenodd" transform="matrix(1 0 0 1 0 0)" d="M341.64 570.66L383.664 570.66L383.664 570.66L383.664 554.58L383.664 554.58L341.64 554.58z" /></clipPath><clipPath id="87"><path id="" clip-rule="evenodd" transform="matrix(1 0 0 1 0 0)" d="M341.64 570.66L383.664 570.66L383.664 570.66L383.664 554.58L383.664 554.58L341.64 554.58z" /></clipPath><clipPath id="88"><path id="" clip-rule="evenodd" transform="matrix(1 0 0 1 0 0)" d="M384.15 570.67L419.22 570.67L419.22 570.67L419.22 554.59L419.22 554.59L384.15 554.59z" /></clipPath><clipPath id="89"><path id="" clip-rule="evenodd" transform="matrix(1 0 0 1 0 0)" d="M384.14 570.66L419.204 570.66L419.204 570.66L419.204 554.58L419.204 554.58L384.14 554.58z" /></clipPath><clipPath id="90"><path id="" clip-rule="evenodd" transform="matrix(1 0 0 1 0 0)" d="M384.14 570.66L419.204 570.66L419.204 570.66L419.204 554.58L419.204 554.58L384.14 554.58z" /></clipPath><clipPath id="91"><path id="" clip-rule="evenodd" transform="matrix(1 0 0 1 0 0)" d="M384.14 570.66L419.204 570.66L419.204 570.66L419.204 554.58L419.204 554.58L384.14 554.58z" /></clipPath><clipPath id="92"><path id="" clip-rule="evenodd" transform="matrix(1 0 0 1 0 0)" d="M230.02 718.7L404.0193 718.7L404.0193 718.7L404.0193 679.5999L404.0193 679.5999L230.02 679.5999z" /></clipPath><clipPath id="93"><path id="" clip-rule="evenodd" transform="matrix(1 0 0 1 0 0)" d="M0 439.96L595.2 439.96L595.2 439.96L595.2 269.8L595.2 269.8L0 269.8z" /></clipPath><clipPath id="94"><path id="" clip-rule="evenodd" transform="matrix(1 0 0 1 0 0)" d="M172.56 439.96L465.12 439.96L465.12 439.96L465.12 269.8L465.12 269.8L172.56 269.8z" /></clipPath><clipPath id="95"><path id="" clip-rule="evenodd" transform="matrix(1 0 0 1 0 0)" d="M172.56 439.96L465.12 439.96L465.12 439.96L465.12 269.8L465.12 269.8L172.56 269.8z" /></clipPath><clipPath id="96"><path id="" clip-rule="evenodd" transform="matrix(1 0 0 1 0 0)" d="M172.56 439.96L465.12 439.96L465.12 439.96L465.12 269.8L465.12 269.8L172.56 269.8z" /></clipPath><clipPath id="97"><path id="" clip-rule="evenodd" transform="matrix(1 0 0 1 0 0)" d="M172.56 439.96L465.12 439.96L465.12 439.96L465.12 269.8L465.12 269.8L172.56 269.8z" /></clipPath><clipPath id="98"><path id="" clip-rule="evenodd" transform="matrix(1 0 0 1 0 0)" d="M172.56 439.96L465.12 439.96L465.12 439.96L465.12 269.8L465.12 269.8L172.56 269.8z" /></clipPath><clipPath id="99"><path id="" clip-rule="evenodd" transform="matrix(1 0 0 1 0 0)" d="M172.56 439.96L465.12 439.96L465.12 439.96L465.12 269.8L465.12 269.8L172.56 269.8z" /></clipPath><clipPath id="100"><path id="" clip-rule="evenodd" transform="matrix(1 0 0 1 0 0)" d="M172.56 439.96L465.12 439.96L465.12 439.96L465.12 269.8L465.12 269.8L172.56 269.8z" /></clipPath><clipPath id="101"><path id="" clip-rule="evenodd" transform="matrix(1 0 0 1 0 0)" d="M172.56 439.96L465.12 439.96L465.12 439.96L465.12 269.8L465.12 269.8L172.56 269.8z" /></clipPath><clipPath id="102"><path id="" clip-rule="evenodd" transform="matrix(1 0 0 1 0 0)" d="M172.56 439.96L465.12 439.96L465.12 439.96L465.12 269.8L465.12 269.8L172.56 269.8z" /></clipPath><clipPath id="103"><path id="" clip-rule="evenodd" transform="matrix(1 0 0 1 0 0)" d="M172.56 439.96L465.12 439.96L465.12 439.96L465.12 269.8L465.12 269.8L172.56 269.8z" /></clipPath><clipPath id="104"><path id="" clip-rule="evenodd" transform="matrix(1 0 0 1 0 0)" d="M172.56 439.96L465.12 439.96L465.12 439.96L465.12 269.8L465.12 269.8L172.56 269.8z" /></clipPath><clipPath id="105"><path id="" clip-rule="evenodd" transform="matrix(1 0 0 1 0 0)" d="M172.56 439.96L465.12 439.96L465.12 439.96L465.12 269.8L465.12 269.8L172.56 269.8z" /></clipPath><clipPath id="106"><path id="" clip-rule="evenodd" transform="matrix(1 0 0 1 0 0)" d="M172.56 439.96L465.12 439.96L465.12 439.96L465.12 269.8L465.12 269.8L172.56 269.8z" /></clipPath><clipPath id="107"><path id="" clip-rule="evenodd" transform="matrix(1 0 0 1 0 0)" d="M172.56 439.96L465.12 439.96L465.12 439.96L465.12 269.8L465.12 269.8L172.56 269.8z" /></clipPath><clipPath id="108"><path id="" clip-rule="evenodd" transform="matrix(1 0 0 1 0 0)" d="M172.56 439.96L465.12 439.96L465.12 439.96L465.12 269.8L465.12 269.8L172.56 269.8z" /></clipPath><clipPath id="109"><path id="" clip-rule="evenodd" transform="matrix(1 0 0 1 0 0)" d="M172.56 439.96L465.12 439.96L465.12 439.96L465.12 269.8L465.12 269.8L172.56 269.8z" /></clipPath><clipPath id="110"><path id="" clip-rule="evenodd" transform="matrix(1 0 0 1 0 0)" d="M172.56 439.96L465.12 439.96L465.12 439.96L465.12 269.8L465.12 269.8L172.56 269.8z" /></clipPath><clipPath id="111"><path id="" clip-rule="evenodd" transform="matrix(1 0 0 1 0 0)" d="M172.56 439.96L465.12 439.96L465.12 439.96L465.12 269.8L465.12 269.8L172.56 269.8z" /></clipPath><clipPath id="112"><path id="" clip-rule="evenodd" transform="matrix(1 0 0 1 0 0)" d="M172.56 439.96L465.12 439.96L465.12 439.96L465.12 269.8L465.12 269.8L172.56 269.8z" /></clipPath></defs><g transform="matrix(1.333333 0 0 1.333333 0 0)"><g clip-path="url(#1)"><g clip-path="url(#2)"><path id="1" transform="matrix(1 0 0 -1 0 841)" d="M281.016 766.5145L331.4521 766.5145" stroke="#000000" stroke-width="0.4906275" fill="none" /></g><g clip-path="url(#3)"><g clip-path="url(#4)"></g><g clip-path="url(#5)"></g></g><g clip-path="url(#6)"><g clip-path="url(#7)"></g><g clip-path="url(#8)"></g></g><g clip-path="url(#9)"><g clip-path="url(#10)"></g><g clip-path="url(#11)"></g></g><g clip-path="url(#12)"><g clip-path="url(#13)"></g><g clip-path="url(#14)"></g></g><g clip-path="url(#15)"><g clip-path="url(#16)"></g><g clip-path="url(#17)"></g></g><g clip-path="url(#18)"><g clip-path="url(#19)"></g><g clip-path="url(#20)"></g></g><path id="360" transform="matrix(1 0 0 -1 0 841)" d="M171.19 621.05L171.67 621.05L171.67 621.05L171.67 621.53L171.67 621.53L171.19 621.53z" stroke="none" fill="#000000" fill-rule="evenodd" /><path id="361" transform="matrix(1 0 0 -1 0 841)" d="M171.19 621.05L171.67 621.05L171.67 621.05L171.67 621.53L171.67 621.53L171.19 621.53z" stroke="none" fill="#000000" fill-rule="evenodd" /><path id="362" transform="matrix(1 0 0 -1 0 841)" d="M171.67 621.05L226.174 621.05L226.174 621.05L226.174 621.53L226.174 621.53L171.67 621.53z" stroke="none" fill="#000000" fill-rule="evenodd" /><path id="363" transform="matrix(1 0 0 -1 0 841)" d="M226.18 621.05L226.66 621.05L226.66 621.05L226.66 621.53L226.66 621.53L226.18 621.53z" stroke="none" fill="#000000" fill-rule="evenodd" /><path id="364" transform="matrix(1 0 0 -1 0 841)" d="M226.66 621.05L274.18 621.05L274.18 621.05L274.18 621.53L274.18 621.53L226.66 621.53z" stroke="none" fill="#000000" fill-rule="evenodd" /><path id="365" transform="matrix(1 0 0 -1 0 841)" d="M274.18 621.05L274.66 621.05L274.66 621.05L274.66 621.53L274.66 621.53L274.18 621.53z" stroke="none" fill="#000000" fill-rule="evenodd" /><path id="366" transform="matrix(1 0 0 -1 0 841)" d="M274.66 621.05L322.204 621.05L322.204 621.05L322.204 621.53L322.204 621.53L274.66 621.53z" stroke="none" fill="#000000" fill-rule="evenodd" /><path id="367" transform="matrix(1 0 0 -1 0 841)" d="M322.2 621.05L322.68 621.05L322.68 621.05L322.68 621.53L322.68 621.53L322.2 621.53z" stroke="none" fill="#000000" fill-rule="evenodd" /><path id="368" transform="matrix(1 0 0 -1 0 841)" d="M322.68 621.05L370.224 621.05L370.224 621.05L370.224 621.53L370.224 621.53L322.68 621.53z" stroke="none" fill="#000000" fill-rule="evenodd" /><path id="369" transform="matrix(1 0 0 -1 0 841)" d="M370.22 621.05L370.7 621.05L370.7 621.05L370.7 621.53L370.7 621.53L370.22 621.53z" stroke="none" fill="#000000" fill-rule="evenodd" /><path id="370" transform="matrix(1 0 0 -1 0 841)" d="M370.7 621.05L418.244 621.05L418.244 621.05L418.244 621.53L418.244 621.53L370.7 621.53z" stroke="none" fill="#000000" fill-rule="evenodd" /><path id="371" transform="matrix(1 0 0 -1 0 841)" d="M418.25 621.05L418.73 621.05L418.73 621.05L418.73 621.53L418.73 621.53L418.25 621.53z" stroke="none" fill="#000000" fill-rule="evenodd" /><path id="372" transform="matrix(1 0 0 -1 0 841)" d="M418.73 621.05L466.25 621.05L466.25 621.05L466.25 621.53L466.25 621.53L418.73 621.53z" stroke="none" fill="#000000" fill-rule="evenodd" /><path id="373" transform="matrix(1 0 0 -1 0 841)" d="M466.25 621.05L466.73 621.05L466.73 621.05L466.73 621.53L466.73 621.53L466.25 621.53z" stroke="none" fill="#000000" fill-rule="evenodd" /><path id="374" transform="matrix(1 0 0 -1 0 841)" d="M466.25 621.05L466.73 621.05L466.73 621.05L466.73 621.53L466.73 621.53L466.25 621.53z" stroke="none" fill="#000000" fill-rule="evenodd" /><path id="375" transform="matrix(1 0 0 -1 0 841)" d="M171.19 604.97L171.67 604.97L171.67 604.97L171.67 621.05L171.67 621.05L171.19 621.05z" stroke="none" fill="#000000" fill-rule="evenodd" /><path id="376" transform="matrix(1 0 0 -1 0 841)" d="M226.18 604.97L226.66 604.97L226.66 604.97L226.66 621.05L226.66 621.05L226.18 621.05z" stroke="none" fill="#000000" fill-rule="evenodd" /><path id="377" transform="matrix(1 0 0 -1 0 841)" d="M274.18 604.97L274.66 604.97L274.66 604.97L274.66 621.05L274.66 621.05L274.18 621.05z" stroke="none" fill="#000000" fill-rule="evenodd" /><path id="378" transform="matrix(1 0 0 -1 0 841)" d="M322.2 604.97L322.68 604.97L322.68 604.97L322.68 621.05L322.68 621.05L322.2 621.05z" stroke="none" fill="#000000" fill-rule="evenodd" /><path id="379" transform="matrix(1 0 0 -1 0 841)" d="M370.22 604.97L370.7 604.97L370.7 604.97L370.7 621.05L370.7 621.05L370.22 621.05z" stroke="none" fill="#000000" fill-rule="evenodd" /><path id="380" transform="matrix(1 0 0 -1 0 841)" d="M418.25 604.97L418.73 604.97L418.73 604.97L418.73 621.05L418.73 621.05L418.25 621.05z" stroke="none" fill="#000000" fill-rule="evenodd" /><path id="381" transform="matrix(1 0 0 -1 0 841)" d="M466.25 604.97L466.73 604.97L466.73 604.97L466.73 621.05L466.73 621.05L466.25 621.05z" stroke="none" fill="#000000" fill-rule="evenodd" /><g clip-path="url(#21)"><g clip-path="url(#22)"></g><g clip-path="url(#23)"></g></g><g clip-path="url(#24)"><g clip-path="url(#25)"></g><g clip-path="url(#26)"></g></g><g clip-path="url(#27)"><g clip-path="url(#28)"></g><g clip-path="url(#29)"></g></g><g clip-path="url(#30)"><g clip-path="url(#31)"></g><g clip-path="url(#32)"></g></g><g clip-path="url(#33)"><g clip-path="url(#34)"></g><g clip-path="url(#35)"></g></g><g clip-path="url(#36)"><g clip-path="url(#37)"></g><g clip-path="url(#38)"></g></g><path id="388" transform="matrix(1 0 0 -1 0 841)" d="M171.19 604.49L171.67 604.49L171.67 604.49L171.67 604.97L171.67 604.97L171.19 604.97z" stroke="none" fill="#000000" fill-rule="evenodd" /><path id="389" transform="matrix(1 0 0 -1 0 841)" d="M171.67 604.49L226.174 604.49L226.174 604.49L226.174 604.97L226.174 604.97L171.67 604.97z" stroke="none" fill="#000000" fill-rule="evenodd" /><path id="390" transform="matrix(1 0 0 -1 0 841)" d="M226.18 604.49L226.66 604.49L226.66 604.49L226.66 604.97L226.66 604.97L226.18 604.97z" stroke="none" fill="#000000" fill-rule="evenodd" /><path id="391" transform="matrix(1 0 0 -1 0 841)" d="M226.66 604.49L274.18 604.49L274.18 604.49L274.18 604.97L274.18 604.97L226.66 604.97z" stroke="none" fill="#000000" fill-rule="evenodd" /><path id="392" transform="matrix(1 0 0 -1 0 841)" d="M274.18 604.49L274.66 604.49L274.66 604.49L274.66 604.97L274.66 604.97L274.18 604.97z" stroke="none" fill="#000000" fill-rule="evenodd" /><path id="393" transform="matrix(1 0 0 -1 0 841)" d="M274.66 604.49L322.204 604.49L322.204 604.49L322.204 604.97L322.204 604.97L274.66 604.97z" stroke="none" fill="#000000" fill-rule="evenodd" /><path id="394" transform="matrix(1 0 0 -1 0 841)" d="M322.2 604.49L322.68 604.49L322.68 604.49L322.68 604.97L322.68 604.97L322.2 604.97z" stroke="none" fill="#000000" fill-rule="evenodd" /><path id="395" transform="matrix(1 0 0 -1 0 841)" d="M322.68 604.49L370.224 604.49L370.224 604.49L370.224 604.97L370.224 604.97L322.68 604.97z" stroke="none" fill="#000000" fill-rule="evenodd" /><path id="396" transform="matrix(1 0 0 -1 0 841)" d="M370.22 604.49L370.7 604.49L370.7 604.49L370.7 604.97L370.7 604.97L370.22 604.97z" stroke="none" fill="#000000" fill-rule="evenodd" /><path id="397" transform="matrix(1 0 0 -1 0 841)" d="M370.7 604.49L418.244 604.49L418.244 604.49L418.244 604.97L418.244 604.97L370.7 604.97z" stroke="none" fill="#000000" fill-rule="evenodd" /><path id="398" transform="matrix(1 0 0 -1 0 841)" d="M418.25 604.49L418.73 604.49L418.73 604.49L418.73 604.97L418.73 604.97L418.25 604.97z" stroke="none" fill="#000000" fill-rule="evenodd" /><path id="399" transform="matrix(1 0 0 -1 0 841)" d="M418.73 604.49L466.25 604.49L466.25 604.49L466.25 604.97L466.25 604.97L418.73 604.97z" stroke="none" fill="#000000" fill-rule="evenodd" /><path id="400" transform="matrix(1 0 0 -1 0 841)" d="M466.25 604.49L466.73 604.49L466.73 604.49L466.73 604.97L466.73 604.97L466.25 604.97z" stroke="none" fill="#000000" fill-rule="evenodd" /><path id="401" transform="matrix(1 0 0 -1 0 841)" d="M171.19 588.17L171.67 588.17L171.67 588.17L171.67 604.49L171.67 604.49L171.19 604.49z" stroke="none" fill="#000000" fill-rule="evenodd" /><path id="402" transform="matrix(1 0 0 -1 0 841)" d="M226.18 588.17L226.66 588.17L226.66 588.17L226.66 604.49L226.66 604.49L226.18 604.49z" stroke="none" fill="#000000" fill-rule="evenodd" /><path id="403" transform="matrix(1 0 0 -1 0 841)" d="M274.18 588.17L274.66 588.17L274.66 588.17L274.66 604.49L274.66 604.49L274.18 604.49z" stroke="none" fill="#000000" fill-rule="evenodd" /><path id="404" transform="matrix(1 0 0 -1 0 841)" d="M322.2 588.17L322.68 588.17L322.68 588.17L322.68 604.49L322.68 604.49L322.2 604.49z" stroke="none" fill="#000000" fill-rule="evenodd" /><path id="405" transform="matrix(1 0 0 -1 0 841)" d="M370.22 588.17L370.7 588.17L370.7 588.17L370.7 604.49L370.7 604.49L370.22 604.49z" stroke="none" fill="#000000" fill-rule="evenodd" /><path id="406" transform="matrix(1 0 0 -1 0 841)" d="M418.25 588.17L418.73 588.17L418.73 588.17L418.73 604.49L418.73 604.49L418.25 604.49z" stroke="none" fill="#000000" fill-rule="evenodd" /><path id="407" transform="matrix(1 0 0 -1 0 841)" d="M466.25 588.17L466.73 588.17L466.73 588.17L466.73 604.49L466.73 604.49L466.25 604.49z" stroke="none" fill="#000000" fill-rule="evenodd" /><g clip-path="url(#39)"><g clip-path="url(#40)"></g><g clip-path="url(#41)"></g></g><g clip-path="url(#42)"><g clip-path="url(#43)"></g><g clip-path="url(#44)"></g></g><g clip-path="url(#45)"><g clip-path="url(#46)"></g><g clip-path="url(#47)"></g></g><g clip-path="url(#48)"><g clip-path="url(#49)"></g><g clip-path="url(#50)"></g></g><g clip-path="url(#51)"><g clip-path="url(#52)"></g><g clip-path="url(#53)"></g></g><g clip-path="url(#54)"><g clip-path="url(#55)"></g><g clip-path="url(#56)"></g></g><path id="418" transform="matrix(1 0 0 -1 0 841)" d="M171.19 587.69L171.67 587.69L171.67 587.69L171.67 588.17L171.67 588.17L171.19 588.17z" stroke="none" fill="#000000" fill-rule="evenodd" /><path id="419" transform="matrix(1 0 0 -1 0 841)" d="M171.67 587.69L226.174 587.69L226.174 587.69L226.174 588.17L226.174 588.17L171.67 588.17z" stroke="none" fill="#000000" fill-rule="evenodd" /><path id="420" transform="matrix(1 0 0 -1 0 841)" d="M226.18 587.69L226.66 587.69L226.66 587.69L226.66 588.17L226.66 588.17L226.18 588.17z" stroke="none" fill="#000000" fill-rule="evenodd" /><path id="421" transform="matrix(1 0 0 -1 0 841)" d="M226.66 587.69L274.18 587.69L274.18 587.69L274.18 588.17L274.18 588.17L226.66 588.17z" stroke="none" fill="#000000" fill-rule="evenodd" /><path id="422" transform="matrix(1 0 0 -1 0 841)" d="M274.18 587.69L274.66 587.69L274.66 587.69L274.66 588.17L274.66 588.17L274.18 588.17z" stroke="none" fill="#000000" fill-rule="evenodd" /><path id="423" transform="matrix(1 0 0 -1 0 841)" d="M274.66 587.69L322.204 587.69L322.204 587.69L322.204 588.17L322.204 588.17L274.66 588.17z" stroke="none" fill="#000000" fill-rule="evenodd" /><path id="424" transform="matrix(1 0 0 -1 0 841)" d="M322.2 587.69L322.68 587.69L322.68 587.69L322.68 588.17L322.68 588.17L322.2 588.17z" stroke="none" fill="#000000" fill-rule="evenodd" /><path id="425" transform="matrix(1 0 0 -1 0 841)" d="M322.68 587.69L370.224 587.69L370.224 587.69L370.224 588.17L370.224 588.17L322.68 588.17z" stroke="none" fill="#000000" fill-rule="evenodd" /><path id="426" transform="matrix(1 0 0 -1 0 841)" d="M370.22 587.69L370.7 587.69L370.7 587.69L370.7 588.17L370.7 588.17L370.22 588.17z" stroke="none" fill="#000000" fill-rule="evenodd" /><path id="427" transform="matrix(1 0 0 -1 0 841)" d="M370.7 587.69L418.244 587.69L418.244 587.69L418.244 588.17L418.244 588.17L370.7 588.17z" stroke="none" fill="#000000" fill-rule="evenodd" /><path id="428" transform="matrix(1 0 0 -1 0 841)" d="M418.25 587.69L418.73 587.69L418.73 587.69L418.73 588.17L418.73 588.17L418.25 588.17z" stroke="none" fill="#000000" fill-rule="evenodd" /><path id="429" transform="matrix(1 0 0 -1 0 841)" d="M418.73 587.69L466.25 587.69L466.25 587.69L466.25 588.17L466.25 588.17L418.73 588.17z" stroke="none" fill="#000000" fill-rule="evenodd" /><path id="430" transform="matrix(1 0 0 -1 0 841)" d="M466.25 587.69L466.73 587.69L466.73 587.69L466.73 588.17L466.73 588.17L466.25 588.17z" stroke="none" fill="#000000" fill-rule="evenodd" /><path id="431" transform="matrix(1 0 0 -1 0 841)" d="M171.19 571.61L171.67 571.61L171.67 571.61L171.67 587.69L171.67 587.69L171.19 587.69z" stroke="none" fill="#000000" fill-rule="evenodd" /><path id="432" transform="matrix(1 0 0 -1 0 841)" d="M171.19 571.13L171.67 571.13L171.67 571.13L171.67 571.61L171.67 571.61L171.19 571.61z" stroke="none" fill="#000000" fill-rule="evenodd" /><path id="433" transform="matrix(1 0 0 -1 0 841)" d="M171.19 571.13L171.67 571.13L171.67 571.13L171.67 571.61L171.67 571.61L171.19 571.61z" stroke="none" fill="#000000" fill-rule="evenodd" /><path id="434" transform="matrix(1 0 0 -1 0 841)" d="M171.67 571.13L226.174 571.13L226.174 571.13L226.174 571.61L226.174 571.61L171.67 571.61z" stroke="none" fill="#000000" fill-rule="evenodd" /><path id="435" transform="matrix(1 0 0 -1 0 841)" d="M226.18 571.61L226.66 571.61L226.66 571.61L226.66 587.69L226.66 587.69L226.18 587.69z" stroke="none" fill="#000000" fill-rule="evenodd" /><path id="436" transform="matrix(1 0 0 -1 0 841)" d="M226.18 571.13L226.66 571.13L226.66 571.13L226.66 571.61L226.66 571.61L226.18 571.61z" stroke="none" fill="#000000" fill-rule="evenodd" /><path id="437" transform="matrix(1 0 0 -1 0 841)" d="M226.66 571.13L274.18 571.13L274.18 571.13L274.18 571.61L274.18 571.61L226.66 571.61z" stroke="none" fill="#000000" fill-rule="evenodd" /><path id="438" transform="matrix(1 0 0 -1 0 841)" d="M274.18 571.61L274.66 571.61L274.66 571.61L274.66 587.69L274.66 587.69L274.18 587.69z" stroke="none" fill="#000000" fill-rule="evenodd" /><path id="439" transform="matrix(1 0 0 -1 0 841)" d="M274.18 571.13L274.66 571.13L274.66 571.13L274.66 571.61L274.66 571.61L274.18 571.61z" stroke="none" fill="#000000" fill-rule="evenodd" /><path id="440" transform="matrix(1 0 0 -1 0 841)" d="M274.66 571.13L322.204 571.13L322.204 571.13L322.204 571.61L322.204 571.61L274.66 571.61z" stroke="none" fill="#000000" fill-rule="evenodd" /><path id="441" transform="matrix(1 0 0 -1 0 841)" d="M322.2 571.61L322.68 571.61L322.68 571.61L322.68 587.69L322.68 587.69L322.2 587.69z" stroke="none" fill="#000000" fill-rule="evenodd" /><path id="442" transform="matrix(1 0 0 -1 0 841)" d="M322.2 571.13L322.68 571.13L322.68 571.13L322.68 571.61L322.68 571.61L322.2 571.61z" stroke="none" fill="#000000" fill-rule="evenodd" /><path id="443" transform="matrix(1 0 0 -1 0 841)" d="M322.68 571.13L370.224 571.13L370.224 571.13L370.224 571.61L370.224 571.61L322.68 571.61z" stroke="none" fill="#000000" fill-rule="evenodd" /><path id="444" transform="matrix(1 0 0 -1 0 841)" d="M370.22 571.61L370.7 571.61L370.7 571.61L370.7 587.69L370.7 587.69L370.22 587.69z" stroke="none" fill="#000000" fill-rule="evenodd" /><path id="445" transform="matrix(1 0 0 -1 0 841)" d="M370.22 571.13L370.7 571.13L370.7 571.13L370.7 571.61L370.7 571.61L370.22 571.61z" stroke="none" fill="#000000" fill-rule="evenodd" /><path id="446" transform="matrix(1 0 0 -1 0 841)" d="M370.7 571.13L418.244 571.13L418.244 571.13L418.244 571.61L418.244 571.61L370.7 571.61z" stroke="none" fill="#000000" fill-rule="evenodd" /><path id="447" transform="matrix(1 0 0 -1 0 841)" d="M418.25 571.61L418.73 571.61L418.73 571.61L418.73 587.69L418.73 587.69L418.25 587.69z" stroke="none" fill="#000000" fill-rule="evenodd" /><path id="448" transform="matrix(1 0 0 -1 0 841)" d="M418.25 571.13L418.73 571.13L418.73 571.13L418.73 571.61L418.73 571.61L418.25 571.61z" stroke="none" fill="#000000" fill-rule="evenodd" /><path id="449" transform="matrix(1 0 0 -1 0 841)" d="M418.73 571.13L466.25 571.13L466.25 571.13L466.25 571.61L466.25 571.61L418.73 571.61z" stroke="none" fill="#000000" fill-rule="evenodd" /><path id="450" transform="matrix(1 0 0 -1 0 841)" d="M466.25 571.61L466.73 571.61L466.73 571.61L466.73 587.69L466.73 587.69L466.25 587.69z" stroke="none" fill="#000000" fill-rule="evenodd" /><path id="451" transform="matrix(1 0 0 -1 0 841)" d="M466.25 571.13L466.73 571.13L466.73 571.13L466.73 571.61L466.73 571.61L466.25 571.61z" stroke="none" fill="#000000" fill-rule="evenodd" /><path id="452" transform="matrix(1 0 0 -1 0 841)" d="M466.25 571.13L466.73 571.13L466.73 571.13L466.73 571.61L466.73 571.61L466.25 571.61z" stroke="none" fill="#000000" fill-rule="evenodd" /><g clip-path="url(#57)"><g clip-path="url(#58)"></g><g clip-path="url(#59)"></g></g><g clip-path="url(#60)"><g clip-path="url(#61)"></g><g clip-path="url(#62)"></g></g><g clip-path="url(#63)"><g clip-path="url(#64)"></g><g clip-path="url(#65)"></g></g><g clip-path="url(#66)"><g clip-path="url(#67)"></g><g clip-path="url(#68)"></g></g><g clip-path="url(#69)"><g clip-path="url(#70)"></g><g clip-path="url(#71)"></g><g clip-path="url(#72)"></g></g><path id="577" transform="matrix(1 0 0 -1 0 841)" d="M218.23 302.98L218.734 302.98L218.734 302.98L218.734 303.4601L218.734 303.4601L218.23 303.4601z" stroke="none" fill="#000000" fill-rule="evenodd" /><path id="578" transform="matrix(1 0 0 -1 0 841)" d="M218.23 302.98L218.734 302.98L218.734 302.98L218.734 303.4601L218.734 303.4601L218.23 303.4601z" stroke="none" fill="#000000" fill-rule="evenodd" /><path id="579" transform="matrix(1 0 0 -1 0 841)" d="M218.74 302.98L260.74 302.98L260.74 302.98L260.74 303.4601L260.74 303.4601L218.74 303.4601z" stroke="none" fill="#000000" fill-rule="evenodd" /><path id="580" transform="matrix(1 0 0 -1 0 841)" d="M260.74 302.98L261.22 302.98L261.22 302.98L261.22 303.4601L261.22 303.4601L260.74 303.4601z" stroke="none" fill="#000000" fill-rule="evenodd" /><path id="581" transform="matrix(1 0 0 -1 0 841)" d="M261.22 302.98L299.164 302.98L299.164 302.98L299.164 303.4601L299.164 303.4601L261.22 303.4601z" stroke="none" fill="#000000" fill-rule="evenodd" /><path id="582" transform="matrix(1 0 0 -1 0 841)" d="M299.16 302.98L299.64 302.98L299.64 302.98L299.64 303.4601L299.64 303.4601L299.16 303.4601z" stroke="none" fill="#000000" fill-rule="evenodd" /><path id="583" transform="matrix(1 0 0 -1 0 841)" d="M299.64 302.98L341.16 302.98L341.16 302.98L341.16 303.4601L341.16 303.4601L299.64 303.4601z" stroke="none" fill="#000000" fill-rule="evenodd" /><path id="584" transform="matrix(1 0 0 -1 0 841)" d="M341.16 302.98L341.64 302.98L341.64 302.98L341.64 303.4601L341.64 303.4601L341.16 303.4601z" stroke="none" fill="#000000" fill-rule="evenodd" /><path id="585" transform="matrix(1 0 0 -1 0 841)" d="M341.64 302.98L383.664 302.98L383.664 302.98L383.664 303.4601L383.664 303.4601L341.64 303.4601z" stroke="none" fill="#000000" fill-rule="evenodd" /><path id="586" transform="matrix(1 0 0 -1 0 841)" d="M383.66 302.98L384.14 302.98L384.14 302.98L384.14 303.4601L384.14 303.4601L383.66 303.4601z" stroke="none" fill="#000000" fill-rule="evenodd" /><path id="587" transform="matrix(1 0 0 -1 0 841)" d="M384.14 302.98L419.204 302.98L419.204 302.98L419.204 303.4601L419.204 303.4601L384.14 303.4601z" stroke="none" fill="#000000" fill-rule="evenodd" /><path id="588" transform="matrix(1 0 0 -1 0 841)" d="M419.21 302.98L419.69 302.98L419.69 302.98L419.69 303.4601L419.69 303.4601L419.21 303.4601z" stroke="none" fill="#000000" fill-rule="evenodd" /><path id="589" transform="matrix(1 0 0 -1 0 841)" d="M419.21 302.98L419.69 302.98L419.69 302.98L419.69 303.4601L419.69 303.4601L419.21 303.4601z" stroke="none" fill="#000000" fill-rule="evenodd" /><path id="590" transform="matrix(1 0 0 -1 0 841)" d="M218.23 286.9L218.734 286.9L218.734 286.9L218.734 302.98L218.734 302.98L218.23 302.98z" stroke="none" fill="#000000" fill-rule="evenodd" /><path id="591" transform="matrix(1 0 0 -1 0 841)" d="M260.74 286.9L261.22 286.9L261.22 286.9L261.22 302.98L261.22 302.98L260.74 302.98z" stroke="none" fill="#000000" fill-rule="evenodd" /><path id="592" transform="matrix(1 0 0 -1 0 841)" d="M299.16 286.9L299.64 286.9L299.64 286.9L299.64 302.98L299.64 302.98L299.16 302.98z" stroke="none" fill="#000000" fill-rule="evenodd" /><path id="593" transform="matrix(1 0 0 -1 0 841)" d="M341.16 286.9L341.64 286.9L341.64 286.9L341.64 302.98L341.64 302.98L341.16 302.98z" stroke="none" fill="#000000" fill-rule="evenodd" /><path id="594" transform="matrix(1 0 0 -1 0 841)" d="M383.66 286.9L384.14 286.9L384.14 286.9L384.14 302.98L384.14 302.98L383.66 302.98z" stroke="none" fill="#000000" fill-rule="evenodd" /><path id="595" transform="matrix(1 0 0 -1 0 841)" d="M419.21 286.9L419.69 286.9L419.69 286.9L419.69 302.98L419.69 302.98L419.21 302.98z" stroke="none" fill="#000000" fill-rule="evenodd" /><g clip-path="url(#73)"><g clip-path="url(#74)"></g><g clip-path="url(#75)"></g></g><g clip-path="url(#76)"><g clip-path="url(#77)"></g><g clip-path="url(#78)"></g><g clip-path="url(#79)"></g></g><g clip-path="url(#80)"><g clip-path="url(#81)"></g><g clip-path="url(#82)"></g><g clip-path="url(#83)"></g></g><g clip-path="url(#84)"><g clip-path="url(#85)"></g><g clip-path="url(#86)"></g><g clip-path="url(#87)"></g></g><g clip-path="url(#88)"><g clip-path="url(#89)"></g><g clip-path="url(#90)"></g><g clip-path="url(#91)"></g></g><path id="608" transform="matrix(1 0 0 -1 0 841)" d="M218.23 286.42L218.734 286.42L218.734 286.42L218.734 286.9001L218.734 286.9001L218.23 286.9001z" stroke="none" fill="#000000" fill-rule="evenodd" /><path id="609" transform="matrix(1 0 0 -1 0 841)" d="M218.74 286.42L260.74 286.42L260.74 286.42L260.74 286.9001L260.74 286.9001L218.74 286.9001z" stroke="none" fill="#000000" fill-rule="evenodd" /><path id="610" transform="matrix(1 0 0 -1 0 841)" d="M260.74 286.42L261.22 286.42L261.22 286.42L261.22 286.9001L261.22 286.9001L260.74 286.9001z" stroke="none" fill="#000000" fill-rule="evenodd" /><path id="611" transform="matrix(1 0 0 -1 0 841)" d="M261.22 286.42L299.164 286.42L299.164 286.42L299.164 286.9001L299.164 286.9001L261.22 286.9001z" stroke="none" fill="#000000" fill-rule="evenodd" /><path id="612" transform="matrix(1 0 0 -1 0 841)" d="M299.16 286.42L299.64 286.42L299.64 286.42L299.64 286.9001L299.64 286.9001L299.16 286.9001z" stroke="none" fill="#000000" fill-rule="evenodd" /><path id="613" transform="matrix(1 0 0 -1 0 841)" d="M299.64 286.42L341.16 286.42L341.16 286.42L341.16 286.9001L341.16 286.9001L299.64 286.9001z" stroke="none" fill="#000000" fill-rule="evenodd" /><path id="614" transform="matrix(1 0 0 -1 0 841)" d="M341.16 286.42L341.64 286.42L341.64 286.42L341.64 286.9001L341.64 286.9001L341.16 286.9001z" stroke="none" fill="#000000" fill-rule="evenodd" /><path id="615" transform="matrix(1 0 0 -1 0 841)" d="M341.64 286.42L383.664 286.42L383.664 286.42L383.664 286.9001L383.664 286.9001L341.64 286.9001z" stroke="none" fill="#000000" fill-rule="evenodd" /><path id="616" transform="matrix(1 0 0 -1 0 841)" d="M383.66 286.42L384.14 286.42L384.14 286.42L384.14 286.9001L384.14 286.9001L383.66 286.9001z" stroke="none" fill="#000000" fill-rule="evenodd" /><path id="617" transform="matrix(1 0 0 -1 0 841)" d="M384.14 286.42L419.204 286.42L419.204 286.42L419.204 286.9001L419.204 286.9001L384.14 286.9001z" stroke="none" fill="#000000" fill-rule="evenodd" /><path id="618" transform="matrix(1 0 0 -1 0 841)" d="M419.21 286.42L419.69 286.42L419.69 286.42L419.69 286.9001L419.69 286.9001L419.21 286.9001z" stroke="none" fill="#000000" fill-rule="evenodd" /><path id="619" transform="matrix(1 0 0 -1 0 841)" d="M218.23 270.34L218.734 270.34L218.734 270.34L218.734 286.42L218.734 286.42L218.23 286.42z" stroke="none" fill="#000000" fill-rule="evenodd" /><path id="620" transform="matrix(1 0 0 -1 0 841)" d="M218.23 269.86L218.734 269.86L218.734 269.86L218.734 270.34L218.734 270.34L218.23 270.34z" stroke="none" fill="#000000" fill-rule="evenodd" /><path id="621" transform="matrix(1 0 0 -1 0 841)" d="M218.23 269.86L218.734 269.86L218.734 269.86L218.734 270.34L218.734 270.34L218.23 270.34z" stroke="none" fill="#000000" fill-rule="evenodd" /><path id="622" transform="matrix(1 0 0 -1 0 841)" d="M218.74 269.86L260.74 269.86L260.74 269.86L260.74 270.34L260.74 270.34L218.74 270.34z" stroke="none" fill="#000000" fill-rule="evenodd" /><path id="623" transform="matrix(1 0 0 -1 0 841)" d="M260.74 270.34L261.22 270.34L261.22 270.34L261.22 286.42L261.22 286.42L260.74 286.42z" stroke="none" fill="#000000" fill-rule="evenodd" /><path id="624" transform="matrix(1 0 0 -1 0 841)" d="M260.74 269.86L261.22 269.86L261.22 269.86L261.22 270.34L261.22 270.34L260.74 270.34z" stroke="none" fill="#000000" fill-rule="evenodd" /><path id="625" transform="matrix(1 0 0 -1 0 841)" d="M261.22 269.86L299.164 269.86L299.164 269.86L299.164 270.34L299.164 270.34L261.22 270.34z" stroke="none" fill="#000000" fill-rule="evenodd" /><path id="626" transform="matrix(1 0 0 -1 0 841)" d="M299.16 270.34L299.64 270.34L299.64 270.34L299.64 286.42L299.64 286.42L299.16 286.42z" stroke="none" fill="#000000" fill-rule="evenodd" /><path id="627" transform="matrix(1 0 0 -1 0 841)" d="M299.16 269.86L299.64 269.86L299.64 269.86L299.64 270.34L299.64 270.34L299.16 270.34z" stroke="none" fill="#000000" fill-rule="evenodd" /><path id="628" transform="matrix(1 0 0 -1 0 841)" d="M299.64 269.86L341.16 269.86L341.16 269.86L341.16 270.34L341.16 270.34L299.64 270.34z" stroke="none" fill="#000000" fill-rule="evenodd" /><path id="629" transform="matrix(1 0 0 -1 0 841)" d="M341.16 270.34L341.64 270.34L341.64 270.34L341.64 286.42L341.64 286.42L341.16 286.42z" stroke="none" fill="#000000" fill-rule="evenodd" /><path id="630" transform="matrix(1 0 0 -1 0 841)" d="M341.16 269.86L341.64 269.86L341.64 269.86L341.64 270.34L341.64 270.34L341.16 270.34z" stroke="none" fill="#000000" fill-rule="evenodd" /><path id="631" transform="matrix(1 0 0 -1 0 841)" d="M341.64 269.86L383.664 269.86L383.664 269.86L383.664 270.34L383.664 270.34L341.64 270.34z" stroke="none" fill="#000000" fill-rule="evenodd" /><path id="632" transform="matrix(1 0 0 -1 0 841)" d="M383.66 270.34L384.14 270.34L384.14 270.34L384.14 286.42L384.14 286.42L383.66 286.42z" stroke="none" fill="#000000" fill-rule="evenodd" /><path id="633" transform="matrix(1 0 0 -1 0 841)" d="M383.66 269.86L384.14 269.86L384.14 269.86L384.14 270.34L384.14 270.34L383.66 270.34z" stroke="none" fill="#000000" fill-rule="evenodd" /><path id="634" transform="matrix(1 0 0 -1 0 841)" d="M384.14 269.86L419.204 269.86L419.204 269.86L419.204 270.34L419.204 270.34L384.14 270.34z" stroke="none" fill="#000000" fill-rule="evenodd" /><path id="635" transform="matrix(1 0 0 -1 0 841)" d="M419.21 270.34L419.69 270.34L419.69 270.34L419.69 286.42L419.69 286.42L419.21 286.42z" stroke="none" fill="#000000" fill-rule="evenodd" /><path id="636" transform="matrix(1 0 0 -1 0 841)" d="M419.21 269.86L419.69 269.86L419.69 269.86L419.69 270.34L419.69 270.34L419.21 270.34z" stroke="none" fill="#000000" fill-rule="evenodd" /><path id="637" transform="matrix(1 0 0 -1 0 841)" d="M419.21 269.86L419.69 269.86L419.69 269.86L419.69 270.34L419.69 270.34L419.21 270.34z" stroke="none" fill="#000000" fill-rule="evenodd" /><g clip-path="url(#92)"><path id="817" transform="matrix(1 0 0 -1 0 841)" d="M258.0127 142.7646L300.8206 142.7646" stroke="#000000" stroke-width="0.4898027" fill="none" /><path id="818" transform="matrix(1 0 0 -1 0 841)" d="M315.3432 142.7646L370.6203 142.7646" stroke="#000000" stroke-width="0.4898027" fill="none" /></g><g clip-path="url(#93)"><path id="894" transform="matrix(1 0 0 -1 0 841)" d="M172.56 401.04L465.12 401.04L465.12 401.04L465.12 571.2L465.12 571.2L172.56 571.2z" stroke="none" fill="#FFFFFF" fill-rule="evenodd" /></g><path id="895" transform="matrix(1 0 0 -1 0 841)" d="M201.96 558.6L455.64 558.6M201.96 540.36L455.64 540.36M201.96 522.12L455.64 522.12M201.96 503.88L455.64 503.88M201.96 485.64L455.64 485.64M201.96 467.4L455.64 467.4M201.96 449.16L455.64 449.16" stroke="#000000" stroke-width="0.72" fill="none" /><path id="896" transform="matrix(1 0 0 -1 0 841)" d="M455.64 558.6L455.64 430.92M413.4 558.6L413.4 430.92M371.16 558.6L371.16 430.92M328.92 558.6L328.92 430.92M286.44 558.6L286.44 430.92M244.2 558.6L244.2 430.92" stroke="#000000" stroke-width="0.72" fill="none" /><path id="897" transform="matrix(1 0 0 -1 0 841)" d="M201.96 430.92L201.96 558.6" stroke="#000000" stroke-width="0.72" fill="none" /><path id="898" transform="matrix(1 0 0 -1 0 841)" d="M201.96 430.92L455.64 430.92" stroke="#000000" stroke-width="0.72" fill="none" /><path id="899" transform="matrix(1 0 0 -1 0 841)" d="M244.08 476.64L286.56 504L286.56 504L328.8 494.88L328.8 494.88L371.04 522.24L371.04 522.24L413.52 540.24" stroke="#000000" stroke-width="1.44" stroke-linecap="round" fill="none" /><path id="900" transform="matrix(1 0 0 -1 0 841)" d="M246.84 476.55C 246.84 475.16 245.71 474.03 244.32 474.03C 242.92 474.03 241.8 475.16 241.8 476.55C 241.8 477.95 242.92 479.07 244.32 479.07C 245.71 479.07 246.84 477.95 246.84 476.55z" stroke="none" fill="#000000" fill-rule="nonzero" /><path id="901" transform="matrix(1 0 0 -1 0 841)" d="M246.84 476.55C 246.84 475.16 245.71 474.03 244.32 474.03C 242.92 474.03 241.8 475.16 241.8 476.55C 241.8 477.95 242.92 479.07 244.32 479.07C 245.71 479.07 246.84 477.95 246.84 476.55z" stroke="#000000" stroke-width="0.75" fill="none" /><path id="902" transform="matrix(1 0 0 -1 0 841)" d="M289.08 503.91C 289.08 502.52 287.95 501.39 286.56 501.39C 285.16 501.39 284.04 502.52 284.04 503.91C 284.04 505.31 285.16 506.43 286.56 506.43C 287.95 506.43 289.08 505.31 289.08 503.91z" stroke="none" fill="#000000" fill-rule="nonzero" /><path id="903" transform="matrix(1 0 0 -1 0 841)" d="M289.08 503.91C 289.08 502.52 287.95 501.39 286.56 501.39C 285.16 501.39 284.04 502.52 284.04 503.91C 284.04 505.31 285.16 506.43 286.56 506.43C 287.95 506.43 289.08 505.31 289.08 503.91z" stroke="#000000" stroke-width="0.75" fill="none" /><path id="904" transform="matrix(1 0 0 -1 0 841)" d="M331.56 494.79C 331.56 493.4 330.43 492.27 329.04 492.27C 327.64 492.27 326.52 493.4 326.52 494.79C 326.52 496.19 327.64 497.31 329.04 497.31C 330.43 497.31 331.56 496.19 331.56 494.79z" stroke="none" fill="#000000" fill-rule="nonzero" /><path id="905" transform="matrix(1 0 0 -1 0 841)" d="M331.56 494.79C 331.56 493.4 330.43 492.27 329.04 492.27C 327.64 492.27 326.52 493.4 326.52 494.79C 326.52 496.19 327.64 497.31 329.04 497.31C 330.43 497.31 331.56 496.19 331.56 494.79z" stroke="#000000" stroke-width="0.75" fill="none" /><path id="906" transform="matrix(1 0 0 -1 0 841)" d="M373.8 522.15C 373.8 520.76 372.67 519.63 371.28 519.63C 369.88 519.63 368.76 520.76 368.76 522.15C 368.76 523.55 369.88 524.67 371.28 524.67C 372.67 524.67 373.8 523.55 373.8 522.15z" stroke="none" fill="#000000" fill-rule="nonzero" /><path id="907" transform="matrix(1 0 0 -1 0 841)" d="M373.8 522.15C 373.8 520.76 372.67 519.63 371.28 519.63C 369.88 519.63 368.76 520.76 368.76 522.15C 368.76 523.55 369.88 524.67 371.28 524.67C 372.67 524.67 373.8 523.55 373.8 522.15z" stroke="#000000" stroke-width="0.75" fill="none" /><path id="908" transform="matrix(1 0 0 -1 0 841)" d="M416.04 540.39C 416.04 539 414.91 537.87 413.52 537.87C 412.12 537.87 411 539 411 540.39C 411 541.79 412.12 542.91 413.52 542.91C 414.91 542.91 416.04 541.79 416.04 540.39z" stroke="none" fill="#000000" fill-rule="nonzero" /><path id="909" transform="matrix(1 0 0 -1 0 841)" d="M416.04 540.39C 416.04 539 414.91 537.87 413.52 537.87C 412.12 537.87 411 539 411 540.39C 411 541.79 412.12 542.91 413.52 542.91C 414.91 542.91 416.04 541.79 416.04 540.39z" stroke="#000000" stroke-width="0.75" fill="none" /><g clip-path="url(#94)"></g><g clip-path="url(#95)"></g><g clip-path="url(#96)"></g><g clip-path="url(#97)"></g><g clip-path="url(#98)"></g><g clip-path="url(#99)"></g><g clip-path="url(#100)"></g><g clip-path="url(#101)"></g><g clip-path="url(#102)"></g><g clip-path="url(#103)"></g><g clip-path="url(#104)"></g><g clip-path="url(#105)"></g><g clip-path="url(#106)"></g><g clip-path="url(#107)"></g><g clip-path="url(#108)"></g><path id="925" transform="matrix(1 0 0 -1 0 841)" d="M179.7 549.46L191.47 549.46L191.47 549.46L191.47 567.405L191.47 567.405L179.7 567.405z" stroke="none" fill="#FFFFFF" fill-rule="evenodd" /><g clip-path="url(#109)"></g><g clip-path="url(#110)"></g><path id="927" transform="matrix(1 0 0 -1 0 841)" d="M447.84 408.68L459.61 408.68L459.61 408.68L459.61 426.625L459.61 426.625L447.84 426.625z" stroke="none" fill="#FFFFFF" fill-rule="evenodd" /><g clip-path="url(#111)"></g><g clip-path="url(#112)"></g></g></g></svg>