<svg xmlns="http://www.w3.org/2000/svg" xmlns:xlink="http://www.w3.org/1999/xlink" id="body_18" preserveAspectRatio="xMinYMin meet" viewBox="0 0 793 1121"><defs><clipPath id="1"><path id="" clip-rule="evenodd" transform="matrix(1 0 0 1 0 0)" d="M0 841L0 -0.9199829L0 -0.9199829L595.2 -0.9199829L595.2 -0.9199829L595.2 841L595.2 841L0 841z" /></clipPath><clipPath id="2"><path id="" clip-rule="evenodd" transform="matrix(1 0 0 1 0 0)" d="M240.82 90.90002L396.8249 90.90002L396.8249 90.90002L396.8249 55.599L396.8249 55.599L240.82 55.599z" /></clipPath><clipPath id="3"><path id="" clip-rule="evenodd" transform="matrix(1 0 0 1 0 0)" d="M117.47 178.95L208.2188 178.95L208.2188 178.95L208.2188 118.9484L208.2188 118.9484L117.47 118.9484z" /></clipPath><clipPath id="4"><path id="" clip-rule="evenodd" transform="matrix(1 0 0 1 0 0)" d="M215.62 178.95L311.6139 178.95L311.6139 178.95L311.6139 118.9484L311.6139 118.9484L215.62 118.9484z" /></clipPath><clipPath id="5"><path id="" clip-rule="evenodd" transform="matrix(1 0 0 1 0 0)" d="M318.62 178.95L413.1677 178.95L413.1677 178.95L413.1677 118.9484L413.1677 118.9484L318.62 118.9484z" /></clipPath><clipPath id="6"><path id="" clip-rule="evenodd" transform="matrix(1 0 0 1 0 0)" d="M420.12 178.95L516.8195 178.95L516.8195 178.95L516.8195 118.9484L516.8195 118.9484L420.12 118.9484z" /></clipPath><clipPath id="7"><path id="" clip-rule="evenodd" transform="matrix(1 0 0 1 0 0)" d="M317.17 264.15L387.0198 264.15L387.0198 264.15L387.0198 239.4501L387.0198 239.4501L317.17 239.4501z" /></clipPath><clipPath id="8"><path id="" clip-rule="evenodd" transform="matrix(1 0 0 1 0 0)" d="M262.42 322.25L371.8652 322.25L371.8652 322.25L371.8652 304.9502L371.8652 304.9502L262.42 304.9502z" /></clipPath><clipPath id="9"><path id="" clip-rule="evenodd" transform="matrix(1 0 0 1 0 0)" d="M225.02 464.8L410.2717 464.8L410.2717 464.8L410.2717 422.102L410.2717 422.102L225.02 422.102z" /></clipPath><clipPath id="10"><path id="" clip-rule="evenodd" transform="matrix(1 0 0 1 0 0)" d="M172.92 592.95L350.0137 592.95L350.0137 592.95L350.0137 502.9503L350.0137 502.9503L172.92 502.9503z" /></clipPath><clipPath id="11"><path id="" clip-rule="evenodd" transform="matrix(1 0 0 1 0 0)" d="M357.02 561.75L465.0243 561.75L465.0243 561.75L465.0243 507.0513L465.0243 507.0513L357.02 507.0513z" /></clipPath><clipPath id="12"><path id="" clip-rule="evenodd" transform="matrix(1 0 0 1 0 0)" d="M254.52 645.5L295.0692 645.5L295.0692 645.5L295.0692 625.3503L295.0692 625.3503L254.52 625.3503z" /></clipPath><clipPath id="13"><path id="" clip-rule="evenodd" transform="matrix(1 0 0 1 0 0)" d="M333.97 648.4L379.8189 648.4L379.8189 648.4L379.8189 625.8502L379.8189 625.8502L333.97 625.8502z" /></clipPath><clipPath id="14"><path id="" clip-rule="evenodd" transform="matrix(1 0 0 1 0 0)" d="M310.22 718L364.9198 718L364.9198 718L364.9198 695.4502L364.9198 695.4502L310.22 695.4502z" /></clipPath><clipPath id="15"><path id="" clip-rule="evenodd" transform="matrix(1 0 0 1 0 0)" d="M252.82 765.05L382.6703 765.05L382.6703 765.05L382.6703 746.3008L382.6703 746.3008L252.82 746.3008z" /></clipPath></defs><g transform="matrix(1.333333 0 0 1.333333 0 0)"><g clip-path="url(#1)"><g clip-path="url(#2)"><path id="1" transform="matrix(1 0 0 -1 0 841)" d="M268.7926 766.7762L284.7348 766.7762" stroke="#000000" stroke-width="0.6846433" fill="none" /><path id="2" transform="matrix(1 0 0 -1 0 841)" d="M321.3396 766.7762L335.913 766.7762" stroke="#000000" stroke-width="0.6846433" fill="none" /><path id="3" transform="matrix(1 0 0 -1 0 841)" d="M374.0078 766.7762L390.0999 766.7762" stroke="#000000" stroke-width="0.6846433" fill="none" /></g><g clip-path="url(#3)"><path id="28" transform="matrix(1 0 0 -1 0 841)" d="M140.9741 720.0064L140.9741 664.3748" stroke="#000000" stroke-width="0.6490273" fill="none" /><path id="29" transform="matrix(1 0 0 -1 0 841)" d="M205.0896 720.0064L205.0896 664.3748" stroke="#000000" stroke-width="0.6490273" fill="none" /></g><g clip-path="url(#4)"><path id="50" transform="matrix(1 0 0 -1 0 841)" d="M244.4013 720.0064L244.4013 664.3748" stroke="#000000" stroke-width="0.6436604" fill="none" /><path id="51" transform="matrix(1 0 0 -1 0 841)" d="M308.5143 720.0064L308.5143 664.3748" stroke="#000000" stroke-width="0.6436604" fill="none" /></g><g clip-path="url(#5)"><path id="74" transform="matrix(1 0 0 -1 0 841)" d="M346.2056 720.0064L346.2056 664.3515" stroke="#000000" stroke-width="0.6474429" fill="none" /><path id="75" transform="matrix(1 0 0 -1 0 841)" d="M410.5572 720.0064L410.5572 664.3514" stroke="#000000" stroke-width="0.6474429" fill="none" /></g><g clip-path="url(#6)"><path id="97" transform="matrix(1 0 0 -1 0 841)" d="M449.2512 720.0064L449.2512 664.3748" stroke="#000000" stroke-width="0.6483914" fill="none" /><path id="98" transform="matrix(1 0 0 -1 0 841)" d="M513.8363 720.0064L513.8363 664.3748" stroke="#000000" stroke-width="0.6483914" fill="none" /></g><g clip-path="url(#7)"></g><g clip-path="url(#8)"></g><g clip-path="url(#9)"></g><g clip-path="url(#10)"><path id="607" transform="matrix(1 0 0 -1 0 841)" d="M199.0714 296.6545L347.6328 296.6545" stroke="#000000" stroke-width="0.517116" fill="none" /></g><g clip-path="url(#11)"><path id="668" transform="matrix(1 0 0 -1 0 841)" d="M382.011 296.7574L458.6044 296.7574" stroke="#000000" stroke-width="0.6860182" fill="none" /></g><g clip-path="url(#12)"></g><g clip-path="url(#13)"></g><g clip-path="url(#14)"></g><g clip-path="url(#15)"></g></g></g></svg>