<svg xmlns="http://www.w3.org/2000/svg" xmlns:xlink="http://www.w3.org/1999/xlink" id="body_6" preserveAspectRatio="xMinYMin meet" viewBox="0 0 793 1121"><defs><clipPath id="1"><path id="" clip-rule="evenodd" transform="matrix(1 0 0 1 0 0)" d="M0 841L0 -0.9199829L0 -0.9199829L595.2 -0.9199829L595.2 -0.9199829L595.2 841L595.2 841L0 841z" /></clipPath><clipPath id="2"><path id="" clip-rule="evenodd" transform="matrix(1 0 0 1 0 0)" d="M85.07 108.65L296.0249 108.65L296.0249 108.65L296.0249 71.90051L296.0249 71.90051L85.07 71.90051z" /></clipPath><clipPath id="3"><path id="" clip-rule="evenodd" transform="matrix(1 0 0 1 0 0)" d="M152.94 169.78L237.45 169.78L237.45 169.78L237.45 153.7L237.45 153.7L152.94 153.7z" /></clipPath><clipPath id="4"><path id="" clip-rule="evenodd" transform="matrix(1 0 0 1 0 0)" d="M152.93 169.77L237.458 169.77L237.458 169.77L237.458 153.69L237.458 153.69L152.93 153.69z" /></clipPath><clipPath id="5"><path id="" clip-rule="evenodd" transform="matrix(1 0 0 1 0 0)" d="M152.93 169.77L237.458 169.77L237.458 169.77L237.458 153.69L237.458 153.69L152.93 153.69z" /></clipPath><clipPath id="6"><path id="" clip-rule="evenodd" transform="matrix(1 0 0 1 0 0)" d="M237.93 169.78L322.44 169.78L322.44 169.78L322.44 153.7L322.44 153.7L237.93 153.7z" /></clipPath><clipPath id="7"><path id="" clip-rule="evenodd" transform="matrix(1 0 0 1 0 0)" d="M237.94 169.77L322.444 169.77L322.444 169.77L322.444 153.69L322.444 153.69L237.94 153.69z" /></clipPath><clipPath id="8"><path id="" clip-rule="evenodd" transform="matrix(1 0 0 1 0 0)" d="M237.94 169.77L322.444 169.77L322.444 169.77L322.444 153.69L322.444 153.69L237.94 153.69z" /></clipPath><clipPath id="9"><path id="" clip-rule="evenodd" transform="matrix(1 0 0 1 0 0)" d="M323.16 169.78L407.43 169.78L407.43 169.78L407.43 153.7L407.43 153.7L323.16 153.7z" /></clipPath><clipPath id="10"><path id="" clip-rule="evenodd" transform="matrix(1 0 0 1 0 0)" d="M323.16 169.77L407.424 169.77L407.424 169.77L407.424 153.69L407.424 153.69L323.16 153.69z" /></clipPath><clipPath id="11"><path id="" clip-rule="evenodd" transform="matrix(1 0 0 1 0 0)" d="M323.16 169.77L407.424 169.77L407.424 169.77L407.424 153.69L407.424 153.69L323.16 153.69z" /></clipPath><clipPath id="12"><path id="" clip-rule="evenodd" transform="matrix(1 0 0 1 0 0)" d="M408.18 169.78L484.98 169.78L484.98 169.78L484.98 153.7L484.98 153.7L408.18 153.7z" /></clipPath><clipPath id="13"><path id="" clip-rule="evenodd" transform="matrix(1 0 0 1 0 0)" d="M408.17 169.77L484.994 169.77L484.994 169.77L484.994 153.69L484.994 153.69L408.17 153.69z" /></clipPath><clipPath id="14"><path id="" clip-rule="evenodd" transform="matrix(1 0 0 1 0 0)" d="M408.17 169.77L484.994 169.77L484.994 169.77L484.994 153.69L484.994 153.69L408.17 153.69z" /></clipPath><clipPath id="15"><path id="" clip-rule="evenodd" transform="matrix(1 0 0 1 0 0)" d="M152.94 207.22L237.45 207.22L237.45 207.22L237.45 170.5L237.45 170.5L152.94 170.5z" /></clipPath><clipPath id="16"><path id="" clip-rule="evenodd" transform="matrix(1 0 0 1 0 0)" d="M152.93 207.21L237.458 207.21L237.458 207.21L237.458 170.49L237.458 170.49L152.93 170.49z" /></clipPath><clipPath id="17"><path id="" clip-rule="evenodd" transform="matrix(1 0 0 1 0 0)" d="M152.93 207.21L237.458 207.21L237.458 207.21L237.458 170.49L237.458 170.49L152.93 170.49z" /></clipPath><clipPath id="18"><path id="" clip-rule="evenodd" transform="matrix(1 0 0 1 0 0)" d="M237.93 207.22L322.44 207.22L322.44 207.22L322.44 170.5L322.44 170.5L237.93 170.5z" /></clipPath><clipPath id="19"><path id="" clip-rule="evenodd" transform="matrix(1 0 0 1 0 0)" d="M237.94 207.21L322.444 207.21L322.444 207.21L322.444 170.49L322.444 170.49L237.94 170.49z" /></clipPath><clipPath id="20"><path id="" clip-rule="evenodd" transform="matrix(1 0 0 1 0 0)" d="M237.94 207.21L322.444 207.21L322.444 207.21L322.444 170.49L322.444 170.49L237.94 170.49z" /></clipPath><clipPath id="21"><path id="" clip-rule="evenodd" transform="matrix(1 0 0 1 0 0)" d="M359.17 207.3L371.1699 207.3L371.1699 207.3L371.1699 170.5505L371.1699 170.5505L359.17 170.5505z" /></clipPath><clipPath id="22"><path id="" clip-rule="evenodd" transform="matrix(1 0 0 1 0 0)" d="M323.17 207.2L407.428 207.2L407.428 207.2L407.428 170.492L407.428 170.492L323.17 170.492z" /></clipPath><clipPath id="23"><path id="" clip-rule="evenodd" transform="matrix(1 0 0 1 0 0)" d="M408.18 207.22L484.98 207.22L484.98 207.22L484.98 170.5L484.98 170.5L408.18 170.5z" /></clipPath><clipPath id="24"><path id="" clip-rule="evenodd" transform="matrix(1 0 0 1 0 0)" d="M408.17 207.21L484.994 207.21L484.994 207.21L484.994 170.49L484.994 170.49L408.17 170.49z" /></clipPath><clipPath id="25"><path id="" clip-rule="evenodd" transform="matrix(1 0 0 1 0 0)" d="M408.17 207.21L484.994 207.21L484.994 207.21L484.994 170.49L484.994 170.49L408.17 170.49z" /></clipPath><clipPath id="26"><path id="" clip-rule="evenodd" transform="matrix(1 0 0 1 0 0)" d="M152.94 224.02L237.45 224.02L237.45 224.02L237.45 207.94L237.45 207.94L152.94 207.94z" /></clipPath><clipPath id="27"><path id="" clip-rule="evenodd" transform="matrix(1 0 0 1 0 0)" d="M152.93 224.03L237.458 224.03L237.458 224.03L237.458 207.926L237.458 207.926L152.93 207.926z" /></clipPath><clipPath id="28"><path id="" clip-rule="evenodd" transform="matrix(1 0 0 1 0 0)" d="M152.93 224.03L237.458 224.03L237.458 224.03L237.458 207.926L237.458 207.926L152.93 207.926z" /></clipPath><clipPath id="29"><path id="" clip-rule="evenodd" transform="matrix(1 0 0 1 0 0)" d="M237.93 224.02L322.44 224.02L322.44 224.02L322.44 207.94L322.44 207.94L237.93 207.94z" /></clipPath><clipPath id="30"><path id="" clip-rule="evenodd" transform="matrix(1 0 0 1 0 0)" d="M237.94 224.03L322.444 224.03L322.444 224.03L322.444 207.926L322.444 207.926L237.94 207.926z" /></clipPath><clipPath id="31"><path id="" clip-rule="evenodd" transform="matrix(1 0 0 1 0 0)" d="M237.94 224.03L322.444 224.03L322.444 224.03L322.444 207.926L322.444 207.926L237.94 207.926z" /></clipPath><clipPath id="32"><path id="" clip-rule="evenodd" transform="matrix(1 0 0 1 0 0)" d="M323.16 224.02L407.43 224.02L407.43 224.02L407.43 207.94L407.43 207.94L323.16 207.94z" /></clipPath><clipPath id="33"><path id="" clip-rule="evenodd" transform="matrix(1 0 0 1 0 0)" d="M323.16 224.03L407.424 224.03L407.424 224.03L407.424 207.926L407.424 207.926L323.16 207.926z" /></clipPath><clipPath id="34"><path id="" clip-rule="evenodd" transform="matrix(1 0 0 1 0 0)" d="M323.16 224.03L407.424 224.03L407.424 224.03L407.424 207.926L407.424 207.926L323.16 207.926z" /></clipPath><clipPath id="35"><path id="" clip-rule="evenodd" transform="matrix(1 0 0 1 0 0)" d="M408.18 224.02L484.98 224.02L484.98 224.02L484.98 207.94L484.98 207.94L408.18 207.94z" /></clipPath><clipPath id="36"><path id="" clip-rule="evenodd" transform="matrix(1 0 0 1 0 0)" d="M408.17 224.03L484.994 224.03L484.994 224.03L484.994 207.926L484.994 207.926L408.17 207.926z" /></clipPath><clipPath id="37"><path id="" clip-rule="evenodd" transform="matrix(1 0 0 1 0 0)" d="M408.17 224.03L484.994 224.03L484.994 224.03L484.994 207.926L484.994 207.926L408.17 207.926z" /></clipPath><clipPath id="38"><path id="" clip-rule="evenodd" transform="matrix(1 0 0 1 0 0)" d="M127.07 323.45L506.7599 323.45L506.7599 323.45L506.7599 246.9001L506.7599 246.9001L127.07 246.9z" /></clipPath><clipPath id="39"><path id="" clip-rule="evenodd" transform="matrix(1 0 0 1 0 0)" d="M264.12 363.75L369.9631 363.75L369.9631 363.75L369.9631 329.1992L369.9631 329.1992L264.12 329.1992z" /></clipPath><clipPath id="40"><path id="" clip-rule="evenodd" transform="matrix(1 0 0 1 0 0)" d="M475.32 405.75L488.02 405.75L488.02 405.75L488.0199 370.4994L488.0199 370.4994L475.32 370.4994z" /></clipPath><clipPath id="41"><path id="" clip-rule="evenodd" transform="matrix(1 0 0 1 0 0)" d="M502.67 406.7L514.6692 406.7L514.6692 406.7L514.6692 370.0009L514.6692 370.0009L502.67 370.0009z" /></clipPath><clipPath id="42"><path id="" clip-rule="evenodd" transform="matrix(1 0 0 1 0 0)" d="M146.77 451.6L314.0148 451.6L314.0148 451.6L314.0148 412.4991L314.0148 412.4991L146.77 412.4991z" /></clipPath><clipPath id="43"><path id="" clip-rule="evenodd" transform="matrix(1 0 0 1 0 0)" d="M328.42 451.6L487.5683 451.6L487.5683 451.6L487.5683 412.4991L487.5683 412.4991L328.42 412.4991z" /></clipPath><clipPath id="44"><path id="" clip-rule="evenodd" transform="matrix(1 0 0 1 0 0)" d="M85.473 588.94L164.463 588.94L164.463 588.94L164.463 552.19L164.463 552.19L85.473 552.19z" /></clipPath><clipPath id="45"><path id="" clip-rule="evenodd" transform="matrix(1 0 0 1 0 0)" d="M85.464 588.93L164.472 588.93L164.472 588.93L164.472 552.186L164.472 552.186L85.464 552.186z" /></clipPath><clipPath id="46"><path id="" clip-rule="evenodd" transform="matrix(1 0 0 1 0 0)" d="M85.464 588.93L164.472 588.93L164.472 588.93L164.472 552.186L164.472 552.186L85.464 552.186z" /></clipPath><clipPath id="47"><path id="" clip-rule="evenodd" transform="matrix(1 0 0 1 0 0)" d="M165.18 588.94L249.45 588.94L249.45 588.94L249.45 552.19L249.45 552.19L165.18 552.19z" /></clipPath><clipPath id="48"><path id="" clip-rule="evenodd" transform="matrix(1 0 0 1 0 0)" d="M165.19 588.93L249.454 588.93L249.454 588.93L249.454 552.186L249.454 552.186L165.19 552.186z" /></clipPath><clipPath id="49"><path id="" clip-rule="evenodd" transform="matrix(1 0 0 1 0 0)" d="M165.19 588.93L249.454 588.93L249.454 588.93L249.454 552.186L249.454 552.186L165.19 552.186z" /></clipPath><clipPath id="50"><path id="" clip-rule="evenodd" transform="matrix(1 0 0 1 0 0)" d="M278.27 588.9L290.2699 588.9L290.2699 588.9L290.2699 552.1505L290.2699 552.1505L278.27 552.1505z" /></clipPath><clipPath id="51"><path id="" clip-rule="evenodd" transform="matrix(1 0 0 1 0 0)" d="M250.18 588.92L318.844 588.92L318.844 588.92L318.844 552.2L318.844 552.2L250.18 552.2z" /></clipPath><clipPath id="52"><path id="" clip-rule="evenodd" transform="matrix(1 0 0 1 0 0)" d="M351.47 587.45L364.2196 587.45L364.2196 587.45L364.2196 552.1489L364.2196 552.1489L351.47 552.1489z" /></clipPath><clipPath id="53"><path id="" clip-rule="evenodd" transform="matrix(1 0 0 1 0 0)" d="M319.33 588.92L396.628 588.92L396.628 588.92L396.628 552.2L396.628 552.2L319.33 552.2z" /></clipPath><clipPath id="54"><path id="" clip-rule="evenodd" transform="matrix(1 0 0 1 0 0)" d="M422.77 588.9L434.7699 588.9L434.7699 588.9L434.7699 552.1505L434.7699 552.1505L422.77 552.1505z" /></clipPath><clipPath id="55"><path id="" clip-rule="evenodd" transform="matrix(1 0 0 1 0 0)" d="M397.36 588.92L460.48 588.92L460.48 588.92L460.48 552.2L460.48 552.2L397.36 552.2z" /></clipPath><clipPath id="56"><path id="" clip-rule="evenodd" transform="matrix(1 0 0 1 0 0)" d="M486.37 587.7L499.0699 587.7L499.0699 587.7L499.0699 553.0995L499.0699 553.0995L486.37 553.0995z" /></clipPath><clipPath id="57"><path id="" clip-rule="evenodd" transform="matrix(1 0 0 1 0 0)" d="M461.21 588.92L524.348 588.92L524.348 588.92L524.348 552.2L524.348 552.2L461.21 552.2z" /></clipPath><clipPath id="58"><path id="" clip-rule="evenodd" transform="matrix(1 0 0 1 0 0)" d="M85.473 605.74L164.463 605.74L164.463 605.74L164.463 589.66L164.463 589.66L85.473 589.66z" /></clipPath><clipPath id="59"><path id="" clip-rule="evenodd" transform="matrix(1 0 0 1 0 0)" d="M85.464 605.73L164.472 605.73L164.472 605.73L164.472 589.65L164.472 589.65L85.464 589.65z" /></clipPath><clipPath id="60"><path id="" clip-rule="evenodd" transform="matrix(1 0 0 1 0 0)" d="M85.464 605.73L164.472 605.73L164.472 605.73L164.472 589.65L164.472 589.65L85.464 589.65z" /></clipPath><clipPath id="61"><path id="" clip-rule="evenodd" transform="matrix(1 0 0 1 0 0)" d="M165.18 605.74L249.45 605.74L249.45 605.74L249.45 589.66L249.45 589.66L165.18 589.66z" /></clipPath><clipPath id="62"><path id="" clip-rule="evenodd" transform="matrix(1 0 0 1 0 0)" d="M165.19 605.73L249.454 605.73L249.454 605.73L249.454 589.65L249.454 589.65L165.19 589.65z" /></clipPath><clipPath id="63"><path id="" clip-rule="evenodd" transform="matrix(1 0 0 1 0 0)" d="M165.19 605.73L249.454 605.73L249.454 605.73L249.454 589.65L249.454 589.65L165.19 589.65z" /></clipPath><clipPath id="64"><path id="" clip-rule="evenodd" transform="matrix(1 0 0 1 0 0)" d="M250.17 605.74L318.84 605.74L318.84 605.74L318.84 589.66L318.84 589.66L250.17 589.66z" /></clipPath><clipPath id="65"><path id="" clip-rule="evenodd" transform="matrix(1 0 0 1 0 0)" d="M250.18 605.73L318.844 605.73L318.844 605.73L318.844 589.65L318.844 589.65L250.18 589.65z" /></clipPath><clipPath id="66"><path id="" clip-rule="evenodd" transform="matrix(1 0 0 1 0 0)" d="M250.18 605.73L318.844 605.73L318.844 605.73L318.844 589.65L318.844 589.65L250.18 589.65z" /></clipPath><clipPath id="67"><path id="" clip-rule="evenodd" transform="matrix(1 0 0 1 0 0)" d="M319.32 605.74L396.63 605.74L396.63 605.74L396.63 589.66L396.63 589.66L319.32 589.66z" /></clipPath><clipPath id="68"><path id="" clip-rule="evenodd" transform="matrix(1 0 0 1 0 0)" d="M319.32 605.73L396.624 605.73L396.624 605.73L396.624 589.65L396.624 589.65L319.32 589.65z" /></clipPath><clipPath id="69"><path id="" clip-rule="evenodd" transform="matrix(1 0 0 1 0 0)" d="M319.32 605.73L396.624 605.73L396.624 605.73L396.624 589.65L396.624 589.65L319.32 589.65z" /></clipPath><clipPath id="70"><path id="" clip-rule="evenodd" transform="matrix(1 0 0 1 0 0)" d="M397.35 605.74L460.5 605.74L460.5 605.74L460.5 589.66L460.5 589.66L397.35 589.66z" /></clipPath><clipPath id="71"><path id="" clip-rule="evenodd" transform="matrix(1 0 0 1 0 0)" d="M397.34 605.73L460.484 605.73L460.484 605.73L460.484 589.65L460.484 589.65L397.34 589.65z" /></clipPath><clipPath id="72"><path id="" clip-rule="evenodd" transform="matrix(1 0 0 1 0 0)" d="M397.34 605.73L460.484 605.73L460.484 605.73L460.484 589.65L460.484 589.65L397.34 589.65z" /></clipPath><clipPath id="73"><path id="" clip-rule="evenodd" transform="matrix(1 0 0 1 0 0)" d="M461.22 605.74L524.34 605.74L524.34 605.74L524.34 589.66L524.34 589.66L461.22 589.66z" /></clipPath><clipPath id="74"><path id="" clip-rule="evenodd" transform="matrix(1 0 0 1 0 0)" d="M461.21 605.73L524.354 605.73L524.354 605.73L524.354 589.65L524.354 589.65L461.21 589.65z" /></clipPath><clipPath id="75"><path id="" clip-rule="evenodd" transform="matrix(1 0 0 1 0 0)" d="M461.21 605.73L524.354 605.73L524.354 605.73L524.354 589.65L524.354 589.65L461.21 589.65z" /></clipPath><clipPath id="76"><path id="" clip-rule="evenodd" transform="matrix(1 0 0 1 0 0)" d="M85.473 622.54L164.463 622.54L164.463 622.54L164.463 606.46L164.463 606.46L85.473 606.46z" /></clipPath><clipPath id="77"><path id="" clip-rule="evenodd" transform="matrix(1 0 0 1 0 0)" d="M85.464 622.53L164.472 622.53L164.472 622.53L164.472 606.45L164.472 606.45L85.464 606.45z" /></clipPath><clipPath id="78"><path id="" clip-rule="evenodd" transform="matrix(1 0 0 1 0 0)" d="M85.464 622.53L164.472 622.53L164.472 622.53L164.472 606.45L164.472 606.45L85.464 606.45z" /></clipPath><clipPath id="79"><path id="" clip-rule="evenodd" transform="matrix(1 0 0 1 0 0)" d="M85.464 622.53L164.472 622.53L164.472 622.53L164.472 606.45L164.472 606.45L85.464 606.45z" /></clipPath><clipPath id="80"><path id="" clip-rule="evenodd" transform="matrix(1 0 0 1 0 0)" d="M85.464 622.53L164.472 622.53L164.472 622.53L164.472 606.45L164.472 606.45L85.464 606.45z" /></clipPath><clipPath id="81"><path id="" clip-rule="evenodd" transform="matrix(1 0 0 1 0 0)" d="M85.464 622.53L164.472 622.53L164.472 622.53L164.472 606.45L164.472 606.45L85.464 606.45z" /></clipPath><clipPath id="82"><path id="" clip-rule="evenodd" transform="matrix(1 0 0 1 0 0)" d="M85.464 622.53L164.472 622.53L164.472 622.53L164.472 606.45L164.472 606.45L85.464 606.45z" /></clipPath><clipPath id="83"><path id="" clip-rule="evenodd" transform="matrix(1 0 0 1 0 0)" d="M165.18 622.54L249.45 622.54L249.45 622.54L249.45 606.46L249.45 606.46L165.18 606.46z" /></clipPath><clipPath id="84"><path id="" clip-rule="evenodd" transform="matrix(1 0 0 1 0 0)" d="M165.19 622.53L249.454 622.53L249.454 622.53L249.454 606.45L249.454 606.45L165.19 606.45z" /></clipPath><clipPath id="85"><path id="" clip-rule="evenodd" transform="matrix(1 0 0 1 0 0)" d="M165.19 622.53L249.454 622.53L249.454 622.53L249.454 606.45L249.454 606.45L165.19 606.45z" /></clipPath><clipPath id="86"><path id="" clip-rule="evenodd" transform="matrix(1 0 0 1 0 0)" d="M250.17 622.54L318.84 622.54L318.84 622.54L318.84 606.46L318.84 606.46L250.17 606.46z" /></clipPath><clipPath id="87"><path id="" clip-rule="evenodd" transform="matrix(1 0 0 1 0 0)" d="M250.18 622.53L318.844 622.53L318.844 622.53L318.844 606.45L318.844 606.45L250.18 606.45z" /></clipPath><clipPath id="88"><path id="" clip-rule="evenodd" transform="matrix(1 0 0 1 0 0)" d="M250.18 622.53L318.844 622.53L318.844 622.53L318.844 606.45L318.844 606.45L250.18 606.45z" /></clipPath><clipPath id="89"><path id="" clip-rule="evenodd" transform="matrix(1 0 0 1 0 0)" d="M319.32 622.54L396.63 622.54L396.63 622.54L396.63 606.46L396.63 606.46L319.32 606.46z" /></clipPath><clipPath id="90"><path id="" clip-rule="evenodd" transform="matrix(1 0 0 1 0 0)" d="M319.32 622.53L396.624 622.53L396.624 622.53L396.624 606.45L396.624 606.45L319.32 606.45z" /></clipPath><clipPath id="91"><path id="" clip-rule="evenodd" transform="matrix(1 0 0 1 0 0)" d="M319.32 622.53L396.624 622.53L396.624 622.53L396.624 606.45L396.624 606.45L319.32 606.45z" /></clipPath><clipPath id="92"><path id="" clip-rule="evenodd" transform="matrix(1 0 0 1 0 0)" d="M319.32 622.53L396.624 622.53L396.624 622.53L396.624 606.45L396.624 606.45L319.32 606.45z" /></clipPath><clipPath id="93"><path id="" clip-rule="evenodd" transform="matrix(1 0 0 1 0 0)" d="M397.35 622.54L460.5 622.54L460.5 622.54L460.5 606.46L460.5 606.46L397.35 606.46z" /></clipPath><clipPath id="94"><path id="" clip-rule="evenodd" transform="matrix(1 0 0 1 0 0)" d="M397.34 622.53L460.484 622.53L460.484 622.53L460.484 606.45L460.484 606.45L397.34 606.45z" /></clipPath><clipPath id="95"><path id="" clip-rule="evenodd" transform="matrix(1 0 0 1 0 0)" d="M397.34 622.53L460.484 622.53L460.484 622.53L460.484 606.45L460.484 606.45L397.34 606.45z" /></clipPath><clipPath id="96"><path id="" clip-rule="evenodd" transform="matrix(1 0 0 1 0 0)" d="M461.22 622.54L524.34 622.54L524.34 622.54L524.34 606.46L524.34 606.46L461.22 606.46z" /></clipPath><clipPath id="97"><path id="" clip-rule="evenodd" transform="matrix(1 0 0 1 0 0)" d="M461.21 622.53L524.354 622.53L524.354 622.53L524.354 606.45L524.354 606.45L461.21 606.45z" /></clipPath><clipPath id="98"><path id="" clip-rule="evenodd" transform="matrix(1 0 0 1 0 0)" d="M461.21 622.53L524.354 622.53L524.354 622.53L524.354 606.45L524.354 606.45L461.21 606.45z" /></clipPath></defs><g transform="matrix(1.333333 0 0 1.333333 0 0)"><g clip-path="url(#1)"><g clip-path="url(#2)"><path id="48" transform="matrix(1 0 0 -1 0 841)" d="M176.1816 750.0422L184.9848 750.0422" stroke="#000000" stroke-width="0.493163" fill="none" /><path id="49" transform="matrix(1 0 0 -1 0 841)" d="M199.558 750.0422L207.7222 750.0422" stroke="#000000" stroke-width="0.493163" fill="none" /><path id="50" transform="matrix(1 0 0 -1 0 841)" d="M266.1332 750.0422L274.9384 750.0422" stroke="#000000" stroke-width="0.493163" fill="none" /></g><g clip-path="url(#3)"><g clip-path="url(#4)"></g><g clip-path="url(#5)"></g></g><g clip-path="url(#6)"><g clip-path="url(#7)"></g><g clip-path="url(#8)"></g></g><g clip-path="url(#9)"><g clip-path="url(#10)"></g><g clip-path="url(#11)"></g></g><g clip-path="url(#12)"><g clip-path="url(#13)"></g><g clip-path="url(#14)"></g></g><path id="117" transform="matrix(1 0 0 -1 0 841)" d="M151.97 687.31L152.69 687.31L152.69 687.31L152.69 688.03L152.69 688.03L151.97 688.03z" stroke="none" fill="#000000" fill-rule="evenodd" /><path id="118" transform="matrix(1 0 0 -1 0 841)" d="M151.97 687.31L152.69 687.31L152.69 687.31L152.69 688.03L152.69 688.03L151.97 688.03z" stroke="none" fill="#000000" fill-rule="evenodd" /><path id="119" transform="matrix(1 0 0 -1 0 841)" d="M152.69 687.31L237.218 687.31L237.218 687.31L237.218 688.03L237.218 688.03L152.69 688.03z" stroke="none" fill="#000000" fill-rule="evenodd" /><path id="120" transform="matrix(1 0 0 -1 0 841)" d="M237.22 687.31L237.94 687.31L237.94 687.31L237.94 688.03L237.94 688.03L237.22 688.03z" stroke="none" fill="#000000" fill-rule="evenodd" /><path id="121" transform="matrix(1 0 0 -1 0 841)" d="M237.94 687.31L322.204 687.31L322.204 687.31L322.204 688.03L322.204 688.03L237.94 688.03z" stroke="none" fill="#000000" fill-rule="evenodd" /><path id="122" transform="matrix(1 0 0 -1 0 841)" d="M322.2 687.31L322.92 687.31L322.92 687.31L322.92 688.03L322.92 688.03L322.2 688.03z" stroke="none" fill="#000000" fill-rule="evenodd" /><path id="123" transform="matrix(1 0 0 -1 0 841)" d="M322.92 687.31L407.184 687.31L407.184 687.31L407.184 688.03L407.184 688.03L322.92 688.03z" stroke="none" fill="#000000" fill-rule="evenodd" /><path id="124" transform="matrix(1 0 0 -1 0 841)" d="M407.18 687.31L407.924 687.31L407.924 687.31L407.924 688.03L407.924 688.03L407.18 688.03z" stroke="none" fill="#000000" fill-rule="evenodd" /><path id="125" transform="matrix(1 0 0 -1 0 841)" d="M407.93 687.31L484.994 687.31L484.994 687.31L484.994 688.03L484.994 688.03L407.93 688.03z" stroke="none" fill="#000000" fill-rule="evenodd" /><path id="126" transform="matrix(1 0 0 -1 0 841)" d="M484.99 687.31L485.71 687.31L485.71 687.31L485.71 688.03L485.71 688.03L484.99 688.03z" stroke="none" fill="#000000" fill-rule="evenodd" /><path id="127" transform="matrix(1 0 0 -1 0 841)" d="M484.99 687.31L485.71 687.31L485.71 687.31L485.71 688.03L485.71 688.03L484.99 688.03z" stroke="none" fill="#000000" fill-rule="evenodd" /><path id="128" transform="matrix(1 0 0 -1 0 841)" d="M151.97 671.23L152.69 671.23L152.69 671.23L152.69 687.31L152.69 687.31L151.97 687.31z" stroke="none" fill="#000000" fill-rule="evenodd" /><path id="129" transform="matrix(1 0 0 -1 0 841)" d="M237.22 671.23L237.94 671.23L237.94 671.23L237.94 687.31L237.94 687.31L237.22 687.31z" stroke="none" fill="#000000" fill-rule="evenodd" /><path id="130" transform="matrix(1 0 0 -1 0 841)" d="M322.2 671.23L322.92 671.23L322.92 671.23L322.92 687.31L322.92 687.31L322.2 687.31z" stroke="none" fill="#000000" fill-rule="evenodd" /><path id="131" transform="matrix(1 0 0 -1 0 841)" d="M407.18 671.23L407.924 671.23L407.924 671.23L407.924 687.31L407.924 687.31L407.18 687.31z" stroke="none" fill="#000000" fill-rule="evenodd" /><path id="132" transform="matrix(1 0 0 -1 0 841)" d="M484.99 671.23L485.71 671.23L485.71 671.23L485.71 687.31L485.71 687.31L484.99 687.31z" stroke="none" fill="#000000" fill-rule="evenodd" /><g clip-path="url(#15)"><g clip-path="url(#16)"></g><g clip-path="url(#17)"></g></g><g clip-path="url(#18)"><g clip-path="url(#19)"></g><g clip-path="url(#20)"></g></g><g clip-path="url(#21)"><path id="135" transform="matrix(1 0 0 -1 0 841)" d="M361.1931 651.3922L369.1704 651.3922" stroke="#000000" stroke-width="0.5057544" fill="none" /></g><g clip-path="url(#22)"></g><g clip-path="url(#23)"><g clip-path="url(#24)"></g><g clip-path="url(#25)"></g></g><path id="141" transform="matrix(1 0 0 -1 0 841)" d="M151.97 670.51L152.69 670.51L152.69 670.51L152.69 671.23L152.69 671.23L151.97 671.23z" stroke="none" fill="#000000" fill-rule="evenodd" /><path id="142" transform="matrix(1 0 0 -1 0 841)" d="M152.69 670.51L237.218 670.51L237.218 670.51L237.218 671.23L237.218 671.23L152.69 671.23z" stroke="none" fill="#000000" fill-rule="evenodd" /><path id="143" transform="matrix(1 0 0 -1 0 841)" d="M237.22 670.51L237.94 670.51L237.94 670.51L237.94 671.23L237.94 671.23L237.22 671.23z" stroke="none" fill="#000000" fill-rule="evenodd" /><path id="144" transform="matrix(1 0 0 -1 0 841)" d="M237.94 670.51L322.204 670.51L322.204 670.51L322.204 671.23L322.204 671.23L237.94 671.23z" stroke="none" fill="#000000" fill-rule="evenodd" /><path id="145" transform="matrix(1 0 0 -1 0 841)" d="M322.2 670.51L322.92 670.51L322.92 670.51L322.92 671.23L322.92 671.23L322.2 671.23z" stroke="none" fill="#000000" fill-rule="evenodd" /><path id="146" transform="matrix(1 0 0 -1 0 841)" d="M322.92 670.51L407.184 670.51L407.184 670.51L407.184 671.23L407.184 671.23L322.92 671.23z" stroke="none" fill="#000000" fill-rule="evenodd" /><path id="147" transform="matrix(1 0 0 -1 0 841)" d="M407.18 670.51L407.924 670.51L407.924 670.51L407.924 671.23L407.924 671.23L407.18 671.23z" stroke="none" fill="#000000" fill-rule="evenodd" /><path id="148" transform="matrix(1 0 0 -1 0 841)" d="M407.93 670.51L484.994 670.51L484.994 670.51L484.994 671.23L484.994 671.23L407.93 671.23z" stroke="none" fill="#000000" fill-rule="evenodd" /><path id="149" transform="matrix(1 0 0 -1 0 841)" d="M484.99 670.51L485.71 670.51L485.71 670.51L485.71 671.23L485.71 671.23L484.99 671.23z" stroke="none" fill="#000000" fill-rule="evenodd" /><path id="150" transform="matrix(1 0 0 -1 0 841)" d="M151.97 633.79L152.69 633.79L152.69 633.79L152.69 670.51L152.69 670.51L151.97 670.51z" stroke="none" fill="#000000" fill-rule="evenodd" /><path id="151" transform="matrix(1 0 0 -1 0 841)" d="M237.22 633.79L237.94 633.79L237.94 633.79L237.94 670.51L237.94 670.51L237.22 670.51z" stroke="none" fill="#000000" fill-rule="evenodd" /><path id="152" transform="matrix(1 0 0 -1 0 841)" d="M322.2 633.79L322.92 633.79L322.92 633.79L322.92 670.51L322.92 670.51L322.2 670.51z" stroke="none" fill="#000000" fill-rule="evenodd" /><path id="153" transform="matrix(1 0 0 -1 0 841)" d="M407.18 633.79L407.924 633.79L407.924 633.79L407.924 670.51L407.924 670.51L407.18 670.51z" stroke="none" fill="#000000" fill-rule="evenodd" /><path id="154" transform="matrix(1 0 0 -1 0 841)" d="M484.99 633.79L485.71 633.79L485.71 633.79L485.71 670.51L485.71 670.51L484.99 670.51z" stroke="none" fill="#000000" fill-rule="evenodd" /><g clip-path="url(#26)"><g clip-path="url(#27)"></g><g clip-path="url(#28)"></g></g><g clip-path="url(#29)"><g clip-path="url(#30)"></g><g clip-path="url(#31)"></g></g><g clip-path="url(#32)"><g clip-path="url(#33)"></g><g clip-path="url(#34)"></g></g><g clip-path="url(#35)"><g clip-path="url(#36)"></g><g clip-path="url(#37)"></g></g><path id="161" transform="matrix(1 0 0 -1 0 841)" d="M151.97 633.07L152.69 633.07L152.69 633.07L152.69 633.79L152.69 633.79L151.97 633.79z" stroke="none" fill="#000000" fill-rule="evenodd" /><path id="162" transform="matrix(1 0 0 -1 0 841)" d="M152.69 633.07L237.218 633.07L237.218 633.07L237.218 633.79L237.218 633.79L152.69 633.79z" stroke="none" fill="#000000" fill-rule="evenodd" /><path id="163" transform="matrix(1 0 0 -1 0 841)" d="M237.22 633.07L237.94 633.07L237.94 633.07L237.94 633.79L237.94 633.79L237.22 633.79z" stroke="none" fill="#000000" fill-rule="evenodd" /><path id="164" transform="matrix(1 0 0 -1 0 841)" d="M237.94 633.07L322.204 633.07L322.204 633.07L322.204 633.79L322.204 633.79L237.94 633.79z" stroke="none" fill="#000000" fill-rule="evenodd" /><path id="165" transform="matrix(1 0 0 -1 0 841)" d="M322.2 633.07L322.92 633.07L322.92 633.07L322.92 633.79L322.92 633.79L322.2 633.79z" stroke="none" fill="#000000" fill-rule="evenodd" /><path id="166" transform="matrix(1 0 0 -1 0 841)" d="M322.92 633.07L407.184 633.07L407.184 633.07L407.184 633.79L407.184 633.79L322.92 633.79z" stroke="none" fill="#000000" fill-rule="evenodd" /><path id="167" transform="matrix(1 0 0 -1 0 841)" d="M407.18 633.07L407.924 633.07L407.924 633.07L407.924 633.79L407.924 633.79L407.18 633.79z" stroke="none" fill="#000000" fill-rule="evenodd" /><path id="168" transform="matrix(1 0 0 -1 0 841)" d="M407.93 633.07L484.994 633.07L484.994 633.07L484.994 633.79L484.994 633.79L407.93 633.79z" stroke="none" fill="#000000" fill-rule="evenodd" /><path id="169" transform="matrix(1 0 0 -1 0 841)" d="M484.99 633.07L485.71 633.07L485.71 633.07L485.71 633.79L485.71 633.79L484.99 633.79z" stroke="none" fill="#000000" fill-rule="evenodd" /><path id="170" transform="matrix(1 0 0 -1 0 841)" d="M151.97 616.97L152.69 616.97L152.69 616.97L152.69 633.074L152.69 633.074L151.97 633.074z" stroke="none" fill="#000000" fill-rule="evenodd" /><path id="171" transform="matrix(1 0 0 -1 0 841)" d="M151.97 616.25L152.69 616.25L152.69 616.25L152.69 616.97L152.69 616.97L151.97 616.97z" stroke="none" fill="#000000" fill-rule="evenodd" /><path id="172" transform="matrix(1 0 0 -1 0 841)" d="M151.97 616.25L152.69 616.25L152.69 616.25L152.69 616.97L152.69 616.97L151.97 616.97z" stroke="none" fill="#000000" fill-rule="evenodd" /><path id="173" transform="matrix(1 0 0 -1 0 841)" d="M152.69 616.25L237.218 616.25L237.218 616.25L237.218 616.97L237.218 616.97L152.69 616.97z" stroke="none" fill="#000000" fill-rule="evenodd" /><path id="174" transform="matrix(1 0 0 -1 0 841)" d="M237.22 616.97L237.94 616.97L237.94 616.97L237.94 633.074L237.94 633.074L237.22 633.074z" stroke="none" fill="#000000" fill-rule="evenodd" /><path id="175" transform="matrix(1 0 0 -1 0 841)" d="M237.22 616.25L237.94 616.25L237.94 616.25L237.94 616.97L237.94 616.97L237.22 616.97z" stroke="none" fill="#000000" fill-rule="evenodd" /><path id="176" transform="matrix(1 0 0 -1 0 841)" d="M237.94 616.25L322.204 616.25L322.204 616.25L322.204 616.97L322.204 616.97L237.94 616.97z" stroke="none" fill="#000000" fill-rule="evenodd" /><path id="177" transform="matrix(1 0 0 -1 0 841)" d="M322.2 616.97L322.92 616.97L322.92 616.97L322.92 633.074L322.92 633.074L322.2 633.074z" stroke="none" fill="#000000" fill-rule="evenodd" /><path id="178" transform="matrix(1 0 0 -1 0 841)" d="M322.2 616.25L322.92 616.25L322.92 616.25L322.92 616.97L322.92 616.97L322.2 616.97z" stroke="none" fill="#000000" fill-rule="evenodd" /><path id="179" transform="matrix(1 0 0 -1 0 841)" d="M322.92 616.25L407.184 616.25L407.184 616.25L407.184 616.97L407.184 616.97L322.92 616.97z" stroke="none" fill="#000000" fill-rule="evenodd" /><path id="180" transform="matrix(1 0 0 -1 0 841)" d="M407.18 616.97L407.924 616.97L407.924 616.97L407.924 633.074L407.924 633.074L407.18 633.074z" stroke="none" fill="#000000" fill-rule="evenodd" /><path id="181" transform="matrix(1 0 0 -1 0 841)" d="M407.18 616.25L407.924 616.25L407.924 616.25L407.924 616.97L407.924 616.97L407.18 616.97z" stroke="none" fill="#000000" fill-rule="evenodd" /><path id="182" transform="matrix(1 0 0 -1 0 841)" d="M407.93 616.25L484.994 616.25L484.994 616.25L484.994 616.97L484.994 616.97L407.93 616.97z" stroke="none" fill="#000000" fill-rule="evenodd" /><path id="183" transform="matrix(1 0 0 -1 0 841)" d="M484.99 616.97L485.71 616.97L485.71 616.97L485.71 633.074L485.71 633.074L484.99 633.074z" stroke="none" fill="#000000" fill-rule="evenodd" /><path id="184" transform="matrix(1 0 0 -1 0 841)" d="M484.99 616.25L485.71 616.25L485.71 616.25L485.71 616.97L485.71 616.97L484.99 616.97z" stroke="none" fill="#000000" fill-rule="evenodd" /><path id="185" transform="matrix(1 0 0 -1 0 841)" d="M484.99 616.25L485.71 616.25L485.71 616.25L485.71 616.97L485.71 616.97L484.99 616.97z" stroke="none" fill="#000000" fill-rule="evenodd" /><g clip-path="url(#38)"><path id="212" transform="matrix(1 0 0 -1 0 841)" d="M203.0229 574.8239L210.9325 574.8239" stroke="#000000" stroke-width="0.2456388" fill="none" /><path id="213" transform="matrix(1 0 0 -1 0 841)" d="M245.1243 574.8239L253.2374 574.8239" stroke="#000000" stroke-width="0.2456388" fill="none" /><path id="214" transform="matrix(1 0 0 -1 0 841)" d="M203.0229 536.8506L210.9325 536.8506" stroke="#000000" stroke-width="0.2456388" fill="none" /><path id="215" transform="matrix(1 0 0 -1 0 841)" d="M244.6852 536.8506L252.8183 536.8506" stroke="#000000" stroke-width="0.2456388" fill="none" /><path id="216" transform="matrix(1 0 0 -1 0 841)" d="M175.4373 555.8615L260.7518 555.8615" stroke="#000000" stroke-width="0.4912876" fill="none" /><path id="219" transform="matrix(1 0 0 -1 0 841)" d="M355.6643 574.8239L363.7674 574.8239" stroke="#000000" stroke-width="0.2456388" fill="none" /><path id="220" transform="matrix(1 0 0 -1 0 841)" d="M296.3677 536.8506L304.2513 536.8506" stroke="#000000" stroke-width="0.2456388" fill="none" /><path id="221" transform="matrix(1 0 0 -1 0 841)" d="M338.031 536.8506L345.9146 536.8506" stroke="#000000" stroke-width="0.2456388" fill="none" /><path id="222" transform="matrix(1 0 0 -1 0 841)" d="M359.6161 536.8506L367.7292 536.8506" stroke="#000000" stroke-width="0.2456388" fill="none" /><path id="223" transform="matrix(1 0 0 -1 0 841)" d="M288.8234 555.8615L375.2635 555.8615" stroke="#000000" stroke-width="0.4912876" fill="none" /><path id="224" transform="matrix(1 0 0 -1 0 841)" d="M383.4964 555.8615L391.5995 555.8615" stroke="#000000" stroke-width="0.4912876" fill="none" /><path id="227" transform="matrix(1 0 0 -1 0 841)" d="M472.571 574.8239L480.4546 574.8239" stroke="#000000" stroke-width="0.2456388" fill="none" /><path id="228" transform="matrix(1 0 0 -1 0 841)" d="M413.0748 536.8506L421.2079 536.8506" stroke="#000000" stroke-width="0.2456388" fill="none" /><path id="229" transform="matrix(1 0 0 -1 0 841)" d="M454.9577 536.8506L463.0908 536.8506" stroke="#000000" stroke-width="0.2456388" fill="none" /><path id="230" transform="matrix(1 0 0 -1 0 841)" d="M476.7723 536.8506L484.6758 536.8506" stroke="#000000" stroke-width="0.2456388" fill="none" /><path id="231" transform="matrix(1 0 0 -1 0 841)" d="M405.5305 555.8615L492.1902 555.8615" stroke="#000000" stroke-width="0.4912876" fill="none" /></g><g clip-path="url(#39)"><path id="358" transform="matrix(1 0 0 -1 0 841)" d="M309.7561 493.5718L317.8397 493.5718" stroke="#000000" stroke-width="0.4899174" fill="none" /></g><g clip-path="url(#40)"><path id="420" transform="matrix(1 0 0 -1 0 841)" d="M477.2561 451.9025L485.1163 451.9025" stroke="#000000" stroke-width="0.4840358" fill="none" /></g><g clip-path="url(#41)"><path id="424" transform="matrix(1 0 0 -1 0 841)" d="M504.6929 451.9679L512.0264 451.9679" stroke="#000000" stroke-width="0.505724" fill="none" /></g><g clip-path="url(#42)"><path id="428" transform="matrix(1 0 0 -1 0 841)" d="M170.4276 408.8544L178.5759 408.8544" stroke="#000000" stroke-width="0.4908275" fill="none" /><path id="429" transform="matrix(1 0 0 -1 0 841)" d="M200.5645 408.8544L208.688 408.8544" stroke="#000000" stroke-width="0.4908275" fill="none" /><path id="430" transform="matrix(1 0 0 -1 0 841)" d="M216.958 408.8544L225.1064 408.8544" stroke="#000000" stroke-width="0.4908275" fill="none" /><path id="431" transform="matrix(1 0 0 -1 0 841)" d="M252.371 408.8544L265.9899 408.8544" stroke="#000000" stroke-width="0.4908275" fill="none" /></g><g clip-path="url(#43)"><path id="461" transform="matrix(1 0 0 -1 0 841)" d="M352.0872 408.8544L359.3629 408.8544" stroke="#000000" stroke-width="0.4899956" fill="none" /><path id="462" transform="matrix(1 0 0 -1 0 841)" d="M381.4127 408.8544L389.5473 408.8544" stroke="#000000" stroke-width="0.4899956" fill="none" /><path id="463" transform="matrix(1 0 0 -1 0 841)" d="M397.8521 408.8544L405.1287 408.8544" stroke="#000000" stroke-width="0.4899956" fill="none" /><path id="464" transform="matrix(1 0 0 -1 0 841)" d="M432.4487 408.8544L440.1622 408.8544" stroke="#000000" stroke-width="0.4899956" fill="none" /></g><g clip-path="url(#44)"><g clip-path="url(#45)"></g><g clip-path="url(#46)"></g></g><g clip-path="url(#47)"><g clip-path="url(#48)"></g><g clip-path="url(#49)"></g></g><g clip-path="url(#50)"><path id="646" transform="matrix(1 0 0 -1 0 841)" d="M280.293 269.7922L288.2704 269.7922" stroke="#000000" stroke-width="0.5057544" fill="none" /></g><g clip-path="url(#51)"></g><g clip-path="url(#52)"><path id="649" transform="matrix(1 0 0 -1 0 841)" d="M353.4137 270.2263L361.3046 270.2263" stroke="#000000" stroke-width="0.4859293" fill="none" /></g><g clip-path="url(#53)"></g><g clip-path="url(#54)"><path id="652" transform="matrix(1 0 0 -1 0 841)" d="M424.793 269.7922L432.1269 269.7922" stroke="#000000" stroke-width="0.5057544" fill="none" /></g><g clip-path="url(#55)"></g><g clip-path="url(#56)"><path id="655" transform="matrix(1 0 0 -1 0 841)" d="M488.3061 269.6453L496.1663 269.6453" stroke="#000000" stroke-width="0.4840358" fill="none" /></g><g clip-path="url(#57)"></g><path id="658" transform="matrix(1 0 0 -1 0 841)" d="M84.504 288.82L85.224 288.82L85.224 288.82L85.224 289.54L85.224 289.54L84.504 289.54z" stroke="none" fill="#000000" fill-rule="evenodd" /><path id="659" transform="matrix(1 0 0 -1 0 841)" d="M84.504 288.82L85.224 288.82L85.224 288.82L85.224 289.54L85.224 289.54L84.504 289.54z" stroke="none" fill="#000000" fill-rule="evenodd" /><path id="660" transform="matrix(1 0 0 -1 0 841)" d="M85.224 288.82L164.232 288.82L164.232 288.82L164.232 289.54L164.232 289.54L85.224 289.54z" stroke="none" fill="#000000" fill-rule="evenodd" /><path id="661" transform="matrix(1 0 0 -1 0 841)" d="M164.23 288.82L164.95 288.82L164.95 288.82L164.95 289.54L164.95 289.54L164.23 289.54z" stroke="none" fill="#000000" fill-rule="evenodd" /><path id="662" transform="matrix(1 0 0 -1 0 841)" d="M164.95 288.82L249.214 288.82L249.214 288.82L249.214 289.54L249.214 289.54L164.95 289.54z" stroke="none" fill="#000000" fill-rule="evenodd" /><path id="663" transform="matrix(1 0 0 -1 0 841)" d="M249.22 288.82L249.94 288.82L249.94 288.82L249.94 289.54L249.94 289.54L249.22 289.54z" stroke="none" fill="#000000" fill-rule="evenodd" /><path id="664" transform="matrix(1 0 0 -1 0 841)" d="M249.94 288.82L318.604 288.82L318.604 288.82L318.604 289.54L318.604 289.54L249.94 289.54z" stroke="none" fill="#000000" fill-rule="evenodd" /><path id="665" transform="matrix(1 0 0 -1 0 841)" d="M318.6 288.82L319.32 288.82L319.32 288.82L319.32 289.54L319.32 289.54L318.6 289.54z" stroke="none" fill="#000000" fill-rule="evenodd" /><path id="666" transform="matrix(1 0 0 -1 0 841)" d="M319.32 288.82L396.384 288.82L396.384 288.82L396.384 289.54L396.384 289.54L319.32 289.54z" stroke="none" fill="#000000" fill-rule="evenodd" /><path id="667" transform="matrix(1 0 0 -1 0 841)" d="M396.38 288.82L397.1 288.82L397.1 288.82L397.1 289.54L397.1 289.54L396.38 289.54z" stroke="none" fill="#000000" fill-rule="evenodd" /><path id="668" transform="matrix(1 0 0 -1 0 841)" d="M397.1 288.82L460.244 288.82L460.244 288.82L460.244 289.54L460.244 289.54L397.1 289.54z" stroke="none" fill="#000000" fill-rule="evenodd" /><path id="669" transform="matrix(1 0 0 -1 0 841)" d="M460.25 288.82L460.97 288.82L460.97 288.82L460.97 289.54L460.97 289.54L460.25 289.54z" stroke="none" fill="#000000" fill-rule="evenodd" /><path id="670" transform="matrix(1 0 0 -1 0 841)" d="M460.97 288.82L524.114 288.82L524.114 288.82L524.114 289.54L524.114 289.54L460.97 289.54z" stroke="none" fill="#000000" fill-rule="evenodd" /><path id="671" transform="matrix(1 0 0 -1 0 841)" d="M524.11 288.82L524.83 288.82L524.83 288.82L524.83 289.54L524.83 289.54L524.11 289.54z" stroke="none" fill="#000000" fill-rule="evenodd" /><path id="672" transform="matrix(1 0 0 -1 0 841)" d="M524.11 288.82L524.83 288.82L524.83 288.82L524.83 289.54L524.83 289.54L524.11 289.54z" stroke="none" fill="#000000" fill-rule="evenodd" /><path id="673" transform="matrix(1 0 0 -1 0 841)" d="M84.504 252.07L85.224 252.07L85.224 252.07L85.224 288.814L85.224 288.814L84.504 288.814z" stroke="none" fill="#000000" fill-rule="evenodd" /><path id="674" transform="matrix(1 0 0 -1 0 841)" d="M164.23 252.07L164.95 252.07L164.95 252.07L164.95 288.814L164.95 288.814L164.23 288.814z" stroke="none" fill="#000000" fill-rule="evenodd" /><path id="675" transform="matrix(1 0 0 -1 0 841)" d="M249.22 252.07L249.94 252.07L249.94 252.07L249.94 288.814L249.94 288.814L249.22 288.814z" stroke="none" fill="#000000" fill-rule="evenodd" /><path id="676" transform="matrix(1 0 0 -1 0 841)" d="M318.6 252.07L319.32 252.07L319.32 252.07L319.32 288.814L319.32 288.814L318.6 288.814z" stroke="none" fill="#000000" fill-rule="evenodd" /><path id="677" transform="matrix(1 0 0 -1 0 841)" d="M396.38 252.07L397.1 252.07L397.1 252.07L397.1 288.814L397.1 288.814L396.38 288.814z" stroke="none" fill="#000000" fill-rule="evenodd" /><path id="678" transform="matrix(1 0 0 -1 0 841)" d="M460.25 252.07L460.97 252.07L460.97 252.07L460.97 288.814L460.97 288.814L460.25 288.814z" stroke="none" fill="#000000" fill-rule="evenodd" /><path id="679" transform="matrix(1 0 0 -1 0 841)" d="M524.11 252.07L524.83 252.07L524.83 252.07L524.83 288.814L524.83 288.814L524.11 288.814z" stroke="none" fill="#000000" fill-rule="evenodd" /><g clip-path="url(#58)"><g clip-path="url(#59)"></g><g clip-path="url(#60)"></g></g><g clip-path="url(#61)"><g clip-path="url(#62)"></g><g clip-path="url(#63)"></g></g><g clip-path="url(#64)"><g clip-path="url(#65)"></g><g clip-path="url(#66)"></g></g><g clip-path="url(#67)"><g clip-path="url(#68)"></g><g clip-path="url(#69)"></g></g><g clip-path="url(#70)"><g clip-path="url(#71)"></g><g clip-path="url(#72)"></g></g><g clip-path="url(#73)"><g clip-path="url(#74)"></g><g clip-path="url(#75)"></g></g><path id="694" transform="matrix(1 0 0 -1 0 841)" d="M84.504 251.35L85.224 251.35L85.224 251.35L85.224 252.07L85.224 252.07L84.504 252.07z" stroke="none" fill="#000000" fill-rule="evenodd" /><path id="695" transform="matrix(1 0 0 -1 0 841)" d="M85.224 251.35L164.232 251.35L164.232 251.35L164.232 252.07L164.232 252.07L85.224 252.07z" stroke="none" fill="#000000" fill-rule="evenodd" /><path id="696" transform="matrix(1 0 0 -1 0 841)" d="M164.23 251.35L164.95 251.35L164.95 251.35L164.95 252.07L164.95 252.07L164.23 252.07z" stroke="none" fill="#000000" fill-rule="evenodd" /><path id="697" transform="matrix(1 0 0 -1 0 841)" d="M164.95 251.35L249.214 251.35L249.214 251.35L249.214 252.07L249.214 252.07L164.95 252.07z" stroke="none" fill="#000000" fill-rule="evenodd" /><path id="698" transform="matrix(1 0 0 -1 0 841)" d="M249.22 251.35L249.94 251.35L249.94 251.35L249.94 252.07L249.94 252.07L249.22 252.07z" stroke="none" fill="#000000" fill-rule="evenodd" /><path id="699" transform="matrix(1 0 0 -1 0 841)" d="M249.94 251.35L318.604 251.35L318.604 251.35L318.604 252.07L318.604 252.07L249.94 252.07z" stroke="none" fill="#000000" fill-rule="evenodd" /><path id="700" transform="matrix(1 0 0 -1 0 841)" d="M318.6 251.35L319.32 251.35L319.32 251.35L319.32 252.07L319.32 252.07L318.6 252.07z" stroke="none" fill="#000000" fill-rule="evenodd" /><path id="701" transform="matrix(1 0 0 -1 0 841)" d="M319.32 251.35L396.384 251.35L396.384 251.35L396.384 252.07L396.384 252.07L319.32 252.07z" stroke="none" fill="#000000" fill-rule="evenodd" /><path id="702" transform="matrix(1 0 0 -1 0 841)" d="M396.38 251.35L397.1 251.35L397.1 251.35L397.1 252.07L397.1 252.07L396.38 252.07z" stroke="none" fill="#000000" fill-rule="evenodd" /><path id="703" transform="matrix(1 0 0 -1 0 841)" d="M397.1 251.35L460.244 251.35L460.244 251.35L460.244 252.07L460.244 252.07L397.1 252.07z" stroke="none" fill="#000000" fill-rule="evenodd" /><path id="704" transform="matrix(1 0 0 -1 0 841)" d="M460.25 251.35L460.97 251.35L460.97 251.35L460.97 252.07L460.97 252.07L460.25 252.07z" stroke="none" fill="#000000" fill-rule="evenodd" /><path id="705" transform="matrix(1 0 0 -1 0 841)" d="M460.97 251.35L524.114 251.35L524.114 251.35L524.114 252.07L524.114 252.07L460.97 252.07z" stroke="none" fill="#000000" fill-rule="evenodd" /><path id="706" transform="matrix(1 0 0 -1 0 841)" d="M524.11 251.35L524.83 251.35L524.83 251.35L524.83 252.07L524.83 252.07L524.11 252.07z" stroke="none" fill="#000000" fill-rule="evenodd" /><path id="707" transform="matrix(1 0 0 -1 0 841)" d="M84.504 235.27L85.224 235.27L85.224 235.27L85.224 251.35L85.224 251.35L84.504 251.35z" stroke="none" fill="#000000" fill-rule="evenodd" /><path id="708" transform="matrix(1 0 0 -1 0 841)" d="M164.23 235.27L164.95 235.27L164.95 235.27L164.95 251.35L164.95 251.35L164.23 251.35z" stroke="none" fill="#000000" fill-rule="evenodd" /><path id="709" transform="matrix(1 0 0 -1 0 841)" d="M249.22 235.27L249.94 235.27L249.94 235.27L249.94 251.35L249.94 251.35L249.22 251.35z" stroke="none" fill="#000000" fill-rule="evenodd" /><path id="710" transform="matrix(1 0 0 -1 0 841)" d="M318.6 235.27L319.32 235.27L319.32 235.27L319.32 251.35L319.32 251.35L318.6 251.35z" stroke="none" fill="#000000" fill-rule="evenodd" /><path id="711" transform="matrix(1 0 0 -1 0 841)" d="M396.38 235.27L397.1 235.27L397.1 235.27L397.1 251.35L397.1 251.35L396.38 251.35z" stroke="none" fill="#000000" fill-rule="evenodd" /><path id="712" transform="matrix(1 0 0 -1 0 841)" d="M460.25 235.27L460.97 235.27L460.97 235.27L460.97 251.35L460.97 251.35L460.25 251.35z" stroke="none" fill="#000000" fill-rule="evenodd" /><path id="713" transform="matrix(1 0 0 -1 0 841)" d="M524.11 235.27L524.83 235.27L524.83 235.27L524.83 251.35L524.83 251.35L524.11 251.35z" stroke="none" fill="#000000" fill-rule="evenodd" /><g clip-path="url(#76)"><g clip-path="url(#77)"></g><g clip-path="url(#78)"></g><g clip-path="url(#79)"></g><g clip-path="url(#80)"></g><g clip-path="url(#81)"></g><g clip-path="url(#82)"></g></g><g clip-path="url(#83)"><g clip-path="url(#84)"></g><g clip-path="url(#85)"></g></g><g clip-path="url(#86)"><g clip-path="url(#87)"></g><g clip-path="url(#88)"></g></g><g clip-path="url(#89)"><g clip-path="url(#90)"></g><g clip-path="url(#91)"></g><g clip-path="url(#92)"></g></g><g clip-path="url(#93)"><g clip-path="url(#94)"></g><g clip-path="url(#95)"></g></g><g clip-path="url(#96)"><g clip-path="url(#97)"></g><g clip-path="url(#98)"></g></g><path id="732" transform="matrix(1 0 0 -1 0 841)" d="M84.504 234.55L85.224 234.55L85.224 234.55L85.224 235.27L85.224 235.27L84.504 235.27z" stroke="none" fill="#000000" fill-rule="evenodd" /><path id="733" transform="matrix(1 0 0 -1 0 841)" d="M85.224 234.55L164.232 234.55L164.232 234.55L164.232 235.27L164.232 235.27L85.224 235.27z" stroke="none" fill="#000000" fill-rule="evenodd" /><path id="734" transform="matrix(1 0 0 -1 0 841)" d="M164.23 234.55L164.95 234.55L164.95 234.55L164.95 235.27L164.95 235.27L164.23 235.27z" stroke="none" fill="#000000" fill-rule="evenodd" /><path id="735" transform="matrix(1 0 0 -1 0 841)" d="M164.95 234.55L249.214 234.55L249.214 234.55L249.214 235.27L249.214 235.27L164.95 235.27z" stroke="none" fill="#000000" fill-rule="evenodd" /><path id="736" transform="matrix(1 0 0 -1 0 841)" d="M249.22 234.55L249.94 234.55L249.94 234.55L249.94 235.27L249.94 235.27L249.22 235.27z" stroke="none" fill="#000000" fill-rule="evenodd" /><path id="737" transform="matrix(1 0 0 -1 0 841)" d="M249.94 234.55L318.604 234.55L318.604 234.55L318.604 235.27L318.604 235.27L249.94 235.27z" stroke="none" fill="#000000" fill-rule="evenodd" /><path id="738" transform="matrix(1 0 0 -1 0 841)" d="M318.6 234.55L319.32 234.55L319.32 234.55L319.32 235.27L319.32 235.27L318.6 235.27z" stroke="none" fill="#000000" fill-rule="evenodd" /><path id="739" transform="matrix(1 0 0 -1 0 841)" d="M319.32 234.55L396.384 234.55L396.384 234.55L396.384 235.27L396.384 235.27L319.32 235.27z" stroke="none" fill="#000000" fill-rule="evenodd" /><path id="740" transform="matrix(1 0 0 -1 0 841)" d="M396.38 234.55L397.1 234.55L397.1 234.55L397.1 235.27L397.1 235.27L396.38 235.27z" stroke="none" fill="#000000" fill-rule="evenodd" /><path id="741" transform="matrix(1 0 0 -1 0 841)" d="M397.1 234.55L460.244 234.55L460.244 234.55L460.244 235.27L460.244 235.27L397.1 235.27z" stroke="none" fill="#000000" fill-rule="evenodd" /><path id="742" transform="matrix(1 0 0 -1 0 841)" d="M460.25 234.55L460.97 234.55L460.97 234.55L460.97 235.27L460.97 235.27L460.25 235.27z" stroke="none" fill="#000000" fill-rule="evenodd" /><path id="743" transform="matrix(1 0 0 -1 0 841)" d="M460.97 234.55L524.114 234.55L524.114 234.55L524.114 235.27L524.114 235.27L460.97 235.27z" stroke="none" fill="#000000" fill-rule="evenodd" /><path id="744" transform="matrix(1 0 0 -1 0 841)" d="M524.11 234.55L524.83 234.55L524.83 234.55L524.83 235.27L524.83 235.27L524.11 235.27z" stroke="none" fill="#000000" fill-rule="evenodd" /><path id="745" transform="matrix(1 0 0 -1 0 841)" d="M84.504 218.47L85.224 218.47L85.224 218.47L85.224 234.55L85.224 234.55L84.504 234.55z" stroke="none" fill="#000000" fill-rule="evenodd" /><path id="746" transform="matrix(1 0 0 -1 0 841)" d="M84.504 217.75L85.224 217.75L85.224 217.75L85.224 218.47L85.224 218.47L84.504 218.47z" stroke="none" fill="#000000" fill-rule="evenodd" /><path id="747" transform="matrix(1 0 0 -1 0 841)" d="M84.504 217.75L85.224 217.75L85.224 217.75L85.224 218.47L85.224 218.47L84.504 218.47z" stroke="none" fill="#000000" fill-rule="evenodd" /><path id="748" transform="matrix(1 0 0 -1 0 841)" d="M85.224 217.75L164.232 217.75L164.232 217.75L164.232 218.47L164.232 218.47L85.224 218.47z" stroke="none" fill="#000000" fill-rule="evenodd" /><path id="749" transform="matrix(1 0 0 -1 0 841)" d="M164.23 218.47L164.95 218.47L164.95 218.47L164.95 234.55L164.95 234.55L164.23 234.55z" stroke="none" fill="#000000" fill-rule="evenodd" /><path id="750" transform="matrix(1 0 0 -1 0 841)" d="M164.23 217.75L164.95 217.75L164.95 217.75L164.95 218.47L164.95 218.47L164.23 218.47z" stroke="none" fill="#000000" fill-rule="evenodd" /><path id="751" transform="matrix(1 0 0 -1 0 841)" d="M164.95 217.75L249.214 217.75L249.214 217.75L249.214 218.47L249.214 218.47L164.95 218.47z" stroke="none" fill="#000000" fill-rule="evenodd" /><path id="752" transform="matrix(1 0 0 -1 0 841)" d="M249.22 218.47L249.94 218.47L249.94 218.47L249.94 234.55L249.94 234.55L249.22 234.55z" stroke="none" fill="#000000" fill-rule="evenodd" /><path id="753" transform="matrix(1 0 0 -1 0 841)" d="M249.22 217.75L249.94 217.75L249.94 217.75L249.94 218.47L249.94 218.47L249.22 218.47z" stroke="none" fill="#000000" fill-rule="evenodd" /><path id="754" transform="matrix(1 0 0 -1 0 841)" d="M249.94 217.75L318.604 217.75L318.604 217.75L318.604 218.47L318.604 218.47L249.94 218.47z" stroke="none" fill="#000000" fill-rule="evenodd" /><path id="755" transform="matrix(1 0 0 -1 0 841)" d="M318.6 218.47L319.32 218.47L319.32 218.47L319.32 234.55L319.32 234.55L318.6 234.55z" stroke="none" fill="#000000" fill-rule="evenodd" /><path id="756" transform="matrix(1 0 0 -1 0 841)" d="M318.6 217.75L319.32 217.75L319.32 217.75L319.32 218.47L319.32 218.47L318.6 218.47z" stroke="none" fill="#000000" fill-rule="evenodd" /><path id="757" transform="matrix(1 0 0 -1 0 841)" d="M319.32 217.75L396.384 217.75L396.384 217.75L396.384 218.47L396.384 218.47L319.32 218.47z" stroke="none" fill="#000000" fill-rule="evenodd" /><path id="758" transform="matrix(1 0 0 -1 0 841)" d="M396.38 218.47L397.1 218.47L397.1 218.47L397.1 234.55L397.1 234.55L396.38 234.55z" stroke="none" fill="#000000" fill-rule="evenodd" /><path id="759" transform="matrix(1 0 0 -1 0 841)" d="M396.38 217.75L397.1 217.75L397.1 217.75L397.1 218.47L397.1 218.47L396.38 218.47z" stroke="none" fill="#000000" fill-rule="evenodd" /><path id="760" transform="matrix(1 0 0 -1 0 841)" d="M397.1 217.75L460.244 217.75L460.244 217.75L460.244 218.47L460.244 218.47L397.1 218.47z" stroke="none" fill="#000000" fill-rule="evenodd" /><path id="761" transform="matrix(1 0 0 -1 0 841)" d="M460.25 218.47L460.97 218.47L460.97 218.47L460.97 234.55L460.97 234.55L460.25 234.55z" stroke="none" fill="#000000" fill-rule="evenodd" /><path id="762" transform="matrix(1 0 0 -1 0 841)" d="M460.25 217.75L460.97 217.75L460.97 217.75L460.97 218.47L460.97 218.47L460.25 218.47z" stroke="none" fill="#000000" fill-rule="evenodd" /><path id="763" transform="matrix(1 0 0 -1 0 841)" d="M460.97 217.75L524.114 217.75L524.114 217.75L524.114 218.47L524.114 218.47L460.97 218.47z" stroke="none" fill="#000000" fill-rule="evenodd" /><path id="764" transform="matrix(1 0 0 -1 0 841)" d="M524.11 218.47L524.83 218.47L524.83 218.47L524.83 234.55L524.83 234.55L524.11 234.55z" stroke="none" fill="#000000" fill-rule="evenodd" /><path id="765" transform="matrix(1 0 0 -1 0 841)" d="M524.11 217.75L524.83 217.75L524.83 217.75L524.83 218.47L524.83 218.47L524.11 218.47z" stroke="none" fill="#000000" fill-rule="evenodd" /><path id="766" transform="matrix(1 0 0 -1 0 841)" d="M524.11 217.75L524.83 217.75L524.83 217.75L524.83 218.47L524.83 218.47L524.11 218.47z" stroke="none" fill="#000000" fill-rule="evenodd" /></g></g></svg>