<svg xmlns="http://www.w3.org/2000/svg" xmlns:xlink="http://www.w3.org/1999/xlink" id="body_2" preserveAspectRatio="xMinYMin meet" viewBox="0 0 793 1121"><defs><clipPath id="1"><path id="" clip-rule="evenodd" transform="matrix(1 0 0 1 0 0)" d="M0 841L0 -0.9199829L0 -0.9199829L595.2 -0.9199829L595.2 -0.9199829L595.2 841L595.2 841L0 841z" /></clipPath><clipPath id="2"><path id="" clip-rule="evenodd" transform="matrix(1 0 0 1 0 0)" d="M218.02 483.75L457.3131 483.75L457.3131 483.75L457.3131 366.6468L457.3131 366.6468L218.02 366.6468z" /></clipPath><clipPath id="3"><path id="" clip-rule="evenodd" transform="matrix(1 0 0 1 0 0)" d="M255.02 736.95L311.1685 736.95L311.1685 736.95L311.1685 697.8499L311.1685 697.8499L255.02 697.8499z" /></clipPath><clipPath id="4"><path id="" clip-rule="evenodd" transform="matrix(1 0 0 1 0 0)" d="M326.02 736.95L379.3196 736.95L379.3196 736.95L379.3196 697.8499L379.3196 697.8499L326.02 697.8499z" /></clipPath><clipPath id="5"><path id="" clip-rule="evenodd" transform="matrix(1 0 0 1 0 0)" d="M362.27 782.1L373.5702 782.1L373.5702 782.1L373.5702 770.1008L373.5702 770.1008L362.27 770.1008z" /></clipPath><clipPath id="6"><path id="" clip-rule="evenodd" transform="matrix(1 0 0 1 0 0)" d="M383.42 782.1L394.6705 782.1L394.6705 782.1L394.6705 770.1008L394.6705 770.1008L383.42 770.1008z" /></clipPath><clipPath id="7"><path id="" clip-rule="evenodd" transform="matrix(1 0 0 1 0 0)" d="M204.78 209.62L426.42 209.62L426.42 209.62L426.42 193.78L426.42 193.78L204.78 193.78z" /></clipPath><clipPath id="8"><path id="" clip-rule="evenodd" transform="matrix(1 0 0 1 0 0)" d="M204.79 209.61L426.41 209.61L426.41 209.61L426.41 193.77L426.41 193.77L204.79 193.77z" /></clipPath><clipPath id="9"><path id="" clip-rule="evenodd" transform="matrix(1 0 0 1 0 0)" d="M204.79 209.61L426.41 209.61L426.41 209.61L426.41 193.77L426.41 193.77L204.79 193.77z" /></clipPath></defs><g transform="matrix(1.333333 0 0 1.333333 0 0)"><g clip-path="url(#1)"><g clip-path="url(#2)"></g><g clip-path="url(#3)"><path id="1131" transform="matrix(1 0 0 -1 0 841)" d="M257.0052 124.5146L308.326 124.5146" stroke="#000000" stroke-width="0.4901671" fill="none" /></g><g clip-path="url(#4)"><path id="1146" transform="matrix(1 0 0 -1 0 841)" d="M328.0294 124.5146L376.9911 124.5146" stroke="#000000" stroke-width="0.5146185" fill="none" /></g><g clip-path="url(#5)"></g><g clip-path="url(#6)"></g><g transform="matrix(0.400367 0 0 0.4285512 204.4 42.38)"><g transform="matrix(1 0 0 1 0 0)"><image x="0" y="0" xlink:href="img_02.png" width="545" height="352" /></g></g><path id="1190" transform="matrix(1 0 0 -1 0 841)" d="M204.4 630.97L426.65 630.97L426.65 630.97L426.65 647.77L426.65 647.77L204.4 647.77z" stroke="none" fill="#FFFFFF" fill-rule="evenodd" /><path id="1191" transform="matrix(1 0 0 -1 0 841)" d="M204.4 630.97L426.65 630.97L426.65 630.97L426.65 647.77L426.65 647.77L204.4 647.77z" stroke="#FFFFFF" stroke-width="0.75" stroke-linecap="round" fill="none" /><g clip-path="url(#7)"><g clip-path="url(#8)"></g><g clip-path="url(#9)"></g></g></g></g></svg>