<svg xmlns="http://www.w3.org/2000/svg" xmlns:xlink="http://www.w3.org/1999/xlink" id="body_14" preserveAspectRatio="xMinYMin meet" viewBox="0 0 793 1121"><defs><clipPath id="1"><path id="" clip-rule="evenodd" transform="matrix(1 0 0 1 0 0)" d="M0 841L0 -0.9199829L0 -0.9199829L595.2 -0.9199829L595.2 -0.9199829L595.2 841L595.2 841L0 841z" /></clipPath><clipPath id="2"><path id="" clip-rule="evenodd" transform="matrix(1 0 0 1 0 0)" d="M317.17 421.35L371.8698 421.35L371.8698 421.35L371.8698 346.2475L371.8698 346.2475L317.17 346.2475z" /></clipPath><clipPath id="3"><path id="" clip-rule="evenodd" transform="matrix(1 0 0 1 0 0)" d="M246.37 532.5L454.2177 532.5L454.2177 532.5L454.2177 449.2024L454.2177 449.2024L246.37 449.2024z" /></clipPath><clipPath id="4"><path id="" clip-rule="evenodd" transform="matrix(1 0 0 1 0 0)" d="M281.87 649.1L449.1653 649.1L449.1653 649.1L449.1653 560.5477L449.1653 560.5477L281.87 560.5477z" /></clipPath><clipPath id="5"><path id="" clip-rule="evenodd" transform="matrix(1 0 0 1 0 0)" d="M246.37 781.85L423.4637 781.85L423.4637 781.85L423.4637 693.2977L423.4637 693.2977L246.37 693.2977z" /></clipPath><clipPath id="6"><path id="" clip-rule="evenodd" transform="matrix(1 0 0 1 0 0)" d="M162.31 273.47L449.19 273.47L449.19 273.47L449.19 59.35999L449.19 59.35999L162.31 59.35999z" /></clipPath></defs><g transform="matrix(1.333333 0 0 1.333333 0 0)"><g clip-path="url(#1)"><g clip-path="url(#2)"><path id="101" transform="matrix(1 0 0 -1 0 841)" d="M326.6256 475.3545L345.316 475.3545" stroke="#000000" stroke-width="0.710393" fill="none" /><path id="102" transform="matrix(1 0 0 -1 0 841)" d="M326.6256 437.8515L345.316 437.8515" stroke="#000000" stroke-width="0.710393" fill="none" /></g><g clip-path="url(#3)"><path id="163" transform="matrix(1 0 0 -1 0 841)" d="M258.8883 369.8411L277.0276 369.8411" stroke="#000000" stroke-width="0.4909111" fill="none" /><path id="164" transform="matrix(1 0 0 -1 0 841)" d="M255.3537 330.1395L273.5176 330.1395" stroke="#000000" stroke-width="0.4909111" fill="none" /></g><g clip-path="url(#4)"></g><g clip-path="url(#5)"><path id="388" transform="matrix(1 0 0 -1 0 841)" d="M269.6154 106.3829L421.423 106.3829" stroke="#000000" stroke-width="0.517116" fill="none" /></g><g><g transform="matrix(1 0 0 1 301.08 231.71)"><path id="1" transform="matrix(1 0 0 1 0 0)" d="M2.854687 9.603985L2.854687 12.28875C 2.854687 12.86875 2.918125 13.22898 3.045 13.36945C 3.217187 13.56883 3.477734 13.66852 3.826641 13.66852L4.180078 13.66852L4.180078 13.92L0.2310937 13.92L0.2310937 13.66852L0.5777344 13.66852C 0.9674219 13.66852 1.246094 13.54164 1.41375 13.28789C 1.504375 13.14742 1.549688 12.81437 1.549688 12.28875L1.549688 6.334688C 1.549688 5.754688 1.488516 5.394454 1.366172 5.253984C 1.189453 5.05461 0.9266406 4.954923 0.5777344 4.954923L0.2310937 4.954923L0.2310937 4.703438L3.609141 4.703438C 4.433828 4.703438 5.084063 4.788399 5.559844 4.958321C 6.035625 5.128242 6.43664 5.414845 6.76289 5.818126C 7.08914 6.221406 7.252265 6.699454 7.252265 7.252266C 7.252265 8.004454 7.004179 8.616172 6.508008 9.087421C 6.011836 9.558672 5.310625 9.794297 4.404375 9.794297C 4.182344 9.794297 3.942187 9.778438 3.683906 9.746719C 3.425625 9.715 3.149219 9.667422 2.854687 9.603985zM2.854687 9.216562C 3.094844 9.261875 3.307812 9.295859 3.493594 9.318516C 3.679375 9.341172 3.837969 9.352501 3.969375 9.352501C 4.440625 9.352501 4.847304 9.170117 5.189414 8.805351C 5.531523 8.440586 5.702578 7.968203 5.702578 7.388204C 5.702578 6.989453 5.621016 6.619023 5.457891 6.276915C 5.294765 5.934805 5.063672 5.678789 4.764609 5.508867C 4.465547 5.338945 4.125703 5.253984 3.745078 5.253984C 3.513984 5.253984 3.217187 5.297031 2.854687 5.383125L2.854687 9.216562zM2.854687 9.216562z" stroke="none" fill="#000000" fill-rule="evenodd" /></g><g transform="matrix(1 0 0 1 308.7638 231.71)"><path id="2" transform="matrix(1 0 0 1 0 0)" d="M2.378906 12.00328L5.070468 8.890312C 5.061406 8.541407 4.995703 8.298985 4.873359 8.163048C 4.751016 8.027109 4.540312 7.956875 4.24125 7.952344L4.24125 7.694063L7.136719 7.694063L7.136719 7.952344C 6.833125 7.952344 6.629218 7.98293 6.525 8.044102C 6.420781 8.105274 6.339219 8.181172 6.280313 8.271797C 6.221406 8.362422 6.191953 8.656954 6.191953 9.155391L6.191953 12.45867C 6.191953 12.93898 6.216875 13.22559 6.266718 13.31848C 6.316562 13.41137 6.394726 13.49293 6.501211 13.56316C 6.607696 13.6334 6.819531 13.66852 7.136719 13.66852L7.136719 13.92L4.125703 13.92L4.125703 13.66852C 4.501797 13.66852 4.753281 13.59941 4.880156 13.46121C 5.007031 13.32301 5.070468 12.98883 5.070468 12.45867L5.070468 9.529219L2.378906 12.64898C 2.387969 13.03414 2.442344 13.29922 2.542031 13.44422C 2.641719 13.58922 2.856953 13.66398 3.187734 13.66852L3.187734 13.92L0.3126563 13.92L0.3126563 13.66852C 0.7159375 13.66852 0.9742187 13.59488 1.0875 13.44762C 1.200781 13.30035 1.257422 12.9707 1.257422 12.45867L1.257422 9.155391C 1.257422 8.670547 1.2325 8.383945 1.182656 8.295586C 1.132812 8.207227 1.055781 8.12793 0.9515625 8.057695C 0.8473437 7.987462 0.634375 7.952344 0.3126563 7.952344L0.3126563 7.694063L3.323672 7.694063L3.323672 7.952344C 3.020078 7.952344 2.816172 7.98293 2.711953 8.044102C 2.607734 8.105274 2.526172 8.181172 2.467266 8.271797C 2.408359 8.362422 2.378906 8.656954 2.378906 9.155391L2.378906 12.00328zM2.378906 12.00328z" stroke="none" fill="#000000" fill-rule="evenodd" /></g><g transform="matrix(1 0 0 1 316.211 231.71)"><path id="3" transform="matrix(1 0 0 1 0 0)" d="M5.722969 11.55469C 5.555313 12.37484 5.226797 13.00582 4.737422 13.44762C 4.248047 13.88941 3.706563 14.11031 3.112969 14.11031C 2.406094 14.11031 1.789844 13.81352 1.264219 13.21992C 0.7385937 12.62633 0.4757812 11.8243 0.4757812 10.81383C 0.4757812 9.835078 0.7669141 9.039845 1.34918 8.428125C 1.931445 7.816407 2.630391 7.510547 3.446016 7.510547C 4.057734 7.510547 4.560703 7.672539 4.954922 7.996524C 5.349141 8.320509 5.54625 8.656954 5.54625 9.005859C 5.54625 9.178047 5.490742 9.317383 5.379726 9.423867C 5.268711 9.530352 5.113515 9.583593 4.914141 9.583593C 4.646797 9.583593 4.445156 9.4975 4.309218 9.325313C 4.232187 9.230156 4.181211 9.048906 4.156289 8.781563C 4.131367 8.514219 4.039609 8.310312 3.881016 8.169844C 3.722422 8.033907 3.502656 7.965938 3.221719 7.965938C 2.768594 7.965938 2.403828 8.133595 2.127422 8.468906C 1.760391 8.91297 1.576875 9.499765 1.576875 10.2293C 1.576875 10.97242 1.759258 11.62832 2.124023 12.19699C 2.488789 12.76566 2.981562 13.05 3.602344 13.05C 4.046406 13.05 4.445156 12.8982 4.798594 12.59461C 5.047812 12.38617 5.290235 12.00781 5.525859 11.45953L5.722969 11.55469zM5.722969 11.55469z" stroke="none" fill="#000000" fill-rule="evenodd" /></g><g transform="matrix(1 0 0 1 322.4333 231.71)"><path id="4" transform="matrix(1 0 0 1 0 0)" d="M1.74 12.60141C 1.952969 12.60141 2.131953 12.67504 2.276953 12.8223C 2.421953 12.96957 2.494453 13.14742 2.494453 13.35586C 2.494453 13.5643 2.42082 13.74215 2.273555 13.88941C 2.126289 14.03668 1.948437 14.11031 1.74 14.11031C 1.531562 14.11031 1.353711 14.03668 1.206445 13.88941C 1.05918 13.74215 0.9855468 13.5643 0.9855468 13.35586C 0.9855468 13.14289 1.05918 12.96391 1.206445 12.81891C 1.353711 12.67391 1.531562 12.60141 1.74 12.60141zM1.74 12.60141z" stroke="none" fill="#000000" fill-rule="evenodd" /></g><g transform="matrix(1 0 0 1 326.0246 231.71)"><path id="5" transform="matrix(1 0 0 1 0 0)" d="M6.042422 4.703438L5.512266 5.858907L2.739141 5.858907L2.134219 7.095938C 3.335 7.272656 4.286562 7.718985 4.988906 8.434922C 5.591563 9.051172 5.89289 9.776173 5.89289 10.60992C 5.89289 11.09477 5.794336 11.54336 5.597227 11.9557C 5.400117 12.36805 5.152031 12.71922 4.852969 13.00922C 4.553906 13.29922 4.220859 13.53258 3.853828 13.7093C 3.332734 13.95852 2.798047 14.08313 2.249766 14.08313C 1.696953 14.08313 1.294805 13.9891 1.04332 13.80105C 0.7918359 13.61301 0.6660937 13.4057 0.6660937 13.17914C 0.6660937 13.05227 0.7182031 12.94012 0.8224218 12.8427C 0.9266406 12.74527 1.058047 12.69656 1.216641 12.69656C 1.334453 12.69656 1.437539 12.71469 1.525898 12.75094C 1.614258 12.78719 1.764922 12.88008 1.977891 13.02961C 2.317734 13.26523 2.662109 13.38305 3.011016 13.38305C 3.541172 13.38305 4.006758 13.18254 4.407773 12.78152C 4.808789 12.38051 5.009297 11.89227 5.009297 11.3168C 5.009297 10.75945 4.830312 10.23949 4.472343 9.756914C 4.114375 9.274336 3.620469 8.901641 2.990625 8.638828C 2.496719 8.434922 1.823828 8.31711 0.9719531 8.285391L2.739141 4.703438L6.042422 4.703438zM6.042422 4.703438z" stroke="none" fill="#000000" fill-rule="evenodd" /></g><g transform="matrix(1 0 0 1 332.9846 231.71)"><path id="6" transform="matrix(1 0 0 1 0 0)" d="M1.74 12.60141C 1.952969 12.60141 2.131953 12.67504 2.276953 12.8223C 2.421953 12.96957 2.494453 13.14742 2.494453 13.35586C 2.494453 13.5643 2.42082 13.74215 2.273555 13.88941C 2.126289 14.03668 1.948437 14.11031 1.74 14.11031C 1.531562 14.11031 1.353711 14.03668 1.206445 13.88941C 1.05918 13.74215 0.9855468 13.5643 0.9855468 13.35586C 0.9855468 13.14289 1.05918 12.96391 1.206445 12.81891C 1.353711 12.67391 1.531562 12.60141 1.74 12.60141zM1.74 12.60141z" stroke="none" fill="#000000" fill-rule="evenodd" /></g><g transform="matrix(1 0 0 1 336.576 231.71)"><path id="7" transform="matrix(1 0 0 1 0 0)" d="M6.239531 4.513125L6.239531 4.764609C 5.641406 4.823516 5.153164 4.942462 4.774805 5.121446C 4.396445 5.300429 4.022617 5.573438 3.65332 5.940469C 3.284023 6.3075 2.978164 6.716446 2.735742 7.167305C 2.49332 7.618164 2.290547 8.153985 2.127422 8.774766C 2.779922 8.326172 3.434688 8.101875 4.091719 8.101875C 4.721562 8.101875 5.267578 8.355625 5.729765 8.863125C 6.191953 9.370625 6.423047 10.02312 6.423047 10.82063C 6.423047 11.59094 6.189688 12.29328 5.722969 12.92766C 5.161094 13.69797 4.417969 14.08313 3.493594 14.08313C 2.86375 14.08313 2.329062 13.87469 1.889531 13.45781C 1.028594 12.64672 0.598125 11.59547 0.598125 10.30406C 0.598125 9.479375 0.7635157 8.695469 1.094297 7.952344C 1.425078 7.209219 1.897461 6.549922 2.511445 5.974453C 3.12543 5.398985 3.713359 5.011562 4.275234 4.812188C 4.837109 4.612813 5.360468 4.513125 5.845312 4.513125L6.239531 4.513125zM2.011875 9.270938C 1.930312 9.882656 1.889531 10.37656 1.889531 10.75266C 1.889531 11.18766 1.969961 11.66004 2.13082 12.1698C 2.29168 12.67957 2.530703 13.08398 2.847891 13.38305C 3.078984 13.59602 3.359922 13.7025 3.690703 13.7025C 4.084922 13.7025 4.437227 13.51672 4.747617 13.14516C 5.058008 12.77359 5.213203 12.24344 5.213203 11.55469C 5.213203 10.77984 5.059141 10.10922 4.751016 9.542812C 4.44289 8.976406 4.005625 8.693203 3.439219 8.693203C 3.267031 8.693203 3.082383 8.729454 2.885273 8.801953C 2.688164 8.874453 2.397031 9.030781 2.011875 9.270938zM2.011875 9.270938z" stroke="none" fill="#000000" fill-rule="evenodd" /></g><g transform="matrix(0.7502625 0 0 0.7494718 162.7 59.57996)"><g transform="matrix(1 0 0 1 0 0)"><image x="0" y="0" xlink:href="img_15.png" width="381" height="284" /></g></g></g><path id="454" transform="matrix(1 0 0 -1 0 841)" d="M162.31 781.42L162.79 781.42L162.79 781.42L162.79 781.9L162.79 781.9L162.31 781.9z" stroke="none" fill="#000000" fill-rule="evenodd" /><path id="455" transform="matrix(1 0 0 -1 0 841)" d="M162.31 781.42L162.79 781.42L162.79 781.42L162.79 781.9L162.79 781.9L162.31 781.9z" stroke="none" fill="#000000" fill-rule="evenodd" /><path id="456" transform="matrix(1 0 0 -1 0 841)" d="M162.79 781.42L448.73 781.42L448.73 781.42L448.73 781.9L448.73 781.9L162.79 781.9z" stroke="none" fill="#000000" fill-rule="evenodd" /><path id="457" transform="matrix(1 0 0 -1 0 841)" d="M448.73 781.42L449.21 781.42L449.21 781.42L449.21 781.9L449.21 781.9L448.73 781.9z" stroke="none" fill="#000000" fill-rule="evenodd" /><path id="458" transform="matrix(1 0 0 -1 0 841)" d="M448.73 781.42L449.21 781.42L449.21 781.42L449.21 781.9L449.21 781.9L448.73 781.9z" stroke="none" fill="#000000" fill-rule="evenodd" /><path id="459" transform="matrix(1 0 0 -1 0 841)" d="M162.31 568.49L162.79 568.49L162.79 568.49L162.79 781.42L162.79 781.42L162.31 781.42z" stroke="none" fill="#000000" fill-rule="evenodd" /><path id="460" transform="matrix(1 0 0 -1 0 841)" d="M448.73 568.49L449.21 568.49L449.21 568.49L449.21 781.42L449.21 781.42L448.73 781.42z" stroke="none" fill="#000000" fill-rule="evenodd" /><path id="461" transform="matrix(1 0 0 -1 0 841)" d="M162.31 568.01L162.79 568.01L162.79 568.01L162.79 568.49L162.79 568.49L162.31 568.49z" stroke="none" fill="#000000" fill-rule="evenodd" /><path id="462" transform="matrix(1 0 0 -1 0 841)" d="M162.31 568.01L162.79 568.01L162.79 568.01L162.79 568.49L162.79 568.49L162.31 568.49z" stroke="none" fill="#000000" fill-rule="evenodd" /><path id="463" transform="matrix(1 0 0 -1 0 841)" d="M162.79 568.01L448.73 568.01L448.73 568.01L448.73 568.49L448.73 568.49L162.79 568.49z" stroke="none" fill="#000000" fill-rule="evenodd" /><path id="464" transform="matrix(1 0 0 -1 0 841)" d="M448.73 568.01L449.21 568.01L449.21 568.01L449.21 568.49L449.21 568.49L448.73 568.49z" stroke="none" fill="#000000" fill-rule="evenodd" /><path id="465" transform="matrix(1 0 0 -1 0 841)" d="M448.73 568.01L449.21 568.01L449.21 568.01L449.21 568.49L449.21 568.49L448.73 568.49z" stroke="none" fill="#000000" fill-rule="evenodd" /><g clip-path="url(#6)"></g></g></g></svg>