<svg xmlns="http://www.w3.org/2000/svg" xmlns:xlink="http://www.w3.org/1999/xlink" id="body_9" preserveAspectRatio="xMinYMin meet" viewBox="0 0 793 1121"><defs><clipPath id="1"><path id="" clip-rule="evenodd" transform="matrix(1 0 0 1 0 0)" d="M0 841L0 -0.9199829L0 -0.9199829L595.2 -0.9199829L595.2 -0.9199829L595.2 841L595.2 841L0 841z" /></clipPath><clipPath id="2"><path id="" clip-rule="evenodd" transform="matrix(1 0 0 1 0 0)" d="M86.913 72.54999L157.023 72.54999L157.023 72.54999L157.023 56.46997L157.023 56.46997L86.913 56.46997z" /></clipPath><clipPath id="3"><path id="" clip-rule="evenodd" transform="matrix(1 0 0 1 0 0)" d="M86.904 72.53998L157.032 72.53998L157.032 72.53998L157.032 56.45996L157.032 56.45996L86.904 56.45996z" /></clipPath><clipPath id="4"><path id="" clip-rule="evenodd" transform="matrix(1 0 0 1 0 0)" d="M86.904 72.53998L157.032 72.53998L157.032 72.53998L157.032 56.45996L157.032 56.45996L86.904 56.45996z" /></clipPath><clipPath id="5"><path id="" clip-rule="evenodd" transform="matrix(1 0 0 1 0 0)" d="M157.74 72.54999L212.46 72.54999L212.46 72.54999L212.46 56.46997L212.46 56.46997L157.74 56.46997z" /></clipPath><clipPath id="6"><path id="" clip-rule="evenodd" transform="matrix(1 0 0 1 0 0)" d="M157.75 72.53998L212.47 72.53998L212.47 72.53998L212.47 56.45996L212.47 56.45996L157.75 56.45996z" /></clipPath><clipPath id="7"><path id="" clip-rule="evenodd" transform="matrix(1 0 0 1 0 0)" d="M157.75 72.53998L212.47 72.53998L212.47 72.53998L212.47 56.45996L212.47 56.45996L157.75 56.45996z" /></clipPath><clipPath id="8"><path id="" clip-rule="evenodd" transform="matrix(1 0 0 1 0 0)" d="M213.18 72.54999L276.09 72.54999L276.09 72.54999L276.09 56.46997L276.09 56.46997L213.18 56.46997z" /></clipPath><clipPath id="9"><path id="" clip-rule="evenodd" transform="matrix(1 0 0 1 0 0)" d="M213.19 72.53998L276.094 72.53998L276.094 72.53998L276.094 56.45996L276.094 56.45996L213.19 56.45996z" /></clipPath><clipPath id="10"><path id="" clip-rule="evenodd" transform="matrix(1 0 0 1 0 0)" d="M213.19 72.53998L276.094 72.53998L276.094 72.53998L276.094 56.45996L276.094 56.45996L213.19 56.45996z" /></clipPath><clipPath id="11"><path id="" clip-rule="evenodd" transform="matrix(1 0 0 1 0 0)" d="M213.19 72.53998L276.094 72.53998L276.094 72.53998L276.094 56.45996L276.094 56.45996L213.19 56.45996z" /></clipPath><clipPath id="12"><path id="" clip-rule="evenodd" transform="matrix(1 0 0 1 0 0)" d="M276.81 72.54999L339.96 72.54999L339.96 72.54999L339.96 56.46997L339.96 56.46997L276.81 56.46997z" /></clipPath><clipPath id="13"><path id="" clip-rule="evenodd" transform="matrix(1 0 0 1 0 0)" d="M276.82 72.53998L339.964 72.53998L339.964 72.53998L339.964 56.45996L339.964 56.45996L276.82 56.45996z" /></clipPath><clipPath id="14"><path id="" clip-rule="evenodd" transform="matrix(1 0 0 1 0 0)" d="M276.82 72.53998L339.964 72.53998L339.964 72.53998L339.964 56.45996L339.964 56.45996L276.82 56.45996z" /></clipPath><clipPath id="15"><path id="" clip-rule="evenodd" transform="matrix(1 0 0 1 0 0)" d="M276.82 72.53998L339.964 72.53998L339.964 72.53998L339.964 56.45996L339.964 56.45996L276.82 56.45996z" /></clipPath><clipPath id="16"><path id="" clip-rule="evenodd" transform="matrix(1 0 0 1 0 0)" d="M340.68 72.54999L403.83 72.54999L403.83 72.54999L403.83 56.46997L403.83 56.46997L340.68 56.46997z" /></clipPath><clipPath id="17"><path id="" clip-rule="evenodd" transform="matrix(1 0 0 1 0 0)" d="M340.68 72.53998L403.824 72.53998L403.824 72.53998L403.824 56.45996L403.824 56.45996L340.68 56.45996z" /></clipPath><clipPath id="18"><path id="" clip-rule="evenodd" transform="matrix(1 0 0 1 0 0)" d="M340.68 72.53998L403.824 72.53998L403.824 72.53998L403.824 56.45996L403.824 56.45996L340.68 56.45996z" /></clipPath><clipPath id="19"><path id="" clip-rule="evenodd" transform="matrix(1 0 0 1 0 0)" d="M340.68 72.53998L403.824 72.53998L403.824 72.53998L403.824 56.45996L403.824 56.45996L340.68 56.45996z" /></clipPath><clipPath id="20"><path id="" clip-rule="evenodd" transform="matrix(1 0 0 1 0 0)" d="M404.55 72.54999L467.7 72.54999L467.7 72.54999L467.7 56.46997L467.7 56.46997L404.55 56.46997z" /></clipPath><clipPath id="21"><path id="" clip-rule="evenodd" transform="matrix(1 0 0 1 0 0)" d="M404.54 72.53998L467.684 72.53998L467.684 72.53998L467.684 56.45996L467.684 56.45996L404.54 56.45996z" /></clipPath><clipPath id="22"><path id="" clip-rule="evenodd" transform="matrix(1 0 0 1 0 0)" d="M404.54 72.53998L467.684 72.53998L467.684 72.53998L467.684 56.45996L467.684 56.45996L404.54 56.45996z" /></clipPath><clipPath id="23"><path id="" clip-rule="evenodd" transform="matrix(1 0 0 1 0 0)" d="M468.42 72.54999L524.34 72.54999L524.34 72.54999L524.34 56.46997L524.34 56.46997L468.42 56.46997z" /></clipPath><clipPath id="24"><path id="" clip-rule="evenodd" transform="matrix(1 0 0 1 0 0)" d="M468.41 72.53998L524.354 72.53998L524.354 72.53998L524.354 56.45996L524.354 56.45996L468.41 56.45996z" /></clipPath><clipPath id="25"><path id="" clip-rule="evenodd" transform="matrix(1 0 0 1 0 0)" d="M86.913 89.59003L157.023 89.59003L157.023 89.59003L157.023 73.51001L157.023 73.51001L86.913 73.51001z" /></clipPath><clipPath id="26"><path id="" clip-rule="evenodd" transform="matrix(1 0 0 1 0 0)" d="M86.904 89.58002L157.032 89.58002L157.032 89.58002L157.032 73.5L157.032 73.5L86.904 73.5z" /></clipPath><clipPath id="27"><path id="" clip-rule="evenodd" transform="matrix(1 0 0 1 0 0)" d="M86.904 89.58002L157.032 89.58002L157.032 89.58002L157.032 73.5L157.032 73.5L86.904 73.5z" /></clipPath><clipPath id="28"><path id="" clip-rule="evenodd" transform="matrix(1 0 0 1 0 0)" d="M157.74 89.59003L212.46 89.59003L212.46 89.59003L212.46 73.51001L212.46 73.51001L157.74 73.51001z" /></clipPath><clipPath id="29"><path id="" clip-rule="evenodd" transform="matrix(1 0 0 1 0 0)" d="M157.75 89.58002L212.47 89.58002L212.47 89.58002L212.47 73.5L212.47 73.5L157.75 73.5z" /></clipPath><clipPath id="30"><path id="" clip-rule="evenodd" transform="matrix(1 0 0 1 0 0)" d="M157.75 89.58002L212.47 89.58002L212.47 89.58002L212.47 73.5L212.47 73.5L157.75 73.5z" /></clipPath><clipPath id="31"><path id="" clip-rule="evenodd" transform="matrix(1 0 0 1 0 0)" d="M213.18 89.59003L276.09 89.59003L276.09 89.59003L276.09 73.51001L276.09 73.51001L213.18 73.51001z" /></clipPath><clipPath id="32"><path id="" clip-rule="evenodd" transform="matrix(1 0 0 1 0 0)" d="M213.19 89.58002L276.094 89.58002L276.094 89.58002L276.094 73.5L276.094 73.5L213.19 73.5z" /></clipPath><clipPath id="33"><path id="" clip-rule="evenodd" transform="matrix(1 0 0 1 0 0)" d="M213.19 89.58002L276.094 89.58002L276.094 89.58002L276.094 73.5L276.094 73.5L213.19 73.5z" /></clipPath><clipPath id="34"><path id="" clip-rule="evenodd" transform="matrix(1 0 0 1 0 0)" d="M213.19 89.58002L276.094 89.58002L276.094 89.58002L276.094 73.5L276.094 73.5L213.19 73.5z" /></clipPath><clipPath id="35"><path id="" clip-rule="evenodd" transform="matrix(1 0 0 1 0 0)" d="M276.81 89.59003L339.96 89.59003L339.96 89.59003L339.96 73.51001L339.96 73.51001L276.81 73.51001z" /></clipPath><clipPath id="36"><path id="" clip-rule="evenodd" transform="matrix(1 0 0 1 0 0)" d="M276.82 89.58002L339.964 89.58002L339.964 89.58002L339.964 73.5L339.964 73.5L276.82 73.5z" /></clipPath><clipPath id="37"><path id="" clip-rule="evenodd" transform="matrix(1 0 0 1 0 0)" d="M276.82 89.58002L339.964 89.58002L339.964 89.58002L339.964 73.5L339.964 73.5L276.82 73.5z" /></clipPath><clipPath id="38"><path id="" clip-rule="evenodd" transform="matrix(1 0 0 1 0 0)" d="M276.82 89.58002L339.964 89.58002L339.964 89.58002L339.964 73.5L339.964 73.5L276.82 73.5z" /></clipPath><clipPath id="39"><path id="" clip-rule="evenodd" transform="matrix(1 0 0 1 0 0)" d="M340.68 89.59003L403.83 89.59003L403.83 89.59003L403.83 73.51001L403.83 73.51001L340.68 73.51001z" /></clipPath><clipPath id="40"><path id="" clip-rule="evenodd" transform="matrix(1 0 0 1 0 0)" d="M340.68 89.58002L403.824 89.58002L403.824 89.58002L403.824 73.5L403.824 73.5L340.68 73.5z" /></clipPath><clipPath id="41"><path id="" clip-rule="evenodd" transform="matrix(1 0 0 1 0 0)" d="M340.68 89.58002L403.824 89.58002L403.824 89.58002L403.824 73.5L403.824 73.5L340.68 73.5z" /></clipPath><clipPath id="42"><path id="" clip-rule="evenodd" transform="matrix(1 0 0 1 0 0)" d="M340.68 89.58002L403.824 89.58002L403.824 89.58002L403.824 73.5L403.824 73.5L340.68 73.5z" /></clipPath><clipPath id="43"><path id="" clip-rule="evenodd" transform="matrix(1 0 0 1 0 0)" d="M404.55 89.59003L467.7 89.59003L467.7 89.59003L467.7 73.51001L467.7 73.51001L404.55 73.51001z" /></clipPath><clipPath id="44"><path id="" clip-rule="evenodd" transform="matrix(1 0 0 1 0 0)" d="M404.54 89.58002L467.684 89.58002L467.684 89.58002L467.684 73.5L467.684 73.5L404.54 73.5z" /></clipPath><clipPath id="45"><path id="" clip-rule="evenodd" transform="matrix(1 0 0 1 0 0)" d="M468.42 89.59003L524.34 89.59003L524.34 89.59003L524.34 73.51001L524.34 73.51001L468.42 73.51001z" /></clipPath><clipPath id="46"><path id="" clip-rule="evenodd" transform="matrix(1 0 0 1 0 0)" d="M468.41 89.58002L524.354 89.58002L524.354 89.58002L524.354 73.5L524.354 73.5L468.41 73.5z" /></clipPath><clipPath id="47"><path id="" clip-rule="evenodd" transform="matrix(1 0 0 1 0 0)" d="M86.913 106.39L157.023 106.39L157.023 106.39L157.023 90.31L157.023 90.31L86.913 90.31z" /></clipPath><clipPath id="48"><path id="" clip-rule="evenodd" transform="matrix(1 0 0 1 0 0)" d="M86.904 106.38L157.032 106.38L157.032 106.38L157.032 90.29999L157.032 90.29999L86.904 90.29999z" /></clipPath><clipPath id="49"><path id="" clip-rule="evenodd" transform="matrix(1 0 0 1 0 0)" d="M86.904 106.38L157.032 106.38L157.032 106.38L157.032 90.29999L157.032 90.29999L86.904 90.29999z" /></clipPath><clipPath id="50"><path id="" clip-rule="evenodd" transform="matrix(1 0 0 1 0 0)" d="M157.74 106.39L212.46 106.39L212.46 106.39L212.46 90.31L212.46 90.31L157.74 90.31z" /></clipPath><clipPath id="51"><path id="" clip-rule="evenodd" transform="matrix(1 0 0 1 0 0)" d="M157.75 106.38L212.47 106.38L212.47 106.38L212.47 90.29999L212.47 90.29999L157.75 90.29999z" /></clipPath><clipPath id="52"><path id="" clip-rule="evenodd" transform="matrix(1 0 0 1 0 0)" d="M157.75 106.38L212.47 106.38L212.47 106.38L212.47 90.29999L212.47 90.29999L157.75 90.29999z" /></clipPath><clipPath id="53"><path id="" clip-rule="evenodd" transform="matrix(1 0 0 1 0 0)" d="M213.18 106.39L276.09 106.39L276.09 106.39L276.09 90.31L276.09 90.31L213.18 90.31z" /></clipPath><clipPath id="54"><path id="" clip-rule="evenodd" transform="matrix(1 0 0 1 0 0)" d="M213.19 106.38L276.094 106.38L276.094 106.38L276.094 90.29999L276.094 90.29999L213.19 90.29999z" /></clipPath><clipPath id="55"><path id="" clip-rule="evenodd" transform="matrix(1 0 0 1 0 0)" d="M213.19 106.38L276.094 106.38L276.094 106.38L276.094 90.29999L276.094 90.29999L213.19 90.29999z" /></clipPath><clipPath id="56"><path id="" clip-rule="evenodd" transform="matrix(1 0 0 1 0 0)" d="M276.81 106.39L339.96 106.39L339.96 106.39L339.96 90.31L339.96 90.31L276.81 90.31z" /></clipPath><clipPath id="57"><path id="" clip-rule="evenodd" transform="matrix(1 0 0 1 0 0)" d="M276.82 106.38L339.964 106.38L339.964 106.38L339.964 90.29999L339.964 90.29999L276.82 90.29999z" /></clipPath><clipPath id="58"><path id="" clip-rule="evenodd" transform="matrix(1 0 0 1 0 0)" d="M276.82 106.38L339.964 106.38L339.964 106.38L339.964 90.29999L339.964 90.29999L276.82 90.29999z" /></clipPath><clipPath id="59"><path id="" clip-rule="evenodd" transform="matrix(1 0 0 1 0 0)" d="M276.82 106.38L339.964 106.38L339.964 106.38L339.964 90.29999L339.964 90.29999L276.82 90.29999z" /></clipPath><clipPath id="60"><path id="" clip-rule="evenodd" transform="matrix(1 0 0 1 0 0)" d="M340.68 106.39L403.83 106.39L403.83 106.39L403.83 90.31L403.83 90.31L340.68 90.31z" /></clipPath><clipPath id="61"><path id="" clip-rule="evenodd" transform="matrix(1 0 0 1 0 0)" d="M340.68 106.38L403.824 106.38L403.824 106.38L403.824 90.29999L403.824 90.29999L340.68 90.29999z" /></clipPath><clipPath id="62"><path id="" clip-rule="evenodd" transform="matrix(1 0 0 1 0 0)" d="M404.55 106.39L467.7 106.39L467.7 106.39L467.7 90.31L467.7 90.31L404.55 90.31z" /></clipPath><clipPath id="63"><path id="" clip-rule="evenodd" transform="matrix(1 0 0 1 0 0)" d="M404.54 106.38L467.684 106.38L467.684 106.38L467.684 90.29999L467.684 90.29999L404.54 90.29999z" /></clipPath><clipPath id="64"><path id="" clip-rule="evenodd" transform="matrix(1 0 0 1 0 0)" d="M468.42 106.39L524.34 106.39L524.34 106.39L524.34 90.31L524.34 90.31L468.42 90.31z" /></clipPath><clipPath id="65"><path id="" clip-rule="evenodd" transform="matrix(1 0 0 1 0 0)" d="M468.41 106.38L524.354 106.38L524.354 106.38L524.354 90.29999L524.354 90.29999L468.41 90.29999z" /></clipPath><clipPath id="66"><path id="" clip-rule="evenodd" transform="matrix(1 0 0 1 0 0)" d="M86.913 123.19L157.023 123.19L157.023 123.19L157.023 107.11L157.023 107.11L86.913 107.11z" /></clipPath><clipPath id="67"><path id="" clip-rule="evenodd" transform="matrix(1 0 0 1 0 0)" d="M86.904 123.18L157.032 123.18L157.032 123.18L157.032 107.1L157.032 107.1L86.904 107.1z" /></clipPath><clipPath id="68"><path id="" clip-rule="evenodd" transform="matrix(1 0 0 1 0 0)" d="M86.904 123.18L157.032 123.18L157.032 123.18L157.032 107.1L157.032 107.1L86.904 107.1z" /></clipPath><clipPath id="69"><path id="" clip-rule="evenodd" transform="matrix(1 0 0 1 0 0)" d="M157.74 123.19L212.46 123.19L212.46 123.19L212.46 107.11L212.46 107.11L157.74 107.11z" /></clipPath><clipPath id="70"><path id="" clip-rule="evenodd" transform="matrix(1 0 0 1 0 0)" d="M157.75 123.18L212.47 123.18L212.47 123.18L212.47 107.1L212.47 107.1L157.75 107.1z" /></clipPath><clipPath id="71"><path id="" clip-rule="evenodd" transform="matrix(1 0 0 1 0 0)" d="M157.75 123.18L212.47 123.18L212.47 123.18L212.47 107.1L212.47 107.1L157.75 107.1z" /></clipPath><clipPath id="72"><path id="" clip-rule="evenodd" transform="matrix(1 0 0 1 0 0)" d="M213.18 123.19L276.09 123.19L276.09 123.19L276.09 107.11L276.09 107.11L213.18 107.11z" /></clipPath><clipPath id="73"><path id="" clip-rule="evenodd" transform="matrix(1 0 0 1 0 0)" d="M213.19 123.18L276.094 123.18L276.094 123.18L276.094 107.1L276.094 107.1L213.19 107.1z" /></clipPath><clipPath id="74"><path id="" clip-rule="evenodd" transform="matrix(1 0 0 1 0 0)" d="M213.19 123.18L276.094 123.18L276.094 123.18L276.094 107.1L276.094 107.1L213.19 107.1z" /></clipPath><clipPath id="75"><path id="" clip-rule="evenodd" transform="matrix(1 0 0 1 0 0)" d="M213.19 123.18L276.094 123.18L276.094 123.18L276.094 107.1L276.094 107.1L213.19 107.1z" /></clipPath><clipPath id="76"><path id="" clip-rule="evenodd" transform="matrix(1 0 0 1 0 0)" d="M276.81 123.19L339.96 123.19L339.96 123.19L339.96 107.11L339.96 107.11L276.81 107.11z" /></clipPath><clipPath id="77"><path id="" clip-rule="evenodd" transform="matrix(1 0 0 1 0 0)" d="M276.82 123.18L339.964 123.18L339.964 123.18L339.964 107.1L339.964 107.1L276.82 107.1z" /></clipPath><clipPath id="78"><path id="" clip-rule="evenodd" transform="matrix(1 0 0 1 0 0)" d="M340.68 123.19L403.83 123.19L403.83 123.19L403.83 107.11L403.83 107.11L340.68 107.11z" /></clipPath><clipPath id="79"><path id="" clip-rule="evenodd" transform="matrix(1 0 0 1 0 0)" d="M340.68 123.18L403.824 123.18L403.824 123.18L403.824 107.1L403.824 107.1L340.68 107.1z" /></clipPath><clipPath id="80"><path id="" clip-rule="evenodd" transform="matrix(1 0 0 1 0 0)" d="M404.55 123.19L467.7 123.19L467.7 123.19L467.7 107.11L467.7 107.11L404.55 107.11z" /></clipPath><clipPath id="81"><path id="" clip-rule="evenodd" transform="matrix(1 0 0 1 0 0)" d="M404.54 123.18L467.684 123.18L467.684 123.18L467.684 107.1L467.684 107.1L404.54 107.1z" /></clipPath><clipPath id="82"><path id="" clip-rule="evenodd" transform="matrix(1 0 0 1 0 0)" d="M468.42 123.19L524.34 123.19L524.34 123.19L524.34 107.11L524.34 107.11L468.42 107.11z" /></clipPath><clipPath id="83"><path id="" clip-rule="evenodd" transform="matrix(1 0 0 1 0 0)" d="M468.41 123.18L524.354 123.18L524.354 123.18L524.354 107.1L524.354 107.1L468.41 107.1z" /></clipPath><clipPath id="84"><path id="" clip-rule="evenodd" transform="matrix(1 0 0 1 0 0)" d="M106.92 304.95L530.78 304.95L530.78 304.95L530.78 151.8484L530.78 151.8484L106.92 151.8484z" /></clipPath><clipPath id="85"><path id="" clip-rule="evenodd" transform="matrix(1 0 0 1 0 0)" d="M182.52 447.75L470.5231 447.75L470.5231 447.75L470.5231 406.4998L470.5231 406.4998L182.52 406.4998z" /></clipPath><clipPath id="86"><path id="" clip-rule="evenodd" transform="matrix(1 0 0 1 0 0)" d="M266.52 508L367.8198 508L367.8198 508L367.8198 489.2999L367.8198 489.2999L266.52 489.2999z" /></clipPath><clipPath id="87"><path id="" clip-rule="evenodd" transform="matrix(1 0 0 1 0 0)" d="M331.07 561.05L468.3641 561.05L468.3641 561.05L468.3641 524.3005L468.3641 524.3005L331.07 524.3005z" /></clipPath><clipPath id="88"><path id="" clip-rule="evenodd" transform="matrix(1 0 0 1 0 0)" d="M104.02 655.1L533.6306 655.1L533.6306 655.1L533.6306 579.9975L533.6306 579.9975L104.02 579.9975z" /></clipPath><clipPath id="89"><path id="" clip-rule="evenodd" transform="matrix(1 0 0 1 0 0)" d="M279.47 696.9L356.0204 696.9L356.0204 696.9L356.0204 654.8994L356.0204 654.8994L279.47 654.8994z" /></clipPath><clipPath id="90"><path id="" clip-rule="evenodd" transform="matrix(1 0 0 1 0 0)" d="M286.22 760.5L349.3218 760.5L349.3218 760.5L349.3218 722.3011L349.3218 722.3011L286.22 722.3011z" /></clipPath></defs><g transform="matrix(1.333333 0 0 1.333333 0 0)"><g clip-path="url(#1)"><g clip-path="url(#2)"><g clip-path="url(#3)"></g><g clip-path="url(#4)"></g></g><g clip-path="url(#5)"><g clip-path="url(#6)"></g><g clip-path="url(#7)"></g></g><g clip-path="url(#8)"><g clip-path="url(#9)"></g><g clip-path="url(#10)"></g><g clip-path="url(#11)"></g></g><g clip-path="url(#12)"><g clip-path="url(#13)"></g><g clip-path="url(#14)"></g><g clip-path="url(#15)"></g></g><g clip-path="url(#16)"><g clip-path="url(#17)"></g><g clip-path="url(#18)"></g><g clip-path="url(#19)"></g></g><g clip-path="url(#20)"><g clip-path="url(#21)"></g><g clip-path="url(#22)"></g></g><g clip-path="url(#23)"><g clip-path="url(#24)"></g></g><path id="12" transform="matrix(1 0 0 -1 0 841)" d="M85.944 784.54L86.664 784.54L86.664 784.54L86.664 785.2599L86.664 785.2599L85.944 785.2599z" stroke="none" fill="#000000" fill-rule="evenodd" /><path id="13" transform="matrix(1 0 0 -1 0 841)" d="M85.944 784.54L86.664 784.54L86.664 784.54L86.664 785.2599L86.664 785.2599L85.944 785.2599z" stroke="none" fill="#000000" fill-rule="evenodd" /><path id="14" transform="matrix(1 0 0 -1 0 841)" d="M86.664 784.54L156.792 784.54L156.792 784.54L156.792 785.2599L156.792 785.2599L86.664 785.2599z" stroke="none" fill="#000000" fill-rule="evenodd" /><path id="15" transform="matrix(1 0 0 -1 0 841)" d="M156.79 784.54L157.51 784.54L157.51 784.54L157.51 785.2599L157.51 785.2599L156.79 785.2599z" stroke="none" fill="#000000" fill-rule="evenodd" /><path id="16" transform="matrix(1 0 0 -1 0 841)" d="M157.51 784.54L212.23 784.54L212.23 784.54L212.23 785.2599L212.23 785.2599L157.51 785.2599z" stroke="none" fill="#000000" fill-rule="evenodd" /><path id="17" transform="matrix(1 0 0 -1 0 841)" d="M212.23 784.54L212.95 784.54L212.95 784.54L212.95 785.2599L212.95 785.2599L212.23 785.2599z" stroke="none" fill="#000000" fill-rule="evenodd" /><path id="18" transform="matrix(1 0 0 -1 0 841)" d="M212.95 784.54L276.094 784.54L276.094 784.54L276.094 785.2599L276.094 785.2599L212.95 785.2599z" stroke="none" fill="#000000" fill-rule="evenodd" /><path id="19" transform="matrix(1 0 0 -1 0 841)" d="M276.1 784.54L276.82 784.54L276.82 784.54L276.82 785.2599L276.82 785.2599L276.1 785.2599z" stroke="none" fill="#000000" fill-rule="evenodd" /><path id="20" transform="matrix(1 0 0 -1 0 841)" d="M276.82 784.54L339.724 784.54L339.724 784.54L339.724 785.2599L339.724 785.2599L276.82 785.2599z" stroke="none" fill="#000000" fill-rule="evenodd" /><path id="21" transform="matrix(1 0 0 -1 0 841)" d="M339.72 784.54L340.44 784.54L340.44 784.54L340.44 785.2599L340.44 785.2599L339.72 785.2599z" stroke="none" fill="#000000" fill-rule="evenodd" /><path id="22" transform="matrix(1 0 0 -1 0 841)" d="M340.44 784.54L403.584 784.54L403.584 784.54L403.584 785.2599L403.584 785.2599L340.44 785.2599z" stroke="none" fill="#000000" fill-rule="evenodd" /><path id="23" transform="matrix(1 0 0 -1 0 841)" d="M403.58 784.54L404.3 784.54L404.3 784.54L404.3 785.2599L404.3 785.2599L403.58 785.2599z" stroke="none" fill="#000000" fill-rule="evenodd" /><path id="24" transform="matrix(1 0 0 -1 0 841)" d="M404.3 784.54L467.444 784.54L467.444 784.54L467.444 785.2599L467.444 785.2599L404.3 785.2599z" stroke="none" fill="#000000" fill-rule="evenodd" /><path id="25" transform="matrix(1 0 0 -1 0 841)" d="M467.45 784.54L468.17 784.54L468.17 784.54L468.17 785.2599L468.17 785.2599L467.45 785.2599z" stroke="none" fill="#000000" fill-rule="evenodd" /><path id="26" transform="matrix(1 0 0 -1 0 841)" d="M468.17 784.54L524.114 784.54L524.114 784.54L524.114 785.2599L524.114 785.2599L468.17 785.2599z" stroke="none" fill="#000000" fill-rule="evenodd" /><path id="27" transform="matrix(1 0 0 -1 0 841)" d="M524.11 784.54L524.83 784.54L524.83 784.54L524.83 785.2599L524.83 785.2599L524.11 785.2599z" stroke="none" fill="#000000" fill-rule="evenodd" /><path id="28" transform="matrix(1 0 0 -1 0 841)" d="M524.11 784.54L524.83 784.54L524.83 784.54L524.83 785.2599L524.83 785.2599L524.11 785.2599z" stroke="none" fill="#000000" fill-rule="evenodd" /><path id="29" transform="matrix(1 0 0 -1 0 841)" d="M85.944 768.46L86.664 768.46L86.664 768.46L86.664 784.54L86.664 784.54L85.944 784.54z" stroke="none" fill="#000000" fill-rule="evenodd" /><path id="30" transform="matrix(1 0 0 -1 0 841)" d="M156.79 768.46L157.51 768.46L157.51 768.46L157.51 784.54L157.51 784.54L156.79 784.54z" stroke="none" fill="#000000" fill-rule="evenodd" /><path id="31" transform="matrix(1 0 0 -1 0 841)" d="M212.23 768.46L212.95 768.46L212.95 768.46L212.95 784.54L212.95 784.54L212.23 784.54z" stroke="none" fill="#000000" fill-rule="evenodd" /><path id="32" transform="matrix(1 0 0 -1 0 841)" d="M276.1 768.46L276.82 768.46L276.82 768.46L276.82 784.54L276.82 784.54L276.1 784.54z" stroke="none" fill="#000000" fill-rule="evenodd" /><path id="33" transform="matrix(1 0 0 -1 0 841)" d="M339.72 768.46L340.44 768.46L340.44 768.46L340.44 784.54L340.44 784.54L339.72 784.54z" stroke="none" fill="#000000" fill-rule="evenodd" /><path id="34" transform="matrix(1 0 0 -1 0 841)" d="M403.58 768.46L404.3 768.46L404.3 768.46L404.3 784.54L404.3 784.54L403.58 784.54z" stroke="none" fill="#000000" fill-rule="evenodd" /><path id="35" transform="matrix(1 0 0 -1 0 841)" d="M467.45 768.46L468.17 768.46L468.17 768.46L468.17 784.54L468.17 784.54L467.45 784.54z" stroke="none" fill="#000000" fill-rule="evenodd" /><path id="36" transform="matrix(1 0 0 -1 0 841)" d="M524.11 768.46L524.83 768.46L524.83 768.46L524.83 784.54L524.83 784.54L524.11 784.54z" stroke="none" fill="#000000" fill-rule="evenodd" /><g clip-path="url(#25)"><g clip-path="url(#26)"></g><g clip-path="url(#27)"></g></g><g clip-path="url(#28)"><g clip-path="url(#29)"></g><g clip-path="url(#30)"></g></g><g clip-path="url(#31)"><g clip-path="url(#32)"></g><g clip-path="url(#33)"></g><g clip-path="url(#34)"></g></g><g clip-path="url(#35)"><g clip-path="url(#36)"></g><g clip-path="url(#37)"></g><g clip-path="url(#38)"></g></g><g clip-path="url(#39)"><g clip-path="url(#40)"></g><g clip-path="url(#41)"></g><g clip-path="url(#42)"></g></g><g clip-path="url(#43)"><g clip-path="url(#44)"></g></g><g clip-path="url(#45)"><g clip-path="url(#46)"></g></g><path id="48" transform="matrix(1 0 0 -1 0 841)" d="M85.944 767.74L86.664 767.74L86.664 767.74L86.664 768.46L86.664 768.46L85.944 768.46z" stroke="none" fill="#000000" fill-rule="evenodd" /><path id="49" transform="matrix(1 0 0 -1 0 841)" d="M86.664 767.74L156.792 767.74L156.792 767.74L156.792 768.46L156.792 768.46L86.664 768.46z" stroke="none" fill="#000000" fill-rule="evenodd" /><path id="50" transform="matrix(1 0 0 -1 0 841)" d="M156.79 767.74L157.51 767.74L157.51 767.74L157.51 768.46L157.51 768.46L156.79 768.46z" stroke="none" fill="#000000" fill-rule="evenodd" /><path id="51" transform="matrix(1 0 0 -1 0 841)" d="M157.51 767.74L212.23 767.74L212.23 767.74L212.23 768.46L212.23 768.46L157.51 768.46z" stroke="none" fill="#000000" fill-rule="evenodd" /><path id="52" transform="matrix(1 0 0 -1 0 841)" d="M212.23 767.74L212.95 767.74L212.95 767.74L212.95 768.46L212.95 768.46L212.23 768.46z" stroke="none" fill="#000000" fill-rule="evenodd" /><path id="53" transform="matrix(1 0 0 -1 0 841)" d="M212.95 767.74L276.094 767.74L276.094 767.74L276.094 768.46L276.094 768.46L212.95 768.46z" stroke="none" fill="#000000" fill-rule="evenodd" /><path id="54" transform="matrix(1 0 0 -1 0 841)" d="M276.1 767.74L276.82 767.74L276.82 767.74L276.82 768.46L276.82 768.46L276.1 768.46z" stroke="none" fill="#000000" fill-rule="evenodd" /><path id="55" transform="matrix(1 0 0 -1 0 841)" d="M276.82 767.74L339.724 767.74L339.724 767.74L339.724 768.46L339.724 768.46L276.82 768.46z" stroke="none" fill="#000000" fill-rule="evenodd" /><path id="56" transform="matrix(1 0 0 -1 0 841)" d="M339.72 767.74L340.44 767.74L340.44 767.74L340.44 768.46L340.44 768.46L339.72 768.46z" stroke="none" fill="#000000" fill-rule="evenodd" /><path id="57" transform="matrix(1 0 0 -1 0 841)" d="M340.44 767.74L403.584 767.74L403.584 767.74L403.584 768.46L403.584 768.46L340.44 768.46z" stroke="none" fill="#000000" fill-rule="evenodd" /><path id="58" transform="matrix(1 0 0 -1 0 841)" d="M403.58 767.74L404.3 767.74L404.3 767.74L404.3 768.46L404.3 768.46L403.58 768.46z" stroke="none" fill="#000000" fill-rule="evenodd" /><path id="59" transform="matrix(1 0 0 -1 0 841)" d="M404.3 767.74L467.444 767.74L467.444 767.74L467.444 768.46L467.444 768.46L404.3 768.46z" stroke="none" fill="#000000" fill-rule="evenodd" /><path id="60" transform="matrix(1 0 0 -1 0 841)" d="M467.45 767.74L468.17 767.74L468.17 767.74L468.17 768.46L468.17 768.46L467.45 768.46z" stroke="none" fill="#000000" fill-rule="evenodd" /><path id="61" transform="matrix(1 0 0 -1 0 841)" d="M468.17 767.74L524.114 767.74L524.114 767.74L524.114 768.46L524.114 768.46L468.17 768.46z" stroke="none" fill="#000000" fill-rule="evenodd" /><path id="62" transform="matrix(1 0 0 -1 0 841)" d="M524.11 767.74L524.83 767.74L524.83 767.74L524.83 768.46L524.83 768.46L524.11 768.46z" stroke="none" fill="#000000" fill-rule="evenodd" /><path id="63" transform="matrix(1 0 0 -1 0 841)" d="M85.944 751.42L86.664 751.42L86.664 751.42L86.664 767.74L86.664 767.74L85.944 767.74z" stroke="none" fill="#000000" fill-rule="evenodd" /><path id="64" transform="matrix(1 0 0 -1 0 841)" d="M156.79 751.42L157.51 751.42L157.51 751.42L157.51 767.74L157.51 767.74L156.79 767.74z" stroke="none" fill="#000000" fill-rule="evenodd" /><path id="65" transform="matrix(1 0 0 -1 0 841)" d="M212.23 751.42L212.95 751.42L212.95 751.42L212.95 767.74L212.95 767.74L212.23 767.74z" stroke="none" fill="#000000" fill-rule="evenodd" /><path id="66" transform="matrix(1 0 0 -1 0 841)" d="M276.1 751.42L276.82 751.42L276.82 751.42L276.82 767.74L276.82 767.74L276.1 767.74z" stroke="none" fill="#000000" fill-rule="evenodd" /><path id="67" transform="matrix(1 0 0 -1 0 841)" d="M339.72 751.42L340.44 751.42L340.44 751.42L340.44 767.74L340.44 767.74L339.72 767.74z" stroke="none" fill="#000000" fill-rule="evenodd" /><path id="68" transform="matrix(1 0 0 -1 0 841)" d="M403.58 751.42L404.3 751.42L404.3 751.42L404.3 767.74L404.3 767.74L403.58 767.74z" stroke="none" fill="#000000" fill-rule="evenodd" /><path id="69" transform="matrix(1 0 0 -1 0 841)" d="M467.45 751.42L468.17 751.42L468.17 751.42L468.17 767.74L468.17 767.74L467.45 767.74z" stroke="none" fill="#000000" fill-rule="evenodd" /><path id="70" transform="matrix(1 0 0 -1 0 841)" d="M524.11 751.42L524.83 751.42L524.83 751.42L524.83 767.74L524.83 767.74L524.11 767.74z" stroke="none" fill="#000000" fill-rule="evenodd" /><g clip-path="url(#47)"><g clip-path="url(#48)"></g><g clip-path="url(#49)"></g></g><g clip-path="url(#50)"><g clip-path="url(#51)"></g><g clip-path="url(#52)"></g></g><g clip-path="url(#53)"><g clip-path="url(#54)"></g><g clip-path="url(#55)"></g></g><g clip-path="url(#56)"><g clip-path="url(#57)"></g><g clip-path="url(#58)"></g><g clip-path="url(#59)"></g></g><g clip-path="url(#60)"><g clip-path="url(#61)"></g></g><g clip-path="url(#62)"><g clip-path="url(#63)"></g></g><g clip-path="url(#64)"><g clip-path="url(#65)"></g></g><path id="80" transform="matrix(1 0 0 -1 0 841)" d="M85.944 750.7L86.664 750.7L86.664 750.7L86.664 751.42L86.664 751.42L85.944 751.42z" stroke="none" fill="#000000" fill-rule="evenodd" /><path id="81" transform="matrix(1 0 0 -1 0 841)" d="M86.664 750.7L156.792 750.7L156.792 750.7L156.792 751.42L156.792 751.42L86.664 751.42z" stroke="none" fill="#000000" fill-rule="evenodd" /><path id="82" transform="matrix(1 0 0 -1 0 841)" d="M156.79 750.7L157.51 750.7L157.51 750.7L157.51 751.42L157.51 751.42L156.79 751.42z" stroke="none" fill="#000000" fill-rule="evenodd" /><path id="83" transform="matrix(1 0 0 -1 0 841)" d="M157.51 750.7L212.23 750.7L212.23 750.7L212.23 751.42L212.23 751.42L157.51 751.42z" stroke="none" fill="#000000" fill-rule="evenodd" /><path id="84" transform="matrix(1 0 0 -1 0 841)" d="M212.23 750.7L212.95 750.7L212.95 750.7L212.95 751.42L212.95 751.42L212.23 751.42z" stroke="none" fill="#000000" fill-rule="evenodd" /><path id="85" transform="matrix(1 0 0 -1 0 841)" d="M212.95 750.7L276.094 750.7L276.094 750.7L276.094 751.42L276.094 751.42L212.95 751.42z" stroke="none" fill="#000000" fill-rule="evenodd" /><path id="86" transform="matrix(1 0 0 -1 0 841)" d="M276.1 750.7L276.82 750.7L276.82 750.7L276.82 751.42L276.82 751.42L276.1 751.42z" stroke="none" fill="#000000" fill-rule="evenodd" /><path id="87" transform="matrix(1 0 0 -1 0 841)" d="M276.82 750.7L339.724 750.7L339.724 750.7L339.724 751.42L339.724 751.42L276.82 751.42z" stroke="none" fill="#000000" fill-rule="evenodd" /><path id="88" transform="matrix(1 0 0 -1 0 841)" d="M339.72 750.7L340.44 750.7L340.44 750.7L340.44 751.42L340.44 751.42L339.72 751.42z" stroke="none" fill="#000000" fill-rule="evenodd" /><path id="89" transform="matrix(1 0 0 -1 0 841)" d="M340.44 750.7L403.584 750.7L403.584 750.7L403.584 751.42L403.584 751.42L340.44 751.42z" stroke="none" fill="#000000" fill-rule="evenodd" /><path id="90" transform="matrix(1 0 0 -1 0 841)" d="M403.58 750.7L404.3 750.7L404.3 750.7L404.3 751.42L404.3 751.42L403.58 751.42z" stroke="none" fill="#000000" fill-rule="evenodd" /><path id="91" transform="matrix(1 0 0 -1 0 841)" d="M404.3 750.7L467.444 750.7L467.444 750.7L467.444 751.42L467.444 751.42L404.3 751.42z" stroke="none" fill="#000000" fill-rule="evenodd" /><path id="92" transform="matrix(1 0 0 -1 0 841)" d="M467.45 750.7L468.17 750.7L468.17 750.7L468.17 751.42L468.17 751.42L467.45 751.42z" stroke="none" fill="#000000" fill-rule="evenodd" /><path id="93" transform="matrix(1 0 0 -1 0 841)" d="M468.17 750.7L524.114 750.7L524.114 750.7L524.114 751.42L524.114 751.42L468.17 751.42z" stroke="none" fill="#000000" fill-rule="evenodd" /><path id="94" transform="matrix(1 0 0 -1 0 841)" d="M524.11 750.7L524.83 750.7L524.83 750.7L524.83 751.42L524.83 751.42L524.11 751.42z" stroke="none" fill="#000000" fill-rule="evenodd" /><path id="95" transform="matrix(1 0 0 -1 0 841)" d="M85.944 734.62L86.664 734.62L86.664 734.62L86.664 750.7L86.664 750.7L85.944 750.7z" stroke="none" fill="#000000" fill-rule="evenodd" /><path id="96" transform="matrix(1 0 0 -1 0 841)" d="M156.79 734.62L157.51 734.62L157.51 734.62L157.51 750.7L157.51 750.7L156.79 750.7z" stroke="none" fill="#000000" fill-rule="evenodd" /><path id="97" transform="matrix(1 0 0 -1 0 841)" d="M212.23 734.62L212.95 734.62L212.95 734.62L212.95 750.7L212.95 750.7L212.23 750.7z" stroke="none" fill="#000000" fill-rule="evenodd" /><path id="98" transform="matrix(1 0 0 -1 0 841)" d="M276.1 734.62L276.82 734.62L276.82 734.62L276.82 750.7L276.82 750.7L276.1 750.7z" stroke="none" fill="#000000" fill-rule="evenodd" /><path id="99" transform="matrix(1 0 0 -1 0 841)" d="M339.72 734.62L340.44 734.62L340.44 734.62L340.44 750.7L340.44 750.7L339.72 750.7z" stroke="none" fill="#000000" fill-rule="evenodd" /><path id="100" transform="matrix(1 0 0 -1 0 841)" d="M403.58 734.62L404.3 734.62L404.3 734.62L404.3 750.7L404.3 750.7L403.58 750.7z" stroke="none" fill="#000000" fill-rule="evenodd" /><path id="101" transform="matrix(1 0 0 -1 0 841)" d="M467.45 734.62L468.17 734.62L468.17 734.62L468.17 750.7L468.17 750.7L467.45 750.7z" stroke="none" fill="#000000" fill-rule="evenodd" /><path id="102" transform="matrix(1 0 0 -1 0 841)" d="M524.11 734.62L524.83 734.62L524.83 734.62L524.83 750.7L524.83 750.7L524.11 750.7z" stroke="none" fill="#000000" fill-rule="evenodd" /><g clip-path="url(#66)"><g clip-path="url(#67)"></g><g clip-path="url(#68)"></g></g><g clip-path="url(#69)"><g clip-path="url(#70)"></g><g clip-path="url(#71)"></g></g><g clip-path="url(#72)"><g clip-path="url(#73)"></g><g clip-path="url(#74)"></g><g clip-path="url(#75)"></g></g><g clip-path="url(#76)"><g clip-path="url(#77)"></g></g><g clip-path="url(#78)"><g clip-path="url(#79)"></g></g><g clip-path="url(#80)"><g clip-path="url(#81)"></g></g><g clip-path="url(#82)"><g clip-path="url(#83)"></g></g><path id="110" transform="matrix(1 0 0 -1 0 841)" d="M85.944 733.9L86.664 733.9L86.664 733.9L86.664 734.62L86.664 734.62L85.944 734.62z" stroke="none" fill="#000000" fill-rule="evenodd" /><path id="111" transform="matrix(1 0 0 -1 0 841)" d="M86.664 733.9L156.792 733.9L156.792 733.9L156.792 734.62L156.792 734.62L86.664 734.62z" stroke="none" fill="#000000" fill-rule="evenodd" /><path id="112" transform="matrix(1 0 0 -1 0 841)" d="M156.79 733.9L157.51 733.9L157.51 733.9L157.51 734.62L157.51 734.62L156.79 734.62z" stroke="none" fill="#000000" fill-rule="evenodd" /><path id="113" transform="matrix(1 0 0 -1 0 841)" d="M157.51 733.9L212.23 733.9L212.23 733.9L212.23 734.62L212.23 734.62L157.51 734.62z" stroke="none" fill="#000000" fill-rule="evenodd" /><path id="114" transform="matrix(1 0 0 -1 0 841)" d="M212.23 733.9L212.95 733.9L212.95 733.9L212.95 734.62L212.95 734.62L212.23 734.62z" stroke="none" fill="#000000" fill-rule="evenodd" /><path id="115" transform="matrix(1 0 0 -1 0 841)" d="M212.95 733.9L276.094 733.9L276.094 733.9L276.094 734.62L276.094 734.62L212.95 734.62z" stroke="none" fill="#000000" fill-rule="evenodd" /><path id="116" transform="matrix(1 0 0 -1 0 841)" d="M276.1 733.9L276.82 733.9L276.82 733.9L276.82 734.62L276.82 734.62L276.1 734.62z" stroke="none" fill="#000000" fill-rule="evenodd" /><path id="117" transform="matrix(1 0 0 -1 0 841)" d="M276.82 733.9L339.724 733.9L339.724 733.9L339.724 734.62L339.724 734.62L276.82 734.62z" stroke="none" fill="#000000" fill-rule="evenodd" /><path id="118" transform="matrix(1 0 0 -1 0 841)" d="M339.72 733.9L340.44 733.9L340.44 733.9L340.44 734.62L340.44 734.62L339.72 734.62z" stroke="none" fill="#000000" fill-rule="evenodd" /><path id="119" transform="matrix(1 0 0 -1 0 841)" d="M340.44 733.9L403.584 733.9L403.584 733.9L403.584 734.62L403.584 734.62L340.44 734.62z" stroke="none" fill="#000000" fill-rule="evenodd" /><path id="120" transform="matrix(1 0 0 -1 0 841)" d="M403.58 733.9L404.3 733.9L404.3 733.9L404.3 734.62L404.3 734.62L403.58 734.62z" stroke="none" fill="#000000" fill-rule="evenodd" /><path id="121" transform="matrix(1 0 0 -1 0 841)" d="M404.3 733.9L467.444 733.9L467.444 733.9L467.444 734.62L467.444 734.62L404.3 734.62z" stroke="none" fill="#000000" fill-rule="evenodd" /><path id="122" transform="matrix(1 0 0 -1 0 841)" d="M467.45 733.9L468.17 733.9L468.17 733.9L468.17 734.62L468.17 734.62L467.45 734.62z" stroke="none" fill="#000000" fill-rule="evenodd" /><path id="123" transform="matrix(1 0 0 -1 0 841)" d="M468.17 733.9L524.114 733.9L524.114 733.9L524.114 734.62L524.114 734.62L468.17 734.62z" stroke="none" fill="#000000" fill-rule="evenodd" /><path id="124" transform="matrix(1 0 0 -1 0 841)" d="M524.11 733.9L524.83 733.9L524.83 733.9L524.83 734.62L524.83 734.62L524.11 734.62z" stroke="none" fill="#000000" fill-rule="evenodd" /><path id="125" transform="matrix(1 0 0 -1 0 841)" d="M85.944 717.82L86.664 717.82L86.664 717.82L86.664 733.9L86.664 733.9L85.944 733.9z" stroke="none" fill="#000000" fill-rule="evenodd" /><path id="126" transform="matrix(1 0 0 -1 0 841)" d="M85.944 717.1L86.664 717.1L86.664 717.1L86.664 717.8199L86.664 717.8199L85.944 717.8199z" stroke="none" fill="#000000" fill-rule="evenodd" /><path id="127" transform="matrix(1 0 0 -1 0 841)" d="M85.944 717.1L86.664 717.1L86.664 717.1L86.664 717.8199L86.664 717.8199L85.944 717.8199z" stroke="none" fill="#000000" fill-rule="evenodd" /><path id="128" transform="matrix(1 0 0 -1 0 841)" d="M86.664 717.1L156.792 717.1L156.792 717.1L156.792 717.8199L156.792 717.8199L86.664 717.8199z" stroke="none" fill="#000000" fill-rule="evenodd" /><path id="129" transform="matrix(1 0 0 -1 0 841)" d="M156.79 717.82L157.51 717.82L157.51 717.82L157.51 733.9L157.51 733.9L156.79 733.9z" stroke="none" fill="#000000" fill-rule="evenodd" /><path id="130" transform="matrix(1 0 0 -1 0 841)" d="M156.79 717.1L157.51 717.1L157.51 717.1L157.51 717.8199L157.51 717.8199L156.79 717.8199z" stroke="none" fill="#000000" fill-rule="evenodd" /><path id="131" transform="matrix(1 0 0 -1 0 841)" d="M157.51 717.1L212.23 717.1L212.23 717.1L212.23 717.8199L212.23 717.8199L157.51 717.8199z" stroke="none" fill="#000000" fill-rule="evenodd" /><path id="132" transform="matrix(1 0 0 -1 0 841)" d="M212.23 717.82L212.95 717.82L212.95 717.82L212.95 733.9L212.95 733.9L212.23 733.9z" stroke="none" fill="#000000" fill-rule="evenodd" /><path id="133" transform="matrix(1 0 0 -1 0 841)" d="M212.23 717.1L212.95 717.1L212.95 717.1L212.95 717.8199L212.95 717.8199L212.23 717.8199z" stroke="none" fill="#000000" fill-rule="evenodd" /><path id="134" transform="matrix(1 0 0 -1 0 841)" d="M212.95 717.1L276.094 717.1L276.094 717.1L276.094 717.8199L276.094 717.8199L212.95 717.8199z" stroke="none" fill="#000000" fill-rule="evenodd" /><path id="135" transform="matrix(1 0 0 -1 0 841)" d="M276.1 717.82L276.82 717.82L276.82 717.82L276.82 733.9L276.82 733.9L276.1 733.9z" stroke="none" fill="#000000" fill-rule="evenodd" /><path id="136" transform="matrix(1 0 0 -1 0 841)" d="M276.1 717.1L276.82 717.1L276.82 717.1L276.82 717.8199L276.82 717.8199L276.1 717.8199z" stroke="none" fill="#000000" fill-rule="evenodd" /><path id="137" transform="matrix(1 0 0 -1 0 841)" d="M276.82 717.1L339.724 717.1L339.724 717.1L339.724 717.8199L339.724 717.8199L276.82 717.8199z" stroke="none" fill="#000000" fill-rule="evenodd" /><path id="138" transform="matrix(1 0 0 -1 0 841)" d="M339.72 717.82L340.44 717.82L340.44 717.82L340.44 733.9L340.44 733.9L339.72 733.9z" stroke="none" fill="#000000" fill-rule="evenodd" /><path id="139" transform="matrix(1 0 0 -1 0 841)" d="M339.72 717.1L340.44 717.1L340.44 717.1L340.44 717.8199L340.44 717.8199L339.72 717.8199z" stroke="none" fill="#000000" fill-rule="evenodd" /><path id="140" transform="matrix(1 0 0 -1 0 841)" d="M340.44 717.1L403.584 717.1L403.584 717.1L403.584 717.8199L403.584 717.8199L340.44 717.8199z" stroke="none" fill="#000000" fill-rule="evenodd" /><path id="141" transform="matrix(1 0 0 -1 0 841)" d="M403.58 717.82L404.3 717.82L404.3 717.82L404.3 733.9L404.3 733.9L403.58 733.9z" stroke="none" fill="#000000" fill-rule="evenodd" /><path id="142" transform="matrix(1 0 0 -1 0 841)" d="M403.58 717.1L404.3 717.1L404.3 717.1L404.3 717.8199L404.3 717.8199L403.58 717.8199z" stroke="none" fill="#000000" fill-rule="evenodd" /><path id="143" transform="matrix(1 0 0 -1 0 841)" d="M404.3 717.1L467.444 717.1L467.444 717.1L467.444 717.8199L467.444 717.8199L404.3 717.8199z" stroke="none" fill="#000000" fill-rule="evenodd" /><path id="144" transform="matrix(1 0 0 -1 0 841)" d="M467.45 717.82L468.17 717.82L468.17 717.82L468.17 733.9L468.17 733.9L467.45 733.9z" stroke="none" fill="#000000" fill-rule="evenodd" /><path id="145" transform="matrix(1 0 0 -1 0 841)" d="M467.45 717.1L468.17 717.1L468.17 717.1L468.17 717.8199L468.17 717.8199L467.45 717.8199z" stroke="none" fill="#000000" fill-rule="evenodd" /><path id="146" transform="matrix(1 0 0 -1 0 841)" d="M468.17 717.1L524.114 717.1L524.114 717.1L524.114 717.8199L524.114 717.8199L468.17 717.8199z" stroke="none" fill="#000000" fill-rule="evenodd" /><path id="147" transform="matrix(1 0 0 -1 0 841)" d="M524.11 717.82L524.83 717.82L524.83 717.82L524.83 733.9L524.83 733.9L524.11 733.9z" stroke="none" fill="#000000" fill-rule="evenodd" /><path id="148" transform="matrix(1 0 0 -1 0 841)" d="M524.11 717.1L524.83 717.1L524.83 717.1L524.83 717.8199L524.83 717.8199L524.11 717.8199z" stroke="none" fill="#000000" fill-rule="evenodd" /><path id="149" transform="matrix(1 0 0 -1 0 841)" d="M524.11 717.1L524.83 717.1L524.83 717.1L524.83 717.8199L524.83 717.8199L524.11 717.8199z" stroke="none" fill="#000000" fill-rule="evenodd" /><g clip-path="url(#84)"><path id="196" transform="matrix(1 0 0 -1 0 841)" d="M249.0643 665.7092L273.0315 665.7092" stroke="#000000" stroke-width="0.4639907" fill="none" /><path id="197" transform="matrix(1 0 0 -1 0 841)" d="M333.0201 665.7092L362.6987 665.7092" stroke="#000000" stroke-width="0.4639907" fill="none" /><path id="198" transform="matrix(1 0 0 -1 0 841)" d="M130.1888 620.519L159.235 620.519" stroke="#000000" stroke-width="0.4639907" fill="none" /><path id="199" transform="matrix(1 0 0 -1 0 841)" d="M305.5564 620.519L335.2255 620.519" stroke="#000000" stroke-width="0.4639907" fill="none" /><path id="200" transform="matrix(1 0 0 -1 0 841)" d="M157.17 580.0442L171.2289 580.0442" stroke="#000000" stroke-width="0.4639907" fill="none" /><path id="201" transform="matrix(1 0 0 -1 0 841)" d="M223.919 580.0442L260.7322 580.0442" stroke="#000000" stroke-width="0.4639907" fill="none" /><path id="202" transform="matrix(1 0 0 -1 0 841)" d="M357.1004 580.0442L393.0653 580.0442" stroke="#000000" stroke-width="0.4639907" fill="none" /></g><g clip-path="url(#85)"></g><g clip-path="url(#86)"></g><g clip-path="url(#87)"><path id="828" transform="matrix(1 0 0 -1 0 841)" d="M359.1816 297.6422L415.9458 297.6422" stroke="#000000" stroke-width="0.4906095" fill="none" /><path id="829" transform="matrix(1 0 0 -1 0 841)" d="M430.4924 297.6422L465.4742 297.6422" stroke="#000000" stroke-width="0.4906095" fill="none" /></g><g clip-path="url(#88)"><path id="859" transform="matrix(1 0 0 -1 0 841)" d="M246.0724 241.6771L281.5731 241.6771" stroke="#000000" stroke-width="0.4913499" fill="none" /><path id="860" transform="matrix(1 0 0 -1 0 841)" d="M205.7013 203.5883L241.2319 203.5883" stroke="#000000" stroke-width="0.4913499" fill="none" /></g><g clip-path="url(#89)"><path id="956" transform="matrix(1 0 0 -1 0 841)" d="M309.6163 163.5796L353.6522 163.5796" stroke="#000000" stroke-width="0.4933951" fill="none" /></g><g clip-path="url(#90)"><path id="1021" transform="matrix(1 0 0 -1 0 841)" d="M312.4527 98.20871L346.5587 98.20871" stroke="#000000" stroke-width="0.684552" fill="none" /></g></g></g></svg>